<?xml version="1.0" encoding="utf-8"?>
<!-- Generator: Adobe Illustrator 20.1.0, SVG Export Plug-In . SVG Version: 6.00 Build 0)  -->
<svg version="1.1" id="Layer_1" xmlns="http://www.w3.org/2000/svg" xmlns:xlink="http://www.w3.org/1999/xlink" x="0px" y="0px"
	 viewBox="0 0 251.7 85" style="enable-background:new 0 0 251.7 85;" xml:space="preserve">
<g id="XMLID_9_">
	<g id="XMLID_69_">
		<g id="XMLID_70_">
			<g id="XMLID_72_">
				<path id="XMLID_7_" d="M8.6,49h0.3c1,0,1.8-0.8,1.8-1.8V15c0-1-0.8-1.8-1.8-1.8H8.6c-1,0-1.8,0.8-1.8,1.8v32.2
					C6.8,48.2,7.6,49,8.6,49z"/>
				<path id="XMLID_6_" d="M28.9,49h0.3c1,0,1.8-0.8,1.8-1.8V15c0-1-0.8-1.8-1.8-1.8h-0.3c-1,0-1.8,0.8-1.8,1.8v32.2
					C27.1,48.2,27.9,49,28.9,49z"/>
				<path id="XMLID_5_" d="M15.4,49h0.3c1,0,1.8-0.8,1.8-1.8V1.8c0-1-0.8-1.8-1.8-1.8h-0.3c-1,0-1.8,0.8-1.8,1.8v45.4
					C13.6,48.2,14.4,49,15.4,49z"/>
				<path id="XMLID_4_" d="M22.1,49h0.3c1,0,1.8-0.8,1.8-1.8V9.1c0-1-0.8-1.8-1.8-1.8h-0.3c-1,0-1.8,0.8-1.8,1.8v38.2
					C20.3,48.2,21.2,49,22.1,49z"/>
				<path id="XMLID_2_" d="M33.7,27.2l-0.1,0v4l0.1,0c5.8,1.1,11,4.1,14.7,8.6c3.7,4.5,5.8,10.2,5.8,16.1C54.2,69.7,42.9,81,29.1,81
					C15.2,81,4,69.7,4,55.9v-0.1H3.9V28.9c0-1-0.8-1.8-1.8-1.8H1.8c-1,0-1.8,0.8-1.8,1.8v26.9c0,0.2,0,0.3,0.1,0.5
					c0.1,7.6,3.2,14.8,8.6,20.2c5.5,5.4,12.7,8.4,20.4,8.4c16,0,29-13,29-29C58.1,41.5,47.9,29.5,33.7,27.2z"/>
			</g>
			<path id="XMLID_1_" d="M46.2,58.2c-1-0.1-1.9,0.5-2.1,1.5c-1.8,7.2-8,9.9-11,10.9c-0.9,0.3-1.4,1.2-1.3,2.1
				c0.2,1.1,1.4,1.9,2.5,1.5c3.7-1.2,11.3-4.7,13.6-13.6C48.1,59.4,47.3,58.4,46.2,58.2z"/>
		</g>
	</g>
	<g id="XMLID_3_">
		<g id="XMLID_38_">
			<g id="XMLID_56_">
				<path id="XMLID_64_" d="M211,85h-0.2c-0.7,0-1.3-0.6-1.3-1.4c0-0.8,0.6-1.4,1.3-1.4h0.2c0.7,0,1.3,0.6,1.3,1.4
					C212.3,84.4,211.7,85,211,85z"/>
				<path id="XMLID_62_" d="M219.6,84.9c-1.4,0-2.7-0.5-3.7-1.5c-1-1-1.6-2.3-1.6-3.8c0-1.4,0.5-2.8,1.5-3.8c1-1,2.3-1.6,3.7-1.6
					c1.4,0,2.8,0.5,3.8,1.5c0.5,0.5,0.5,1.3,0,1.8c-0.5,0.5-1.3,0.5-1.8,0c-0.5-0.5-1.2-0.8-2-0.8c-0.7,0-1.4,0.3-2,0.9
					c-0.5,0.5-0.8,1.2-0.8,2c0,0.7,0.3,1.5,0.9,1.9c0.5,0.5,1.2,0.8,2,0.8c0.7,0,1.4-0.3,1.9-0.7c0.5-0.5,1.3-0.4,1.8,0.1
					c0.5,0.5,0.4,1.3-0.1,1.8C222.3,84.4,221,84.9,219.6,84.9L219.6,84.9z"/>
				<path id="XMLID_59_" d="M230.5,85c-3,0-5.4-2.4-5.4-5.4c0-3,2.4-5.4,5.4-5.4c3,0,5.4,2.4,5.4,5.4C235.9,82.6,233.4,85,230.5,85z
					 M230.5,76.8c-1.5,0-2.7,1.2-2.7,2.7s1.2,2.7,2.7,2.7s2.7-1.2,2.7-2.7S232,76.8,230.5,76.8z"/>
				<path id="XMLID_57_" d="M251.7,78.4C251.7,78.5,251.7,78.5,251.7,78.4v5.3c0,0.7-0.6,1.3-1.3,1.3c-0.7,0-1.3-0.6-1.3-1.3v-5.2
					v-0.1c0,0,0,0,0-0.1c0-0.8-0.7-1.5-1.6-1.5c-0.9,0-1.7,0.6-1.7,1.5v0.1c0,0,0,0.1,0,0.1v5.2c0,0.7-0.6,1.3-1.3,1.3
					c-0.7,0-1.3-0.6-1.3-1.3v-5.2v-0.1c0,0,0,0,0-0.1c0-0.8-0.7-1.5-1.7-1.5c-0.9,0-1.7,0.6-1.7,1.5v5.4c0,0.7-0.6,1.3-1.3,1.3
					c-0.7,0-1.3-0.6-1.3-1.3v-8.2c0-0.7,0.6-1.3,1.3-1.3c0.4,0,0.8,0.2,1,0.5c0.6-0.3,1.3-0.5,2-0.5c1.1,0,2.2,0.4,3,1.2
					c0.7-0.7,1.8-1.2,3-1.2C249.8,74.3,251.7,76.2,251.7,78.4L251.7,78.4z"/>
			</g>
			<g id="XMLID_39_">
				<path id="XMLID_54_" d="M106.2,70c-2,0-3.5-1.6-3.5-3.5V44.7c0-1.9,1.6-3.4,3.5-3.4c1.9,0,3.4,1.5,3.4,3.4v21.7
					C109.7,68.4,108.1,70,106.2,70z"/>
				<path id="XMLID_51_" d="M142.6,44.8v25.5c0,8-6.5,14.5-14.5,14.5c-4.2,0-8.2-1.8-11-5c-1.2-1.5-1.1-3.7,0.4-4.8
					c1.4-1.3,3.6-1.1,4.8,0.3c1.4,1.7,3.5,2.6,5.7,2.6c4.2,0,7.6-3.4,7.6-7.6v-2.5c-2.1,1.2-4.6,2-7.2,2c-7.8,0-14.1-6.3-14.1-14.1
					c0-7.8,6.4-14.1,14.1-14.1c2.6,0,5.2,0.7,7.3,2.1c0.5-1.4,1.7-2.4,3.3-2.4C141.1,41.4,142.6,43,142.6,44.8z M135.8,55.8
					c0-4-3.2-7.2-7.2-7.2c-4,0-7.2,3.2-7.2,7.2c0,3.9,3.2,7.2,7.2,7.2C132.5,63,135.8,59.7,135.8,55.8z"/>
				<path id="XMLID_48_" d="M176.8,55.6c0,7.9-6.4,14.3-14.3,14.3c-3,0-5.8-0.9-8.1-2.5c-0.5,1.4-1.7,2.4-3.3,2.4
					c-1.9,0-3.4-1.5-3.4-3.4V30.6c0-1.9,1.5-3.4,3.4-3.4c1.9,0,3.4,1.6,3.4,3.4v13.2c2.3-1.5,5-2.4,7.9-2.4
					C170.4,41.4,176.8,47.8,176.8,55.6z M170,55.6c0-4.1-3.4-7.4-7.4-7.4c-4.1,0-7.4,3.3-7.4,7.4c0,4.1,3.3,7.4,7.4,7.4
					C166.6,63.1,170,59.8,170,55.6z"/>
				<path id="XMLID_45_" d="M98,55.6c0,7.9-6.4,14.3-14.3,14.3c-3,0-5.8-0.9-8.1-2.5c-0.5,1.4-1.7,2.4-3.3,2.4
					c-1.9,0-3.4-1.5-3.4-3.4V30.6c0-1.9,1.5-3.4,3.4-3.4c1.9,0,3.4,1.6,3.4,3.4v13.2c2.3-1.5,5-2.4,7.9-2.4
					C91.6,41.4,98,47.8,98,55.6z M91.2,55.6c0-4.1-3.4-7.4-7.4-7.4c-4.1,0-7.4,3.3-7.4,7.4c0,4.1,3.3,7.4,7.4,7.4
					C87.8,63.1,91.2,59.8,91.2,55.6z"/>
				<path id="XMLID_42_" d="M195.3,69.8c-7.8,0-14.1-6.3-14.1-14.1c0-7.8,6.4-14.1,14.1-14.1c7.8,0,14.1,6.4,14.2,14.2
					C209.5,63.5,203.1,69.8,195.3,69.8z M195.3,48.5c-4,0-7.2,3.2-7.2,7.2s3.2,7.2,7.2,7.2s7.2-3.2,7.2-7.2S199.3,48.5,195.3,48.5z"
					/>
				<path id="XMLID_40_" d="M251.7,52.7c0,0.1,0,0.2,0,0.2v13.6c0,1.9-1.5,3.4-3.3,3.4c-1.9,0-3.4-1.5-3.4-3.4V52.9v-0.2
					c0-0.1,0-0.1,0-0.2c0-2.2-2-3.9-4.3-3.9c-2.5,0-4.4,1.7-4.4,3.9v0.2c0,0.1,0,0.2,0,0.2v13.6c0,1.9-1.5,3.4-3.3,3.4
					c-1.9,0-3.4-1.5-3.4-3.4V52.9v-0.2c0-0.1,0-0.1,0-0.2c0-2.2-2-3.9-4.4-3.9s-4.4,1.7-4.4,3.9v14.2c0,1.8-1.5,3.3-3.4,3.3
					c-1.8,0-3.4-1.5-3.4-3.3V45.2c0-1.9,1.6-3.4,3.4-3.4c1.1,0,2.1,0.6,2.6,1.4c1.6-0.8,3.3-1.2,5.2-1.2c3,0,5.7,1.1,7.8,3
					c2-1.9,4.7-3,7.8-3c6,0,11,4.8,11,10.6V52.7z"/>
			</g>
		</g>
	</g>
</g>
</svg>