<?xml version="1.0" encoding="UTF-8"?>
<svg width="19px" height="24px" viewBox="0 0 19 24" version="1.1" xmlns="http://www.w3.org/2000/svg" xmlns:xlink="http://www.w3.org/1999/xlink">
    <!-- Generator: Sketch 48.2 (47327) - http://www.bohemiancoding.com/sketch -->
    <title>home_top_ic_download_appstore@2x</title>
    <desc>Created with Sketch.</desc>
    <defs></defs>
    <g id="Landing_Page_image" stroke="none" stroke-width="1" fill="none" fill-rule="evenodd" transform="translate(-146.000000, -574.000000)">
        <g id="landing_page_top" fill="#FFFFFF" fill-rule="nonzero">
            <g id="home_top_btn_download_appstore" transform="translate(110.000000, 563.000000)">
                <g id="home_top_ic_download_appstore" transform="translate(36.000000, 11.000000)">
                    <g>
                        <path d="M15.99671,12.88935 C16.0194402,11.1251965 16.94431,9.4956559 18.44729,8.57164 C17.4948204,7.211346 15.9566895,6.37981052 14.2969,6.32788 C12.55066,6.14458 10.85777,7.3728 9.9679,7.3728 C9.06083,7.3728 7.69077,6.34608 6.21543,6.37643 C4.27427913,6.43914505 2.50846997,7.5160473 1.56406,9.21313 C-0.44705,12.69513 1.05306,17.81252 2.97957,20.62713 C3.94345,22.00536 5.06994,23.54487 6.54395,23.49028 C7.98635,23.43045 8.52506,22.57051 10.26615,22.57051 C11.99109,22.57051 12.4965,23.49028 14.00042,23.45557 C15.54819,23.43045 16.52334,22.07122 17.45342,20.67994 C18.1459669,19.6979035 18.6788802,18.6125388 19.03242,17.46405 C17.1941431,16.6865494 15.9988493,14.885287 15.99671,12.88935 Z" id="_Path_"></path>
                        <path d="M13.15611,4.47681 C14.000021,3.46373521 14.4157857,2.16159511 14.31511,0.84692 C13.0258135,0.982334929 11.8348645,1.59853425 10.97956,2.57274 C10.134985,3.53392609 9.70712564,4.79141544 9.79022,6.06824 C11.0967983,6.08168935 12.3373661,5.49513519 13.15611,4.47681 Z" id="_Path_2"></path>
                    </g>
                </g>
            </g>
        </g>
    </g>
</svg>