<?xml version="1.0" encoding="UTF-8"?>
<svg width="19px" height="21px" viewBox="0 0 19 21" version="1.1" xmlns="http://www.w3.org/2000/svg" xmlns:xlink="http://www.w3.org/1999/xlink">
    <!-- Generator: Sketch 48.2 (47327) - http://www.bohemiancoding.com/sketch -->
    <title>home_top_ic_download_googleplay@2x</title>
    <desc>Created with Sketch.</desc>
    <defs></defs>
    <g id="Landing_Page_image" stroke="none" stroke-width="1" fill="none" fill-rule="evenodd" transform="translate(-344.000000, -577.000000)">
        <g id="landing_page_top" fill="#229CFF">
            <g id="home_top_btn_download_googleplay" transform="translate(316.000000, 563.000000)">
                <g id="home_top_ic_download_googleplay" transform="translate(28.000000, 14.000000)">
                    <g id="Combined-Shape">
                        <path d="M14.0804714,7.1220687 L11.4687834,9.78185156 L2.26307011,0.406612788 L14.0804714,7.1220687 Z M14.9857225,7.6364943 L18.494646,9.63050468 C18.9748157,9.90336997 19.1428692,10.5138255 18.8700039,10.9939952 C18.7809847,11.1506451 18.6512958,11.2803339 18.494646,11.3693531 L14.9856012,13.3634324 L12.1739708,10.5000251 L14.9857225,7.6364943 Z M2.2634976,20.5930021 L11.4687834,11.2181987 L14.0803502,13.877858 L2.2634976,20.5930021 Z M0.45437143,20.9990966 C0.32450549,20.9147207 0.212372429,20.7988278 0.130575783,20.6548877 C0.0449944624,20.5042875 1.79756996e-15,20.3340396 1.77635684e-15,20.1608214 L-8.8817842e-16,0.839036439 C-9.31157989e-16,0.488081624 0.180791578,0.179352945 0.454321951,0.000903184239 L10.7635961,10.5000251 L0.45437143,20.9990966 Z"></path>
                    </g>
                </g>
            </g>
        </g>
    </g>
</svg>