<?xml version="1.0" encoding="UTF-8"?>
<svg width="32px" height="32px" viewBox="0 0 32 32" version="1.1" xmlns="http://www.w3.org/2000/svg" xmlns:xlink="http://www.w3.org/1999/xlink">
    <!-- Generator: Sketch 48.2 (47327) - http://www.bohemiancoding.com/sketch -->
    <title>home_footer_ic_youtube</title>
    <desc>Created with Sketch.</desc>
    <defs></defs>
    <g id="Landing_Page_image" stroke="none" stroke-width="1" fill="none" fill-rule="evenodd" transform="translate(-162.000000, -4087.000000)" fill-opacity="0.2">
        <g id="footer" transform="translate(110.000000, 3881.000000)" fill="#2C3942" fill-rule="nonzero">
            <g id="home_footer_ic_youtube" transform="translate(52.000000, 206.000000)">
                <g id="Group">
                    <path d="M16,0 C7.16408163,0 0,7.14722497 0,15.9623529 C0,24.7774809 7.16408163,31.9247059 16,31.9247059 C24.8359184,31.9247059 32,24.7774809 32,15.9623529 C32,7.14396735 24.8359184,0 16,0 Z M25.8285714,19.5359654 C25.7208163,20.8650756 24.7118367,22.5622972 23.2946939,22.806619 C18.7689796,23.1551846 13.397551,23.1128355 8.70530612,22.806619 C7.24244898,22.6241921 6.27918367,20.861818 6.17142857,19.5359654 C5.94285714,16.7474401 5.94285714,15.15772 6.17142857,12.3691947 C6.27918367,11.0433421 7.26530612,9.29399856 8.70530612,9.13437503 C13.3420408,8.74671789 18.7428571,8.82815846 23.2946939,9.13437503 C24.9273469,9.19301224 25.7208163,10.8674305 25.8285714,12.1965407 C26.0571429,14.985066 26.0571429,16.7474401 25.8285714,19.5359654 Z M14.0016327,19.9529412 L20,15.9623529 L14.0016327,11.9717647 L14.0016327,19.9529412 Z" id="Shape"></path>
                </g>
            </g>
        </g>
    </g>
</svg>