<?xml version="1.0" standalone="no"?>
<!DOCTYPE svg PUBLIC "-//W3C//DTD SVG 1.1//EN" "http://www.w3.org/Graphics/SVG/1.1/DTD/svg11.dtd" >
<svg xmlns="http://www.w3.org/2000/svg" xmlns:xlink="http://www.w3.org/1999/xlink" version="1.1">
<metadata>
Created by FontForge 20161116 at Tue Oct  4 20:14:07 2005
 By Jimmy Warting
(c) Copyright 2005 by Tong Duc Thinh. All Rights Reserved
</metadata>
<defs>
<font id="SFUFenice" horiz-adv-x="611" >
  <font-face 
    font-family="SFU Fenice"
    font-weight="400"
    font-stretch="normal"
    units-per-em="1000"
    panose-1="0 0 4 0 0 0 0 0 0 0"
    ascent="800"
    descent="-200"
    x-height="508"
    cap-height="692"
    bbox="-167 -212.001 1030 1171"
    underline-thickness="50"
    underline-position="-125"
    unicode-range="U+0020-F002"
  />
<missing-glyph horiz-adv-x="500" 
d="M63 0v1134h375v-1134h-375zM125 63h250v1009h-250v-1009z" />
    <glyph glyph-name=".notdef" horiz-adv-x="500" 
d="M63 0v1134h375v-1134h-375zM125 63h250v1009h-250v-1009z" />
    <glyph glyph-name="space" unicode=" " horiz-adv-x="278" 
 />
    <glyph glyph-name="exclam" unicode="!" horiz-adv-x="278" 
d="M150 220h-22l-38 359c-3.33301 31.333 -5 55.666 -5 72.999c0 37.333 18 56 54 56s54 -18.667 54 -56c0 -17.333 -1.66699 -41.666 -5 -72.999zM85 38c0 15.333 5.16895 28.1641 15.502 38.4971s23.166 15.5 38.499 15.5s28.166 -5.16699 38.499 -15.5
s15.5 -23.166 15.5 -38.499s-5.16699 -28.166 -15.5 -38.499s-23.166 -15.5 -38.499 -15.5c-14.667 0 -27.334 5.33301 -38.001 16s-16 23.334 -16 38.001z" />
    <glyph glyph-name="quotedbl" unicode="&#x22;" horiz-adv-x="333" 
d="M221 436l-18 210c-3.33301 41.333 9 62 37 62s40.333 -20.667 37 -62l-18 -210c-2.66699 -28 -9 -42 -19 -42s-16.333 14 -19 42zM73 436l-18 210c-3.33301 41.333 9 62 37 62s40.333 -20.667 37 -62l-18 -210c-2.66699 -28 -9 -42 -19 -42s-16.333 14 -19 42z" />
    <glyph glyph-name="numbersign" unicode="#" horiz-adv-x="556" 
d="M62 421v54h114l30 217h62l-30 -217h126l30 217h62l-30 -217h96v-54h-104l-20 -150h96v-54h-104l-30 -217h-62l30 217h-126l-30 -217h-62l30 217h-106v54h114l20 150h-106zM230 421l-20 -150h126l20 150h-126z" />
    <glyph glyph-name="dollar" unicode="$" horiz-adv-x="556" 
d="M308 306v-284c82.667 16 124 65.667 124 149c0 39.333 -11.333 69.333 -34 90c-16 14.667 -46 29.667 -90 45zM468 652v-186h-22c-19.333 81.333 -40 136.666 -62 165.999c-17.333 23.333 -42.666 36 -75.999 38v-258c66.667 -22.667 113.667 -45.334 141 -68.001
c40.667 -33.333 61 -78.666 61 -135.999c0 -56.667 -19.667 -104 -59 -142c-36.667 -35.333 -84.334 -57.333 -143.001 -66v-92h-38v92c-72 0 -135.333 16.667 -190 50v212h22c27.333 -105.333 51 -171.333 71 -198c18 -24.667 50.333 -38.667 97 -42v296
c-65.333 22 -111.333 43 -138 63c-41.333 31.333 -62 74.333 -62 129c0 55.333 20 99.333 60 132c36 29.333 82.667 46 140 50v82h38v-82c66.667 -3.33301 120 -16.666 160 -39.999zM270 424l0.000976562 245.999c-38.667 -1.33301 -70.334 -12 -95.001 -32
c-27.333 -21.333 -41 -50.666 -41 -87.999c0 -35.333 14.667 -63.666 44 -84.999c17.333 -12.667 48 -26.334 92 -41.001z" />
    <glyph glyph-name="percent" unicode="%" horiz-adv-x="889" 
d="M211 686c-42.667 0 -70 -26 -82 -78c-5.33301 -22 -8 -64.667 -8 -128s2.66699 -106 8 -128c12 -52 39.333 -78 82 -78s70 26 82 78c5.33301 22 8 64.667 8 128s-2.66699 106 -8 128c-12 52 -39.333 78 -82 78zM624 708h54l-416 -724h-54zM677 418
c-42.667 0 -70 -26 -82 -78c-5.33301 -22 -8 -64.667 -8 -128s2.66699 -106 8 -128c12 -52 39.333 -78 82 -78s70 26 82 78c5.33301 22 8 64.667 8 128s-2.66699 106 -8 128c-12 52 -39.333 78 -82 78zM211 708c56.667 0 100 -25 130 -75c25.333 -41.333 38 -92.333 38 -153
s-12.667 -111.667 -38 -153c-30 -50 -73.333 -75 -130 -75s-100 25 -130 75c-25.333 41.333 -38 92.333 -38 153s12.667 111.667 38 153c30 50 73.333 75 130 75zM677 440c56.667 0 100 -25 130 -75c25.333 -41.333 38 -92.333 38 -153s-12.667 -111.667 -38 -153
c-30 -50 -73.333 -75 -130 -75s-100 25 -130 75c-25.333 41.333 -38 92.333 -38 153s12.667 111.667 38 153c30 50 73.333 75 130 75z" />
    <glyph glyph-name="ampersand" unicode="&#x26;" horiz-adv-x="685" 
d="M460 76l-216 303.999c-64 -33.333 -96 -84.666 -96 -153.999c0 -50.667 16.667 -97 50 -139c36 -44.667 78.667 -67 128 -67c54 0 98.667 18.667 134 56zM404 585.999c0 66.667 -25.667 100 -77 100c-50 0 -75 -26 -75 -78c0 -42 22.333 -94.333 67 -157
c56.667 29.333 85 74.333 85 135zM470 341.999v22h180v-22h-51c-1.33301 -32 -7.33301 -67.333 -18 -106c-12 -42 -26.333 -74.667 -43 -98l86 -116h48v-22h-158l-38 53c-46.667 -46 -108 -69 -184 -69c-70.667 0 -128.667 17.333 -174 52c-49.333 38 -74 91.333 -74 160
c0 44 21 86.333 63 127c33.333 32 74 58.667 122 80c-15.333 20 -29 44.667 -41 74c-13.333 32 -20 59 -20 81c0 46 17 83 51 111c32 26 71.333 39 118 39c42 0 77 -9 105 -27c33.333 -20.667 50 -51 50 -91c0 -37.333 -18 -70 -54 -98c-14 -11.333 -49.333 -32 -106 -62
l190 -268c32.667 52 49 112 49 180h-101z" />
    <glyph glyph-name="quotesingle" unicode="'" horiz-adv-x="222" 
d="M92 436l-18 210c-3.33301 41.333 9 62 37 62s40.333 -20.667 37 -62l-18 -210c-2.66699 -28 -9 -42 -19 -42s-16.333 14 -19 42z" />
    <glyph glyph-name="parenleft" unicode="(" horiz-adv-x="370" 
d="M290 708l15 -12c-68.667 -80 -103 -225.667 -103 -437s34.333 -357 103 -437l-15 -12c-125.333 79.333 -188 229 -188 449s62.667 369.667 188 449z" />
    <glyph glyph-name="parenright" unicode=")" horiz-adv-x="370" 
d="M80 -190l-15 12c68.667 80 103 225.667 103 437s-34.333 357 -103 437l15 12c125.333 -79.333 188 -229 188 -449s-62.667 -369.667 -188 -449z" />
    <glyph glyph-name="asterisk" unicode="*" horiz-adv-x="556" 
d="M462 582c0 -15.333 -13.998 -28.666 -41.998 -39.999l-108 -42l108 -42c28 -11.333 42 -24.666 42 -39.999c0 -10 -3.5 -19.167 -10.5 -27.5s-15.5 -12.5 -25.5 -12.5c-14 0 -31 9 -51 27c-34 30.667 -60.333 52.334 -79 65.001c0.666992 -14 4 -37.333 10 -70
c5.33301 -30 8 -53.333 8 -70c0 -25.333 -12 -38 -36 -38s-36 12.667 -36 38c0 16.667 2.66699 40 8 70c6 32.667 9.33301 56 10 70c-18.667 -12.667 -45 -34.334 -79 -65.001c-20 -18 -37 -27 -51 -27c-10 0 -18.5 4.16699 -25.5 12.5s-10.5 17.5 -10.5 27.5
c0 15.333 14 28.666 42 39.999l108 42l-108 42c-28 11.333 -42 24.666 -42 39.999c0 10 3.5 19.167 10.5 27.5s15.5 12.5 25.5 12.5c14.667 0 31.667 -8.66699 51 -26c37.333 -33.333 63.666 -55.333 78.999 -66c-0.666992 14 -4 37.333 -10 70c-5.33301 30 -8 53.333 -8 70
c0 25.333 12 38 36 38s36 -12.667 36 -38c0 -16.667 -2.66699 -40 -8 -70c-6 -32.667 -9.33301 -56 -10 -70c15.333 10.667 41.666 32.667 78.999 66c19.333 17.333 36.333 26 51 26c10 0 18.5 -4.16699 25.5 -12.5s10.5 -17.5 10.5 -27.5z" />
    <glyph glyph-name="plus" unicode="+" horiz-adv-x="600" 
d="M268 286v222h64v-222h222v-64h-222v-222h-64v222h-222v64h222z" />
    <glyph glyph-name="comma" unicode="," horiz-adv-x="278" 
d="M103 -110l-17.999 18.001c36 26 59 51.333 69 76c-46 0 -69 18 -69 54c0 15.333 5.16699 28.166 15.5 38.499s23.166 15.5 38.499 15.5c36 0 54 -21.333 54 -64c0 -42 -30 -88 -90 -138z" />
    <glyph glyph-name="hyphen" unicode="-" horiz-adv-x="333" 
d="M42 209v90h248v-90h-248z" />
    <glyph glyph-name="hyphen" unicode="&#x2010;" horiz-adv-x="333" 
d="M42 209v90h248v-90h-248z" />
    <glyph glyph-name="period" unicode="." horiz-adv-x="278" 
d="M85 38c0 15.333 5.16895 28.1641 15.502 38.4971s23.166 15.5 38.499 15.5s28.166 -5.16699 38.499 -15.5s15.5 -23.166 15.5 -38.499s-5.16699 -28.166 -15.5 -38.499s-23.166 -15.5 -38.499 -15.5c-14.667 0 -27.334 5.33301 -38.001 16s-16 23.334 -16 38.001z" />
    <glyph glyph-name="slash" unicode="/" horiz-adv-x="278" 
d="M-32 -16l278 724h64l-278 -724h-64z" />
    <glyph glyph-name="zero" unicode="0" horiz-adv-x="556" 
d="M278 708c82 0 143.667 -42.333 185 -127c31.333 -64.667 47 -143 47 -235s-15.667 -170.333 -47 -235c-41.333 -84.667 -103 -127 -185 -127s-143.667 42.333 -185 127c-31.333 64.667 -47 143 -47 235s15.667 170.333 47 235c41.333 84.667 103 127 185 127zM278 686
c-55.333 0 -91.333 -46.667 -108 -140c-6.66699 -39.333 -10 -106 -10 -200s3.33301 -160.667 10 -200c16.667 -93.333 52.667 -140 108 -140c56 0 92 46.667 108 140c6.66699 37.333 10 104 10 200s-3.33301 162.667 -10 200c-16 93.333 -52 140 -108 140z" />
    <glyph glyph-name="one" unicode="1" horiz-adv-x="556" 
d="M118 520l-7.99902 26c85.333 44 149.333 95.333 192 154h38v-678h56v-22h-228v22h72v582c-26.667 -24.667 -67.334 -52.667 -122.001 -84z" />
    <glyph glyph-name="two" unicode="2" horiz-adv-x="556" 
d="M458 171l22 0.00195312v-171h-422v88c30 28 74.333 70.667 133 128c123.333 122 185 228.667 185 320c0 42 -8.33301 76.333 -25 103c-20 31.333 -49.667 47 -89 47c-38.667 0 -67 -15.667 -85 -47c-10 -17.333 -32.333 -76.333 -67 -177h-28v214
c60 21.333 120.333 32 181 32c66 0 118.333 -15.333 157 -46c42.667 -33.333 64 -82 64 -146c0 -86.667 -71 -184.334 -213 -293.001c-38.667 -28.667 -97 -72.334 -175 -131.001v-2h362v81z" />
    <glyph glyph-name="three" unicode="3" horiz-adv-x="556" 
d="M65 240l28.001 0.00390625c24.667 -84 40 -132 46 -144c26.667 -60 61.667 -90 105 -90c54 0 91.667 17.667 113 53c17.333 28 26 71.667 26 131c0 65.333 -16.333 109.666 -49 132.999c-26.667 19.333 -74.334 29.666 -143.001 30.999v22c69.333 0 115 9 137 27
c26 20 39 63.667 39 131c0 101.333 -37.333 152 -112 152c-32 0 -57.333 -11.333 -76 -34c-12.667 -15.333 -25 -41.333 -37 -78l-35 -106h-28v188c55.333 34.667 115.333 52 180 52c58 0 107.333 -14.333 148 -43c45.333 -32.667 68 -77 68 -133
c0 -44.667 -16 -82.334 -48 -113.001c-28.667 -28 -66 -45.667 -112 -53v-2c117.333 -16.667 176 -76.334 176 -179.001c0 -66.667 -25.333 -117.667 -76 -153c-44.667 -32 -101.667 -48 -171 -48c-71.333 0 -131 17.333 -179 52v204z" />
    <glyph glyph-name="four" unicode="4" horiz-adv-x="556" 
d="M44 216v44l336 448h48v-448h84v-44h-84v-194h58v-22h-222v22h64v194h-284zM76 260h252v342h-2z" />
    <glyph glyph-name="five" unicode="5" horiz-adv-x="556" 
d="M94 692l367.999 -0.000976562v-90h-346v-224h2c10.667 26 31.334 47.333 62.001 64c28.667 14.667 58 22 88 22c68 0 124 -21.833 168 -65.5s66 -99.5 66 -167.5c0 -74.667 -22.667 -134.5 -68 -179.5s-105.333 -67.5 -180 -67.5c-57.333 0 -114 17.667 -170 53v183h28
c20.667 -74.667 35.667 -121 45 -139c25.333 -50 62 -75 110 -75c84.667 0 127 70 127 210c0 146.667 -46.333 220 -139 220c-32.667 0 -61 -9.16699 -85 -27.5s-40 -43.166 -48 -74.499h-28v358z" />
    <glyph glyph-name="six" unicode="6" horiz-adv-x="556" 
d="M448 672l-0.000976562 -178h-28c-6.66699 26 -13.667 52 -21 78c-10 34 -21.667 60 -35 78c-18 24 -40 36 -66 36c-54 0 -92.333 -38 -115 -114c-14 -48 -21 -107 -21 -177v-47h2c26 62.667 72.667 94 140 94c60.667 0 110.334 -21.667 149.001 -65
c36.667 -42 55 -93.667 55 -155c0 -66 -18.667 -121.333 -56 -166c-39.333 -48 -91.333 -72 -156 -72c-89.333 0 -155.333 42.333 -198 127c-33.333 66 -50 148.333 -50 247c0 86.667 20.333 163.667 61 231c48 79.333 113 119 195 119c46.667 0 94.667 -12 144 -36z
M399.999 208c0 134.667 -37.667 202 -113 202c-48 0 -80.667 -23.333 -98 -70c-11.333 -30 -17 -74 -17 -132c0 -50 7.33301 -92.667 22 -128c20 -49.333 51.667 -74 95 -74c74 0 111 67.333 111 202z" />
    <glyph glyph-name="seven" unicode="7" horiz-adv-x="556" 
d="M76 500l-0.000976562 192h436c-57.333 -124.667 -99.666 -229.667 -126.999 -315c-40.667 -126.667 -62 -245 -64 -355h43v-22h-202v22h51c2 95.333 16 180 42 254c19.333 54.667 49 113 89 175l98 151h-344v-102h-22z" />
    <glyph glyph-name="eight" unicode="8" horiz-adv-x="556" 
d="M278 708c60 0 109.996 -14.667 149.996 -44c44.667 -32.667 67 -77.667 67 -135c0 -85.333 -48 -139.666 -144 -162.999v-2c48.667 -8 87.334 -26.667 116.001 -56c29.333 -31.333 44 -71.333 44 -120c0 -64 -23.333 -114.667 -70 -152
c-43.333 -34.667 -97.666 -52 -162.999 -52s-119.666 17.333 -162.999 52c-46.667 37.333 -70 88 -70 152c0 48.667 14.667 88.667 44 120c28.667 29.333 67.334 48 116.001 56v2c-96 23.333 -144 77.666 -144 162.999c0 57.333 22.333 102.333 67 135
c40 29.333 90 44 150 44zM277.996 354c-83.333 0 -125 -58 -125 -174s41.667 -174 125 -174s125 58 125 174s-41.667 174 -125 174zM277.996 686c-72.667 0 -109 -51.667 -109 -155s36.333 -155 109 -155s109 51.667 109 155s-36.333 155 -109 155z" />
    <glyph glyph-name="nine" unicode="9" horiz-adv-x="556" 
d="M78 20l0.000976562 178.003h28c20.667 -72.667 33.667 -114.334 39 -125.001c22 -44.667 54.333 -67 97 -67c101.333 0 152 97 152 291v47h-2c-26 -62.667 -72.667 -94 -140 -94c-60.667 0 -109.834 21.333 -147.501 64s-56.5 94.667 -56.5 156
c0 65.333 18.667 120.666 56 165.999c40 48 92 72 156 72c86.667 0 152 -40 196 -120c34.667 -64 52 -143.333 52 -238c0 -98.667 -21.333 -181.334 -64 -248.001c-50 -78.667 -121.667 -118 -215 -118c-38 0 -88.333 12 -151 36zM156.001 484.003
c0 -134.667 37.667 -202 113 -202c48 0 80.667 23.333 98 70c11.333 30 17 74 17 132c0 50 -7.33301 93 -22 129c-20 48.667 -51.667 73 -95 73c-74 0 -111 -67.333 -111 -202z" />
    <glyph glyph-name="colon" unicode=":" horiz-adv-x="278" 
d="M85 38c0 15.333 5.16895 28.1641 15.502 38.4971s23.166 15.5 38.499 15.5s28.166 -5.16699 38.499 -15.5s15.5 -23.166 15.5 -38.499s-5.16699 -28.166 -15.5 -38.499s-23.166 -15.5 -38.499 -15.5c-14.667 0 -27.334 5.33301 -38.001 16s-16 23.334 -16 38.001z
M85.002 361.998c0 15.333 5.16895 28.1641 15.502 38.4971s23.166 15.5 38.499 15.5s28.166 -5.16699 38.499 -15.5s15.5 -23.166 15.5 -38.499s-5.16699 -28.166 -15.5 -38.499s-23.166 -15.5 -38.499 -15.5c-14.667 0 -27.334 5.33301 -38.001 16s-16 23.334 -16 38.001z
" />
    <glyph glyph-name="semicolon" unicode=";" horiz-adv-x="278" 
d="M103 -110l-17.999 18.001c36 26 59 51.333 69 76c-46 0 -69 18 -69 54c0 15.333 5.16699 28.166 15.5 38.499s23.166 15.5 38.499 15.5c36 0 54 -21.333 54 -64c0 -42 -30 -88 -90 -138zM85.001 362.001c0 15.333 5.16895 28.1641 15.502 38.4971
s23.166 15.5 38.499 15.5s28.166 -5.16699 38.499 -15.5s15.5 -23.166 15.5 -38.499s-5.16699 -28.166 -15.5 -38.499s-23.166 -15.5 -38.499 -15.5c-14.667 0 -27.334 5.33301 -38.001 16s-16 23.334 -16 38.001z" />
    <glyph glyph-name="less" unicode="&#x3c;" horiz-adv-x="600" 
d="M554 60v-68l-508 230v64l508 230v-68l-424 -194z" />
    <glyph glyph-name="equal" unicode="=" horiz-adv-x="600" 
d="M46 322v64h508v-64h-508zM46 122v64h508v-64h-508z" />
    <glyph glyph-name="greater" unicode="&#x3e;" horiz-adv-x="600" 
d="M46 448v68l508 -230v-64l-508 -230v68l424 194z" />
    <glyph glyph-name="question" unicode="?" horiz-adv-x="426" 
d="M48 459v198.998c62.667 33.333 121.667 50 177 50c50 0 92.667 -13.667 128 -41c38 -30 57 -69.333 57 -118c0 -40 -11.667 -75.667 -35 -107c-18.667 -25.333 -56.334 -61.333 -113.001 -108c-21.333 -17.333 -34.666 -33.666 -39.999 -48.999
c-4 -11.333 -6 -35.666 -6 -72.999h-22v47c0 30.667 9.33301 59 28 85l52 73c18.667 34.667 28 76.667 28 126c0 95.333 -30 143 -90 143c-40.667 0 -74 -29.333 -100 -88c-10 -22 -24 -68.333 -42 -139h-22zM159 37.998c0 15.333 5.16895 28.1641 15.502 38.4971
s23.166 15.5 38.499 15.5s28.166 -5.16699 38.499 -15.5s15.5 -23.166 15.5 -38.499s-5.16699 -28.166 -15.5 -38.499s-23.166 -15.5 -38.499 -15.5c-14.667 0 -27.334 5.33301 -38.001 16s-16 23.334 -16 38.001z" />
    <glyph glyph-name="at" unicode="@" horiz-adv-x="800" 
d="M324 283c0 -59.333 21.332 -89 63.999 -89c38 0 70 32 96 96c20.667 51.333 31 99.333 31 144c0 14 -4.16699 26.5 -12.5 37.5s-19.166 16.5 -32.499 16.5c-30 0 -60.667 -18.333 -92 -55c-36 -42 -54 -92 -54 -150zM541.999 518l74.001 -0.00195312
c-18 -73.333 -37.333 -148.333 -58 -225c-9.33301 -35.333 -14 -57 -14 -65c0 -30.667 13.667 -46 41 -46c42.667 0 77 27.667 103 83c21.333 44.667 32 91 32 139c0 75.333 -31.667 140 -95 194c-60.667 52 -129.334 78 -206.001 78c-91.333 0 -164.333 -34.667 -219 -104
c-50.667 -63.333 -76 -142 -76 -236c0 -90 28.833 -163.833 86.5 -221.5s131.5 -86.5 221.5 -86.5c67.333 0 135.666 15.667 204.999 47l13 -31c-86.667 -40 -160 -60 -220 -60c-111.333 0 -203.666 30.333 -276.999 91c-78 64.667 -117 151.667 -117 261
c0 110.667 36.667 200.667 110 270c71.333 68 162.666 102 273.999 102c93.333 0 173 -27.667 239 -83c70 -59.333 105 -134.666 105 -225.999c0 -60.667 -17 -116 -51 -166c-38 -55.333 -86 -83 -144 -83c-29.333 0 -53.666 10.667 -72.999 32
c-15.333 16.667 -22 30 -20 40h-2c-24 -26.667 -42 -44 -54 -52c-20 -13.333 -42.667 -20 -68 -20c-66.667 0 -100 43.333 -100 130c0 60 18.667 115.667 56 167c41.333 56.667 91 85 149 85c20 0 35.333 -4.16699 46 -12.5s20.667 -22.166 30 -41.499h2z" />
    <glyph glyph-name="A" unicode="A" 
d="M166 0h-182v22h58l232 678h64l220 -678h40v-22h-222v22h74l-82 256h-211l-87 -256h96v-22zM264 593l-100 -293h197l-95 293h-2z" />
    <glyph glyph-name="B" unicode="B" horiz-adv-x="630" 
d="M102 22v648.001h-60v22h286c56 0 103.333 -12 142 -36c45.333 -28.667 68 -69.334 68 -122.001c0 -46.667 -16.667 -84.667 -50 -114c-30 -26 -69.333 -42.667 -118 -50v-2c59.333 -6 108 -21 146 -45c48 -30.667 72 -72.667 72 -126c0 -71.333 -34.333 -124 -103 -158
c-52.667 -26 -118.667 -39 -198 -39h-245v22h60zM210 352.001l-0.000976562 -329.999h47c68.667 0 119 11.333 151 34c37.333 27.333 56 73.666 56 138.999c0 56.667 -13.167 97 -39.5 121s-68.166 36 -125.499 36h-89zM209.999 670.002v-295.999h57
c54 0 93.667 12.167 119 36.5s38 63.166 38 116.499c0 95.333 -40.667 143 -122 143h-92z" />
    <glyph glyph-name="C" unicode="C" 
d="M530 670v-199.999h-22c-26 82 -42 128.333 -48 139c-26.667 51.333 -63.667 77 -111 77c-71.333 0 -120.333 -42 -147 -126c-16 -50.667 -24 -122 -24 -214c0 -100 7.66699 -173 23 -219c26.667 -80.667 79 -121 157 -121c40.667 0 71.667 17.667 93 53
c18.667 30.667 39.667 95 63 193h22v-226c-54 -28 -113.333 -42 -178 -42c-95.333 0 -171.333 37.333 -228 112c-50.667 68 -76 151.333 -76 250c0 99.333 25.333 182.666 76 249.999c56 74.667 132 112 228 112c60.667 0 118 -12.667 172 -38z" />
    <glyph glyph-name="D" unicode="D" horiz-adv-x="685" 
d="M210 670v-647.998h62c92 0 156.333 32.667 193 98c27.333 49.333 41 124.666 41 225.999s-13.667 176.666 -41 225.999c-36.667 65.333 -101 98 -193 98h-62zM102 22.002v648h-60v22h238c106 0 190.833 -31.333 254.5 -94s95.5 -146.667 95.5 -252
s-31.833 -189.333 -95.5 -252s-148.5 -94 -254.5 -94h-238v22h60z" />
    <glyph glyph-name="E" unicode="E" 
d="M559 0l-517.001 -0.00195312v22h60v648h-60v22h508v-222h-22c-26 91.333 -46.333 148 -61 170c-12.667 20 -32.334 30 -59.001 30h-198v-300h78c30.667 0 54 16.333 70 49c8 16.667 16 46.334 24 89.001h22v-298h-22c-8 42.667 -16 72.334 -24 89.001
c-16 32.667 -39.333 49 -70 49h-78v-326h176c32 0 59 14.667 81 44c16.667 22 31.334 53.667 44.001 95c8.66699 32 17.334 63.667 26.001 95h22v-256z" />
    <glyph glyph-name="F" unicode="F" horiz-adv-x="574" 
d="M210 348v-326.002h92v-22h-260v22h60v648h-60v22h508v-222h-22c-27.333 89.333 -49.666 146 -66.999 170c-14.667 20 -36.334 30 -65.001 30h-186v-300h78c30.667 0 54 16.333 70 49c8 16.667 16 46.334 24 89.001h22v-298h-22c-8 42.667 -16 72.334 -24 89.001
c-16 32.667 -39.333 49 -70 49h-78z" />
    <glyph glyph-name="G" unicode="G" horiz-adv-x="667" 
d="M360 302l258.003 -0.00292969v-22h-44v-243c-58.667 -35.333 -129.667 -53 -213 -53c-104.667 0 -183.334 35 -236.001 105c-47.333 62.667 -71 148.334 -71 257.001c0 102 27.667 186.667 83 254c59.333 72 139 108 239 108c53.333 0 113.333 -14 180 -42v-198h-22
c-24.667 80.667 -47.334 135.334 -68.001 164.001c-26 36 -60.333 54 -103 54c-78.667 0 -132 -40 -160 -120c-16.667 -48 -25 -121.333 -25 -220c0 -103.333 6.66699 -176.666 20 -219.999c25.333 -80 77.666 -120 156.999 -120c26.667 0 51 7 73 21
c25.333 16.667 38 37.667 38 63v190h-106v22z" />
    <glyph glyph-name="H" unicode="H" horiz-adv-x="685" 
d="M475 348h-265v-326h66v-22h-234v22h60v648h-60v22h234v-22h-66v-300h265v300h-66v22h234v-22h-60v-648h60v-22h-234v22h66v326z" />
    <glyph glyph-name="I" unicode="I" horiz-adv-x="315" 
d="M271 0h-228v22h60v648h-60v22h228v-22h-60v-648h60v-22z" />
    <glyph glyph-name="J" unicode="J" horiz-adv-x="481" 
d="M187 692h249.998v-22h-60v-501c0 -123.333 -63 -185 -189 -185c-49.333 0 -95.666 11.333 -138.999 34v248h22l31 -127c10 -41.333 19 -70 27 -86c16.667 -31.333 39.334 -47 68.001 -47c48 0 72 33.333 72 100v564h-82v22z" />
    <glyph glyph-name="K" unicode="K" horiz-adv-x="593" 
d="M276 0h-254v22h60v648h-60v22h254v-22h-86v-294l280 294h-76v22h182v-22h-70l-232 -242l300 -406h38v-22h-150l-268 368h-4v-346h86v-22z" />
    <glyph glyph-name="L" unicode="L" horiz-adv-x="574" 
d="M210 670v-648h148c34.667 0 59.667 12.333 75 37c18 29.333 41.333 102.333 70 219h22v-278h-483v22h60v648h-60v22h268v-22h-100z" />
    <glyph glyph-name="M" unicode="M" horiz-adv-x="796" 
d="M24 692h195l173 -544h4l181 544h187v-22h-64v-648h64v-22h-268v22h96v638h-2l-220 -660h-34l-210 660h-2v-638h78v-22h-178v22h72v648h-72v22z" />
    <glyph glyph-name="N" unicode="N" horiz-adv-x="648" 
d="M524 0l-386 650h-2v-628h84v-22h-178v22h66v648h-66v22h192l294 -500h2v478h-80v22h174v-22h-66v-670h-34z" />
    <glyph glyph-name="O" unicode="O" horiz-adv-x="685" 
d="M54 346c0 94 24 175.667 72 245c54 78 126 117 216 117s162 -39 216 -117c48 -69.333 72 -151 72 -245c0 -93.333 -24 -174.666 -72 -243.999c-54.667 -78.667 -126.667 -118 -216 -118s-161.333 39.333 -216 118c-48 69.333 -72 150.666 -72 243.999zM178 346
c0 -98 6.33301 -169.333 19 -214c24 -84 72.333 -126 145 -126s121 42 145 126c12.667 44.667 19 116 19 214s-6.33301 169.333 -19 214c-24 84 -72.333 126 -145 126s-121 -42 -145 -126c-12.667 -44.667 -19 -116 -19 -214z" />
    <glyph glyph-name="P" unicode="P" 
d="M320 0l-260 -0.000976562v22h60v648h-60v22h287c66.667 0 122 -13.333 166 -40c52.667 -32 79 -79 79 -141c0 -63.333 -26.333 -109.666 -79 -138.999c-41.333 -24 -96.333 -36 -165 -36h-120v-314h92v-22zM228 669.999l-0.000976562 -312.001h94
c56.667 0 96.834 11.333 120.501 34s35.5 62.334 35.5 119.001c0 106 -49 159 -147 159h-103z" />
    <glyph glyph-name="Q" unicode="Q" horiz-adv-x="685" 
d="M450 -118l-0.00195312 -22c-25.333 -4 -43 -6 -53 -6c-70 0 -105 38 -105 114v20c-77.333 16 -137.666 60.667 -180.999 134c-38 65.333 -57 140 -57 224c0 94 24 175.667 72 245c54 78 126 117 216 117s162 -39 216 -117c48 -69.333 72 -151 72 -245
c0 -84 -19 -158.667 -57 -224c-43.333 -73.333 -103.666 -118 -180.999 -134v-26c0 -53.333 15.333 -80 46 -80h12zM177.998 346c0 -98 6.33301 -169.333 19 -214c24 -84 72.333 -126 145 -126s121 42 145 126c12.667 44.667 19 116 19 214s-6.33301 169.333 -19 214
c-24 84 -72.333 126 -145 126s-121 -42 -145 -126c-12.667 -44.667 -19 -116 -19 -214z" />
    <glyph glyph-name="R" unicode="R" 
d="M286 0h-244v22h60v648h-60v22h291c64 0 115.667 -11.667 155 -35c48 -28.667 72 -72.667 72 -132c0 -56 -23.667 -99.333 -71 -130c-38 -24.667 -87.667 -39 -149 -43l238 -330h49v-22h-159l-254 352h-4v-330h76v-22zM210 670v-302h59c118 0 177 52.333 177 157
c0 46 -12.667 81.667 -38 107s-61 38 -107 38h-91z" />
    <glyph glyph-name="S" unicode="S" horiz-adv-x="556" 
d="M64 260l22.002 -0.000976562c17.333 -79.333 33.666 -133.666 48.999 -162.999c30 -60.667 72.667 -91 128 -91c44.667 0 83 13.333 115 40s48 62 48 106c0 56 -32 98.667 -96 128c-40 16.667 -100 42 -180 76c-64 36 -96 87.333 -96 154c0 62.667 22.667 112 68 148
c42 33.333 95.333 50 160 50c66 0 128.667 -13.333 188 -40v-200h-22l-36 116c-21.333 68 -67.666 102 -138.999 102c-40.667 0 -75.334 -11.667 -104.001 -35c-31.333 -25.333 -47 -57.666 -47 -96.999c0 -34.667 14.333 -62 43 -82c26 -18 77.333 -40.667 154 -68
c68.667 -24 117.667 -50 147 -78s44 -68.667 44 -122c0 -68.667 -27 -123.334 -81 -164.001c-48.667 -37.333 -108.334 -56 -179.001 -56c-28.667 0 -61.167 5.33301 -97.5 16s-65.833 24 -88.5 40v220z" />
    <glyph glyph-name="T" unicode="T" horiz-adv-x="519" 
d="M130 0v22h75v648h-65c-24 0 -40.667 -9.33301 -50 -28c-11.333 -21.333 -27 -78 -47 -170h-22v220h476v-220h-22c-9.33301 42 -16 71 -20 87c-10 40 -19 67.667 -27 83c-9.33301 18.667 -26 28 -50 28h-65v-648h75v-22h-258z" />
    <glyph glyph-name="U" unicode="U" 
d="M30 692l240 0.00195312v-22h-72v-503c0 -46.667 10.333 -84.334 31 -113.001c22.667 -32 56.334 -48 101.001 -48c49.333 0 88.666 15.5 117.999 46.5s44 71.5 44 121.5v496h-90v22h178v-22h-60v-497c0 -58.667 -17.667 -104.834 -53 -138.501s-82.333 -50.5 -141 -50.5
c-157.333 0 -236 68.667 -236 206v480h-60v22z" />
    <glyph glyph-name="V" unicode="V" horiz-adv-x="574" 
d="M-5 670v22h248v-22h-86l172 -543h2l176 543h-82v22h154v-22h-46l-212 -670h-60l-214 670h-52z" />
    <glyph glyph-name="W" unicode="W" horiz-adv-x="852" 
d="M2 670v22h240v-22h-78l142 -518h2l108 350l-46 168h-66v22h268v-22h-94l144 -518h2l152 518h-80v22h154v-22h-46l-200 -670h-44l-128 457h-2l-144 -457h-44l-192 670h-48z" />
    <glyph glyph-name="X" unicode="X" horiz-adv-x="593" 
d="M31 670v22h250v-22h-74l118 -224l134 224h-82v22h170v-22h-58l-150 -250l208 -398h42v-22h-244v22h86l-161 308l-185 -308h104v-22h-186v22h52l202 333l-168 315h-58z" />
    <glyph glyph-name="Y" unicode="Y" horiz-adv-x="556" 
d="M-10 670v22h260v-22h-82l145 -306l162 306h-75v22h166v-22h-63l-175 -332v-316h80v-22h-268v22h80v294l-172 354h-58z" />
    <glyph glyph-name="Z" unicode="Z" horiz-adv-x="556" 
d="M48 16l330 654h-162c-36 0 -61.667 -10.667 -77 -32c-17.333 -24 -35 -80 -53 -168h-22v222h444l-342 -670h185c34 0 58.667 12 74 36c18 28 37.667 94 59 198h22v-256h-458v16z" />
    <glyph glyph-name="bracketleft" unicode="[" horiz-adv-x="370" 
d="M126 -174v866h178v-22h-84v-822h84v-22h-178z" />
    <glyph glyph-name="backslash" unicode="\" horiz-adv-x="278" 
d="M32 708l278 -724h-64l-278 724h64z" />
    <glyph glyph-name="bracketright" unicode="]" horiz-adv-x="370" 
d="M244 692v-866h-178v22h84v822h-84v22h178z" />
    <glyph glyph-name="asciicircum" unicode="^" horiz-adv-x="600" 
d="M166 332h-74l178 360h59l179 -360h-74l-134 276z" />
    <glyph glyph-name="underscore" unicode="_" horiz-adv-x="500" 
d="M500 -125h-500v50h500v-50z" />
    <glyph glyph-name="grave" unicode="`" horiz-adv-x="278" 
d="M208 576h-43l-142 97c-19.333 13.333 -29 27 -29 41c0 10 3.66699 18.5 11 25.5s16 10.5 26 10.5c16 0 34 -11.333 54 -34z" />
    <glyph glyph-name="a" unicode="a" horiz-adv-x="519" 
d="M128 326h-21.999v162c59.333 24 110.333 36 153 36c46 0 86 -9.66699 120 -29c40.667 -23.333 61 -56.333 61 -99v-374h48v-22h-136v88h-2c-12 -32 -31.833 -57.333 -59.5 -76s-58.5 -28 -92.5 -28c-44.667 0 -80.667 12 -108 36c-29.333 24.667 -44 59 -44 103
c0 52 19 89.333 57 112c23.333 14 65 26.333 125 37s101.333 22.667 124 36v105c0 59.333 -29 89 -87 89c-34.667 0 -60.334 -11.667 -77.001 -35c-14.667 -20 -34.667 -67 -60 -141zM352.001 206l-0.000976562 75.999c-22 -10.667 -56.667 -21.667 -104 -33
c-36 -8.66699 -60.667 -19.667 -74 -33c-18.667 -18 -28 -49 -28 -93c0 -69.333 27 -103.666 81 -102.999c42.667 0.666992 75.334 22.334 98.001 65.001c18 33.333 27 73.666 27 120.999z" />
    <glyph glyph-name="b" unicode="b" horiz-adv-x="537" 
d="M116 0h-26v670h-48v22h142v-240h2c18 48 55 72 111 72c65.333 0 116 -28.667 152 -86c30.667 -48 46 -106.667 46 -176c0 -68.667 -17 -130 -51 -184c-40 -62.667 -92.333 -94 -157 -94c-59.333 0 -104.333 29.333 -135 88zM279 6c44 0 75.333 32.667 94 98
c12 41.333 18 91.333 18 150c0 57.333 -5.66699 106.333 -17 147c-18.667 63.333 -49.667 95 -93 95c-66 0 -99 -84.667 -99 -254c0 -157.333 32.333 -236 97 -236z" />
    <glyph glyph-name="c" unicode="c" horiz-adv-x="481" 
d="M426 492l0.00390625 -182.002h-28c-22.667 84 -42.334 138 -59.001 162c-14 20 -35 30 -63 30c-47.333 0 -82 -30 -104 -90c-14.667 -41.333 -22 -90.666 -22 -147.999c0 -168 43.333 -252 130 -252c84 0 127.333 58.667 130 176h22
c-0.666992 -59.333 -13.334 -106.666 -38.001 -141.999c-28.667 -41.333 -71.334 -62 -128.001 -62c-72 0 -127.667 28 -167 84c-35.333 49.333 -53 111.333 -53 186c0 78.667 20.333 142.667 61 192c43.333 52 103.666 78 180.999 78c26.667 0 72.667 -10.667 138 -32z" />
    <glyph glyph-name="d" unicode="d" horiz-adv-x="519" 
d="M155 244c0 -158.667 34 -238 102 -238c69.333 0 104 79.333 104 238c0 168 -35.667 252 -107 252c-44.667 0 -74 -33.667 -88 -101c-7.33301 -32.667 -11 -83 -11 -151zM497 0l-135.999 -0.000976562v61h-2c-20.667 -51.333 -61.334 -77 -122.001 -77
c-61.333 0 -109.333 31 -144 93c-28 50.667 -42 109.334 -42 176.001c0 70 13.667 129.667 41 179c33.333 61.333 82.333 92 147 92c52 0 90 -25.667 114 -77h2v223h-48v22h142v-670h48v-22z" />
    <glyph glyph-name="e" unicode="e" horiz-adv-x="500" 
d="M449 302h-297c-0.666992 -6.66699 -1 -16.667 -1 -30c0 -173.333 41.333 -260 124 -260c94.667 0 146.667 59.333 156 178h22c-2.66699 -60.667 -19.334 -109.334 -50.001 -146.001c-33.333 -40 -79.333 -60 -138 -60c-70 0 -125 28.333 -165 85
c-35.333 50.667 -53 112.334 -53 185.001c0 70 18 131 54 183c40 58 93.667 87 161 87c62.667 0 110.334 -22 143.001 -66c29.333 -39.333 44 -91.333 44 -156zM153 324h192v39c0 92.667 -28.333 139 -85 139c-63.333 0 -99 -59.333 -107 -178z" />
    <glyph glyph-name="f" unicode="f" horiz-adv-x="296" 
d="M38 486l0.00195312 22h48v55c0 96.667 52.667 145 158 145c29.333 0 58.666 -4.66699 87.999 -14v-132h-22c-15.333 47.333 -24 73 -26 77c-14.667 31.333 -33.334 47 -56.001 47c-32 0 -48 -22 -48 -66v-112h120v-22h-120v-464h72v-22h-214v22h48v464h-48z" />
    <glyph glyph-name="g" unicode="g" horiz-adv-x="500" 
d="M118 -73c0 -30.667 17.333 -55.001 52 -73.001c28 -14.667 58.667 -22 92 -22c39.333 0 75.333 7.66699 108 23c42.667 19.333 64 46.333 64 81c0 24.667 -9.66699 41.334 -29 50.001c-13.333 6 -34.333 9.33301 -63 10l-188 4c-24 -14 -36 -38.333 -36 -73zM196 354.999
c0 -47.333 2.99902 -79.666 8.99902 -96.999c10.667 -33.333 34.334 -50 71.001 -50c34.667 0 58 17.333 70 52c6.66699 20 10 51.667 10 95c0 44 -3.33301 76 -10 96c-12 34 -35.333 51 -70 51c-34 0 -57 -17.333 -69 -52c-7.33301 -20.667 -11 -52.334 -11 -95.001z
M477.999 507.999l0.00195312 -27.999h-76v-2c36 -24.667 54 -65.667 54 -123c0 -50 -17.167 -90.667 -51.5 -122s-76.5 -47 -126.5 -47c-45.333 0 -81 9 -107 27c-8.66699 6 -14.334 9 -17.001 9c-16 0 -31.667 -6.66699 -47 -20s-23 -28 -23 -44
c0 -28.667 14.667 -48 44 -58c20 -6.66699 54.667 -10 104 -10h54c64.667 0 111 -6 139 -18c42 -18 63 -51.667 63 -101c0 -50.667 -24.667 -91.334 -74 -122.001c-42 -26 -90 -39 -144 -39c-48.667 0 -93.334 8.33301 -134.001 25c-54.667 21.333 -82 53 -82 95
c0 16 6.66699 31 20 45s28 23.667 44 29v2c-58.667 14 -88 51.333 -88 112c0 65.333 34.667 107.333 104 126c-25.333 28 -38 66.667 -38 116s18 89.333 54 120c34 29.333 76 44 126 44c32.667 0 59 -5.33301 79 -16h123z" />
    <glyph glyph-name="h" unicode="h" horiz-adv-x="537" 
d="M32 670l0.00195312 22h148v-239h2c31.333 47.333 75.666 71 132.999 71c90 0 135 -49 135 -147v-355h54v-22h-206v22h58v367c0 66 -23.333 99 -70 99c-36.667 0 -64.334 -17 -83.001 -51c-15.333 -27.333 -23 -61 -23 -101v-314h58v-22h-206v22h54v648h-54z" />
    <glyph glyph-name="i" unicode="i" horiz-adv-x="278" 
d="M186 508v-486h48v-22h-190v22h48v464h-48v22h142zM82 621c0 16.667 5.33301 30.334 16 41.001s24.334 16 41.001 16s30.334 -5.33301 41.001 -16s16 -24.334 16 -41.001s-5.33301 -30.334 -16 -41.001s-24.334 -16 -41.001 -16s-30.334 5.33301 -41.001 16
s-16 24.334 -16 41.001z" />
    <glyph glyph-name="j" unicode="j" horiz-adv-x="278" 
d="M38 486v22h148v-532c0 -52 -10.5 -90 -31.5 -114s-57.167 -36 -108.5 -36h-28v28h24c23.333 0 38 6.33301 44 19c4 8 6 24.333 6 49v564h-54zM82 621c0 16.667 5.33301 30.334 16 41.001s24.334 16 41.001 16s30.334 -5.33301 41.001 -16s16 -24.334 16 -41.001
s-5.33301 -30.334 -16 -41.001s-24.334 -16 -41.001 -16s-30.334 5.33301 -41.001 16s-16 24.334 -16 41.001z" />
    <glyph glyph-name="k" unicode="k" horiz-adv-x="500" 
d="M250 0h-212v22h54v648h-54v22h148v-418l188 212h-64v22h144v-22h-48l-143 -165l205 -299h28v-22h-124l-184 266h-2v-244h64v-22z" />
    <glyph glyph-name="l" unicode="l" horiz-adv-x="278" 
d="M186 692v-670h48v-22h-190v22h48v648h-48v22h142z" />
    <glyph glyph-name="m" unicode="m" horiz-adv-x="796" 
d="M47 486l0.00195312 22.002h132v-64h2c27.333 53.333 70.666 80 129.999 80c26.667 0 52 -7.33301 76 -22s40.667 -34 50 -58c27.333 53.333 70.666 80 129.999 80c93.333 0 140 -46.667 140 -140v-362h52v-22h-198v22h52v368c0 65.333 -22 98 -66 98
c-36.667 0 -63.667 -17.667 -81 -53c-14 -26.667 -21 -60.334 -21 -101.001v-312h52v-22h-198v22h52v368c0 65.333 -22 98 -66 98c-36.667 0 -63.667 -17.667 -81 -53c-14 -26.667 -21 -60.334 -21 -101.001v-312h52v-22h-198v22h52v464h-42z" />
    <glyph glyph-name="n" unicode="n" horiz-adv-x="537" 
d="M32 486l0.000976562 22h140v-68h2c31.333 56 78.333 84 141 84c90 0 135 -49 135 -147v-355h54v-22h-206v22h58v367c0 66 -23.333 99 -70 99c-36.667 0 -64.334 -17 -83.001 -51c-15.333 -27.333 -23 -61 -23 -101v-314h58v-22h-206v22h54v464h-54z" />
    <glyph glyph-name="o" unicode="o" horiz-adv-x="519" 
d="M41 254c0 72 18 133.333 54 184c40 57.333 94.667 86 164 86s124 -28.667 164 -86c36 -50.667 54 -112 54 -184s-18 -133.333 -54 -184c-40 -57.333 -94.667 -86 -164 -86s-124 28.667 -164 86c-36 50.667 -54 112 -54 184zM145 254c0 -70.667 4.33301 -122 13 -154
c16.667 -62.667 50.334 -94 101.001 -94s84.334 31.333 101.001 94c8.66699 32 13 83.333 13 154s-4.33301 122 -13 154c-16.667 62.667 -50.334 94 -101.001 94s-84.334 -31.333 -101.001 -94c-8.66699 -32 -13 -83.333 -13 -154z" />
    <glyph glyph-name="p" unicode="p" horiz-adv-x="537" 
d="M240 -174l-198 0.000976562v22h48v638h-48v22h138v-59h2c22 50 61.667 75 119 75c65.333 0 115.333 -30 150 -90c29.333 -50 44 -110 44 -180c0 -68.667 -15 -128.334 -45 -179.001c-35.333 -60.667 -85.333 -91 -150 -91c-52 0 -90 24 -114 72h-2v-208h56v-22z
M391 254.001c0 161.333 -35.667 242 -107 242c-44.667 0 -74.334 -32 -89.001 -96c-7.33301 -32 -11 -80.667 -11 -146c0 -161.333 34.667 -242 104 -242c46.667 0 77.334 31.333 92.001 94c7.33301 30.667 11 80 11 148z" />
    <glyph glyph-name="q" unicode="q" horiz-adv-x="519" 
d="M155 254c0 -161.333 33.333 -242 100 -242c70.667 0 106 87.333 106 262c0 64.667 -3.66699 111.667 -11 141c-14.667 58 -44.667 87 -90 87c-70 0 -105 -82.667 -105 -248zM497 -174l-197.999 0.000976562v22h56v202h-2c-20.667 -44 -57.334 -66 -110.001 -66
c-68 0 -118.667 29.667 -152 89c-26.667 47.333 -40 107.666 -40 180.999c0 68.667 16.667 129 50 181c38 59.333 89.667 89 155 89c60.667 0 106.667 -28 138 -84l30 68h25v-660h48v-22z" />
    <glyph glyph-name="r" unicode="r" horiz-adv-x="407" 
d="M94 22v464h-54v22h146v-74h2c22 60 62.333 90 121 90c20 0 43 -6 69 -18v-196h-22l-35 103c-16.667 50 -34 75 -52 75c-26.667 0 -47.667 -22 -63 -66c-12 -33.333 -18 -66 -18 -98v-302h66v-22h-214v22h54z" />
    <glyph glyph-name="s" unicode="s" horiz-adv-x="463" 
d="M44 204h27.999c15.333 -72.667 27.333 -117.667 36 -135c22 -42 58.667 -63 110 -63c38.667 0 70.334 9 95.001 27c27.333 20.667 41 49.334 41 86.001c0 25.333 -26.667 48.333 -80 69c-94.667 36 -144.667 55.667 -150 59c-53.333 30 -80 69 -80 117
c0 52.667 20 93.334 60 122.001c36 25.333 81.333 38 136 38c52 0 100 -11.667 144 -35v-161h-28c-19.333 68.667 -31 106.667 -35 114c-20 40 -50 60 -90 60c-30.667 0 -57.667 -7.33301 -81 -22c-28 -16.667 -42 -39.334 -42 -68.001c0 -34.667 26.667 -62.667 80 -84
c25.333 -10 75.333 -29 150 -57c53.333 -28.667 80 -67.667 80 -117c0 -54.667 -21.667 -97.334 -65 -128.001c-38.667 -28 -86.334 -42 -143.001 -42c-59.333 0 -114.666 14.667 -165.999 44v176z" />
    <glyph glyph-name="t" unicode="t" horiz-adv-x="333" 
d="M22 486v22h63v120h94v-120h116v-22h-116v-412c0 -36 18 -54 54 -54c45.333 0 68 33.333 68 100v80h22v-74c0 -47.333 -9 -82.333 -27 -105c-20 -24.667 -53 -37 -99 -37c-74.667 0 -112 40 -112 120v382h-63z" />
    <glyph glyph-name="u" unicode="u" horiz-adv-x="537" 
d="M505 22v-22h-148v66h-2c-8.66699 -25.333 -25.5 -45.333 -50.5 -60s-51.5 -22 -79.5 -22c-92 0 -138 48.333 -138 145v357h-54v22h148v-396c0 -30 4.33301 -52 13 -66c11.333 -17.333 31 -26 59 -26c36.667 0 64 17 82 51c14.667 27.333 22 61 22 101v314h-58v22h152
v-486h54z" />
    <glyph glyph-name="v" unicode="v" horiz-adv-x="444" 
d="M-17 486v22h218v-22h-78l132 -374h2l134 374h-80v22h150v-22h-41l-177 -490h-41l-178 490h-41z" />
    <glyph glyph-name="w" unicode="w" horiz-adv-x="704" 
d="M-5 486v22h200v-22h-64l134 -384h2l78 228l-52 156h-60v22h248v-22h-94l132 -384h2l136 384h-82v22h134v-22h-22l-176 -490h-52l-100 296h-2l-104 -296h-50l-170 490h-38z" />
    <glyph glyph-name="x" unicode="x" horiz-adv-x="463" 
d="M-7 486v22h224v-22h-70l100 -168l120 168h-66v22h138v-22h-42l-136 -190l164 -274h36v-22h-224v22h76l-116 196l-140 -196h82v-22h-160v22h48l156 220l-146 244h-44z" />
    <glyph glyph-name="y" unicode="y" horiz-adv-x="444" 
d="M0 486v22h214v-22h-75l146 -349l120 349h-87v22h160v-22h-45l-183 -527c-15.333 -44 -29 -74.333 -41 -91c-21.333 -28 -49.666 -42 -84.999 -42c-36 0 -61.333 8 -76 24v156h22l27 -97c11.333 -40.667 26.666 -61 45.999 -61c35.333 0 67.333 51.667 96 155l-201 483
h-38z" />
    <glyph glyph-name="z" unicode="z" horiz-adv-x="463" 
d="M61 332l-0.000976562 176h366l-276 -486h136c32 0 57.667 22.667 77 68c4 9.33301 15 45.333 33 108h22v-198h-384l274 486h-122c-33.333 0 -58.666 -18.333 -75.999 -55c-6.66699 -14.667 -16 -47.667 -28 -99h-22z" />
    <glyph glyph-name="braceleft" unicode="{" horiz-adv-x="370" 
d="M138 378l-0.000976562 179.002c0 62 14.333 103.667 43 125c24.667 17.333 69.667 26 135 26v-22c-32.667 -1.33301 -55.667 -13.333 -69 -36c-10 -17.333 -15 -44 -15 -80v-176c0 -40.667 -4.33301 -69.334 -13 -86.001c-11.333 -20.667 -34.333 -36.667 -69 -48v-2
c34.667 -11.333 57.667 -27.333 69 -48c8.66699 -16.667 13 -45.334 13 -86.001v-176c0 -36 5 -62.667 15 -80c13.333 -22.667 36.333 -34.667 69 -36v-22c-65.333 0 -110.333 8.66699 -135 26c-28.667 21.333 -43 63 -43 125v179c0 34.667 -5 60.5 -15 77.5
s-30.333 30.833 -61 41.5c30.667 10.667 51.334 25 62.001 43c9.33301 16 14 41.333 14 76z" />
    <glyph glyph-name="bar" unicode="|" horiz-adv-x="222" 
d="M79 0v692h64v-692h-64z" />
    <glyph glyph-name="braceright" unicode="}" horiz-adv-x="370" 
d="M232 140l-0.000976562 -179.002c0 -62 -14.333 -103.667 -43 -125c-24.667 -17.333 -69.667 -26 -135 -26v22c32.667 1.33301 55.667 13.333 69 36c10 17.333 15 44 15 80v176c0 40.667 4.33301 69.334 13 86.001c11.333 20.667 34.333 36.667 69 48v2
c-34.667 11.333 -57.667 27.333 -69 48c-8.66699 16.667 -13 45.334 -13 86.001v176c0 36 -5 62.667 -15 80c-13.333 22.667 -36.333 34.667 -69 36v22c65.333 0 110.333 -8.66699 135 -26c28.667 -21.333 43 -63 43 -125v-179c0 -34.667 4.66699 -60 14 -76
c10.667 -18 31.334 -32.333 62.001 -43c-30.667 -10.667 -51 -24.5 -61 -41.5s-15 -42.833 -15 -77.5z" />
    <glyph glyph-name="asciitilde" unicode="~" horiz-adv-x="600" 
d="M492 327l35.998 -56c-38 -57.333 -79 -86 -123 -86c-22.667 0 -57.167 11.333 -103.5 34s-83.166 34 -110.499 34c-34 0 -61.667 -24 -83 -72l-36 56c30 57.333 71.333 86 124 86c25.333 0 62 -10.667 110 -32c54 -24 87.333 -36 100 -36c28.667 0 57.334 24 86.001 72z
" />
    <glyph glyph-name="euro" horiz-adv-x="498" 
d="M522 633l-22.999 -156.001l-48 6c0 104.667 -31.333 157 -94 157c-68.667 0 -122.334 -70.333 -161.001 -211h172l-21 -48h-164c-4 -16 -9.33301 -40.333 -16 -73h147l-21 -47h-134c-4 -27.333 -6 -52 -6 -74c0 -37.333 7 -67.666 21 -90.999
c17.333 -28.667 43.333 -43 78 -43c38.667 0 72.334 22.667 101.001 68c16 25.333 33 65 51 119l55 -10l-54 -188c-51.333 -35.333 -104.333 -53 -159 -53c-74 0 -129.333 28 -166 84c-31.333 47.333 -47 110 -47 188h-74l21 47h56c2 16.667 6 41 12 73h-66l21 48h59
c27.333 74.667 63.333 135.667 108 183c55.333 58.667 117.666 88 186.999 88c62.667 0 117.667 -22.333 165 -67z" />
    <glyph glyph-name="exclamdown" unicode="&#xa1;" horiz-adv-x="278" 
d="M128 298h22l38 -359c3.33301 -31.333 5 -55.666 5 -72.999c0 -37.333 -18 -56 -54 -56s-54 18.667 -54 56c0 17.333 1.66699 41.666 5 72.999zM193 480c0 -15.333 -5.16504 -28.168 -15.498 -38.501s-23.166 -15.5 -38.499 -15.5c-14.667 0 -27.334 5.33301 -38.001 16
s-16 23.334 -16 38.001c0 15.333 5.16699 28.166 15.5 38.499s23.166 15.5 38.499 15.5s28.166 -5.16699 38.499 -15.5s15.5 -23.166 15.5 -38.499z" />
    <glyph glyph-name="cent" unicode="&#xa2;" horiz-adv-x="556" 
d="M253 107v486c-71.333 -15.333 -107 -94.333 -107 -237c0 -153.333 35.667 -236.333 107 -249zM285 708l-0.000976562 -92c26 0 71.667 -10.667 137 -32v-182h-28c-17.333 62 -28.666 99.667 -33.999 113c-20.667 50.667 -45.667 77 -75 79v-489
c78 3.33301 118.333 61.666 121 174.999h22c-1.33301 -124.667 -49 -192 -143 -202v-108h-32v107c-69.333 2.66699 -123 31.667 -161 87c-33.333 48.667 -50 109.334 -50 182.001c0 72 17 131.667 51 179c38 52 91.333 81.333 160 88v95h32z" />
    <glyph glyph-name="sterling" unicode="&#xa3;" horiz-adv-x="556" 
d="M44 290l-0.000976562 21.999h92c-14 24.667 -26.667 55.334 -38 92.001c-13.333 40 -20 72 -20 96c0 62 23 112.667 69 152c43.333 37.333 96.666 56 159.999 56c28 0 58.5 -5.5 91.5 -16.5s58.833 -25.5 77.5 -43.5v-192h-28
c-16.667 72.667 -30.667 121.334 -42 146.001c-26.667 56 -64 84 -112 84c-41.333 0 -74.666 -12.5 -99.999 -37.5s-38 -58.167 -38 -99.5c0 -21.333 10.667 -56 32 -104c26 -58.667 43.333 -103 52 -133h172v-22h-168c2.66699 -10.667 4 -24.667 4 -42
c0 -28.667 -11.333 -58.334 -34 -89.001c-19.333 -26.667 -42.666 -49 -69.999 -67v-2h328v108h22v-198h-428v90c28 1.33301 52.333 11.833 73 31.5s31 43.5 31 71.5c0 24.667 -8.66699 57 -26 97h-100z" />
    <glyph glyph-name="currency" unicode="&#xa4;" horiz-adv-x="556" 
d="M70 94l-44 44l58 58c-36 36.667 -54 86.667 -54 150s18 113.333 54 150l-58 58l44 44l57 -57c41.333 35.333 91.666 53 150.999 53s109.666 -17.667 150.999 -53l57 57l44 -44l-58 -58c36 -36.667 54 -86.667 54 -150s-18 -113.333 -54 -150l58 -58l-44 -44l-57 57
c-41.333 -35.333 -91.666 -53 -150.999 -53s-109.666 17.667 -150.999 53zM98 346c0 -50.667 17.333 -94 52 -130s77.334 -54 128.001 -54s93.334 18 128.001 54s52 79.333 52 130s-17.333 94 -52 130s-77.334 54 -128.001 54s-93.334 -18 -128.001 -54
s-52 -79.333 -52 -130z" />
    <glyph glyph-name="yen" unicode="&#xa5;" horiz-adv-x="556" 
d="M324 266v-244h80v-22h-260v22h80v244h-162v22h162v28l-26 54h-132v22h121l-135 278h-58v22h252v-22h-82l145 -306l162 306h-75v22h166v-22h-63l-146 -278h121v-22h-133l-17 -32v-50h150v-22h-150z" />
    <glyph glyph-name="brokenbar" unicode="&#xa6;" horiz-adv-x="222" 
d="M79 0v258h64v-258h-64zM79 434v258h64v-258h-64z" />
    <glyph glyph-name="section" unicode="&#xa7;" horiz-adv-x="556" 
d="M134 -140l-0.000976562 200h22c18 -64.667 33 -108.667 45 -132c26.667 -53.333 60.334 -80 101.001 -80c78.667 0 118 40.333 118 121c0 42.667 -31 80 -93 112l-174 84c-62 38 -93 83 -93 135c0 63.333 30 112.333 90 147c-25.333 21.333 -38 50 -38 86
c0 53.333 16 95.833 48 127.5s75 47.5 129 47.5c52 0 97.667 -14.667 137 -44v-164h-22c-14.667 54.667 -28.667 94.334 -42 119.001c-25.333 44.667 -57.333 67 -96 67c-70.667 0 -106 -36.333 -106 -109c0 -32.667 31 -65 93 -97c38.667 -18.667 96 -47.667 172 -87
c62 -34.667 93 -75.334 93 -122.001c0 -66 -29.667 -114.667 -89 -146c34 -30 51 -72 51 -126c0 -52.667 -17.833 -94.667 -53.5 -126s-80.167 -47 -133.5 -47c-55.333 0 -108.333 11.333 -159 34zM103.999 344c0 -21.333 9.66699 -39.334 29 -54.001
c12.667 -10 45.667 -28 99 -54c66.667 -32.667 128 -65.667 184 -99c15.333 6.66699 28.833 18 40.5 34s17.5 32 17.5 48c0 30.667 -32.333 62.334 -97 95.001c-108 54.667 -178.333 93.667 -211 117c-41.333 -29.333 -62 -58.333 -62 -87z" />
    <glyph glyph-name="dieresis" unicode="&#xa8;" horiz-adv-x="278" 
d="M-6 642c0 15.333 5.16895 28.1641 15.502 38.4971s23.166 15.5 38.499 15.5s28.166 -5.16699 38.499 -15.5s15.5 -23.166 15.5 -38.499s-5.16699 -28.166 -15.5 -38.499s-23.166 -15.5 -38.499 -15.5c-14.667 0 -27.334 5.33301 -38.001 16s-16 23.334 -16 38.001z
M176.002 641.998c0 15.333 5.16895 28.1641 15.502 38.4971s23.166 15.5 38.499 15.5s28.166 -5.16699 38.499 -15.5s15.5 -23.166 15.5 -38.499s-5.16699 -28.166 -15.5 -38.499s-23.166 -15.5 -38.499 -15.5c-14.667 0 -27.334 5.33301 -38.001 16s-16 23.334 -16 38.001z
" />
    <glyph glyph-name="copyright" unicode="&#xa9;" horiz-adv-x="800" 
d="M46 346c0 100 34 185.333 102 256s152 106 252 106s184 -35.333 252 -106s102 -156 102 -256s-34 -185.333 -102 -256s-152 -106 -252 -106s-184 35.333 -252 106s-102 156 -102 256zM690 346c0 82.667 -27.3311 154.667 -81.998 216c-56.667 64 -126 96 -208 96
s-151.333 -32 -208 -96c-54.667 -61.333 -82 -133.333 -82 -216s27.333 -154.667 82 -216c57.333 -64 126.666 -96 207.999 -96s150.666 32 207.999 96c54.667 61.333 82 133.333 82 216zM558.002 258l20 -0.000976562l-16 -77c-2 -10 -23.667 -18.667 -65 -26
c-32.667 -6 -58 -9 -76 -9c-68 0 -121.333 17.667 -160 53c-40.667 36.667 -61 88.667 -61 156c0 50.667 18 95.334 54 134.001c43.333 46 101.333 69 174 69c18.667 0 43.667 -3 75 -9c40.667 -7.33301 61 -16.333 61 -27v-80h-22c-8.66699 62.667 -47.667 94 -117 94
c-49.333 0 -86 -18 -110 -54c-20.667 -30 -31 -71 -31 -123c0 -127.333 49 -191 147 -191c60 0 102.333 30 127 90z" />
    <glyph glyph-name="ordfeminine" unicode="&#xaa;" horiz-adv-x="311" 
d="M78 590h-22v97c40.667 14 74 21 100 21c29.333 0 55 -5.33301 77 -16c27.333 -13.333 41 -33.333 41 -60v-220h31v-18h-88v43h-2c-17.333 -35.333 -50 -53 -98 -53c-28.667 0 -51.667 6.66699 -69 20c-20 15.333 -30 36.666 -30 63.999c0 32 12.333 55.333 37 70
c14 8.66699 40.167 16.334 78.5 23.001s63.833 14 76.5 22v57c0 33.333 -17.667 50 -53 50c-20 0 -37.333 -12.333 -52 -37c-4.66699 -7.33301 -13.667 -28.333 -27 -63zM210 518l0.000976562 41.001c-8 -4 -26.333 -10 -55 -18c-24.667 -7.33301 -40.334 -14 -47.001 -20
c-12 -10.667 -18 -28.334 -18 -53.001c0 -38 15.333 -56.667 46 -56c22 0 40.333 12.667 55 38c12.667 22 19 44.667 19 68z" />
    <glyph glyph-name="guillemotleft" unicode="&#xab;" horiz-adv-x="426" 
d="M212 357l-75 -103.002l75 -103c14 -19.333 21 -31.666 21 -36.999c0 -6 -3 -9 -9 -9s-14 4.33301 -24 13l-155 136l155 136c10 8.66699 18 13 24 13s9 -3 9 -9c0 -5.33301 -7 -17.666 -21 -36.999zM360 356.998l-75 -103.002l75 -103c14 -19.333 21 -31.666 21 -36.999
c0 -6 -3 -9 -9 -9s-14 4.33301 -24 13l-155 136l155 136c10 8.66699 18 13 24 13s9 -3 9 -9c0 -5.33301 -7 -17.666 -21 -36.999z" />
    <glyph glyph-name="logicalnot" unicode="&#xac;" horiz-adv-x="600" 
d="M490 122v200h-444v64h508v-264h-64z" />
    <glyph glyph-name="sfthyphen" unicode="&#xad;" horiz-adv-x="338" 
d="M8 174l33 122h246l-33 -122h-246z" />
    <glyph glyph-name="registered" unicode="&#xae;" horiz-adv-x="800" 
d="M232 532l-0.000976562 18h185c33.333 0 61 -7.66699 83 -23c25.333 -17.333 38 -42 38 -74c0 -54 -28 -91 -84 -111l60 -82c32.667 -44 59.334 -73.333 80.001 -88v-10h-67c-14 0 -31 16 -51 48l-76 122h-50v-112c0 -18 3.66699 -29.333 11 -34
c5.33301 -3.33301 18.333 -5.33301 39 -6v-18h-168v18c20.667 0.666992 34.167 3 40.5 7s9.5 15 9.5 33v272c0 18 -3.16699 29 -9.5 33s-19.833 6.33301 -40.5 7zM349.999 528v-174h45c47.333 0 71 31.333 71 94c0 53.333 -24.333 80 -73 80h-43zM45.999 346
c0 100 34 185.333 102 256s152 106 252 106s184 -35.333 252 -106s102 -156 102 -256s-34 -185.333 -102 -256s-152 -106 -252 -106s-184 35.333 -252 106s-102 156 -102 256zM689.999 346c0 82.667 -27.3311 154.667 -81.998 216c-56.667 64 -126 96 -208 96
s-151.333 -32 -208 -96c-54.667 -61.333 -82 -133.333 -82 -216s27.333 -154.667 82 -216c57.333 -64 126.666 -96 207.999 -96s150.666 32 207.999 96c54.667 61.333 82 133.333 82 216z" />
    <glyph glyph-name="macron" unicode="&#xaf;" horiz-adv-x="278" 
d="M280 616h-282v54h282v-54z" />
    <glyph glyph-name="macron" unicode="&#x2c9;" horiz-adv-x="278" 
d="M280 616h-282v54h282v-54z" />
    <glyph glyph-name="degree" unicode="&#xb0;" horiz-adv-x="400" 
d="M58 566c0 39.333 13.833 72.833 41.5 100.5s61.167 41.5 100.5 41.5s72.833 -13.833 100.5 -41.5s41.5 -61.167 41.5 -100.5s-13.833 -72.833 -41.5 -100.5s-61.167 -41.5 -100.5 -41.5c-38.667 0 -72 14 -100 42s-42 61.333 -42 100zM108 566
c0 -26.667 8.83301 -49.667 26.5 -69s39.5 -29 65.5 -29s47.833 9.66699 65.5 29s26.5 42.333 26.5 69s-8.83301 49.667 -26.5 69s-39.5 29 -65.5 29s-47.833 -9.66699 -65.5 -29s-26.5 -42.333 -26.5 -69z" />
    <glyph glyph-name="plusminus" unicode="&#xb1;" horiz-adv-x="600" 
d="M268 338v170h64v-170h222v-64h-222v-170h-64v170h-222v64h222zM46 0v64h508v-64h-508z" />
    <glyph glyph-name="twosuperior" unicode="&#xb2;" horiz-adv-x="333" 
d="M292 393h18.001v-109h-274v59l127 117c48 52 72 100.667 72 146c0 56 -22.333 84 -67 84c-24 0 -42 -9 -54 -27c-6.66699 -10 -20.667 -44 -42 -102h-22v129c38 12 77.667 18 119 18s75 -8.33301 101 -25c30 -20 45 -49.667 45 -89c0 -43.333 -25.667 -88 -77 -134
c-26.667 -24 -79.334 -62 -158.001 -114v-2h212v49z" />
    <glyph glyph-name="threesuperior" unicode="&#xb3;" horiz-adv-x="333" 
d="M43 565l-0.00292969 113.001c36 20 75.333 30 118 30c36.667 0 68.334 -8.33301 95.001 -25c31.333 -19.333 47 -46 47 -80c0 -24.667 -8.66699 -46.167 -26 -64.5s-38.666 -29.833 -63.999 -34.5v-2c65.333 -9.33301 98 -45 98 -107c0 -39.333 -17 -70.333 -51 -93
c-28.667 -18.667 -64 -28 -106 -28c-48.667 0 -89 10.667 -121 32v122h22c15.333 -49.333 29 -83.333 41 -102c14.667 -22.667 33.667 -34 57 -34c54.667 0 82 35.667 82 107c0 37.333 -10.333 63 -31 77c-17.333 12 -45.666 18 -84.999 18v18c40.667 0 67 4.33301 79 13
c16.667 12 25 38.333 25 79c0 57.333 -21.667 86 -65 86c-26.667 0 -48 -15 -64 -45c-3.33301 -6.66699 -13 -33.334 -29 -80.001h-22z" />
    <glyph glyph-name="acute" unicode="&#xb4;" horiz-adv-x="278" 
d="M113 576h-43l123 140c20 22.667 38 34 54 34c24.667 0 37 -12 37 -36c0 -14 -9.66699 -27.667 -29 -41z" />
    <glyph glyph-name="mu" unicode="&#xb5;" horiz-adv-x="537" 
d="M505 22v-22h-148v66h-2c-8.66699 -25.333 -25.5 -45.333 -50.5 -60s-51.5 -22 -79.5 -22c-18 0 -32.667 1.33301 -44 4v-162h-148v22h54v638h-54v22h148v-396c0 -30 4.33301 -52 13 -66c11.333 -17.333 31 -26 59 -26c36.667 0 64 17 82 51c14.667 27.333 22 61 22 101
v314h-58v22h152v-486h54z" />
    <glyph glyph-name="mu" unicode="&#x3bc;" horiz-adv-x="537" 
d="M505 22v-22h-148v66h-2c-8.66699 -25.333 -25.5 -45.333 -50.5 -60s-51.5 -22 -79.5 -22c-18 0 -32.667 1.33301 -44 4v-162h-148v22h54v638h-54v22h148v-396c0 -30 4.33301 -52 13 -66c11.333 -17.333 31 -26 59 -26c36.667 0 64 17 82 51c14.667 27.333 22 61 22 101
v314h-58v22h152v-486h54z" />
    <glyph glyph-name="paragraph" unicode="&#xb6;" horiz-adv-x="600" 
d="M544 692v-22.001c-54.667 0 -82 -16 -82 -48v-796h-64v834h-58v-834h-64v460c-62 0 -109.833 18.333 -143.5 55s-50.5 86.334 -50.5 149.001c0 70 17 121.167 51 153.5s86.333 48.5 157 48.5h254z" />
    <glyph glyph-name="ch270" unicode="&#xb7;" horiz-adv-x="249" 
d="M38 348c0 22.667 7.66699 41.667 23 57s34.333 23 57 23s41.834 -7.66699 57.501 -23s23.5 -34.333 23.5 -57s-7.83301 -41.834 -23.5 -57.501s-34.834 -23.5 -57.501 -23.5s-41.667 7.83301 -57 23.5s-23 34.834 -23 57.501z" />
    <glyph glyph-name="ch270" unicode="&#x2219;" horiz-adv-x="249" 
d="M38 348c0 22.667 7.66699 41.667 23 57s34.333 23 57 23s41.834 -7.66699 57.501 -23s23.5 -34.333 23.5 -57s-7.83301 -41.834 -23.5 -57.501s-34.834 -23.5 -57.501 -23.5s-41.667 7.83301 -57 23.5s-23 34.834 -23 57.501z" />
    <glyph glyph-name="cedilla" unicode="&#xb8;" horiz-adv-x="278" 
d="M114 0l32.001 -0.000976562l-28 -64c26.667 2.66699 37 4 31 4c21.333 0 39.166 -6.66699 53.499 -20s21.5 -30.666 21.5 -51.999c0 -53.333 -38.333 -80 -115 -80c-29.333 0 -58 6 -86 18l13 28c22 -9.33301 43.667 -14 65 -14c42 0 63 15.667 63 47
c0 28.667 -15 43 -45 43c-10 0 -21.667 -3.33301 -35 -10l-12 6z" />
    <glyph glyph-name="onesuperior" unicode="&#xb9;" horiz-adv-x="333" 
d="M240 284l-150 -0.000976562v18h44v334c-12 -10 -36.667 -25.333 -74 -46l-10 22c56 26.667 97.333 57.334 124 92.001h32v-402h34v-18z" />
    <glyph glyph-name="ordmasculine" unicode="&#xba;" horiz-adv-x="311" 
d="M14 546c0 46 11.667 84 35 114c26 32 61.333 48 106 48s80 -16 106 -48c23.333 -30 35 -68 35 -114s-11.667 -84 -35 -114c-26 -32 -61.333 -48 -106 -48s-80 16 -106 48c-23.333 30 -35 68 -35 114zM218 546c0 45.333 -1.66699 75.666 -5 90.999
c-8.66699 36.667 -28 55 -58 55s-49.333 -18.333 -58 -55c-3.33301 -15.333 -5 -45.666 -5 -90.999c0 -44.667 1.66699 -75 5 -91c8.66699 -36.667 28 -55 58 -55s49.333 18.333 58 55c3.33301 16 5 46.333 5 91z" />
    <glyph glyph-name="guillemotright" unicode="&#xbb;" horiz-adv-x="426" 
d="M214 151l75 103.002l-75 103c-14 19.333 -21 31.666 -21 36.999c0 6 3 9 9 9s14 -4.33301 24 -13l155 -136l-155 -136c-10 -8.66699 -18 -13 -24 -13s-9 3 -9 9c0 5.33301 7 17.666 21 36.999zM66 151.002l75 103.002l-75 103c-14 19.333 -21 31.666 -21 36.999
c0 6 3 9 9 9s14 -4.33301 24 -13l155 -136l-155 -136c-10 -8.66699 -18 -13 -24 -13s-9 3 -9 9c0 5.33301 7 17.666 21 36.999z" />
    <glyph glyph-name="onequarter" unicode="&#xbc;" horiz-adv-x="834" 
d="M474 130v26l216 268h42v-256h54v-38h-54v-112h36v-18h-152v18h44v112h-186zM518 168h142v174h-2zM220 284l-150 -0.000976562v18h44v334c-12 -10 -36.667 -25.333 -74 -46l-10 22c56 26.667 97.333 57.334 124 92.001h32v-402h34v-18zM233 -16.001h-70l431 724h70z" />
    <glyph glyph-name="onehalf" unicode="&#xbd;" horiz-adv-x="834" 
d="M216 284l-150 -0.000976562v18h44v334c-12 -10 -36.667 -25.333 -74 -46l-10 22c56 26.667 97.333 57.334 124 92.001h32v-402h34v-18zM221 -16.001h-70l431 724h70zM781 108.999h18.001v-109h-274v59l127 117c48 52 72 100.667 72 146c0 56 -22.333 84 -67 84
c-24 0 -42 -9 -54 -27c-6.66699 -10 -20.667 -44 -42 -102h-22v129c38 12 77.667 18 119 18s75 -8.33301 101 -25c30 -20 45 -49.667 45 -89c0 -43.333 -25.667 -88 -77 -134c-26.667 -24 -79.334 -62 -158.001 -114v-2h212v49z" />
    <glyph glyph-name="threequarters" unicode="&#xbe;" horiz-adv-x="834" 
d="M51 565l-0.00195312 113.001c36 20 75.333 30 118 30c36.667 0 68.334 -8.33301 95.001 -25c31.333 -19.333 47 -46 47 -80c0 -27.333 -11 -50.333 -33 -69c-20 -16 -44.333 -26 -73 -30v-2c76 -9.33301 114 -45 114 -107c0 -39.333 -17 -70.333 -51 -93
c-28.667 -18.667 -64 -28 -106 -28c-48.667 0 -89 10.667 -121 32v122h22c15.333 -49.333 29 -83.333 41 -102c14.667 -22.667 33.667 -34 57 -34c57.333 0 86 35.667 86 107c0 37.333 -11 63.333 -33 78c-18 11.333 -47 17 -87 17v18c42.667 0 70.334 4 83.001 12
c19.333 12 29 38.667 29 80c0 57.333 -24.333 86 -73 86c-26.667 0 -48 -15 -64 -45c-3.33301 -6.66699 -13 -33.334 -29 -80.001h-22zM252.998 -15.999h-70l431 724h70zM485.998 130.001v26l216 268h42v-256h54v-38h-54v-112h36v-18h-152v18h44v112h-186zM529.998 168.001
h142v174h-2z" />
    <glyph glyph-name="questiondown" unicode="&#xbf;" horiz-adv-x="426" 
d="M378 59v-198.998c-62.667 -33.333 -121.667 -50 -177 -50c-50 0 -92.667 13.667 -128 41c-38 30 -57 69.333 -57 118c0 40 11.667 75.667 35 107c18.667 25.333 56.334 61.333 113.001 108c21.333 17.333 34.666 33.666 39.999 48.999c4 11.333 6 35.666 6 72.999h22v-47
c0 -30.667 -9.33301 -59 -28 -85l-52 -73c-18.667 -34.667 -28 -76.667 -28 -126c0 -95.333 30 -143 90 -143c40.667 0 74 29.333 100 88c10 22 24 68.333 42 139h22zM267 480.002c0 -15.333 -5.16504 -28.168 -15.498 -38.501s-23.166 -15.5 -38.499 -15.5
c-14.667 0 -27.334 5.33301 -38.001 16s-16 23.334 -16 38.001c0 15.333 5.16699 28.166 15.5 38.499s23.166 15.5 38.499 15.5s28.166 -5.16699 38.499 -15.5s15.5 -23.166 15.5 -38.499z" />
    <glyph glyph-name="Agrave" unicode="&#xc0;" 
d="M166 0h-182v22h58l232 678h64l220 -678h40v-22h-222v22h74l-82 256h-211l-87 -256h96v-22zM264 593l-100 -293h197l-95 293h-2zM323 770h-39l-128 87c-17.333 12 -26 24.333 -26 37c0 22 11 33 33 33c14.667 0 31 -10.333 49 -31z" />
    <glyph glyph-name="Aacute" unicode="&#xc1;" 
d="M166 0h-182v22h58l232 678h64l220 -678h40v-22h-222v22h74l-82 256h-211l-87 -256h96v-22zM264 593l-100 -293h197l-95 293h-2zM322 769l-39.001 0.000976562l111 126c18 20.667 34.333 31 49 31c8.66699 0 16.334 -3.33301 23.001 -10s10 -14.334 10 -23.001
c0 -12.667 -8.66699 -25 -26 -37z" />
    <glyph glyph-name="Acircumflex" unicode="&#xc2;" 
d="M166 0h-182v22h58l232 678h64l220 -678h40v-22h-222v22h74l-82 256h-211l-87 -256h96v-22zM264 593l-100 -293h197l-95 293h-2zM421 730h-34l-84 89l-84 -89h-34l89 136h58z" />
    <glyph glyph-name="Atilde" unicode="&#xc3;" 
d="M166 0h-182v22h58l232 678h64l220 -678h40v-22h-222v22h74l-82 256h-211l-87 -256h96v-22zM264 593l-100 -293h197l-95 293h-2zM197 770h-23.001c7.33301 30.667 15.666 52.667 24.999 66c14 19.333 34 29 60 29c14 0 33.833 -7.66699 59.5 -23s41.834 -23 48.501 -23
c14 0 28.333 15.333 43 46h24c-14 -63.333 -42 -95 -84 -95c-12 0 -31.333 7.5 -58 22.5s-44 22.5 -52 22.5c-17.333 0 -31.666 -15 -42.999 -45z" />
    <glyph glyph-name="Adieresis" unicode="&#xc4;" 
d="M166 0h-182v22h58l232 678h64l220 -678h40v-22h-222v22h74l-82 256h-211l-87 -256h96v-22zM264 593l-100 -293h197l-95 293h-2zM161 802c0 15.333 5.16895 28.1641 15.502 38.4971s23.166 15.5 38.499 15.5s28.166 -5.16699 38.499 -15.5s15.5 -23.166 15.5 -38.499
s-5.16699 -28.166 -15.5 -38.499s-23.166 -15.5 -38.499 -15.5c-14.667 0 -27.334 5.33301 -38.001 16s-16 23.334 -16 38.001zM343.002 801.998c0 15.333 5.16895 28.1641 15.502 38.4971s23.166 15.5 38.499 15.5s28.166 -5.16699 38.499 -15.5s15.5 -23.166 15.5 -38.499
s-5.16699 -28.166 -15.5 -38.499s-23.166 -15.5 -38.499 -15.5c-14.667 0 -27.334 5.33301 -38.001 16s-16 23.334 -16 38.001z" />
    <glyph glyph-name="Aring" unicode="&#xc5;" 
d="M166 0h-182v22h58l232 678h64l220 -678h40v-22h-222v22h74l-82 256h-211l-87 -256h96v-22zM264 593l-100 -293h197l-95 293h-2zM202 838c0 28.667 10.167 53.167 30.5 73.5s44.833 30.5 73.5 30.5s53.167 -10.167 73.5 -30.5s30.5 -44.833 30.5 -73.5
s-10.167 -53.167 -30.5 -73.5s-44.833 -30.5 -73.5 -30.5s-53.167 10.167 -73.5 30.5s-30.5 44.833 -30.5 73.5zM246 838c0 -16.667 5.83301 -30.834 17.5 -42.501s25.834 -17.5 42.501 -17.5s30.834 5.83301 42.501 17.5s17.5 25.834 17.5 42.501
s-5.83301 30.834 -17.5 42.501s-25.834 17.5 -42.501 17.5s-30.834 -5.83301 -42.501 -17.5s-17.5 -25.834 -17.5 -42.501z" />
    <glyph glyph-name="AE" unicode="&#xc6;" horiz-adv-x="833" 
d="M141 300h183v356h-2zM85 0l-166.001 -0.00195312v22h50l340 648h-44v22h507v-222h-22c-26 91.333 -46.333 148 -61 170c-12.667 20 -32.334 30 -59.001 30h-198v-300h78c30.667 0 54 16.333 70 49c8 16.667 16 46.334 24 89.001h22v-298h-22
c-8 42.667 -16 72.334 -24 89.001c-16 32.667 -39.333 49 -70 49h-78v-326h176c32 0 59 14.667 81 44c16.667 22 31.334 53.667 44.001 95c8.66699 32 17.334 63.667 26.001 95h22v-256h-516v22h59v256h-195l-134 -256h90v-22z" />
    <glyph glyph-name="Ccedilla" unicode="&#xc7;" 
d="M530 670v-200h-22c-26 82 -42 128.333 -48 139c-26.667 51.333 -63.667 77 -111 77c-71.333 0 -120.333 -42 -147 -126c-16 -50.667 -24 -122 -24 -214c0 -100 7.66699 -173 23 -219c26.667 -80.667 79 -121 157 -121c40.667 0 71.667 17.667 93 53
c18.667 30.667 39.667 95 63 193h22v-226c-54 -28 -113.333 -42 -178 -42l-21 -48c26.667 2.66699 37 4 31 4c21.333 0 39.166 -6.66699 53.499 -20s21.5 -30.666 21.5 -51.999c0 -53.333 -38.333 -80 -115 -80c-29.333 0 -58 6 -86 18l13 28c22 -9.33301 43.667 -14 65 -14
c42 0 63 15.667 63 47c0 28.667 -15 43 -45 43c-10 0 -21.667 -3.33301 -35 -10l-12 6l35 80c-87.333 8.66699 -155.666 49.667 -204.999 123c-44.667 66 -67 145 -67 237c0 99.333 25.333 182.666 76 249.999c56 74.667 132 112 228 112c60.667 0 118 -12.667 172 -38z" />
    <glyph glyph-name="Egrave" unicode="&#xc8;" 
d="M559 0l-517.001 -0.000976562v22h60v648h-60v22h508v-222h-22c-26 90.667 -46.333 147.334 -61 170.001c-13.333 20 -33 30 -59 30h-198v-300h78c30.667 0 54 16.333 70 49c8 16 16 45.667 24 89h22v-298h-22c-8 43.333 -16 73 -24 89c-16 32.667 -39.333 49 -70 49h-78
v-326h176c56.667 0 98.334 46.333 125.001 139c6 21.333 14.667 53 26 95h22v-256zM322.999 769.999h-39l-128 87c-17.333 12 -26 24.333 -26 37c0 22 11 33 33 33c14.667 0 31 -10.333 49 -31z" />
    <glyph glyph-name="Eacute" unicode="&#xc9;" 
d="M559 0l-517.001 -0.000976562v22h60v648h-60v22h508v-222h-22c-26 90.667 -46.333 147.334 -61 170.001c-13.333 20 -33 30 -59 30h-198v-300h78c30.667 0 54 16.333 70 49c8 16 16 45.667 24 89h22v-298h-22c-8 43.333 -16 73 -24 89c-16 32.667 -39.333 49 -70 49h-78
v-326h176c56.667 0 98.334 46.333 125.001 139c6 21.333 14.667 53 26 95h22v-256zM321.999 769.999l-39.001 0.000976562l111 126c18 20.667 34.333 31 49 31c8.66699 0 16.334 -3.33301 23.001 -10s10 -14.334 10 -23.001c0 -12.667 -8.66699 -25 -26 -37z" />
    <glyph glyph-name="Ecircumflex" unicode="&#xca;" 
d="M559 0l-517.001 -0.000976562v22h60v648h-60v22h508v-222h-22c-26 90.667 -46.333 147.334 -61 170.001c-13.333 20 -33 30 -59 30h-198v-300h78c30.667 0 54 16.333 70 49c8 16 16 45.667 24 89h22v-298h-22c-8 43.333 -16 73 -24 89c-16 32.667 -39.333 49 -70 49h-78
v-326h176c56.667 0 98.334 46.333 125.001 139c6 21.333 14.667 53 26 95h22v-256zM420.999 739.999h-34l-84 89l-84 -89h-34l89 136h58z" />
    <glyph glyph-name="Edieresis" unicode="&#xcb;" 
d="M559 0l-517.001 -0.00195312v22h60v648h-60v22h508v-222h-22c-26 91.333 -46.333 148 -61 170c-12.667 20 -32.334 30 -59.001 30h-198v-300h78c30.667 0 54 16.333 70 49c8 16.667 16 46.334 24 89.001h22v-298h-22c-8 42.667 -16 72.334 -24 89.001
c-16 32.667 -39.333 49 -70 49h-78v-326h176c32 0 59 14.667 81 44c16.667 22 31.334 53.667 44.001 95c8.66699 32 17.334 63.667 26.001 95h22v-256zM172.999 801.998c0 15.333 5.16895 28.1641 15.502 38.4971s23.166 15.5 38.499 15.5s28.166 -5.16699 38.499 -15.5
s15.5 -23.166 15.5 -38.499s-5.16699 -28.166 -15.5 -38.499s-23.166 -15.5 -38.499 -15.5c-14.667 0 -27.334 5.33301 -38.001 16s-16 23.334 -16 38.001zM355.001 801.996c0 15.333 5.16895 28.1641 15.502 38.4971s23.166 15.5 38.499 15.5s28.166 -5.16699 38.499 -15.5
s15.5 -23.166 15.5 -38.499s-5.16699 -28.166 -15.5 -38.499s-23.166 -15.5 -38.499 -15.5c-14.667 0 -27.334 5.33301 -38.001 16s-16 23.334 -16 38.001z" />
    <glyph glyph-name="Igrave" unicode="&#xcc;" horiz-adv-x="315" 
d="M271 0h-228v22h60v648h-60v22h228v-22h-60v-648h60v-22zM178 770h-39l-128 87c-17.333 12 -26 24.333 -26 37c0 22 11 33 33 33c14.667 0 31 -10.333 49 -31z" />
    <glyph glyph-name="Iacute" unicode="&#xcd;" horiz-adv-x="315" 
d="M271 0h-228v22h60v648h-60v22h228v-22h-60v-648h60v-22zM177 770l-39.001 0.000976562l111 126c18 20.667 34.333 31 49 31c8.66699 0 16.334 -3.33301 23.001 -10s10 -14.334 10 -23.001c0 -12.667 -8.66699 -25 -26 -37z" />
    <glyph glyph-name="Icircumflex" unicode="&#xce;" horiz-adv-x="315" 
d="M271 0h-228v22h60v648h-60v22h228v-22h-60v-648h60v-22zM305 736h-42l-105 112l-105 -112h-42l111 170h72z" />
    <glyph glyph-name="Idieresis" unicode="&#xcf;" horiz-adv-x="315" 
d="M271 0h-228v22h60v648h-60v22h228v-22h-60v-648h60v-22zM13 802c0 15.333 5.16895 28.1641 15.502 38.4971s23.166 15.5 38.499 15.5s28.166 -5.16699 38.499 -15.5s15.5 -23.166 15.5 -38.499s-5.16699 -28.166 -15.5 -38.499s-23.166 -15.5 -38.499 -15.5
c-14.667 0 -27.334 5.33301 -38.001 16s-16 23.334 -16 38.001zM195.002 801.998c0 15.333 5.16895 28.1641 15.502 38.4971s23.166 15.5 38.499 15.5s28.166 -5.16699 38.499 -15.5s15.5 -23.166 15.5 -38.499s-5.16699 -28.166 -15.5 -38.499s-23.166 -15.5 -38.499 -15.5
c-14.667 0 -27.334 5.33301 -38.001 16s-16 23.334 -16 38.001z" />
    <glyph glyph-name="Eth" unicode="&#xd0;" horiz-adv-x="685" 
d="M210 348v-325.998h62c92 0 156.333 32.667 193 98c27.333 49.333 41 124.666 41 225.999s-13.667 176.666 -41 225.999c-36.667 65.333 -101 98 -193 98h-62v-300h151v-22h-151zM102 22.002v326h-82v22h82v300h-60v22h238c106 0 190.833 -31.333 254.5 -94
s95.5 -146.667 95.5 -252s-31.833 -189.333 -95.5 -252s-148.5 -94 -254.5 -94h-238v22h60z" />
    <glyph glyph-name="Ntilde" unicode="&#xd1;" horiz-adv-x="648" 
d="M524 0l-386 650h-2v-628h84v-22h-178v22h66v648h-66v22h192l294 -500h2v478h-80v22h174v-22h-66v-670h-34zM205 760h-27.999c8.66699 36.667 18.334 62 29.001 76c16 21.333 39.667 32 71 32c18 0 41.333 -7.66699 70 -23s48 -23 58 -23c17.333 0 34 16.667 50 50h28
c-15.333 -72 -48 -108 -98 -108c-16.667 0 -39.834 7.66699 -69.501 23s-49.834 23 -60.501 23c-22 0 -38.667 -16.667 -50 -50z" />
    <glyph glyph-name="Ograve" unicode="&#xd2;" horiz-adv-x="685" 
d="M54 346c0 94 24 175.667 72 245c54 78 126 117 216 117s162 -39 216 -117c48 -69.333 72 -151 72 -245c0 -93.333 -24 -174.666 -72 -243.999c-54.667 -78.667 -126.667 -118 -216 -118s-161.333 39.333 -216 118c-48 69.333 -72 150.666 -72 243.999zM178 346
c0 -98 6.33301 -169.333 19 -214c24 -84 72.333 -126 145 -126s121 42 145 126c12.667 44.667 19 116 19 214s-6.33301 169.333 -19 214c-24 84 -72.333 126 -145 126s-121 -42 -145 -126c-12.667 -44.667 -19 -116 -19 -214zM361 780h-39l-128 87
c-17.333 12 -26 24.333 -26 37c0 22 11 33 33 33c14.667 0 31 -10.333 49 -31z" />
    <glyph glyph-name="Oacute" unicode="&#xd3;" horiz-adv-x="685" 
d="M54 346c0 94 24 175.667 72 245c54 78 126 117 216 117s162 -39 216 -117c48 -69.333 72 -151 72 -245c0 -93.333 -24 -174.666 -72 -243.999c-54.667 -78.667 -126.667 -118 -216 -118s-161.333 39.333 -216 118c-48 69.333 -72 150.666 -72 243.999zM178 346
c0 -98 6.33301 -169.333 19 -214c24 -84 72.333 -126 145 -126s121 42 145 126c12.667 44.667 19 116 19 214s-6.33301 169.333 -19 214c-24 84 -72.333 126 -145 126s-121 -42 -145 -126c-12.667 -44.667 -19 -116 -19 -214zM361 780l-39.001 0.000976562l111 126
c18 20.667 34.333 31 49 31c8.66699 0 16.334 -3.33301 23.001 -10s10 -14.334 10 -23.001c0 -12.667 -8.66699 -25 -26 -37z" />
    <glyph glyph-name="Ocircumflex" unicode="&#xd4;" horiz-adv-x="685" 
d="M54 346c0 94 24 175.667 72 245c54 78 126 117 216 117s162 -39 216 -117c48 -69.333 72 -151 72 -245c0 -93.333 -24 -174.666 -72 -243.999c-54.667 -78.667 -126.667 -118 -216 -118s-161.333 39.333 -216 118c-48 69.333 -72 150.666 -72 243.999zM178 346
c0 -98 6.33301 -169.333 19 -214c24 -84 72.333 -126 145 -126s121 42 145 126c12.667 44.667 19 116 19 214s-6.33301 169.333 -19 214c-24 84 -72.333 126 -145 126s-121 -42 -145 -126c-12.667 -44.667 -19 -116 -19 -214zM459 740h-34l-84 89l-84 -89h-34l89 136h58z
" />
    <glyph glyph-name="Otilde" unicode="&#xd5;" horiz-adv-x="685" 
d="M54 346c0 94 24 175.667 72 245c54 78 126 117 216 117s162 -39 216 -117c48 -69.333 72 -151 72 -245c0 -93.333 -24 -174.666 -72 -243.999c-54.667 -78.667 -126.667 -118 -216 -118s-161.333 39.333 -216 118c-48 69.333 -72 150.666 -72 243.999zM178 346
c0 -98 6.33301 -169.333 19 -214c24 -84 72.333 -126 145 -126s121 42 145 126c12.667 44.667 19 116 19 214s-6.33301 169.333 -19 214c-24 84 -72.333 126 -145 126s-121 -42 -145 -126c-12.667 -44.667 -19 -116 -19 -214zM236 780h-23.001
c7.33301 30.667 15.666 52.667 24.999 66c14 19.333 34 29 60 29c14 0 33.833 -7.66699 59.5 -23s41.834 -23 48.501 -23c14 0 28.333 15.333 43 46h24c-14 -63.333 -42 -95 -84 -95c-12 0 -31.333 7.5 -58 22.5s-44 22.5 -52 22.5c-17.333 0 -31.666 -15 -42.999 -45z" />
    <glyph glyph-name="Odieresis" unicode="&#xd6;" horiz-adv-x="685" 
d="M54 346c0 94 24 175.667 72 245c54 78 126 117 216 117s162 -39 216 -117c48 -69.333 72 -151 72 -245c0 -93.333 -24 -174.666 -72 -243.999c-54.667 -78.667 -126.667 -118 -216 -118s-161.333 39.333 -216 118c-48 69.333 -72 150.666 -72 243.999zM178 346
c0 -98 6.33301 -169.333 19 -214c24 -84 72.333 -126 145 -126s121 42 145 126c12.667 44.667 19 116 19 214s-6.33301 169.333 -19 214c-24 84 -72.333 126 -145 126s-121 -42 -145 -126c-12.667 -44.667 -19 -116 -19 -214zM204 802
c0 15.333 5.16895 28.1641 15.502 38.4971s23.166 15.5 38.499 15.5s28.166 -5.16699 38.499 -15.5s15.5 -23.166 15.5 -38.499s-5.16699 -28.166 -15.5 -38.499s-23.166 -15.5 -38.499 -15.5c-14.667 0 -27.334 5.33301 -38.001 16s-16 23.334 -16 38.001zM386.002 801.998
c0 15.333 5.16895 28.1641 15.502 38.4971s23.166 15.5 38.499 15.5s28.166 -5.16699 38.499 -15.5s15.5 -23.166 15.5 -38.499s-5.16699 -28.166 -15.5 -38.499s-23.166 -15.5 -38.499 -15.5c-14.667 0 -27.334 5.33301 -38.001 16s-16 23.334 -16 38.001z" />
    <glyph glyph-name="multiply" unicode="&#xd7;" horiz-adv-x="600" 
d="M254 254l-208 208l46 46l208 -208l208 208l46 -46l-208 -208l208 -208l-46 -46l-208 208l-208 -208l-46 46z" />
    <glyph glyph-name="Oslash" unicode="&#xd8;" horiz-adv-x="685" 
d="M202 120l256 506.999c-25.333 39.333 -64 59 -116 59c-72.667 0 -121 -42 -145 -126c-12.667 -44.667 -19 -116 -19 -214c0 -99.333 8 -174.666 24 -225.999zM479 581.999l-257 -510.001c24.667 -44 64.667 -66 120 -66c72.667 0 121 42 145 126
c12.667 44.667 19 116 19 214c0 106.667 -9 185.334 -27 236.001zM102 -80.002l67 133.999c-76.667 70 -115 167.333 -115 292c0 94 24 175.667 72 245c54 78 126 117 216 117c47.333 0 92.333 -13.667 135 -41l53 105h44l-65 -129c80.667 -68 121 -167 121 -297
c0 -93.333 -24 -174.666 -72 -243.999c-54.667 -78.667 -126.667 -118 -216 -118c-50.667 0 -97.667 15 -141 45l-55 -109h-44z" />
    <glyph glyph-name="Ugrave" unicode="&#xd9;" 
d="M30 692l240 0.000976562v-22h-72v-503c0 -46.667 10 -84 30 -112c23.333 -32.667 57.333 -49 102 -49c50 0 89.5 15.5 118.5 46.5s43.5 71.5 43.5 121.5v496h-90v22h178v-22h-60v-497c0 -58.667 -17.667 -104.834 -53 -138.501s-82.333 -50.5 -141 -50.5
c-157.333 0 -236 68.667 -236 206v480h-60v22zM356 740.001h-39l-128 87c-17.333 12 -26 24.333 -26 37c0 22 11 33 33 33c14.667 0 31 -10.333 49 -31z" />
    <glyph glyph-name="Uacute" unicode="&#xda;" 
d="M30 692l240 0.000976562v-22h-72v-503c0 -46.667 10 -84 30 -112c23.333 -32.667 57.333 -49 102 -49c50 0 89.5 15.5 118.5 46.5s43.5 71.5 43.5 121.5v496h-90v22h178v-22h-60v-497c0 -58.667 -17.667 -104.834 -53 -138.501s-82.333 -50.5 -141 -50.5
c-157.333 0 -236 68.667 -236 206v480h-60v22zM355 740.001l-39.001 0.000976562l111 126c18 20.667 34.333 31 49 31c8.66699 0 16.334 -3.33301 23.001 -10s10 -14.334 10 -23.001c0 -12.667 -8.66699 -25 -26 -37z" />
    <glyph glyph-name="Ucircumflex" unicode="&#xdb;" 
d="M30 692l240 0.00195312v-22h-72v-503c0 -46.667 10.333 -84.334 31 -113.001c22.667 -32 56.334 -48 101.001 -48c49.333 0 88.666 15.5 117.999 46.5s44 71.5 44 121.5v496h-90v22h178v-22h-60v-497c0 -58.667 -17.667 -104.834 -53 -138.501s-82.333 -50.5 -141 -50.5
c-157.333 0 -236 68.667 -236 206v480h-60v22zM459 736.002h-42l-105 112l-105 -112h-42l111 170h72z" />
    <glyph glyph-name="Udieresis" unicode="&#xdc;" 
d="M30 692l240 0.00195312v-22h-72v-503c0 -46.667 10.333 -84.334 31 -113.001c22.667 -32 56.334 -48 101.001 -48c49.333 0 88.666 15.5 117.999 46.5s44 71.5 44 121.5v496h-90v22h178v-22h-60v-497c0 -58.667 -17.667 -104.834 -53 -138.501s-82.333 -50.5 -141 -50.5
c-157.333 0 -236 68.667 -236 206v480h-60v22zM167 802.002c0 15.333 5.16895 28.1641 15.502 38.4971s23.166 15.5 38.499 15.5s28.166 -5.16699 38.499 -15.5s15.5 -23.166 15.5 -38.499s-5.16699 -28.166 -15.5 -38.499s-23.166 -15.5 -38.499 -15.5
c-14.667 0 -27.334 5.33301 -38.001 16s-16 23.334 -16 38.001zM349.002 802c0 15.333 5.16895 28.1641 15.502 38.4971s23.166 15.5 38.499 15.5s28.166 -5.16699 38.499 -15.5s15.5 -23.166 15.5 -38.499s-5.16699 -28.166 -15.5 -38.499s-23.166 -15.5 -38.499 -15.5
c-14.667 0 -27.334 5.33301 -38.001 16s-16 23.334 -16 38.001z" />
    <glyph glyph-name="Yacute" unicode="&#xdd;" horiz-adv-x="556" 
d="M-10 670v22h260v-22h-82l145 -306l162 306h-75v22h166v-22h-63l-175 -332v-316h80v-22h-268v22h80v294l-172 354h-58zM344 740l-39.001 0.000976562l111 126c18 20.667 34.333 31 49 31c8.66699 0 16.334 -3.33301 23.001 -10s10 -14.334 10 -23.001
c0 -12.667 -8.66699 -25 -26 -37z" />
    <glyph glyph-name="Thorn" unicode="&#xde;" 
d="M320 0l-260 -0.000976562v22h60v648h-60v22h228v-22h-60v-134h119c66.667 0 122 -13.333 166 -40c52.667 -32 79 -79 79 -141c0 -63.333 -26.333 -109.666 -79 -138.999c-41.333 -24 -96.333 -36 -165 -36h-120v-158h92v-22zM228 513.999l-0.000976562 -312.001h94
c56.667 0 96.834 11.333 120.501 34s35.5 62.334 35.5 119.001c0 106 -49 159 -147 159h-103z" />
    <glyph glyph-name="germandbls" unicode="&#xdf;" horiz-adv-x="556" 
d="M28 0v22.001h54v520c0 56 17.667 98 53 126c32 26.667 76.667 40 134 40c50 0 91.333 -10.667 124 -32c38 -25.333 57 -61.666 57 -108.999c0 -40.667 -11.333 -72.667 -34 -96c-20 -20 -51.333 -35.667 -94 -47v-2c59.333 -10.667 105.833 -35 139.5 -73
s50.5 -86.667 50.5 -146c0 -58.667 -18.667 -109.334 -56 -152.001c-39.333 -44.667 -88 -67 -146 -67c-40 0 -71 10 -93 30l13 14c20.667 -14.667 44.667 -22 72 -22c70.667 0 106 64.667 106 194c0 71.333 -11 122.333 -33 153c-26 34.667 -73 53.667 -141 57v22
c45.333 1.33301 77 11.666 95 30.999s27 52 27 98c0 39.333 -5 68.333 -15 87c-14 25.333 -38.667 38 -74 38c-60.667 0 -91 -36 -91 -108v-578h-148z" />
    <glyph glyph-name="agrave" unicode="&#xe0;" horiz-adv-x="519" 
d="M128 326h-21.998v162c59.333 24 110.333 36 153 36c46.667 0 86.667 -9.66699 120 -29c40.667 -23.333 61 -56.333 61 -99v-374h48v-22h-136v88h-2c-12 -32 -31.833 -57.333 -59.5 -76s-58.5 -28 -92.5 -28c-44 0 -80.333 12.333 -109 37s-43 58.667 -43 102
c0 52 19 89.333 57 112c24 14 65.667 26.167 125 36.5s100.666 22.5 123.999 36.5v105c0 59.333 -29 89 -87 89c-34.667 0 -60.334 -11.667 -77.001 -35c-14.667 -20.667 -34.667 -67.667 -60 -141zM352.002 206l-0.000976562 75.998c-22 -10.667 -56.667 -21.667 -104 -33
c-35.333 -8.66699 -60 -19.667 -74 -33c-18.667 -18 -28 -49 -28 -93c0 -69.333 27 -103.666 81 -102.999c42.667 0.666992 75.334 22.334 98.001 65.001c18 34 27 74.333 27 121zM277.001 575.998h-35.001l-115 78c-15.333 10.667 -23 21.667 -23 33c0 20 10 30 30 30
c12.667 0 27.334 -9.33301 44.001 -28z" />
    <glyph glyph-name="aacute" unicode="&#xe1;" horiz-adv-x="519" 
d="M128 326h-21.998v162c59.333 24 110.333 36 153 36c46.667 0 86.667 -9.66699 120 -29c40.667 -23.333 61 -56.333 61 -99v-374h48v-22h-136v88h-2c-12 -32 -31.833 -57.333 -59.5 -76s-58.5 -28 -92.5 -28c-44 0 -80.333 12.333 -109 37s-43 58.667 -43 102
c0 52 19 89.333 57 112c24 14 65.667 26.167 125 36.5s100.666 22.5 123.999 36.5v105c0 59.333 -29 89 -87 89c-34.667 0 -60.334 -11.667 -77.001 -35c-14.667 -20.667 -34.667 -67.667 -60 -141zM352.002 206l-0.000976562 75.998c-22 -10.667 -56.667 -21.667 -104 -33
c-35.333 -8.66699 -60 -19.667 -74 -33c-18.667 -18 -28 -49 -28 -93c0 -69.333 27 -103.666 81 -102.999c42.667 0.666992 75.334 22.334 98.001 65.001c18 34 27 74.333 27 121zM277.001 575.998h-35.001l100 113c16.667 18.667 31.334 28 44.001 28c20 0 30 -10 30 -30
c0 -12 -7.66699 -23 -23 -33z" />
    <glyph glyph-name="acircumflex" unicode="&#xe2;" horiz-adv-x="519" 
d="M128 326h-21.998v162c59.333 24 110.333 36 153 36c46.667 0 86.667 -9.66699 120 -29c40.667 -23.333 61 -56.333 61 -99v-374h48v-22h-136v88h-2c-12 -32 -31.833 -57.333 -59.5 -76s-58.5 -28 -92.5 -28c-44 0 -80.333 12.333 -109 37s-43 58.667 -43 102
c0 52 19 89.333 57 112c24 14 65.667 26.167 125 36.5s100.666 22.5 123.999 36.5v105c0 59.333 -29 89 -87 89c-34.667 0 -60.334 -11.667 -77.001 -35c-14.667 -20.667 -34.667 -67.667 -60 -141zM352.002 206l-0.000976562 75.998c-22 -10.667 -56.667 -21.667 -104 -33
c-35.333 -8.66699 -60 -19.667 -74 -33c-18.667 -18 -28 -49 -28 -93c0 -69.333 27 -103.666 81 -102.999c42.667 0.666992 75.334 22.334 98.001 65.001c18 34 27 74.333 27 121zM366.001 548.998h-30l-76 80l-75 -80h-31l80 122h52z" />
    <glyph glyph-name="atilde" unicode="&#xe3;" horiz-adv-x="519" 
d="M128 326h-21.998v162c59.333 24 110.333 36 153 36c46.667 0 86.667 -9.66699 120 -29c40.667 -23.333 61 -56.333 61 -99v-374h48v-22h-136v88h-2c-12 -32 -31.833 -57.333 -59.5 -76s-58.5 -28 -92.5 -28c-44 0 -80.333 12.333 -109 37s-43 58.667 -43 102
c0 52 19 89.333 57 112c24 14 65.667 26.167 125 36.5s100.666 22.5 123.999 36.5v105c0 59.333 -29 89 -87 89c-34.667 0 -60.334 -11.667 -77.001 -35c-14.667 -20.667 -34.667 -67.667 -60 -141zM352.002 206l-0.000976562 75.998c-22 -10.667 -56.667 -21.667 -104 -33
c-35.333 -8.66699 -60 -19.667 -74 -33c-18.667 -18 -28 -49 -28 -93c0 -69.333 27 -103.666 81 -102.999c42.667 0.666992 75.334 22.334 98.001 65.001c18 34 27 74.333 27 121zM166.001 575.998h-21c12 57.333 37.333 86 76 86c12.667 0 30.667 -7 54 -21
s37.666 -21 42.999 -21c13.333 0 26.333 14 39 42h22c-13.333 -57.333 -38.666 -86 -75.999 -86c-10.667 0 -28 6.83301 -52 20.5s-39.667 20.5 -47 20.5c-16 0 -28.667 -13.667 -38 -41z" />
    <glyph glyph-name="adieresis" unicode="&#xe4;" horiz-adv-x="519" 
d="M128 326h-21.999v162c59.333 24 110.333 36 153 36c46 0 86 -9.66699 120 -29c40.667 -23.333 61 -56.333 61 -99v-374h48v-22h-136v88h-2c-12 -32 -31.833 -57.333 -59.5 -76s-58.5 -28 -92.5 -28c-44.667 0 -80.667 12 -108 36c-29.333 24.667 -44 59 -44 103
c0 52 19 89.333 57 112c23.333 14 65 26.333 125 37s101.333 22.667 124 36v105c0 59.333 -29 89 -87 89c-34.667 0 -60.334 -11.667 -77.001 -35c-14.667 -20 -34.667 -67 -60 -141zM352.001 206l-0.000976562 75.999c-22 -10.667 -56.667 -21.667 -104 -33
c-36 -8.66699 -60.667 -19.667 -74 -33c-18.667 -18 -28 -49 -28 -93c0 -69.333 27 -103.666 81 -102.999c42.667 0.666992 75.334 22.334 98.001 65.001c18 33.333 27 73.666 27 120.999zM115 641.999c0 15.333 5.16895 28.1641 15.502 38.4971s23.166 15.5 38.499 15.5
s28.166 -5.16699 38.499 -15.5s15.5 -23.166 15.5 -38.499s-5.16699 -28.166 -15.5 -38.499s-23.166 -15.5 -38.499 -15.5c-14.667 0 -27.334 5.33301 -38.001 16s-16 23.334 -16 38.001zM297.002 641.997c0 15.333 5.16895 28.1641 15.502 38.4971s23.166 15.5 38.499 15.5
s28.166 -5.16699 38.499 -15.5s15.5 -23.166 15.5 -38.499s-5.16699 -28.166 -15.5 -38.499s-23.166 -15.5 -38.499 -15.5c-14.667 0 -27.334 5.33301 -38.001 16s-16 23.334 -16 38.001z" />
    <glyph glyph-name="aring" unicode="&#xe5;" horiz-adv-x="519" 
d="M128 326h-21.999v162c59.333 24 110.333 36 153 36c46 0 86 -9.66699 120 -29c40.667 -23.333 61 -56.333 61 -99v-374h48v-22h-136v88h-2c-12 -32 -31.833 -57.333 -59.5 -76s-58.5 -28 -92.5 -28c-44.667 0 -80.667 12 -108 36c-29.333 24.667 -44 59 -44 103
c0 52 19 89.333 57 112c23.333 14 65 26.333 125 37s101.333 22.667 124 36v105c0 59.333 -29 89 -87 89c-34.667 0 -60.334 -11.667 -77.001 -35c-14.667 -20 -34.667 -67 -60 -141zM352.001 206l-0.000976562 75.999c-22 -10.667 -56.667 -21.667 -104 -33
c-36 -8.66699 -60.667 -19.667 -74 -33c-18.667 -18 -28 -49 -28 -93c0 -69.333 27 -103.666 81 -102.999c42.667 0.666992 75.334 22.334 98.001 65.001c18 33.333 27 73.666 27 120.999zM156 677.999c0 28.667 10.167 53.167 30.5 73.5s44.833 30.5 73.5 30.5
s53.167 -10.167 73.5 -30.5s30.5 -44.833 30.5 -73.5s-10.167 -53.167 -30.5 -73.5s-44.833 -30.5 -73.5 -30.5s-53.167 10.167 -73.5 30.5s-30.5 44.833 -30.5 73.5zM200 677.999c0 -16.667 5.83301 -30.834 17.5 -42.501s25.834 -17.5 42.501 -17.5
s30.834 5.83301 42.501 17.5s17.5 25.834 17.5 42.501s-5.83301 30.834 -17.5 42.501s-25.834 17.5 -42.501 17.5s-30.834 -5.83301 -42.501 -17.5s-17.5 -25.834 -17.5 -42.501z" />
    <glyph glyph-name="ae" unicode="&#xe6;" horiz-adv-x="778" 
d="M337 206v76c-21.333 -10.667 -54 -21.667 -98 -33c-35.333 -9.33301 -59.333 -20.333 -72 -33c-18.667 -19.333 -28 -50.333 -28 -93c0 -68.667 24.333 -103 73 -103c46 0 79.667 20.667 101 62c16 32 24 73.333 24 124zM727 302h-285.002
c-0.666992 -6.66699 -1 -16.667 -1 -30c0 -173.333 37.333 -260 112 -260c94.667 0 146.667 59.333 156 178h22c-2.66699 -60 -18.667 -108.333 -48 -145c-32.667 -40.667 -78 -61 -136 -61c-44.667 0 -84.334 14.667 -119.001 44c-32 28 -54.667 64.333 -68 109h-2
c-14.667 -52.667 -35 -90.667 -61 -114c-29.333 -26 -70 -39 -122 -39c-41.333 0 -74.333 12.833 -99 38.5s-37 59.167 -37 100.5c0 52 19 89.333 57 112c22.667 14 63.334 26.333 122.001 37s98.334 22.667 119.001 36v105c0 59.333 -28.333 89 -85 89
c-36 0 -65.667 -21.333 -89 -64c-6 -12.667 -19.667 -50 -41 -112h-22v162c59.333 24 110.333 36 153 36c70.667 0 123.667 -20.667 159 -62c36 41.333 78.667 62 128 62c62.667 0 110.334 -22 143.001 -66c29.333 -39.333 44 -91.333 44 -156zM442.998 324h180v39
c0 92.667 -28.333 139 -85 139c-55.333 0 -87 -59.333 -95 -178z" />
    <glyph glyph-name="ccedilla" unicode="&#xe7;" horiz-adv-x="481" 
d="M426 492l0.00292969 -182.003h-28c-22.667 84 -42.334 138 -59.001 162c-14 20 -35 30 -63 30c-47.333 0 -82 -30 -104 -90c-14.667 -41.333 -22 -90.666 -22 -147.999c0 -168 43.333 -252 130 -252c84 0 127.333 58.667 130 176h22c-0.666992 -58 -13 -104.667 -37 -140
c-28 -41.333 -69.667 -62.666 -125 -63.999l-21 -48c26.667 2.66699 37 4 31 4c21.333 0 39.166 -6.66699 53.499 -20s21.5 -30.666 21.5 -51.999c0 -53.333 -38.333 -80 -115 -80c-29.333 0 -58 6 -86 18l13 28c22 -9.33301 43.667 -14 65 -14c42 0 63 15.667 63 47
c0 28.667 -15 43 -45 43c-10 0 -21.667 -3.33301 -35 -10l-12 6l36 81c-64 7.33301 -113.333 38.333 -148 93c-30 47.333 -45 105.333 -45 174c0 78.667 20.333 142.667 61 192c43.333 52 103.666 78 180.999 78c26.667 0 72.667 -10.667 138 -32z" />
    <glyph glyph-name="egrave" unicode="&#xe8;" horiz-adv-x="500" 
d="M449 302l-297 0.000976562c-0.666992 -6.66699 -1 -16.667 -1 -30c0 -173.333 41.333 -260 124 -260c94.667 0 146.667 59.333 156 178h22c-2.66699 -60.667 -19.334 -109.334 -50.001 -146.001c-33.333 -40 -79.333 -60 -138 -60c-70.667 0 -125.667 28.333 -165 85
c-35.333 50 -53 111.667 -53 185c0 70.667 17.667 131.667 53 183c40.667 58 94.667 87 162 87c62.667 0 110.334 -22 143.001 -66c29.333 -39.333 44 -91.333 44 -156zM153 324.001h192v39c0 92.667 -28.333 139 -85 139c-63.333 0 -99 -59.333 -107 -178zM277 576.001
h-35.001l-115 78c-15.333 10.667 -23 21.667 -23 33c0 20 10 30 30 30c12.667 0 27.334 -9.33301 44.001 -28z" />
    <glyph glyph-name="eacute" unicode="&#xe9;" horiz-adv-x="500" 
d="M449 302l-297 0.000976562c-0.666992 -6.66699 -1 -16.667 -1 -30c0 -173.333 41.333 -260 124 -260c94.667 0 146.667 59.333 156 178h22c-2.66699 -60.667 -19.334 -109.334 -50.001 -146.001c-33.333 -40 -79.333 -60 -138 -60c-70.667 0 -125.667 28.333 -165 85
c-35.333 50 -53 111.667 -53 185c0 70.667 17.667 131.667 53 183c40.667 58 94.667 87 162 87c62.667 0 110.334 -22 143.001 -66c29.333 -39.333 44 -91.333 44 -156zM153 324.001h192v39c0 92.667 -28.333 139 -85 139c-63.333 0 -99 -59.333 -107 -178zM277 576.001
h-35.001l100 113c16.667 18.667 31.334 28 44.001 28c20 0 30 -10 30 -30c0 -12 -7.66699 -23 -23 -33z" />
    <glyph glyph-name="ecircumflex" unicode="&#xea;" horiz-adv-x="500" 
d="M449 302l-297 0.000976562c-0.666992 -6.66699 -1 -16.667 -1 -30c0 -173.333 41.333 -260 124 -260c94.667 0 146.667 59.333 156 178h22c-2.66699 -60.667 -19.334 -109.334 -50.001 -146.001c-33.333 -40 -79.333 -60 -138 -60c-70.667 0 -125.667 28.333 -165 85
c-35.333 50 -53 111.667 -53 185c0 70.667 17.667 131.667 53 183c40.667 58 94.667 87 162 87c62.667 0 110.334 -22 143.001 -66c29.333 -39.333 44 -91.333 44 -156zM153 324.001h192v39c0 92.667 -28.333 139 -85 139c-63.333 0 -99 -59.333 -107 -178zM366 549.001h-30
l-76 80l-75 -80h-31l80 122h52z" />
    <glyph glyph-name="edieresis" unicode="&#xeb;" horiz-adv-x="500" 
d="M449 302h-297c-0.666992 -6.66699 -1 -16.667 -1 -30c0 -173.333 41.333 -260 124 -260c94.667 0 146.667 59.333 156 178h22c-2.66699 -60.667 -19.334 -109.334 -50.001 -146.001c-33.333 -40 -79.333 -60 -138 -60c-70 0 -125 28.333 -165 85
c-35.333 50.667 -53 112.334 -53 185.001c0 70 18 131 54 183c40 58 93.667 87 161 87c62.667 0 110.334 -22 143.001 -66c29.333 -39.333 44 -91.333 44 -156zM153 324h192v39c0 92.667 -28.333 139 -85 139c-63.333 0 -99 -59.333 -107 -178zM117 642
c0 15.333 5.16895 28.1641 15.502 38.4971s23.166 15.5 38.499 15.5s28.166 -5.16699 38.499 -15.5s15.5 -23.166 15.5 -38.499s-5.16699 -28.166 -15.5 -38.499s-23.166 -15.5 -38.499 -15.5c-14.667 0 -27.334 5.33301 -38.001 16s-16 23.334 -16 38.001zM299.002 641.998
c0 15.333 5.16895 28.1641 15.502 38.4971s23.166 15.5 38.499 15.5s28.166 -5.16699 38.499 -15.5s15.5 -23.166 15.5 -38.499s-5.16699 -28.166 -15.5 -38.499s-23.166 -15.5 -38.499 -15.5c-14.667 0 -27.334 5.33301 -38.001 16s-16 23.334 -16 38.001z" />
    <glyph glyph-name="igrave" unicode="&#xec;" horiz-adv-x="278" 
d="M186 508v-486h48v-22h-190v22h48v464h-48v22h142zM157 570h-35.001l-115 78c-15.333 10.667 -23 21.667 -23 33c0 20 10 30 30 30c12.667 0 27.334 -9.33301 44.001 -28z" />
    <glyph glyph-name="iacute" unicode="&#xed;" horiz-adv-x="278" 
d="M186 508v-486h48v-22h-190v22h48v464h-48v22h142zM154 570h-35.001l100 113c16.667 18.667 31.334 28 44.001 28c20 0 30 -10 30 -30c0 -12 -7.66699 -23 -23 -33z" />
    <glyph glyph-name="icircumflex" unicode="&#xee;" horiz-adv-x="278" 
d="M186 508v-486h48v-22h-190v22h48v464h-48v22h142zM286 576h-42l-105 112l-105 -112h-42l111 170h72z" />
    <glyph glyph-name="idieresis" unicode="&#xef;" horiz-adv-x="278" 
d="M186 508v-486h48v-22h-190v22h48v464h-48v22h142zM-6 642c0 15.333 5.16895 28.1641 15.502 38.4971s23.166 15.5 38.499 15.5s28.166 -5.16699 38.499 -15.5s15.5 -23.166 15.5 -38.499s-5.16699 -28.166 -15.5 -38.499s-23.166 -15.5 -38.499 -15.5
c-14.667 0 -27.334 5.33301 -38.001 16s-16 23.334 -16 38.001zM176.002 641.998c0 15.333 5.16895 28.1641 15.502 38.4971s23.166 15.5 38.499 15.5s28.166 -5.16699 38.499 -15.5s15.5 -23.166 15.5 -38.499s-5.16699 -28.166 -15.5 -38.499s-23.166 -15.5 -38.499 -15.5
c-14.667 0 -27.334 5.33301 -38.001 16s-16 23.334 -16 38.001z" />
    <glyph glyph-name="eth" unicode="&#xf0;" horiz-adv-x="519" 
d="M288 580l-117 -71.999l-18 32l114 70c-22.667 28 -53 53.333 -91 76l16 22c44 -14 84 -37.667 120 -71l116 71l22 -30l-111 -67c44 -46 78 -101 102 -165s36 -128.667 36 -194c0 -75.333 -17 -137 -51 -185c-39.333 -55.333 -95 -83 -167 -83
c-67.333 0 -121.333 25.333 -162 76c-37.333 46.667 -56 104.667 -56 174s18.667 128.666 56 177.999c40.667 54.667 94.667 82 162 82c36.667 0 61.667 -5.33301 75 -16l2 2c-14.667 40.667 -30.667 74 -48 100zM259 6.00098c50.667 0 84.332 27.667 100.999 83
c8.66699 29.333 13 77.666 13 144.999s-4.66699 117 -14 149c-16.667 59.333 -50 89 -100 89s-83.333 -29.667 -100 -89c-9.33301 -32 -14 -81.667 -14 -149s4.33301 -115.666 13 -144.999c16.667 -55.333 50.334 -83 101.001 -83z" />
    <glyph glyph-name="ntilde" unicode="&#xf1;" horiz-adv-x="537" 
d="M32 486l0.000976562 22h140v-68h2c31.333 56 78.333 84 141 84c90 0 135 -49 135 -147v-355h54v-22h-206v22h58v367c0 66 -23.333 99 -70 99c-36.667 0 -64.334 -17 -83.001 -51c-15.333 -27.333 -23 -61 -23 -101v-314h58v-22h-206v22h54v464h-54zM144.001 600h-27.999
c8.66699 36.667 18.334 62 29.001 76c16 21.333 39.667 32 71 32c18 0 41.333 -7.66699 70 -23s48 -23 58 -23c17.333 0 34 16.667 50 50h28c-15.333 -72 -48 -108 -98 -108c-16.667 0 -39.834 7.66699 -69.501 23s-49.834 23 -60.501 23c-22 0 -38.667 -16.667 -50 -50z
" />
    <glyph glyph-name="ograve" unicode="&#xf2;" horiz-adv-x="519" 
d="M41 254c0 72 18 133.333 54 184c40 57.333 94.667 86 164 86s124 -28.667 164 -86c36 -50.667 54 -112 54 -184s-18 -133.333 -54 -184c-40 -57.333 -94.667 -86 -164 -86s-124 28.667 -164 86c-36 50.667 -54 112 -54 184zM145 254c0 -70 4.33301 -121.333 13 -154
c16.667 -62.667 50.334 -94 101.001 -94s84.334 31.333 101.001 94c8.66699 32.667 13 84 13 154s-4.33301 121.333 -13 154c-16.667 62.667 -50.334 94 -101.001 94s-84.334 -31.333 -101.001 -94c-8.66699 -32.667 -13 -84 -13 -154zM275 576h-35.001l-115 78
c-15.333 10.667 -23 21.667 -23 33c0 20 10 30 30 30c12.667 0 27.334 -9.33301 44.001 -28z" />
    <glyph glyph-name="oacute" unicode="&#xf3;" horiz-adv-x="519" 
d="M41 254c0 72 18 133.333 54 184c40 57.333 94.667 86 164 86s124 -28.667 164 -86c36 -50.667 54 -112 54 -184s-18 -133.333 -54 -184c-40 -57.333 -94.667 -86 -164 -86s-124 28.667 -164 86c-36 50.667 -54 112 -54 184zM145 254c0 -70 4.33301 -121.333 13 -154
c16.667 -62.667 50.334 -94 101.001 -94s84.334 31.333 101.001 94c8.66699 32.667 13 84 13 154s-4.33301 121.333 -13 154c-16.667 62.667 -50.334 94 -101.001 94s-84.334 -31.333 -101.001 -94c-8.66699 -32.667 -13 -84 -13 -154zM275 576h-35.001l100 113
c16.667 18.667 31.334 28 44.001 28c20 0 30 -10 30 -30c0 -12 -7.66699 -23 -23 -33z" />
    <glyph glyph-name="ocircumflex" unicode="&#xf4;" horiz-adv-x="519" 
d="M41 254c0 72 18 133.333 54 184c40 57.333 94.667 86 164 86s124 -28.667 164 -86c36 -50.667 54 -112 54 -184s-18 -133.333 -54 -184c-40 -57.333 -94.667 -86 -164 -86s-124 28.667 -164 86c-36 50.667 -54 112 -54 184zM145 254c0 -70 4.33301 -121.333 13 -154
c16.667 -62.667 50.334 -94 101.001 -94s84.334 31.333 101.001 94c8.66699 32.667 13 84 13 154s-4.33301 121.333 -13 154c-16.667 62.667 -50.334 94 -101.001 94s-84.334 -31.333 -101.001 -94c-8.66699 -32.667 -13 -84 -13 -154zM364 549h-30l-76 80l-75 -80h-31
l80 122h52z" />
    <glyph glyph-name="otilde" unicode="&#xf5;" horiz-adv-x="519" 
d="M41 254c0 72 18 133.333 54 184c40 57.333 94.667 86 164 86s124 -28.667 164 -86c36 -50.667 54 -112 54 -184s-18 -133.333 -54 -184c-40 -57.333 -94.667 -86 -164 -86s-124 28.667 -164 86c-36 50.667 -54 112 -54 184zM145 254c0 -70 4.33301 -121.333 13 -154
c16.667 -62.667 50.334 -94 101.001 -94s84.334 31.333 101.001 94c8.66699 32.667 13 84 13 154s-4.33301 121.333 -13 154c-16.667 62.667 -50.334 94 -101.001 94s-84.334 -31.333 -101.001 -94c-8.66699 -32.667 -13 -84 -13 -154zM164 576h-21
c12 57.333 37.333 86 76 86c12.667 0 30.667 -7 54 -21s37.666 -21 42.999 -21c13.333 0 26.333 14 39 42h22c-13.333 -57.333 -38.666 -86 -75.999 -86c-10.667 0 -28 6.83301 -52 20.5s-39.667 20.5 -47 20.5c-16 0 -28.667 -13.667 -38 -41z" />
    <glyph glyph-name="odieresis" unicode="&#xf6;" horiz-adv-x="519" 
d="M41 254c0 72 18 133.333 54 184c40 57.333 94.667 86 164 86s124 -28.667 164 -86c36 -50.667 54 -112 54 -184s-18 -133.333 -54 -184c-40 -57.333 -94.667 -86 -164 -86s-124 28.667 -164 86c-36 50.667 -54 112 -54 184zM145 254c0 -70.667 4.33301 -122 13 -154
c16.667 -62.667 50.334 -94 101.001 -94s84.334 31.333 101.001 94c8.66699 32 13 83.333 13 154s-4.33301 122 -13 154c-16.667 62.667 -50.334 94 -101.001 94s-84.334 -31.333 -101.001 -94c-8.66699 -32 -13 -83.333 -13 -154zM115 642
c0 15.333 5.16895 28.1641 15.502 38.4971s23.166 15.5 38.499 15.5s28.166 -5.16699 38.499 -15.5s15.5 -23.166 15.5 -38.499s-5.16699 -28.166 -15.5 -38.499s-23.166 -15.5 -38.499 -15.5c-14.667 0 -27.334 5.33301 -38.001 16s-16 23.334 -16 38.001zM297.002 641.998
c0 15.333 5.16895 28.1641 15.502 38.4971s23.166 15.5 38.499 15.5s28.166 -5.16699 38.499 -15.5s15.5 -23.166 15.5 -38.499s-5.16699 -28.166 -15.5 -38.499s-23.166 -15.5 -38.499 -15.5c-14.667 0 -27.334 5.33301 -38.001 16s-16 23.334 -16 38.001z" />
    <glyph glyph-name="divide" unicode="&#xf7;" horiz-adv-x="600" 
d="M46 222v64h508v-64h-508zM236 460c0 17.333 6.33301 32.333 19 45s27.667 19 45 19s32.333 -6.33301 45 -19s19 -27.667 19 -45s-6.33301 -32.333 -19 -45s-27.667 -19 -45 -19s-32.333 6.33301 -45 19s-19 27.667 -19 45zM236 48c0 17.333 6.33301 32.333 19 45
s27.667 19 45 19s32.333 -6.33301 45 -19s19 -27.667 19 -45s-6.33301 -32.333 -19 -45s-27.667 -19 -45 -19s-32.333 6.33301 -45 19s-19 27.667 -19 45z" />
    <glyph glyph-name="oslash" unicode="&#xf8;" horiz-adv-x="519" 
d="M166 77l181.001 366c-16.667 39.333 -46 59 -88 59c-50.667 0 -84.334 -31.333 -101.001 -94c-8.66699 -32 -13 -83.333 -13 -154c0 -80 7 -139 21 -177zM360.001 396l-175.001 -356.999c17.333 -22 42 -33 74 -33c50.667 0 84.334 31.333 101.001 94
c8.66699 32 13 83.333 13 154c0 59.333 -3.66699 106.666 -11 141.999h-2zM462 598.001l-65 -130.001c53.333 -52 80 -123.333 80 -214c0 -72 -18 -133.333 -54 -184c-40 -57.333 -94.667 -86 -164 -86c-32 0 -62 7.33301 -90 22l-47 -96h-38l56 114
c-66 48.667 -99 125.334 -99 230.001c0 72 18 133.333 54 184c40 57.333 94.667 86 164 86c42 0 79 -11.333 111 -34l54 108h38z" />
    <glyph glyph-name="ugrave" unicode="&#xf9;" horiz-adv-x="537" 
d="M505 22l-0.000976562 -22h-148v66h-2c-8.66699 -25.333 -25.5 -45.333 -50.5 -60s-51.5 -22 -79.5 -22c-92 0 -138 48.333 -138 145v357h-54v22h148v-396c0 -30 4.33301 -52 13 -66c10.667 -17.333 30.334 -26 59.001 -26c36.667 0 64 17 82 51
c14.667 27.333 22 61 22 101v314h-58v22h152v-486h54zM255.999 560h-35.001l-115 78c-15.333 10.667 -23 21.667 -23 33c0 20 10 30 30 30c12.667 0 27.334 -9.33301 44.001 -28z" />
    <glyph glyph-name="uacute" unicode="&#xfa;" horiz-adv-x="537" 
d="M505 22l-0.000976562 -22h-148v66h-2c-8.66699 -25.333 -25.5 -45.333 -50.5 -60s-51.5 -22 -79.5 -22c-92 0 -138 48.333 -138 145v357h-54v22h148v-396c0 -30 4.33301 -52 13 -66c10.667 -17.333 30.334 -26 59.001 -26c36.667 0 64 17 82 51
c14.667 27.333 22 61 22 101v314h-58v22h152v-486h54zM256.999 560h-35.001l100 113c16.667 18.667 31.334 28 44.001 28c20 0 30 -10 30 -30c0 -12 -7.66699 -23 -23 -33z" />
    <glyph glyph-name="ucircumflex" unicode="&#xfb;" horiz-adv-x="537" 
d="M505 22v-22h-148v66h-2c-8.66699 -25.333 -25.5 -45.333 -50.5 -60s-51.5 -22 -79.5 -22c-92 0 -138 48.333 -138 145v357h-54v22h148v-396c0 -30 4.33301 -52 13 -66c11.333 -17.333 31 -26 59 -26c36.667 0 64 17 82 51c14.667 27.333 22 61 22 101v314h-58v22h152
v-486h54zM416 576h-42l-105 112l-105 -112h-42l111 170h72z" />
    <glyph glyph-name="udieresis" unicode="&#xfc;" horiz-adv-x="537" 
d="M505 22v-22h-148v66h-2c-8.66699 -25.333 -25.5 -45.333 -50.5 -60s-51.5 -22 -79.5 -22c-92 0 -138 48.333 -138 145v357h-54v22h148v-396c0 -30 4.33301 -52 13 -66c11.333 -17.333 31 -26 59 -26c36.667 0 64 17 82 51c14.667 27.333 22 61 22 101v314h-58v22h152
v-486h54zM124 642c0 15.333 5.16895 28.1641 15.502 38.4971s23.166 15.5 38.499 15.5s28.166 -5.16699 38.499 -15.5s15.5 -23.166 15.5 -38.499s-5.16699 -28.166 -15.5 -38.499s-23.166 -15.5 -38.499 -15.5c-14.667 0 -27.334 5.33301 -38.001 16s-16 23.334 -16 38.001
zM306.002 641.998c0 15.333 5.16895 28.1641 15.502 38.4971s23.166 15.5 38.499 15.5s28.166 -5.16699 38.499 -15.5s15.5 -23.166 15.5 -38.499s-5.16699 -28.166 -15.5 -38.499s-23.166 -15.5 -38.499 -15.5c-14.667 0 -27.334 5.33301 -38.001 16s-16 23.334 -16 38.001
z" />
    <glyph glyph-name="yacute" unicode="&#xfd;" horiz-adv-x="444" 
d="M0 486l0.000976562 22h214v-22h-75l146 -349l120 349h-87v22h160v-22h-45l-183 -527c-15.333 -44.667 -29 -75 -41 -91c-20.667 -28 -49 -42 -85 -42s-61.333 8 -76 24v156h22l27 -97c11.333 -40.667 26.666 -61 45.999 -61c35.333 0 67.333 51.667 96 155l-201 483h-38z
M282.001 560h-35.001l100 113c16.667 18.667 31.334 28 44.001 28c20 0 30 -10 30 -30c0 -12 -7.66699 -23 -23 -33z" />
    <glyph glyph-name="thorn" unicode="&#xfe;" horiz-adv-x="537" 
d="M240 -174l-198 0.000976562v22h48v822h-48v22h142v-235h2c22.667 44.667 60 67 112 67c66 0 116.667 -30 152 -90c30 -50 45 -110 45 -180c0 -68.667 -15 -128.334 -45 -179.001c-35.333 -60.667 -85.333 -91 -150 -91c-52 0 -90 24 -114 72h-2v-208h56v-22zM391 254.001
c0 161.333 -36.001 242 -108.001 242c-45.333 0 -75 -31.667 -89 -95c-6.66699 -30 -10 -79 -10 -147c0 -161.333 34.667 -242 104 -242c46.667 0 77.334 31.333 92.001 94c7.33301 30.667 11 80 11 148z" />
    <glyph glyph-name="ydieresis" unicode="&#xff;" horiz-adv-x="444" 
d="M0 486v22h214v-22h-75l146 -349l120 349h-87v22h160v-22h-45l-183 -527c-15.333 -44 -29 -74.333 -41 -91c-21.333 -28 -49.666 -42 -84.999 -42c-36 0 -61.333 8 -76 24v156h22l27 -97c11.333 -40.667 26.666 -61 45.999 -61c35.333 0 67.333 51.667 96 155l-201 483
h-38zM77 642c0 15.333 5.16895 28.1641 15.502 38.4971s23.166 15.5 38.499 15.5s28.166 -5.16699 38.499 -15.5s15.5 -23.166 15.5 -38.499s-5.16699 -28.166 -15.5 -38.499s-23.166 -15.5 -38.499 -15.5c-14.667 0 -27.334 5.33301 -38.001 16s-16 23.334 -16 38.001z
M259.002 641.998c0 15.333 5.16895 28.1641 15.502 38.4971s23.166 15.5 38.499 15.5s28.166 -5.16699 38.499 -15.5s15.5 -23.166 15.5 -38.499s-5.16699 -28.166 -15.5 -38.499s-23.166 -15.5 -38.499 -15.5c-14.667 0 -27.334 5.33301 -38.001 16s-16 23.334 -16 38.001z
" />
    <glyph glyph-name="glyph271" unicode="&#x102;" 
d="M166 0h-182v22h58l232 678h64l220 -678h40v-22h-222v22h74l-82 256h-211l-87 -256h96v-22zM264 593l-100 -293h197l-95 293h-2zM184 867l29 -0.000976562c2.66699 -45.333 33 -68 91 -68c22 0 41.667 6 59 18s27.333 28.667 30 50h29c-9.33301 -78 -50 -117 -122 -117
c-36 0 -64.167 10.333 -84.5 31s-30.833 49.334 -31.5 86.001z" />
    <glyph glyph-name="glyph272" unicode="&#x103;" horiz-adv-x="519" 
d="M128 326h-21.998v162c59.333 24 110.333 36 153 36c46.667 0 86.667 -9.66699 120 -29c40.667 -23.333 61 -56.333 61 -99v-374h48v-22h-136v88h-2c-12 -32 -31.833 -57.333 -59.5 -76s-58.5 -28 -92.5 -28c-44 0 -80.333 12.333 -109 37s-43 58.667 -43 102
c0 52 19 89.333 57 112c24 14 65.667 26.167 125 36.5s100.666 22.5 123.999 36.5v105c0 59.333 -29 89 -87 89c-34.667 0 -60.334 -11.667 -77.001 -35c-14.667 -20.667 -34.667 -67.667 -60 -141zM352.002 206l-0.000976562 75.998c-22 -10.667 -56.667 -21.667 -104 -33
c-35.333 -8.66699 -60 -19.667 -74 -33c-18.667 -18 -28 -49 -28 -93c0 -69.333 27 -103.666 81 -102.999c42.667 0.666992 75.334 22.334 98.001 65.001c18 34 27 74.333 27 121zM154.001 670.998h27.001c2 -41.333 29 -62 81 -62c20 0 37.667 5.5 53 16.5
s24.333 26.167 27 45.5h27c-8.66699 -70.667 -45.334 -106 -110.001 -106c-68.667 0 -103.667 35.333 -105 106z" />
    <glyph glyph-name="Cacute" unicode="&#x106;" horiz-adv-x="711" 
d="M530 670v-199.999h-22c-26 82 -42 128.333 -48 139c-26.667 51.333 -63.667 77 -111 77c-71.333 0 -120.333 -42 -147 -126c-16 -50.667 -24 -122 -24 -214c0 -100 7.66699 -173 23 -219c26.667 -80.667 79 -121 157 -121c40.667 0 71.667 17.667 93 53
c18.667 30.667 39.667 95 63 193h22v-226c-54 -28 -113.333 -42 -178 -42c-95.333 0 -171.333 37.333 -228 112c-50.667 68 -76 151.333 -76 250c0 99.333 25.333 182.666 76 249.999c56 74.667 132 112 228 112c60.667 0 118 -12.667 172 -38zM290 831.001h-43l123 140
c20 22.667 38 34 54 34c24.667 0 37 -12 37 -36c0 -14 -9.66699 -27.667 -29 -41z" />
    <glyph glyph-name="cacute" unicode="&#x107;" horiz-adv-x="441" 
d="M426 492l0.00390625 -182.002h-28c-22.667 84 -42.334 138 -59.001 162c-14 20 -35 30 -63 30c-47.333 0 -82 -30 -104 -90c-14.667 -41.333 -22 -90.666 -22 -147.999c0 -168 43.333 -252 130 -252c84 0 127.333 58.667 130 176h22
c-0.666992 -59.333 -13.334 -106.666 -38.001 -141.999c-28.667 -41.333 -71.334 -62 -128.001 -62c-72 0 -127.667 28 -167 84c-35.333 49.333 -53 111.333 -53 186c0 78.667 20.333 142.667 61 192c43.333 52 103.666 78 180.999 78c26.667 0 72.667 -10.667 138 -32z
M91.0039 575.998h-43l123 140c20 22.667 38 34 54 34c24.667 0 37 -12 37 -36c0 -14 -9.66699 -27.667 -29 -41z" />
    <glyph glyph-name="Ccaron" unicode="&#x10c;" horiz-adv-x="711" 
d="M530 670v-199.999h-22c-26 82 -42 128.333 -48 139c-26.667 51.333 -63.667 77 -111 77c-71.333 0 -120.333 -42 -147 -126c-16 -50.667 -24 -122 -24 -214c0 -100 7.66699 -173 23 -219c26.667 -80.667 79 -121 157 -121c40.667 0 71.667 17.667 93 53
c18.667 30.667 39.667 95 63 193h22v-226c-54 -28 -113.333 -42 -178 -42c-95.333 0 -171.333 37.333 -228 112c-50.667 68 -76 151.333 -76 250c0 99.333 25.333 182.666 76 249.999c56 74.667 132 112 228 112c60.667 0 118 -12.667 172 -38zM421 1001h42l-111 -170h-72
l-111 170h42l105 -112z" />
    <glyph glyph-name="ccaron" unicode="&#x10d;" horiz-adv-x="441" 
d="M426 492l0.00390625 -182.002h-28c-22.667 84 -42.334 138 -59.001 162c-14 20 -35 30 -63 30c-47.333 0 -82 -30 -104 -90c-14.667 -41.333 -22 -90.666 -22 -147.999c0 -168 43.333 -252 130 -252c84 0 127.333 58.667 130 176h22
c-0.666992 -59.333 -13.334 -106.666 -38.001 -141.999c-28.667 -41.333 -71.334 -62 -128.001 -62c-72 0 -127.667 28 -167 84c-35.333 49.333 -53 111.333 -53 186c0 78.667 20.333 142.667 61 192c43.333 52 103.666 78 180.999 78c26.667 0 72.667 -10.667 138 -32z
M222.004 745.998h42l-111 -170h-72l-111 170h42l105 -112z" />
    <glyph glyph-name="Dslash" unicode="&#x110;" horiz-adv-x="685" 
d="M210 348v-326h62c92 0 156.333 32.667 193 98c27.333 48.667 41 124 41 226s-13.667 177.333 -41 226c-36.667 65.333 -101 98 -193 98h-62v-300h151v-22h-151zM102 22v326h-82v22h82v300h-60v22h238c106 0 190.833 -31.167 254.5 -93.5s95.5 -146.5 95.5 -252.5
s-31.833 -190.167 -95.5 -252.5s-148.5 -93.5 -254.5 -93.5h-238v22h60z" />
    <glyph glyph-name="dcroat" unicode="&#x111;" horiz-adv-x="519" 
d="M155 244c0 -158.667 34 -238 102 -238c69.333 0 104 79.333 104 238c0 168 -35.667 252 -107 252c-44 0 -73.333 -33.667 -88 -101c-7.33301 -34.667 -11 -85 -11 -151zM355 559l-114.999 -0.000976562v25h115v86h-48v22h142v-108h46v-25h-46v-537h48v-22h-136v61h-2
c-20.667 -51.333 -61.334 -77 -122.001 -77c-61.333 0 -109.333 31 -144 93c-28 50.667 -42 109.334 -42 176.001c0 69.333 13.667 129 41 179c33.333 61.333 82.333 92 147 92c52 0 90 -25.667 114 -77h2v112z" />
    <glyph glyph-name="Gbreve" unicode="&#x11e;" horiz-adv-x="767" 
d="M360 302l258.003 -0.00292969v-22h-44v-243c-58.667 -35.333 -129.667 -53 -213 -53c-104.667 0 -183.334 35 -236.001 105c-47.333 62.667 -71 148.334 -71 257.001c0 102 27.667 186.667 83 254c59.333 72 139 108 239 108c53.333 0 113.333 -14 180 -42v-198h-22
c-24.667 80.667 -47.334 135.334 -68.001 164.001c-26 36 -60.333 54 -103 54c-78.667 0 -132 -40 -160 -120c-16.667 -48 -25 -121.333 -25 -220c0 -103.333 6.66699 -176.666 20 -219.999c25.333 -80 77.666 -120 156.999 -120c26.667 0 51 7 73 21
c25.333 16.667 38 37.667 38 63v190h-106v22zM206.003 980.997l32 -0.000976562c4 -57.333 37.667 -86 101 -86c52.667 0 83.667 28.667 93 86h32c-10.667 -100 -55 -150 -133 -150c-40.667 0 -72 15.333 -94 46c-20 26.667 -30.333 61.334 -31 104.001z" />
    <glyph glyph-name="gbreve" unicode="&#x11f;" horiz-adv-x="492" 
d="M118 -73c0 -30.667 17.333 -55.001 52 -73.001c28 -14.667 58.667 -22 92 -22c39.333 0 75.333 7.66699 108 23c42.667 19.333 64 46.333 64 81c0 24.667 -9.66699 41.334 -29 50.001c-13.333 6 -34.333 9.33301 -63 10l-188 4c-24 -14 -36 -38.333 -36 -73zM196 354.999
c0 -47.333 2.99902 -79.666 8.99902 -96.999c10.667 -33.333 34.334 -50 71.001 -50c34.667 0 58 17.333 70 52c6.66699 20 10 51.667 10 95c0 44 -3.33301 76 -10 96c-12 34 -35.333 51 -70 51c-34 0 -57 -17.333 -69 -52c-7.33301 -20.667 -11 -52.334 -11 -95.001z
M477.999 507.999l0.00195312 -27.999h-76v-2c36 -24.667 54 -65.667 54 -123c0 -50 -17.167 -90.667 -51.5 -122s-76.5 -47 -126.5 -47c-45.333 0 -81 9 -107 27c-8.66699 6 -14.334 9 -17.001 9c-16 0 -31.667 -6.66699 -47 -20s-23 -28 -23 -44
c0 -28.667 14.667 -48 44 -58c20 -6.66699 54.667 -10 104 -10h54c64.667 0 111 -6 139 -18c42 -18 63 -51.667 63 -101c0 -50.667 -24.667 -91.334 -74 -122.001c-42 -26 -90 -39 -144 -39c-48.667 0 -93.334 8.33301 -134.001 25c-54.667 21.333 -82 53 -82 95
c0 16 6.66699 31 20 45s28 23.667 44 29v2c-58.667 14 -88 51.333 -88 112c0 65.333 34.667 107.333 104 126c-25.333 28 -38 66.667 -38 116s18 89.333 54 120c34 29.333 76 44 126 44c32.667 0 59 -5.33301 79 -16h123zM6.00098 726l32 -0.000976562
c4 -57.333 37.667 -86 101 -86c52.667 0 83.667 28.667 93 86h32c-10.667 -100 -55 -150 -133 -150c-40.667 0 -72 15.333 -94 46c-20 26.667 -30.333 61.334 -31 104.001z" />
    <glyph glyph-name="glyph273" unicode="&#x128;" horiz-adv-x="315" 
d="M271 0h-228v22h60v648h-60v22h228v-22h-60v-648h60v-22zM51 770h-23.001c7.33301 30.667 15.666 52.667 24.999 66c14 19.333 34 29 60 29c14 0 33.833 -7.66699 59.5 -23s41.834 -23 48.501 -23c14 0 28.333 15.333 43 46h24c-14 -63.333 -42 -95 -84 -95
c-12 0 -31.333 7.5 -58 22.5s-44 22.5 -52 22.5c-17.333 0 -31.666 -15 -42.999 -45z" />
    <glyph glyph-name="glyph274" unicode="&#x129;" horiz-adv-x="278" 
d="M186 508v-486h48v-22h-190v22h48v464h-48v22h142zM43 570h-21c12 57.333 37.333 86 76 86c12.667 0 30.667 -7 54 -21s37.666 -21 42.999 -21c13.333 0 26.333 14 39 42h22c-13.333 -57.333 -38.666 -86 -75.999 -86c-10.667 0 -28 6.83301 -52 20.5
s-39.667 20.5 -47 20.5c-16 0 -28.667 -13.667 -38 -41z" />
    <glyph glyph-name="Idotaccent" unicode="&#x130;" horiz-adv-x="429" 
d="M271 0h-228v22h60v648h-60v22h228v-22h-60v-648h60v-22zM112 897c0 15.333 5.16895 28.1641 15.502 38.4971s23.166 15.5 38.499 15.5s28.166 -5.16699 38.499 -15.5s15.5 -23.166 15.5 -38.499s-5.16699 -28.166 -15.5 -38.499s-23.166 -15.5 -38.499 -15.5
c-14.667 0 -27.334 5.33301 -38.001 16s-16 23.334 -16 38.001z" />
    <glyph glyph-name="dotlessi" unicode="&#x131;" horiz-adv-x="278" 
d="M186 508v-486h48v-22h-190v22h48v464h-48v22h142z" />
    <glyph glyph-name="Lslash" unicode="&#x141;" horiz-adv-x="574" 
d="M210 351v-329h148c34.667 0 59.667 12.333 75 37c18 29.333 41.333 102.333 70 219h22v-278h-483v22h60v286l-94 -38v34l94 38v328h-60v22h268v-22h-100v-285l190 77v-34z" />
    <glyph glyph-name="lslash" unicode="&#x142;" horiz-adv-x="278" 
d="M92 22v318l-82 -42v36l82 42v294h-48v22h142v-268l82 42v-36l-82 -42v-366h48v-22h-190v22h48z" />
    <glyph glyph-name="OE" unicode="&#x152;" horiz-adv-x="1000" 
d="M492 692h447.999v-222h-22c-26 91.333 -46.333 148 -61 170c-12.667 20 -32.334 30 -59.001 30h-198v-300h78c30.667 0 54 16.333 70 49c8 16.667 16 46.334 24 89.001h22v-298h-22c-8 42.667 -16 72.334 -24 89.001c-16 32.667 -39.333 49 -70 49h-78v-326h175
c32 0 59 14.667 81 44c16.667 22 31.334 53.667 44.001 95c8.66699 32 17.334 63.667 26.001 95h22v-256h-456v44c-42 -40 -89.667 -60 -143 -60c-89.333 0 -161 39.333 -215 118c-48 69.333 -72 150.666 -72 243.999s24 174.666 72 243.999c54 78.667 125.667 118 215 118
c53.333 0 101 -20 143 -60v44zM491.999 94v504c-40 58.667 -87.667 88 -143 88c-72 0 -120 -42 -144 -126c-12.667 -44.667 -19 -116 -19 -214s6.33301 -169.333 19 -214c24 -84 72 -126 144 -126c55.333 0 103 29.333 143 88z" />
    <glyph glyph-name="oe" unicode="&#x153;" horiz-adv-x="815" 
d="M145 254c0 -70.667 4.33301 -122 13 -154c16.667 -62.667 50.334 -94 101.001 -94s84.334 31.333 101.001 94c8.66699 32 13 83.333 13 154s-4.33301 122 -13 154c-16.667 62.667 -50.334 94 -101.001 94s-84.334 -31.333 -101.001 -94
c-8.66699 -32 -13 -83.333 -13 -154zM770 302l-295.998 0.000976562c-0.666992 -6.66699 -1 -16.667 -1 -30c0 -173.333 41 -260 123 -260c94.667 0 146.667 59.333 156 178h22c-2.66699 -60.667 -19.334 -109.334 -50.001 -146.001c-33.333 -40 -79.333 -60 -138 -60
c-68.667 0 -123.334 28.333 -164.001 85c-40 -56.667 -94.333 -85 -163 -85c-69.333 0 -124 28.667 -164 86c-36 50.667 -54 112 -54 184s18 133.333 54 184c40 57.333 94.667 86 164 86c67.333 0 122 -29 164 -87c41.333 58 94.666 87 159.999 87
c62.667 0 110.334 -22 143.001 -66c29.333 -39.333 44 -91.333 44 -156zM475.002 324.001h190.999v39c0 92.667 -28.333 139 -85 139c-63.333 0 -98.666 -59.333 -105.999 -178z" />
    <glyph glyph-name="Scedilla" unicode="&#x15e;" horiz-adv-x="656" 
d="M64 260l22.002 -0.000976562c17.333 -79.333 33.666 -133.666 48.999 -162.999c30 -60.667 72.667 -91 128 -91c44.667 0 83 13.333 115 40s48 62 48 106c0 56 -32 98.667 -96 128c-40 16.667 -100 42 -180 76c-64 36 -96 87.333 -96 154c0 62.667 22.667 112 68 148
c42 33.333 95.333 50 160 50c66 0 128.667 -13.333 188 -40v-200h-22l-36 116c-21.333 68 -67.666 102 -138.999 102c-40.667 0 -75.334 -11.667 -104.001 -35c-31.333 -25.333 -47 -57.666 -47 -96.999c0 -34.667 14.333 -62 43 -82c26 -18 77.333 -40.667 154 -68
c68.667 -24 117.667 -50 147 -78s44 -68.667 44 -122c0 -68.667 -27 -123.334 -81 -164.001c-48.667 -37.333 -108.334 -56 -179.001 -56c-28.667 0 -61.167 5.33301 -97.5 16s-65.833 24 -88.5 40v220zM153.002 -0.000976562l32.001 -0.000976562l-28 -64
c26.667 2.66699 37 4 31 4c21.333 0 39.166 -6.66699 53.499 -20s21.5 -30.666 21.5 -51.999c0 -53.333 -38.333 -80 -115 -80c-29.333 0 -58 6 -86 18l13 28c22 -9.33301 43.667 -14 65 -14c42 0 63 15.667 63 47c0 28.667 -15 43 -45 43c-10 0 -21.667 -3.33301 -35 -10
l-12 6z" />
    <glyph glyph-name="scedilla" unicode="&#x15f;" horiz-adv-x="383" 
d="M44 204h27.999c15.333 -72.667 27.333 -117.667 36 -135c22 -42 58.667 -63 110 -63c38.667 0 70.334 9 95.001 27c27.333 20.667 41 49.334 41 86.001c0 25.333 -26.667 48.333 -80 69c-94.667 36 -144.667 55.667 -150 59c-53.333 30 -80 69 -80 117
c0 52.667 20 93.334 60 122.001c36 25.333 81.333 38 136 38c52 0 100 -11.667 144 -35v-161h-28c-19.333 68.667 -31 106.667 -35 114c-20 40 -50 60 -90 60c-30.667 0 -57.667 -7.33301 -81 -22c-28 -16.667 -42 -39.334 -42 -68.001c0 -34.667 26.667 -62.667 80 -84
c25.333 -10 75.333 -29 150 -57c53.333 -28.667 80 -67.667 80 -117c0 -54.667 -21.667 -97.334 -65 -128.001c-38.667 -28 -86.334 -42 -143.001 -42c-59.333 0 -114.666 14.667 -165.999 44v176zM55.999 0l32.001 -0.000976562l-28 -64c26.667 2.66699 37 4 31 4
c21.333 0 39.166 -6.66699 53.499 -20s21.5 -30.666 21.5 -51.999c0 -53.333 -38.333 -80 -115 -80c-29.333 0 -58 6 -86 18l13 28c22 -9.33301 43.667 -14 65 -14c42 0 63 15.667 63 47c0 28.667 -15 43 -45 43c-10 0 -21.667 -3.33301 -35 -10l-12 6z" />
    <glyph glyph-name="Scaron" unicode="&#x160;" horiz-adv-x="556" 
d="M64 260l22.002 -0.000976562c17.333 -79.333 33.666 -133.666 48.999 -162.999c30 -60.667 72.667 -91 128 -91c44.667 0 83 13.333 115 40s48 62 48 106c0 56 -32 98.667 -96 128c-40 16.667 -100 42 -180 76c-64 36 -96 87.333 -96 154c0 62.667 22.667 112 68 148
c42 33.333 95.333 50 160 50c66 0 128.667 -13.333 188 -40v-200h-22l-36 116c-21.333 68 -67.666 102 -138.999 102c-40.667 0 -75.334 -11.667 -104.001 -35c-31.333 -25.333 -47 -57.666 -47 -96.999c0 -34.667 14.333 -62 43 -82c26 -18 77.333 -40.667 154 -68
c68.667 -24 117.667 -50 147 -78s44 -68.667 44 -122c0 -68.667 -27 -123.334 -81 -164.001c-48.667 -37.333 -108.334 -56 -179.001 -56c-28.667 0 -61.167 5.33301 -97.5 16s-65.833 24 -88.5 40v220zM389.002 905.999h42l-111 -170h-72l-111 170h42l105 -112z" />
    <glyph glyph-name="scaron" unicode="&#x161;" horiz-adv-x="463" 
d="M44 204h27.999c15.333 -72.667 27.333 -117.667 36 -135c22 -42 58.667 -63 110 -63c38.667 0 70.334 9 95.001 27c27.333 20.667 41 49.334 41 86.001c0 25.333 -26.667 48.333 -80 69c-94.667 36 -144.667 55.667 -150 59c-53.333 30 -80 69 -80 117
c0 52.667 20 93.334 60 122.001c36 25.333 81.333 38 136 38c52 0 100 -11.667 144 -35v-161h-28c-19.333 68.667 -31 106.667 -35 114c-20 40 -50 60 -90 60c-30.667 0 -57.667 -7.33301 -81 -22c-28 -16.667 -42 -39.334 -42 -68.001c0 -34.667 26.667 -62.667 80 -84
c25.333 -10 75.333 -29 150 -57c53.333 -28.667 80 -67.667 80 -117c0 -54.667 -21.667 -97.334 -65 -128.001c-38.667 -28 -86.334 -42 -143.001 -42c-59.333 0 -114.666 14.667 -165.999 44v176zM336.999 746h42l-111 -170h-72l-111 170h42l105 -112z" />
    <glyph glyph-name="ch903" unicode="&#x168;" 
d="M30 692l240 0.000976562v-22h-72v-503c0 -46.667 10 -84 30 -112c23.333 -32.667 57.333 -49 102 -49c50 0 89.5 15.5 118.5 46.5s43.5 71.5 43.5 121.5v496h-90v22h178v-22h-60v-497c0 -58.667 -17.667 -104.834 -53 -138.501s-82.333 -50.5 -141 -50.5
c-157.333 0 -236 68.667 -236 206v480h-60v22zM232 760.001h-23.001c7.33301 30.667 15.666 52.667 24.999 66c14 19.333 34 29 60 29c14 0 33.833 -7.66699 59.5 -23s41.834 -23 48.501 -23c14 0 28.333 15.333 43 46h24c-14 -63.333 -42 -95 -84 -95
c-12 0 -31.333 7.5 -58 22.5s-44 22.5 -52 22.5c-17.333 0 -31.666 -15 -42.999 -45z" />
    <glyph glyph-name="ch904" unicode="&#x169;" horiz-adv-x="537" 
d="M505 22l-0.000976562 -22h-148v66h-2c-8.66699 -25.333 -25.5 -45.333 -50.5 -60s-51.5 -22 -79.5 -22c-92 0 -138 48.333 -138 145v357h-54v22h148v-396c0 -30 4.33301 -52 13 -66c10.667 -17.333 30.334 -26 59.001 -26c36.667 0 64 17 82 51
c14.667 27.333 22 61 22 101v314h-58v22h152v-486h54zM144.999 566h-21c12 57.333 37.333 86 76 86c12.667 0 30.667 -7 54 -21s37.666 -21 42.999 -21c13.333 0 26.333 14 39 42h22c-13.333 -57.333 -38.666 -86 -75.999 -86c-10.667 0 -28 6.83301 -52 20.5
s-39.667 20.5 -47 20.5c-16 0 -28.667 -13.667 -38 -41z" />
    <glyph glyph-name="Ydieresis" unicode="&#x178;" horiz-adv-x="556" 
d="M-10 670v22h260v-22h-82l145 -306l162 306h-75v22h166v-22h-63l-175 -332v-316h80v-22h-268v22h80v294l-172 354h-58zM139 802c0 15.333 5.16895 28.1641 15.502 38.4971s23.166 15.5 38.499 15.5s28.166 -5.16699 38.499 -15.5s15.5 -23.166 15.5 -38.499
s-5.16699 -28.166 -15.5 -38.499s-23.166 -15.5 -38.499 -15.5c-14.667 0 -27.334 5.33301 -38.001 16s-16 23.334 -16 38.001zM321.002 801.998c0 15.333 5.16895 28.1641 15.502 38.4971s23.166 15.5 38.499 15.5s28.166 -5.16699 38.499 -15.5s15.5 -23.166 15.5 -38.499
s-5.16699 -28.166 -15.5 -38.499s-23.166 -15.5 -38.499 -15.5c-14.667 0 -27.334 5.33301 -38.001 16s-16 23.334 -16 38.001z" />
    <glyph glyph-name="Zcaron" unicode="&#x17d;" horiz-adv-x="556" 
d="M48 16l330 654h-162c-36 0 -61.667 -10.667 -77 -32c-17.333 -24 -35 -80 -53 -168h-22v222h444l-342 -670h185c34 0 58.667 12 74 36c18 28 37.667 94 59 198h22v-256h-458v16zM389 906h42l-111 -170h-72l-111 170h42l105 -112z" />
    <glyph glyph-name="zcaron" unicode="&#x17e;" horiz-adv-x="463" 
d="M61 332l-0.000976562 176h366l-276 -486h136c32 0 57.667 22.667 77 68c4 9.33301 15 45.333 33 108h22v-198h-384l274 486h-122c-33.333 0 -58.666 -18.333 -75.999 -55c-6.66699 -14.667 -16 -47.667 -28 -99h-22zM336.999 746h42l-111 -170h-72l-111 170h42l105 -112z
" />
    <glyph glyph-name="florin" unicode="&#x192;" horiz-adv-x="556" 
d="M25 -36h22v-26c0 -70.667 17.333 -106 52 -106c30 0 57.333 61.333 82 184l74 370h-98l6 22h96l42 182c18 78.667 76 118 174 118c27.333 0 55.333 -5.33301 84 -16l-28 -124h-22c-1.33301 38.667 -3.33301 63.667 -6 75c-7.33301 28.667 -23.666 43 -48.999 43
c-26.667 0 -47.334 -36 -62.001 -108l-34 -170h107l-6 -22h-106l-79 -374c-13.333 -63.333 -31.333 -110.333 -54 -141c-30 -40.667 -73 -61 -129 -61c-36.667 0 -68 5.33301 -94 16z" />
    <glyph glyph-name="glyph277" unicode="&#x1a0;" horiz-adv-x="685" 
d="M178 346c0 -98 6.33301 -169.333 19 -214c24 -84 72.333 -126 145 -126s121 42 145 126c12.667 44.667 19 116 19 214s-6.33301 169.333 -19 214c-24 84 -72.333 126 -145 126s-121 -42 -145 -126c-12.667 -44.667 -19 -116 -19 -214zM433 690
c12.667 4 24.667 7.99902 36 11.999c17.333 6.66699 28 12.334 32 17.001c-19.333 6.66699 -29 18 -29 34c0 19.333 10.333 29 31 29c10 0 18.5 -3.66699 25.5 -11s10.5 -16 10.5 -26c0 -26.667 -26 -49.334 -78 -68.001c56.667 -30 99.667 -77 129 -141
c26.667 -57.333 40 -120.666 40 -189.999c0 -93.333 -24 -174.666 -72 -243.999c-54.667 -78.667 -126.667 -118 -216 -118s-161.333 39.333 -216 118c-48 69.333 -72 150.666 -72 243.999c0 94 24 175.667 72 245c54 78 126 117 216 117c32 0 62.333 -6 91 -18z" />
    <glyph glyph-name="glyph278" unicode="&#x1a1;" horiz-adv-x="519" 
d="M145 254c0 -70 4.33301 -121.333 13 -154c16.667 -62.667 50.334 -94 101.001 -94s84.334 31.333 101.001 94c8.66699 32.667 13 84 13 154s-4.33301 121.333 -13 154c-16.667 62.667 -50.334 94 -101.001 94s-84.334 -31.333 -101.001 -94
c-8.66699 -32.667 -13 -84 -13 -154zM370 490c25.333 11.333 44.333 24.998 57 40.998c-21.333 4 -32 13.667 -32 29c0 11.333 4 20 12 26s17.667 8 29 6c18.667 -3.33301 28 -13.666 28 -30.999c0 -28 -26.667 -55 -80 -81c62 -51.333 93 -126.666 93 -225.999
c0 -72 -18 -133.333 -54 -184c-40 -57.333 -94.667 -86 -164 -86s-124 28.667 -164 86c-36 50.667 -54 112 -54 184s18 133.333 54 184c40 57.333 94.667 86 164 86c41.333 0 78.333 -11.333 111 -34z" />
    <glyph glyph-name="glyph279" unicode="&#x1af;" 
d="M582 692c6.66699 6 15 15.668 25 29.001c-25.333 0 -38 10.667 -38 32c0 18.667 11 28 33 28s33 -11.667 33 -35s-16 -48.333 -48 -75l-4 -1h-63v-497c0 -58.667 -17.667 -104.834 -53 -138.501s-82.333 -50.5 -141 -50.5c-157.333 0 -236 68.667 -236 206v480h-60v22
h240v-22h-72v-503c0 -46.667 10 -84 30 -112c23.333 -32.667 57.333 -49 102 -49c50 0 89.5 15.5 118.5 46.5s43.5 71.5 43.5 121.5v496h-90v22h180z" />
    <glyph glyph-name="glyph280" unicode="&#x1b0;" horiz-adv-x="537" 
d="M451 488l-0.000976562 -466.001h54v-22h-148v66h-2c-8.66699 -25.333 -25.5 -45.333 -50.5 -60s-51.5 -22 -79.5 -22c-92 0 -138 48.333 -138 145v357h-54v22h148v-396c0 -30 4.33301 -52 13 -66c10.667 -17.333 30.334 -26 59.001 -26c36.667 0 64 17 82 51
c14.667 27.333 22 61 22 101v314h-58v22h152v-1c12 8.66699 20.667 16.667 26 24c-21.333 4 -32 13.667 -32 29c0 11.333 4 20 12 26s17.667 8 29 6c18.667 -3.33301 28 -13.666 28 -30.999c0 -24.667 -21 -49 -63 -73z" />
    <glyph glyph-name="circumflex" unicode="&#x2c6;" horiz-adv-x="278" 
d="M286 576h-42l-105 112l-105 -112h-42l111 170h72z" />
    <glyph glyph-name="caron" unicode="&#x2c7;" horiz-adv-x="278" 
d="M244 746h42l-111 -170h-72l-111 170h42l105 -112z" />
    <glyph glyph-name="breve" unicode="&#x2d8;" horiz-adv-x="278" 
d="M10 726l32 -0.000976562c4 -57.333 37.667 -86 101 -86c52.667 0 83.667 28.667 93 86h32c-10.667 -100 -55 -150 -133 -150c-40.667 0 -72 15.333 -94 46c-20 26.667 -30.333 61.334 -31 104.001z" />
    <glyph glyph-name="dotaccent" unicode="&#x2d9;" horiz-adv-x="278" 
d="M85 642c0 15.333 5.16895 28.1641 15.502 38.4971s23.166 15.5 38.499 15.5s28.166 -5.16699 38.499 -15.5s15.5 -23.166 15.5 -38.499s-5.16699 -28.166 -15.5 -38.499s-23.166 -15.5 -38.499 -15.5c-14.667 0 -27.334 5.33301 -38.001 16s-16 23.334 -16 38.001z" />
    <glyph glyph-name="ring" unicode="&#x2da;" horiz-adv-x="278" 
d="M35 678c0 28.667 10.167 53.167 30.5 73.5s44.833 30.5 73.5 30.5s53.167 -10.167 73.5 -30.5s30.5 -44.833 30.5 -73.5s-10.167 -53.167 -30.5 -73.5s-44.833 -30.5 -73.5 -30.5s-53.167 10.167 -73.5 30.5s-30.5 44.833 -30.5 73.5zM79 678
c0 -16.667 5.83301 -30.834 17.5 -42.501s25.834 -17.5 42.501 -17.5s30.834 5.83301 42.501 17.5s17.5 25.834 17.5 42.501s-5.83301 30.834 -17.5 42.501s-25.834 17.5 -42.501 17.5s-30.834 -5.83301 -42.501 -17.5s-17.5 -25.834 -17.5 -42.501z" />
    <glyph glyph-name="ogonek" unicode="&#x2db;" horiz-adv-x="278" 
d="M234 20v-10c-42 -18 -72.333 -33.667 -91 -47c-38 -26 -57 -54.333 -57 -85c0 -32 16 -48 48 -48c17.333 0 36 5.33301 56 16l48 28l12 -30c-56.667 -33.333 -102.667 -50 -138 -50c-26 0 -48 5.66699 -66 17c-21.333 14 -32 33.333 -32 58c0 70.667 73.333 121 220 151z
" />
    <glyph glyph-name="tilde" unicode="&#x2dc;" horiz-adv-x="278" 
d="M14 600h-27.999c8.66699 36.667 18.334 62 29.001 76c16 21.333 39.667 32 71 32c18 0 41.333 -7.66699 70 -23s48 -23 58 -23c17.333 0 34 16.667 50 50h28c-15.333 -72 -48 -108 -98 -108c-16.667 0 -39.834 7.66699 -69.501 23s-49.834 23 -60.501 23
c-22 0 -38.667 -16.667 -50 -50z" />
    <glyph glyph-name="hungarumlaut" unicode="&#x2dd;" horiz-adv-x="278" 
d="M165 576h-43l123 140c20 22.667 38 34 54 34c24.667 0 37 -12 37 -36c0 -14 -9.66699 -27.667 -29 -41zM20 576h-41l116 139c19.333 23.333 37 35 53 35c24.667 0 37 -12 37 -36c0 -14.667 -9.66699 -28.667 -29 -42z" />
    <glyph glyph-name="glyph281" unicode="&#x1ea0;" 
d="M166 0h-182v22h58l232 678h64l220 -678h40v-22h-222v22h74l-82 256h-211l-87 -256h96v-22zM264 593l-100 -293h197l-95 293h-2zM221 -75c0 13.333 4.83301 24.833 14.5 34.5s21.167 14.5 34.5 14.5s24.833 -4.83301 34.5 -14.5s14.5 -21.167 14.5 -34.5
s-4.83301 -24.833 -14.5 -34.5s-21.167 -14.5 -34.5 -14.5s-24.833 4.83301 -34.5 14.5s-14.5 21.167 -14.5 34.5z" />
    <glyph glyph-name="glyph282" unicode="&#x1ea1;" horiz-adv-x="519" 
d="M128 326h-21.998v162c59.333 24 110.333 36 153 36c46.667 0 86.667 -9.66699 120 -29c40.667 -23.333 61 -56.333 61 -99v-374h48v-22h-136v88h-2c-12 -32 -31.833 -57.333 -59.5 -76s-58.5 -28 -92.5 -28c-44 0 -80.333 12.333 -109 37s-43 58.667 -43 102
c0 52 19 89.333 57 112c24 14 65.667 26.167 125 36.5s100.666 22.5 123.999 36.5v105c0 59.333 -29 89 -87 89c-34.667 0 -60.334 -11.667 -77.001 -35c-14.667 -20.667 -34.667 -67.667 -60 -141zM352.002 206l-0.000976562 75.998c-22 -10.667 -56.667 -21.667 -104 -33
c-35.333 -8.66699 -60 -19.667 -74 -33c-18.667 -18 -28 -49 -28 -93c0 -69.333 27 -103.666 81 -102.999c42.667 0.666992 75.334 22.334 98.001 65.001c18 34 27 74.333 27 121zM217.001 -89.002c0 12 4.33301 22.333 13 31s19 13 31 13s22.333 -4.33301 31 -13
s13 -19 13 -31s-4.33301 -22.333 -13 -31s-19 -13 -31 -13s-22.333 4.33301 -31 13s-13 19 -13 31z" />
    <glyph glyph-name="glyph283" unicode="&#x1ea2;" 
d="M166 0h-182v22h58l232 678h64l220 -678h40v-22h-222v22h74l-82 256h-211l-87 -256h96v-22zM264 593l-100 -293h197l-95 293h-2zM232 855l3 84.999c32.667 17.333 58 26 76 26c22.667 0 42.334 -7.16699 59.001 -21.5s25 -32.5 25 -54.5c0 -23.333 -9 -45 -27 -65
c-18.667 -15.333 -37 -31 -55 -47c-2 -2.66699 -3 -11 -3 -25l-16 -3v10c0 9.33301 9.16699 27.333 27.5 54s27.5 51.334 27.5 74.001c0 38.667 -14.667 58 -44 58c-18.667 0 -33.334 -11 -44.001 -33c-3.33301 -6.66699 -9 -26 -17 -58h-12z" />
    <glyph glyph-name="glyph284" unicode="&#x1ea3;" horiz-adv-x="519" 
d="M128 326h-21.998v162c59.333 24 110.333 36 153 36c46.667 0 86.667 -9.66699 120 -29c40.667 -23.333 61 -56.333 61 -99v-374h48v-22h-136v88h-2c-12 -32 -31.833 -57.333 -59.5 -76s-58.5 -28 -92.5 -28c-44 0 -80.333 12.333 -109 37s-43 58.667 -43 102
c0 52 19 89.333 57 112c24 14 65.667 26.167 125 36.5s100.666 22.5 123.999 36.5v105c0 59.333 -29 89 -87 89c-34.667 0 -60.334 -11.667 -77.001 -35c-14.667 -20.667 -34.667 -67.667 -60 -141zM352.002 206l-0.000976562 75.998c-22 -10.667 -56.667 -21.667 -104 -33
c-35.333 -8.66699 -60 -19.667 -74 -33c-18.667 -18 -28 -49 -28 -93c0 -69.333 27 -103.666 81 -102.999c42.667 0.666992 75.334 22.334 98.001 65.001c18 34 27 74.333 27 121zM196.001 662.998l1.99902 76.999c30.667 15.333 53.667 23 69 23c20 0 37.5 -6.5 52.5 -19.5
s22.5 -29.167 22.5 -48.5c0 -29.333 -24.667 -62.666 -74 -99.999c-1.33301 -2.66699 -2 -10.334 -2 -23.001l-15 -3v9c0 8 8.33301 24 25 48s25 46.333 25 67c0 34.667 -13.333 52 -40 52c-16.667 0 -29.667 -10 -39 -30
c-3.33301 -7.33301 -8.66602 -24.666 -15.999 -51.999h-10z" />
    <glyph glyph-name="glyph285" unicode="&#x1ea4;" 
d="M166 0h-182v22h58l232 678h64l220 -678h40v-22h-222v22h74l-82 256h-211l-87 -256h96v-22zM264 593l-100 -293h197l-95 293h-2zM421 730h-34l-84 89l-84 -89h-34l89 136h58zM430 819l-39.001 0.000976562l111 126c18 20.667 34.333 31 49 31
c8.66699 0 16.334 -3.33301 23.001 -10s10 -14.334 10 -23.001c0 -12.667 -8.66699 -25 -26 -37z" />
    <glyph glyph-name="glyph286" unicode="&#x1ea5;" horiz-adv-x="519" 
d="M128 326h-21.998v162c59.333 24 110.333 36 153 36c46.667 0 86.667 -9.66699 120 -29c40.667 -23.333 61 -56.333 61 -99v-374h48v-22h-136v88h-2c-12 -32 -31.833 -57.333 -59.5 -76s-58.5 -28 -92.5 -28c-44 0 -80.333 12.333 -109 37s-43 58.667 -43 102
c0 52 19 89.333 57 112c24 14 65.667 26.167 125 36.5s100.666 22.5 123.999 36.5v105c0 59.333 -29 89 -87 89c-34.667 0 -60.334 -11.667 -77.001 -35c-14.667 -20.667 -34.667 -67.667 -60 -141zM352.002 206l-0.000976562 75.998c-22 -10.667 -56.667 -21.667 -104 -33
c-35.333 -8.66699 -60 -19.667 -74 -33c-18.667 -18 -28 -49 -28 -93c0 -69.333 27 -103.666 81 -102.999c42.667 0.666992 75.334 22.334 98.001 65.001c18 34 27 74.333 27 121zM366.001 548.998h-30l-76 80l-75 -80h-31l80 122h52zM374.001 628.998h-35.001l100 113
c16.667 18.667 31.334 28 44.001 28c20 0 30 -10 30 -30c0 -12 -7.66699 -23 -23 -33z" />
    <glyph glyph-name="glyph287" unicode="&#x1ea6;" 
d="M166 0h-182v22h58l232 678h64l220 -678h40v-22h-222v22h74l-82 256h-211l-87 -256h96v-22zM264 593l-100 -293h197l-95 293h-2zM421 730h-34l-84 89l-84 -89h-34l89 136h58zM216 819h-39l-128 87c-17.333 12 -26 24.333 -26 37c0 22 11 33 33 33
c14.667 0 31 -10.333 49 -31z" />
    <glyph glyph-name="glyph288" unicode="&#x1ea7;" horiz-adv-x="519" 
d="M128 326h-21.998v162c59.333 24 110.333 36 153 36c46.667 0 86.667 -9.66699 120 -29c40.667 -23.333 61 -56.333 61 -99v-374h48v-22h-136v88h-2c-12 -32 -31.833 -57.333 -59.5 -76s-58.5 -28 -92.5 -28c-44 0 -80.333 12.333 -109 37s-43 58.667 -43 102
c0 52 19 89.333 57 112c24 14 65.667 26.167 125 36.5s100.666 22.5 123.999 36.5v105c0 59.333 -29 89 -87 89c-34.667 0 -60.334 -11.667 -77.001 -35c-14.667 -20.667 -34.667 -67.667 -60 -141zM352.002 206l-0.000976562 75.998c-22 -10.667 -56.667 -21.667 -104 -33
c-35.333 -8.66699 -60 -19.667 -74 -33c-18.667 -18 -28 -49 -28 -93c0 -69.333 27 -103.666 81 -102.999c42.667 0.666992 75.334 22.334 98.001 65.001c18 34 27 74.333 27 121zM367.001 548.998h-31l-75 80l-76 -80h-30l80 122h52zM182.001 628.998h-35.001l-115 78
c-15.333 10.667 -23 21.667 -23 33c0 20 10 30 30 30c12.667 0 27.334 -9.33301 44.001 -28z" />
    <glyph glyph-name="glyph289" unicode="&#x1ea8;" 
d="M166 0h-182v22h58l232 678h64l220 -678h40v-22h-222v22h74l-82 256h-211l-87 -256h96v-22zM264 593l-100 -293h197l-95 293h-2zM421 730h-34l-84 89l-84 -89h-34l89 136h58zM390 924l3 84.999c32.667 17.333 58 26 76 26c22.667 0 42.334 -7.16699 59.001 -21.5
s25 -32.5 25 -54.5c0 -23.333 -9 -45 -27 -65c-18.667 -15.333 -37 -31 -55 -47c-2 -2.66699 -3 -11 -3 -25l-16 -3v10c0 9.33301 9.16699 27.333 27.5 54s27.5 51.334 27.5 74.001c0 38.667 -14.667 58 -44 58c-18.667 0 -33.334 -11 -44.001 -33
c-3.33301 -6.66699 -9 -26 -17 -58h-12z" />
    <glyph glyph-name="glyph290" unicode="&#x1ea9;" horiz-adv-x="519" 
d="M128 326h-21.998v162c59.333 24 110.333 36 153 36c46.667 0 86.667 -9.66699 120 -29c40.667 -23.333 61 -56.333 61 -99v-374h48v-22h-136v88h-2c-12 -32 -31.833 -57.333 -59.5 -76s-58.5 -28 -92.5 -28c-44 0 -80.333 12.333 -109 37s-43 58.667 -43 102
c0 52 19 89.333 57 112c24 14 65.667 26.167 125 36.5s100.666 22.5 123.999 36.5v105c0 59.333 -29 89 -87 89c-34.667 0 -60.334 -11.667 -77.001 -35c-14.667 -20.667 -34.667 -67.667 -60 -141zM352.002 206l-0.000976562 75.998c-22 -10.667 -56.667 -21.667 -104 -33
c-35.333 -8.66699 -60 -19.667 -74 -33c-18.667 -18 -28 -49 -28 -93c0 -69.333 27 -103.666 81 -102.999c42.667 0.666992 75.334 22.334 98.001 65.001c18 34 27 74.333 27 121zM368.001 548.998h-31l-76 80l-75 -80h-31l80 122h53zM340.001 722.998l1.99902 76.999
c30.667 15.333 53.667 23 69 23c20 0 37.5 -6.5 52.5 -19.5s22.5 -29.167 22.5 -48.5c0 -29.333 -24.667 -62.666 -74 -99.999c-1.33301 -2.66699 -2 -10.334 -2 -23.001l-15 -3v9c0 8 8.33301 24 25 48s25 46.333 25 67c0 34.667 -13.333 52 -40 52
c-16.667 0 -29.667 -10 -39 -30c-3.33301 -7.33301 -8.66602 -24.666 -15.999 -51.999h-10z" />
    <glyph glyph-name="glyph291" unicode="&#x1eaa;" 
d="M166 0h-182v22h58l232 678h64l220 -678h40v-22h-222v22h74l-82 256h-211l-87 -256h96v-22zM264 593l-100 -293h197l-95 293h-2zM421 730h-34l-84 89l-84 -89h-34l89 136h58zM197 902h-23.001c7.33301 30.667 15.666 52.667 24.999 66c14 19.333 34 29 60 29
c14 0 33.833 -7.66699 59.5 -23s41.834 -23 48.501 -23c14 0 28.333 15.333 43 46h24c-14 -63.333 -42 -95 -84 -95c-12 0 -31.333 7.5 -58 22.5s-44 22.5 -52 22.5c-17.333 0 -31.666 -15 -42.999 -45z" />
    <glyph glyph-name="glyph292" unicode="&#x1eab;" horiz-adv-x="519" 
d="M128 326h-21.998v162c59.333 24 110.333 36 153 36c46.667 0 86.667 -9.66699 120 -29c40.667 -23.333 61 -56.333 61 -99v-374h48v-22h-136v88h-2c-12 -32 -31.833 -57.333 -59.5 -76s-58.5 -28 -92.5 -28c-44 0 -80.333 12.333 -109 37s-43 58.667 -43 102
c0 52 19 89.333 57 112c24 14 65.667 26.167 125 36.5s100.666 22.5 123.999 36.5v105c0 59.333 -29 89 -87 89c-34.667 0 -60.334 -11.667 -77.001 -35c-14.667 -20.667 -34.667 -67.667 -60 -141zM352.002 206l-0.000976562 75.998c-22 -10.667 -56.667 -21.667 -104 -33
c-35.333 -8.66699 -60 -19.667 -74 -33c-18.667 -18 -28 -49 -28 -93c0 -69.333 27 -103.666 81 -102.999c42.667 0.666992 75.334 22.334 98.001 65.001c18 34 27 74.333 27 121zM367.001 548.998h-31l-75 81l-76 -81h-30l80 123h52zM166.001 703.998h-21
c12 57.333 37.333 86 76 86c12.667 0 30.667 -7 54 -21s37.666 -21 42.999 -21c13.333 0 26.333 14 39 42h22c-13.333 -57.333 -38.666 -86 -75.999 -86c-10.667 0 -28 6.83301 -52 20.5s-39.667 20.5 -47 20.5c-16 0 -28.667 -13.667 -38 -41z" />
    <glyph glyph-name="glyph293" unicode="&#x1eac;" 
d="M166 0h-182v22h58l232 678h64l220 -678h40v-22h-222v22h74l-82 256h-211l-87 -256h96v-22zM264 593l-100 -293h197l-95 293h-2zM421 730h-34l-84 89l-84 -89h-34l89 136h58zM221 -75c0 13.333 4.83301 24.833 14.5 34.5s21.167 14.5 34.5 14.5
s24.833 -4.83301 34.5 -14.5s14.5 -21.167 14.5 -34.5s-4.83301 -24.833 -14.5 -34.5s-21.167 -14.5 -34.5 -14.5s-24.833 4.83301 -34.5 14.5s-14.5 21.167 -14.5 34.5z" />
    <glyph glyph-name="glyph294" unicode="&#x1ead;" horiz-adv-x="519" 
d="M128 326h-21.998v162c59.333 24 110.333 36 153 36c46.667 0 86.667 -9.66699 120 -29c40.667 -23.333 61 -56.333 61 -99v-374h48v-22h-136v88h-2c-12 -32 -31.833 -57.333 -59.5 -76s-58.5 -28 -92.5 -28c-44 0 -80.333 12.333 -109 37s-43 58.667 -43 102
c0 52 19 89.333 57 112c24 14 65.667 26.167 125 36.5s100.666 22.5 123.999 36.5v105c0 59.333 -29 89 -87 89c-34.667 0 -60.334 -11.667 -77.001 -35c-14.667 -20.667 -34.667 -67.667 -60 -141zM352.002 206l-0.000976562 75.998c-22 -10.667 -56.667 -21.667 -104 -33
c-35.333 -8.66699 -60 -19.667 -74 -33c-18.667 -18 -28 -49 -28 -93c0 -69.333 27 -103.666 81 -102.999c42.667 0.666992 75.334 22.334 98.001 65.001c18 34 27 74.333 27 121zM366.001 548.998h-30l-76 80l-75 -80h-31l80 122h52zM217.001 -89.002
c0 12 4.33301 22.333 13 31s19 13 31 13s22.333 -4.33301 31 -13s13 -19 13 -31s-4.33301 -22.333 -13 -31s-19 -13 -31 -13s-22.333 4.33301 -31 13s-13 19 -13 31z" />
    <glyph glyph-name="glyph295" unicode="&#x1eae;" 
d="M166 0h-182v22h58l232 678h64l220 -678h40v-22h-222v22h74l-82 256h-211l-87 -256h96v-22zM264 593l-100 -293h197l-95 293h-2zM184 867l29 -0.000976562c2.66699 -45.333 33 -68 91 -68c22 0 41.667 6 59 18s27.333 28.667 30 50h29c-9.33301 -78 -50 -117 -122 -117
c-36 0 -64.167 10.333 -84.5 31s-30.833 49.334 -31.5 86.001zM322 866.999l-39.001 0.000976562l111 126c18 20.667 34.333 31 49 31c8.66699 0 16.334 -3.33301 23.001 -10s10 -14.334 10 -23.001c0 -12.667 -8.66699 -25 -26 -37z" />
    <glyph glyph-name="glyph296" unicode="&#x1eaf;" horiz-adv-x="519" 
d="M128 326h-21.998v162c59.333 24 110.333 36 153 36c46.667 0 86.667 -9.66699 120 -29c40.667 -23.333 61 -56.333 61 -99v-374h48v-22h-136v88h-2c-12 -32 -31.833 -57.333 -59.5 -76s-58.5 -28 -92.5 -28c-44 0 -80.333 12.333 -109 37s-43 58.667 -43 102
c0 52 19 89.333 57 112c24 14 65.667 26.167 125 36.5s100.666 22.5 123.999 36.5v105c0 59.333 -29 89 -87 89c-34.667 0 -60.334 -11.667 -77.001 -35c-14.667 -20.667 -34.667 -67.667 -60 -141zM352.002 206l-0.000976562 75.998c-22 -10.667 -56.667 -21.667 -104 -33
c-35.333 -8.66699 -60 -19.667 -74 -33c-18.667 -18 -28 -49 -28 -93c0 -69.333 27 -103.666 81 -102.999c42.667 0.666992 75.334 22.334 98.001 65.001c18 34 27 74.333 27 121zM154.001 670.998h27.001c2 -41.333 29 -62 81 -62c20 0 37.667 5.5 53 16.5
s24.333 26.167 27 45.5h27c-8.66699 -70.667 -45.334 -106 -110.001 -106c-68.667 0 -103.667 35.333 -105 106zM279.002 670.998h-35.001l99 113c16.667 18.667 31.334 28 44.001 28c8 0 15 -3 21 -9s9 -13 9 -21c0 -11.333 -7.66699 -22.333 -23 -33z" />
    <glyph glyph-name="glyph297" unicode="&#x1eb0;" 
d="M166 0h-182v22h58l232 678h64l220 -678h40v-22h-222v22h74l-82 256h-211l-87 -256h96v-22zM264 593l-100 -293h197l-95 293h-2zM184 867l29 -0.000976562c2.66699 -45.333 33 -68 91 -68c22 0 41.667 6 59 18s27.333 28.667 30 50h29c-9.33301 -78 -50 -117 -122 -117
c-36 0 -64.167 10.333 -84.5 31s-30.833 49.334 -31.5 86.001zM323 866.999h-39l-128 87c-17.333 12 -26 24.333 -26 37c0 22 11 33 33 33c14.667 0 31 -10.333 49 -31z" />
    <glyph glyph-name="glyph298" unicode="&#x1eb1;" horiz-adv-x="519" 
d="M128 326h-21.998v162c59.333 24 110.333 36 153 36c46.667 0 86.667 -9.66699 120 -29c40.667 -23.333 61 -56.333 61 -99v-374h48v-22h-136v88h-2c-12 -32 -31.833 -57.333 -59.5 -76s-58.5 -28 -92.5 -28c-44 0 -80.333 12.333 -109 37s-43 58.667 -43 102
c0 52 19 89.333 57 112c24 14 65.667 26.167 125 36.5s100.666 22.5 123.999 36.5v105c0 59.333 -29 89 -87 89c-34.667 0 -60.334 -11.667 -77.001 -35c-14.667 -20.667 -34.667 -67.667 -60 -141zM352.002 206l-0.000976562 75.998c-22 -10.667 -56.667 -21.667 -104 -33
c-35.333 -8.66699 -60 -19.667 -74 -33c-18.667 -18 -28 -49 -28 -93c0 -69.333 27 -103.666 81 -102.999c42.667 0.666992 75.334 22.334 98.001 65.001c18 34 27 74.333 27 121zM152.001 670.998h25.999c2.66699 -41.333 30 -62 82 -62c20 0 37.667 5.5 53 16.5
s24.333 26.167 27 45.5h26c-7.33301 -70.667 -43.666 -106 -108.999 -106c-68 0 -103 35.333 -105 106zM277 670.998h-35l-115 78c-15.333 10.667 -23 21.667 -23 33c0 20 9.66699 30 29 30c13.333 0 28.333 -9.33301 45 -28z" />
    <glyph glyph-name="glyph299" unicode="&#x1eb2;" 
d="M166 0h-182v22h58l232 678h64l220 -678h40v-22h-222v22h74l-82 256h-211l-87 -256h96v-22zM264 593l-100 -293h197l-95 293h-2zM184 867l29 -0.000976562c2.66699 -45.333 33 -68 91 -68c22 0 41.667 6 59 18s27.333 28.667 30 50h29c-9.33301 -78 -50 -117 -122 -117
c-36 0 -64.167 10.333 -84.5 31s-30.833 49.334 -31.5 86.001zM239 958.999l2 76.002c30 16 53 24 69 24c20 0 37.5 -6.5 52.5 -19.5s22.5 -29.5 22.5 -49.5c0 -29.333 -24.667 -62.666 -74 -99.999c-1.33301 -2.66699 -2 -10.334 -2 -23.001l-14 -3v9
c0 7.33301 8.16699 23.166 24.5 47.499s24.5 47.166 24.5 68.499c0 34.667 -13.333 52 -40 52c-17.333 0 -30.333 -10 -39 -30c-2 -4.66699 -7 -22 -15 -52h-11z" />
    <glyph glyph-name="glyph300" unicode="&#x1eb3;" horiz-adv-x="519" 
d="M128 326h-21.998v162c59.333 24 110.333 36 153 36c46.667 0 86.667 -9.66699 120 -29c40.667 -23.333 61 -56.333 61 -99v-374h48v-22h-136v88h-2c-12 -32 -31.833 -57.333 -59.5 -76s-58.5 -28 -92.5 -28c-44 0 -80.333 12.333 -109 37s-43 58.667 -43 102
c0 52 19 89.333 57 112c24 14 65.667 26.167 125 36.5s100.666 22.5 123.999 36.5v105c0 59.333 -29 89 -87 89c-34.667 0 -60.334 -11.667 -77.001 -35c-14.667 -20.667 -34.667 -67.667 -60 -141zM352.002 206l-0.000976562 75.998c-22 -10.667 -56.667 -21.667 -104 -33
c-35.333 -8.66699 -60 -19.667 -74 -33c-18.667 -18 -28 -49 -28 -93c0 -69.333 27 -103.666 81 -102.999c42.667 0.666992 75.334 22.334 98.001 65.001c18 34 27 74.333 27 121zM156.001 669.998l26 -0.000976562c2.66699 -40.667 30 -61 82 -61
c20 0 37.667 5.33301 53 16s24.333 25.667 27 45h26c-8 -70 -44.667 -105 -110 -105c-32 0 -57.167 9.33301 -75.5 28s-27.833 44.334 -28.5 77.001zM199.001 764.997l2 76.002c30 16 53 24 69 24c20 0 37.5 -6.5 52.5 -19.5s22.5 -29.5 22.5 -49.5
c0 -29.333 -24.667 -62.666 -74 -99.999c-1.33301 -2.66699 -2 -10.334 -2 -23.001l-14 -3v9c0 7.33301 8.16699 23.166 24.5 47.499s24.5 47.166 24.5 68.499c0 34.667 -13.333 52 -40 52c-17.333 0 -30.333 -10 -39 -30c-2 -4.66699 -7 -22 -15 -52h-11z" />
    <glyph glyph-name="glyph301" unicode="&#x1eb4;" 
d="M166 0h-182v22h58l232 678h64l220 -678h40v-22h-222v22h74l-82 256h-211l-87 -256h96v-22zM264 593l-100 -293h197l-95 293h-2zM184 867l29 -0.000976562c2.66699 -45.333 33 -68 91 -68c22 0 41.667 6 59 18s27.333 28.667 30 50h29c-9.33301 -78 -50 -117 -122 -117
c-36 0 -64.167 10.333 -84.5 31s-30.833 49.334 -31.5 86.001zM314 891.999h-23.001c7.33301 30.667 15.666 52.667 24.999 66c14 19.333 34 29 60 29c14 0 33.833 -7.66699 59.5 -23s41.834 -23 48.501 -23c14 0 28.333 15.333 43 46h24c-14 -63.333 -42 -95 -84 -95
c-12 0 -31.333 7.5 -58 22.5s-44 22.5 -52 22.5c-17.333 0 -31.666 -15 -42.999 -45z" />
    <glyph glyph-name="glyph302" unicode="&#x1eb5;" horiz-adv-x="519" 
d="M128 326h-21.998v162c59.333 24 110.333 36 153 36c46.667 0 86.667 -9.66699 120 -29c40.667 -23.333 61 -56.333 61 -99v-374h48v-22h-136v88h-2c-12 -32 -31.833 -57.333 -59.5 -76s-58.5 -28 -92.5 -28c-44 0 -80.333 12.333 -109 37s-43 58.667 -43 102
c0 52 19 89.333 57 112c24 14 65.667 26.167 125 36.5s100.666 22.5 123.999 36.5v105c0 59.333 -29 89 -87 89c-34.667 0 -60.334 -11.667 -77.001 -35c-14.667 -20.667 -34.667 -67.667 -60 -141zM352.002 206l-0.000976562 75.998c-22 -10.667 -56.667 -21.667 -104 -33
c-35.333 -8.66699 -60 -19.667 -74 -33c-18.667 -18 -28 -49 -28 -93c0 -69.333 27 -103.666 81 -102.999c42.667 0.666992 75.334 22.334 98.001 65.001c18 34 27 74.333 27 121zM155.001 669.998l26 -0.000976562c2.66699 -40.667 30 -61 82 -61
c20 0 37.667 5.33301 53 16s24.333 25.667 27 45h26c-8 -70 -44.667 -105 -110 -105c-32 0 -57.167 9.33301 -75.5 28s-27.833 44.334 -28.5 77.001zM272.001 691.997h-21.001c6 27.333 13.333 47.333 22 60c12.667 17.333 31 26 55 26c12.667 0 30.5 -7 53.5 -21
s37.5 -21 43.5 -21c12.667 0 25.334 14 38.001 42h22c-12 -57.333 -37.333 -86 -76 -86c-10 0 -27.333 6.83301 -52 20.5s-40 20.5 -46 20.5c-16 0 -29 -13.667 -39 -41z" />
    <glyph glyph-name="glyph303" unicode="&#x1eb6;" 
d="M166 0h-182v22h58l232 678h64l220 -678h40v-22h-222v22h74l-82 256h-211l-87 -256h96v-22zM264 593l-100 -293h197l-95 293h-2zM184 867l29 -0.000976562c2.66699 -45.333 33 -68 91 -68c22 0 41.667 6 59 18s27.333 28.667 30 50h29c-9.33301 -78 -50 -117 -122 -117
c-36 0 -64.167 10.333 -84.5 31s-30.833 49.334 -31.5 86.001zM221 -75.001c0 13.333 4.83301 24.833 14.5 34.5s21.167 14.5 34.5 14.5s24.833 -4.83301 34.5 -14.5s14.5 -21.167 14.5 -34.5s-4.83301 -24.833 -14.5 -34.5s-21.167 -14.5 -34.5 -14.5
s-24.833 4.83301 -34.5 14.5s-14.5 21.167 -14.5 34.5z" />
    <glyph glyph-name="glyph304" unicode="&#x1eb7;" horiz-adv-x="519" 
d="M128 326h-21.998v162c59.333 24 110.333 36 153 36c46.667 0 86.667 -9.66699 120 -29c40.667 -23.333 61 -56.333 61 -99v-374h48v-22h-136v88h-2c-12 -32 -31.833 -57.333 -59.5 -76s-58.5 -28 -92.5 -28c-44 0 -80.333 12.333 -109 37s-43 58.667 -43 102
c0 52 19 89.333 57 112c24 14 65.667 26.167 125 36.5s100.666 22.5 123.999 36.5v105c0 59.333 -29 89 -87 89c-34.667 0 -60.334 -11.667 -77.001 -35c-14.667 -20.667 -34.667 -67.667 -60 -141zM352.002 206l-0.000976562 75.998c-22 -10.667 -56.667 -21.667 -104 -33
c-35.333 -8.66699 -60 -19.667 -74 -33c-18.667 -18 -28 -49 -28 -93c0 -69.333 27 -103.666 81 -102.999c42.667 0.666992 75.334 22.334 98.001 65.001c18 34 27 74.333 27 121zM217.001 -89.002c0 12 4.33301 22.333 13 31s19 13 31 13s22.333 -4.33301 31 -13
s13 -19 13 -31s-4.33301 -22.333 -13 -31s-19 -13 -31 -13s-22.333 4.33301 -31 13s-13 19 -13 31zM154.001 670.998h27.001c2 -41.333 29 -62 81 -62c20 0 37.667 5.5 53 16.5s24.333 26.167 27 45.5h27c-8.66699 -70.667 -45.334 -106 -110.001 -106
c-68.667 0 -103.667 35.333 -105 106z" />
    <glyph glyph-name="glyph305" unicode="&#x1eb8;" 
d="M559 0l-517.001 -0.000976562v22h60v648h-60v22h508v-222h-22c-26 90.667 -46.333 147.334 -61 170.001c-13.333 20 -33 30 -59 30h-198v-300h78c30.667 0 54 16.333 70 49c8 16 16 45.667 24 89h22v-298h-22c-8 43.333 -16 73 -24 89c-16 32.667 -39.333 49 -70 49h-78
v-326h176c56.667 0 98.334 46.333 125.001 139c6 21.333 14.667 53 26 95h22v-256zM254.999 -85.001c0 13.333 4.83301 24.833 14.5 34.5s21.167 14.5 34.5 14.5s24.833 -4.83301 34.5 -14.5s14.5 -21.167 14.5 -34.5s-4.83301 -24.833 -14.5 -34.5
s-21.167 -14.5 -34.5 -14.5s-24.833 4.83301 -34.5 14.5s-14.5 21.167 -14.5 34.5z" />
    <glyph glyph-name="glyph306" unicode="&#x1eb9;" horiz-adv-x="500" 
d="M449 302l-297 0.000976562c-0.666992 -6.66699 -1 -16.667 -1 -30c0 -173.333 41.333 -260 124 -260c94.667 0 146.667 59.333 156 178h22c-2.66699 -60.667 -19.334 -109.334 -50.001 -146.001c-33.333 -40 -79.333 -60 -138 -60c-70.667 0 -125.667 28.333 -165 85
c-35.333 50 -53 111.667 -53 185c0 70.667 17.667 131.667 53 183c40.667 58 94.667 87 162 87c62.667 0 110.334 -22 143.001 -66c29.333 -39.333 44 -91.333 44 -156zM153 324.001h192v39c0 92.667 -28.333 139 -85 139c-63.333 0 -99 -59.333 -107 -178zM219 -93.999
c0 12 4.33301 22.333 13 31s19 13 31 13s22.333 -4.33301 31 -13s13 -19 13 -31s-4.33301 -22.333 -13 -31s-19 -13 -31 -13s-22.333 4.33301 -31 13s-13 19 -13 31z" />
    <glyph glyph-name="glyph307" unicode="&#x1eba;" 
d="M559 0l-517.001 -0.000976562v22h60v648h-60v22h508v-222h-22c-26 90.667 -46.333 147.334 -61 170.001c-13.333 20 -33 30 -59 30h-198v-300h78c30.667 0 54 16.333 70 49c8 16 16 45.667 24 89h22v-298h-22c-8 43.333 -16 73 -24 89c-16 32.667 -39.333 49 -70 49h-78
v-326h176c56.667 0 98.334 46.333 125.001 139c6 21.333 14.667 53 26 95h22v-256zM231.999 860.999l3 84.999c32.667 17.333 58 26 76 26c22.667 0 42.334 -7.16699 59.001 -21.5s25 -32.5 25 -54.5c0 -23.333 -9 -45 -27 -65c-18.667 -15.333 -37 -31 -55 -47
c-2 -2.66699 -3 -11 -3 -25l-16 -3v10c0 9.33301 9.16699 27.333 27.5 54s27.5 51.334 27.5 74.001c0 38.667 -14.667 58 -44 58c-18.667 0 -33.334 -11 -44.001 -33c-3.33301 -6.66699 -9 -26 -17 -58h-12z" />
    <glyph glyph-name="glyph308" unicode="&#x1ebb;" horiz-adv-x="500" 
d="M449 302l-297 0.000976562c-0.666992 -6.66699 -1 -16.667 -1 -30c0 -173.333 41.333 -260 124 -260c94.667 0 146.667 59.333 156 178h22c-2.66699 -60.667 -19.334 -109.334 -50.001 -146.001c-33.333 -40 -79.333 -60 -138 -60c-70.667 0 -125.667 28.333 -165 85
c-35.333 50 -53 111.667 -53 185c0 70.667 17.667 131.667 53 183c40.667 58 94.667 87 162 87c62.667 0 110.334 -22 143.001 -66c29.333 -39.333 44 -91.333 44 -156zM153 324.001h192v39c0 92.667 -28.333 139 -85 139c-63.333 0 -99 -59.333 -107 -178zM196 663.001
l1.99902 76.999c30.667 15.333 53.667 23 69 23c20 0 37.5 -6.5 52.5 -19.5s22.5 -29.167 22.5 -48.5c0 -29.333 -24.667 -62.666 -74 -99.999c-1.33301 -2.66699 -2 -10.334 -2 -23.001l-15 -3v9c0 8 8.33301 24 25 48s25 46.333 25 67c0 34.667 -13.333 52 -40 52
c-16.667 0 -29.667 -10 -39 -30c-3.33301 -7.33301 -8.66602 -24.666 -15.999 -51.999h-10z" />
    <glyph glyph-name="glyph309" unicode="&#x1ebc;" 
d="M559 0l-517.001 -0.000976562v22h60v648h-60v22h508v-222h-22c-26 90.667 -46.333 147.334 -61 170.001c-13.333 20 -33 30 -59 30h-198v-300h78c30.667 0 54 16.333 70 49c8 16 16 45.667 24 89h22v-298h-22c-8 43.333 -16 73 -24 89c-16 32.667 -39.333 49 -70 49h-78
v-326h176c56.667 0 98.334 46.333 125.001 139c6 21.333 14.667 53 26 95h22v-256zM196.999 769.999h-23.001c7.33301 30.667 15.666 52.667 24.999 66c14 19.333 34 29 60 29c14 0 33.833 -7.66699 59.5 -23s41.834 -23 48.501 -23c14 0 28.333 15.333 43 46h24
c-14 -63.333 -42 -95 -84 -95c-12 0 -31.333 7.5 -58 22.5s-44 22.5 -52 22.5c-17.333 0 -31.666 -15 -42.999 -45z" />
    <glyph glyph-name="glyph310" unicode="&#x1ebd;" horiz-adv-x="500" 
d="M449 302l-297 0.000976562c-0.666992 -6.66699 -1 -16.667 -1 -30c0 -173.333 41.333 -260 124 -260c94.667 0 146.667 59.333 156 178h22c-2.66699 -60.667 -19.334 -109.334 -50.001 -146.001c-33.333 -40 -79.333 -60 -138 -60c-70.667 0 -125.667 28.333 -165 85
c-35.333 50 -53 111.667 -53 185c0 70.667 17.667 131.667 53 183c40.667 58 94.667 87 162 87c62.667 0 110.334 -22 143.001 -66c29.333 -39.333 44 -91.333 44 -156zM153 324.001h192v39c0 92.667 -28.333 139 -85 139c-63.333 0 -99 -59.333 -107 -178zM166 576.001h-21
c12 57.333 37.333 86 76 86c12.667 0 30.667 -7 54 -21s37.666 -21 42.999 -21c13.333 0 26.333 14 39 42h22c-13.333 -57.333 -38.666 -86 -75.999 -86c-10.667 0 -28 6.83301 -52 20.5s-39.667 20.5 -47 20.5c-16 0 -28.667 -13.667 -38 -41z" />
    <glyph glyph-name="glyph311" unicode="&#x1ebe;" 
d="M559 0l-517.001 -0.000976562v22h60v648h-60v22h508v-222h-22c-26 90.667 -46.333 147.334 -61 170.001c-13.333 20 -33 30 -59 30h-198v-300h78c30.667 0 54 16.333 70 49c8 16 16 45.667 24 89h22v-298h-22c-8 43.333 -16 73 -24 89c-16 32.667 -39.333 49 -70 49h-78
v-326h176c56.667 0 98.334 46.333 125.001 139c6 21.333 14.667 53 26 95h22v-256zM420.999 739.999h-34l-84 89l-84 -89h-34l89 136h58zM429.999 828.999l-39.001 0.000976562l111 126c18 20.667 34.333 31 49 31c8.66699 0 16.334 -3.33301 23.001 -10
s10 -14.334 10 -23.001c0 -12.667 -8.66699 -25 -26 -37z" />
    <glyph glyph-name="glyph312" unicode="&#x1ebf;" horiz-adv-x="500" 
d="M449 302l-297 0.000976562c-0.666992 -6.66699 -1 -16.667 -1 -30c0 -173.333 41.333 -260 124 -260c94.667 0 146.667 59.333 156 178h22c-2.66699 -60.667 -19.334 -109.334 -50.001 -146.001c-33.333 -40 -79.333 -60 -138 -60c-70.667 0 -125.667 28.333 -165 85
c-35.333 50 -53 111.667 -53 185c0 70.667 17.667 131.667 53 183c40.667 58 94.667 87 162 87c62.667 0 110.334 -22 143.001 -66c29.333 -39.333 44 -91.333 44 -156zM153 324.001h192v39c0 92.667 -28.333 139 -85 139c-63.333 0 -99 -59.333 -107 -178zM366 549.001h-30
l-76 80l-75 -80h-31l80 122h52zM374 629.001h-35.001l100 113c16.667 18.667 31.334 28 44.001 28c20 0 30 -10 30 -30c0 -12 -7.66699 -23 -23 -33z" />
    <glyph glyph-name="glyph313" unicode="&#x1ec0;" 
d="M559 0l-517.001 -0.000976562v22h60v648h-60v22h508v-222h-22c-26 90.667 -46.333 147.334 -61 170.001c-13.333 20 -33 30 -59 30h-198v-300h78c30.667 0 54 16.333 70 49c8 16 16 45.667 24 89h22v-298h-22c-8 43.333 -16 73 -24 89c-16 32.667 -39.333 49 -70 49h-78
v-326h176c56.667 0 98.334 46.333 125.001 139c6 21.333 14.667 53 26 95h22v-256zM420.999 739.999h-34l-84 89l-84 -89h-34l89 136h58zM215.999 828.999h-39l-128 87c-17.333 12 -26 24.333 -26 37c0 22 11 33 33 33c14.667 0 31 -10.333 49 -31z" />
    <glyph glyph-name="glyph314" unicode="&#x1ec1;" horiz-adv-x="500" 
d="M449 302l-297 0.000976562c-0.666992 -6.66699 -1 -16.667 -1 -30c0 -173.333 41.333 -260 124 -260c94.667 0 146.667 59.333 156 178h22c-2.66699 -60.667 -19.334 -109.334 -50.001 -146.001c-33.333 -40 -79.333 -60 -138 -60c-70.667 0 -125.667 28.333 -165 85
c-35.333 50 -53 111.667 -53 185c0 70.667 17.667 131.667 53 183c40.667 58 94.667 87 162 87c62.667 0 110.334 -22 143.001 -66c29.333 -39.333 44 -91.333 44 -156zM153 324.001h192v39c0 92.667 -28.333 139 -85 139c-63.333 0 -99 -59.333 -107 -178zM367 549.001h-31
l-75 80l-76 -80h-30l80 122h52zM182 629.001h-35.001l-115 78c-15.333 10.667 -23 21.667 -23 33c0 20 10 30 30 30c12.667 0 27.334 -9.33301 44.001 -28z" />
    <glyph glyph-name="glyph315" unicode="&#x1ec2;" 
d="M559 0l-517.001 -0.000976562v22h60v648h-60v22h508v-222h-22c-26 90.667 -46.333 147.334 -61 170.001c-13.333 20 -33 30 -59 30h-198v-300h78c30.667 0 54 16.333 70 49c8 16 16 45.667 24 89h22v-298h-22c-8 43.333 -16 73 -24 89c-16 32.667 -39.333 49 -70 49h-78
v-326h176c56.667 0 98.334 46.333 125.001 139c6 21.333 14.667 53 26 95h22v-256zM420.999 739.999h-34l-84 89l-84 -89h-34l89 136h58zM389.999 933.999l3 84.999c32.667 17.333 58 26 76 26c22.667 0 42.334 -7.16699 59.001 -21.5s25 -32.5 25 -54.5
c0 -23.333 -9 -45 -27 -65c-18.667 -15.333 -37 -31 -55 -47c-2 -2.66699 -3 -11 -3 -25l-16 -3v10c0 9.33301 9.16699 27.333 27.5 54s27.5 51.334 27.5 74.001c0 38.667 -14.667 58 -44 58c-18.667 0 -33.334 -11 -44.001 -33c-3.33301 -6.66699 -9 -26 -17 -58h-12z" />
    <glyph glyph-name="glyph316" unicode="&#x1ec3;" horiz-adv-x="500" 
d="M449 302l-297 0.000976562c-0.666992 -6.66699 -1 -16.667 -1 -30c0 -173.333 41.333 -260 124 -260c94.667 0 146.667 59.333 156 178h22c-2.66699 -60.667 -19.334 -109.334 -50.001 -146.001c-33.333 -40 -79.333 -60 -138 -60c-70.667 0 -125.667 28.333 -165 85
c-35.333 50 -53 111.667 -53 185c0 70.667 17.667 131.667 53 183c40.667 58 94.667 87 162 87c62.667 0 110.334 -22 143.001 -66c29.333 -39.333 44 -91.333 44 -156zM153 324.001h192v39c0 92.667 -28.333 139 -85 139c-63.333 0 -99 -59.333 -107 -178zM368 549.001h-31
l-76 80l-75 -80h-31l80 122h53zM340 723.001l1.99902 76.999c30.667 15.333 53.667 23 69 23c20 0 37.5 -6.5 52.5 -19.5s22.5 -29.167 22.5 -48.5c0 -29.333 -24.667 -62.666 -74 -99.999c-1.33301 -2.66699 -2 -10.334 -2 -23.001l-15 -3v9c0 8 8.33301 24 25 48
s25 46.333 25 67c0 34.667 -13.333 52 -40 52c-16.667 0 -29.667 -10 -39 -30c-3.33301 -7.33301 -8.66602 -24.666 -15.999 -51.999h-10z" />
    <glyph glyph-name="glyph317" unicode="&#x1ec4;" 
d="M559 0l-517.001 -0.000976562v22h60v648h-60v22h508v-222h-22c-26 90.667 -46.333 147.334 -61 170.001c-13.333 20 -33 30 -59 30h-198v-300h78c30.667 0 54 16.333 70 49c8 16 16 45.667 24 89h22v-298h-22c-8 43.333 -16 73 -24 89c-16 32.667 -39.333 49 -70 49h-78
v-326h176c56.667 0 98.334 46.333 125.001 139c6 21.333 14.667 53 26 95h22v-256zM420.999 739.999h-34l-84 89l-84 -89h-34l89 136h58zM196.999 911.999h-23.001c7.33301 30.667 15.666 52.667 24.999 66c14 19.333 34 29 60 29c14 0 33.833 -7.66699 59.5 -23
s41.834 -23 48.501 -23c14 0 28.333 15.333 43 46h24c-14 -63.333 -42 -95 -84 -95c-12 0 -31.333 7.5 -58 22.5s-44 22.5 -52 22.5c-17.333 0 -31.666 -15 -42.999 -45z" />
    <glyph glyph-name="glyph318" unicode="&#x1ec5;" horiz-adv-x="500" 
d="M449 302l-297 0.000976562c-0.666992 -6.66699 -1 -16.667 -1 -30c0 -173.333 41.333 -260 124 -260c94.667 0 146.667 59.333 156 178h22c-2.66699 -60.667 -19.334 -109.334 -50.001 -146.001c-33.333 -40 -79.333 -60 -138 -60c-70.667 0 -125.667 28.333 -165 85
c-35.333 50 -53 111.667 -53 185c0 70.667 17.667 131.667 53 183c40.667 58 94.667 87 162 87c62.667 0 110.334 -22 143.001 -66c29.333 -39.333 44 -91.333 44 -156zM153 324.001h192v39c0 92.667 -28.333 139 -85 139c-63.333 0 -99 -59.333 -107 -178zM367 549.001h-31
l-75 81l-76 -81h-30l80 123h52zM166 704.001h-21c12 57.333 37.333 86 76 86c12.667 0 30.667 -7 54 -21s37.666 -21 42.999 -21c13.333 0 26.333 14 39 42h22c-13.333 -57.333 -38.666 -86 -75.999 -86c-10.667 0 -28 6.83301 -52 20.5s-39.667 20.5 -47 20.5
c-16 0 -28.667 -13.667 -38 -41z" />
    <glyph glyph-name="glyph319" unicode="&#x1ec6;" 
d="M559 0l-517.001 -0.000976562v22h60v648h-60v22h508v-222h-22c-26 90.667 -46.333 147.334 -61 170.001c-13.333 20 -33 30 -59 30h-198v-300h78c30.667 0 54 16.333 70 49c8 16 16 45.667 24 89h22v-298h-22c-8 43.333 -16 73 -24 89c-16 32.667 -39.333 49 -70 49h-78
v-326h176c56.667 0 98.334 46.333 125.001 139c6 21.333 14.667 53 26 95h22v-256zM254.999 -85.001c0 13.333 4.83301 24.833 14.5 34.5s21.167 14.5 34.5 14.5s24.833 -4.83301 34.5 -14.5s14.5 -21.167 14.5 -34.5s-4.83301 -24.833 -14.5 -34.5
s-21.167 -14.5 -34.5 -14.5s-24.833 4.83301 -34.5 14.5s-14.5 21.167 -14.5 34.5zM420.999 739.999h-34l-84 89l-84 -89h-34l89 136h58z" />
    <glyph glyph-name="glyph320" unicode="&#x1ec7;" horiz-adv-x="500" 
d="M449 302l-297 0.000976562c-0.666992 -6.66699 -1 -16.667 -1 -30c0 -173.333 41.333 -260 124 -260c94.667 0 146.667 59.333 156 178h22c-2.66699 -60.667 -19.334 -109.334 -50.001 -146.001c-33.333 -40 -79.333 -60 -138 -60c-70.667 0 -125.667 28.333 -165 85
c-35.333 50 -53 111.667 -53 185c0 70.667 17.667 131.667 53 183c40.667 58 94.667 87 162 87c62.667 0 110.334 -22 143.001 -66c29.333 -39.333 44 -91.333 44 -156zM153 324.001h192v39c0 92.667 -28.333 139 -85 139c-63.333 0 -99 -59.333 -107 -178zM366 549.001h-30
l-76 80l-75 -80h-31l80 122h52zM219 -93.999c0 12 4.33301 22.333 13 31s19 13 31 13s22.333 -4.33301 31 -13s13 -19 13 -31s-4.33301 -22.333 -13 -31s-19 -13 -31 -13s-22.333 4.33301 -31 13s-13 19 -13 31z" />
    <glyph glyph-name="glyph321" unicode="&#x1ec8;" horiz-adv-x="315" 
d="M271 0h-228v22h60v648h-60v22h228v-22h-60v-648h60v-22zM88 853l3 84.999c32.667 17.333 58 26 76 26c22.667 0 42.334 -7.16699 59.001 -21.5s25 -32.5 25 -54.5c0 -23.333 -9 -45 -27 -65c-18.667 -15.333 -37 -31 -55 -47c-2 -2.66699 -3 -11 -3 -25l-16 -3v10
c0 9.33301 9.16699 27.333 27.5 54s27.5 51.334 27.5 74.001c0 38.667 -14.667 58 -44 58c-18.667 0 -33.334 -11 -44.001 -33c-3.33301 -6.66699 -9 -26 -17 -58h-12z" />
    <glyph glyph-name="glyph322" unicode="&#x1ec9;" horiz-adv-x="278" 
d="M186 508v-486h48v-22h-190v22h48v464h-48v22h142zM75 655l1.99902 76.999c30.667 15.333 53.667 23 69 23c20 0 37.5 -6.5 52.5 -19.5s22.5 -29.167 22.5 -48.5c0 -29.333 -24.667 -62.666 -74 -99.999c-1.33301 -2.66699 -2 -10.334 -2 -23.001l-15 -3v9
c0 8 8.33301 24 25 48s25 46.333 25 67c0 34.667 -13.333 52 -40 52c-16.667 0 -29.667 -10 -39 -30c-3.33301 -7.33301 -8.66602 -24.666 -15.999 -51.999h-10z" />
    <glyph glyph-name="glyph323" unicode="&#x1eca;" horiz-adv-x="315" 
d="M271 0h-228v22h60v648h-60v22h228v-22h-60v-648h60v-22zM109 -84c0 13.333 4.83301 24.833 14.5 34.5s21.167 14.5 34.5 14.5s24.833 -4.83301 34.5 -14.5s14.5 -21.167 14.5 -34.5s-4.83301 -24.833 -14.5 -34.5s-21.167 -14.5 -34.5 -14.5s-24.833 4.83301 -34.5 14.5
s-14.5 21.167 -14.5 34.5z" />
    <glyph glyph-name="glyph324" unicode="&#x1ecb;" horiz-adv-x="278" 
d="M186 508v-486h48v-22h-190v22h48v464h-48v22h142zM88 617c0 34 17 51 51 51s51 -17 51 -51s-17 -51 -51 -51s-51 17 -51 51zM94 -79c0 12 4.33301 22.333 13 31s19 13 31 13s22.333 -4.33301 31 -13s13 -19 13 -31s-4.33301 -22.333 -13 -31s-19 -13 -31 -13
s-22.333 4.33301 -31 13s-13 19 -13 31z" />
    <glyph glyph-name="glyph325" unicode="&#x1ecc;" horiz-adv-x="685" 
d="M54 346c0 94 24 175.667 72 245c54 78 126 117 216 117s162 -39 216 -117c48 -69.333 72 -151 72 -245c0 -93.333 -24 -174.666 -72 -243.999c-54.667 -78.667 -126.667 -118 -216 -118s-161.333 39.333 -216 118c-48 69.333 -72 150.666 -72 243.999zM178 346
c0 -98 6.33301 -169.333 19 -214c24 -84 72.333 -126 145 -126s121 42 145 126c12.667 44.667 19 116 19 214s-6.33301 169.333 -19 214c-24 84 -72.333 126 -145 126s-121 -42 -145 -126c-12.667 -44.667 -19 -116 -19 -214zM293 -99c0 13.333 4.83301 24.833 14.5 34.5
s21.167 14.5 34.5 14.5s24.833 -4.83301 34.5 -14.5s14.5 -21.167 14.5 -34.5s-4.83301 -24.833 -14.5 -34.5s-21.167 -14.5 -34.5 -14.5s-24.833 4.83301 -34.5 14.5s-14.5 21.167 -14.5 34.5z" />
    <glyph glyph-name="glyph326" unicode="&#x1ecd;" horiz-adv-x="519" 
d="M41 254c0 72 18 133.333 54 184c40 57.333 94.667 86 164 86s124 -28.667 164 -86c36 -50.667 54 -112 54 -184s-18 -133.333 -54 -184c-40 -57.333 -94.667 -86 -164 -86s-124 28.667 -164 86c-36 50.667 -54 112 -54 184zM145 254c0 -70 4.33301 -121.333 13 -154
c16.667 -62.667 50.334 -94 101.001 -94s84.334 31.333 101.001 94c8.66699 32.667 13 84 13 154s-4.33301 121.333 -13 154c-16.667 62.667 -50.334 94 -101.001 94s-84.334 -31.333 -101.001 -94c-8.66699 -32.667 -13 -84 -13 -154zM216 -94c0 12 4.33301 22.333 13 31
s19 13 31 13s22.333 -4.33301 31 -13s13 -19 13 -31s-4.33301 -22.333 -13 -31s-19 -13 -31 -13s-22.333 4.33301 -31 13s-13 19 -13 31z" />
    <glyph glyph-name="glyph327" unicode="&#x1ece;" horiz-adv-x="685" 
d="M54 346c0 94 24 175.667 72 245c54 78 126 117 216 117s162 -39 216 -117c48 -69.333 72 -151 72 -245c0 -93.333 -24 -174.666 -72 -243.999c-54.667 -78.667 -126.667 -118 -216 -118s-161.333 39.333 -216 118c-48 69.333 -72 150.666 -72 243.999zM178 346
c0 -98 6.33301 -169.333 19 -214c24 -84 72.333 -126 145 -126s121 42 145 126c12.667 44.667 19 116 19 214s-6.33301 169.333 -19 214c-24 84 -72.333 126 -145 126s-121 -42 -145 -126c-12.667 -44.667 -19 -116 -19 -214zM271 875l3 84.999c32.667 17.333 58 26 76 26
c22.667 0 42.334 -7.16699 59.001 -21.5s25 -32.5 25 -54.5c0 -23.333 -9 -45 -27 -65c-18.667 -15.333 -37 -31 -55 -47c-2 -2.66699 -3 -11 -3 -25l-16 -3v10c0 9.33301 9.16699 27.333 27.5 54s27.5 51.334 27.5 74.001c0 38.667 -14.667 58 -44 58
c-18.667 0 -33.334 -11 -44.001 -33c-3.33301 -6.66699 -9 -26 -17 -58h-12z" />
    <glyph glyph-name="glyph328" unicode="&#x1ecf;" horiz-adv-x="519" 
d="M41 254c0 72 18 133.333 54 184c40 57.333 94.667 86 164 86s124 -28.667 164 -86c36 -50.667 54 -112 54 -184s-18 -133.333 -54 -184c-40 -57.333 -94.667 -86 -164 -86s-124 28.667 -164 86c-36 50.667 -54 112 -54 184zM145 254c0 -70 4.33301 -121.333 13 -154
c16.667 -62.667 50.334 -94 101.001 -94s84.334 31.333 101.001 94c8.66699 32.667 13 84 13 154s-4.33301 121.333 -13 154c-16.667 62.667 -50.334 94 -101.001 94s-84.334 -31.333 -101.001 -94c-8.66699 -32.667 -13 -84 -13 -154zM194 663l1.99902 76.999
c30.667 15.333 53.667 23 69 23c20 0 37.5 -6.5 52.5 -19.5s22.5 -29.167 22.5 -48.5c0 -29.333 -24.667 -62.666 -74 -99.999c-1.33301 -2.66699 -2 -10.334 -2 -23.001l-15 -3v9c0 8 8.33301 24 25 48s25 46.333 25 67c0 34.667 -13.333 52 -40 52
c-16.667 0 -29.667 -10 -39 -30c-3.33301 -7.33301 -8.66602 -24.666 -15.999 -51.999h-10z" />
    <glyph glyph-name="glyph329" unicode="&#x1ed0;" horiz-adv-x="685" 
d="M54 346c0 94 24 175.667 72 245c54 78 126 117 216 117s162 -39 216 -117c48 -69.333 72 -151 72 -245c0 -93.333 -24 -174.666 -72 -243.999c-54.667 -78.667 -126.667 -118 -216 -118s-161.333 39.333 -216 118c-48 69.333 -72 150.666 -72 243.999zM178 346
c0 -98 6.33301 -169.333 19 -214c24 -84 72.333 -126 145 -126s121 42 145 126c12.667 44.667 19 116 19 214s-6.33301 169.333 -19 214c-24 84 -72.333 126 -145 126s-121 -42 -145 -126c-12.667 -44.667 -19 -116 -19 -214zM459 740h-34l-84 89l-84 -89h-34l89 136h58z
M468 829l-39.001 0.000976562l111 126c18 20.667 34.333 31 49 31c8.66699 0 16.334 -3.33301 23.001 -10s10 -14.334 10 -23.001c0 -12.667 -8.66699 -25 -26 -37z" />
    <glyph glyph-name="glyph330" unicode="&#x1ed1;" horiz-adv-x="519" 
d="M41 254c0 72 18 133.333 54 184c40 57.333 94.667 86 164 86s124 -28.667 164 -86c36 -50.667 54 -112 54 -184s-18 -133.333 -54 -184c-40 -57.333 -94.667 -86 -164 -86s-124 28.667 -164 86c-36 50.667 -54 112 -54 184zM145 254c0 -70 4.33301 -121.333 13 -154
c16.667 -62.667 50.334 -94 101.001 -94s84.334 31.333 101.001 94c8.66699 32.667 13 84 13 154s-4.33301 121.333 -13 154c-16.667 62.667 -50.334 94 -101.001 94s-84.334 -31.333 -101.001 -94c-8.66699 -32.667 -13 -84 -13 -154zM364 549h-30l-76 80l-75 -80h-31
l80 122h52zM372 629h-35.001l100 113c16.667 18.667 31.334 28 44.001 28c20 0 30 -10 30 -30c0 -12 -7.66699 -23 -23 -33z" />
    <glyph glyph-name="glyph331" unicode="&#x1ed2;" horiz-adv-x="685" 
d="M54 346c0 94 24 175.667 72 245c54 78 126 117 216 117s162 -39 216 -117c48 -69.333 72 -151 72 -245c0 -93.333 -24 -174.666 -72 -243.999c-54.667 -78.667 -126.667 -118 -216 -118s-161.333 39.333 -216 118c-48 69.333 -72 150.666 -72 243.999zM178 346
c0 -98 6.33301 -169.333 19 -214c24 -84 72.333 -126 145 -126s121 42 145 126c12.667 44.667 19 116 19 214s-6.33301 169.333 -19 214c-24 84 -72.333 126 -145 126s-121 -42 -145 -126c-12.667 -44.667 -19 -116 -19 -214zM460 740h-34l-84 89l-84 -89h-34l89 136h58z
M255 829h-39l-128 87c-17.333 12 -26 24.333 -26 37c0 22 11 33 33 33c14.667 0 31 -10.333 49 -31z" />
    <glyph glyph-name="glyph332" unicode="&#x1ed3;" horiz-adv-x="519" 
d="M41 254c0 72 18 133.333 54 184c40 57.333 94.667 86 164 86s124 -28.667 164 -86c36 -50.667 54 -112 54 -184s-18 -133.333 -54 -184c-40 -57.333 -94.667 -86 -164 -86s-124 28.667 -164 86c-36 50.667 -54 112 -54 184zM145 254c0 -70 4.33301 -121.333 13 -154
c16.667 -62.667 50.334 -94 101.001 -94s84.334 31.333 101.001 94c8.66699 32.667 13 84 13 154s-4.33301 121.333 -13 154c-16.667 62.667 -50.334 94 -101.001 94s-84.334 -31.333 -101.001 -94c-8.66699 -32.667 -13 -84 -13 -154zM365 549h-31l-75 80l-76 -80h-30
l80 122h52zM180 629h-35.001l-115 78c-15.333 10.667 -23 21.667 -23 33c0 20 10 30 30 30c12.667 0 27.334 -9.33301 44.001 -28z" />
    <glyph glyph-name="glyph333" unicode="&#x1ed4;" horiz-adv-x="685" 
d="M54 346c0 94 24 175.667 72 245c54 78 126 117 216 117s162 -39 216 -117c48 -69.333 72 -151 72 -245c0 -93.333 -24 -174.666 -72 -243.999c-54.667 -78.667 -126.667 -118 -216 -118s-161.333 39.333 -216 118c-48 69.333 -72 150.666 -72 243.999zM178 346
c0 -98 6.33301 -169.333 19 -214c24 -84 72.333 -126 145 -126s121 42 145 126c12.667 44.667 19 116 19 214s-6.33301 169.333 -19 214c-24 84 -72.333 126 -145 126s-121 -42 -145 -126c-12.667 -44.667 -19 -116 -19 -214zM460 740h-34l-84 89l-84 -89h-34l89 136h58z
M429 934l3 84.999c32.667 17.333 58 26 76 26c22.667 0 42.334 -7.16699 59.001 -21.5s25 -32.5 25 -54.5c0 -23.333 -9 -45 -27 -65c-18.667 -15.333 -37 -31 -55 -47c-2 -2.66699 -3 -11 -3 -25l-16 -3v10c0 9.33301 9.16699 27.333 27.5 54s27.5 51.334 27.5 74.001
c0 38.667 -14.667 58 -44 58c-18.667 0 -33.334 -11 -44.001 -33c-3.33301 -6.66699 -9 -26 -17 -58h-12z" />
    <glyph glyph-name="glyph334" unicode="&#x1ed5;" horiz-adv-x="519" 
d="M41 254c0 72 18 133.333 54 184c40 57.333 94.667 86 164 86s124 -28.667 164 -86c36 -50.667 54 -112 54 -184s-18 -133.333 -54 -184c-40 -57.333 -94.667 -86 -164 -86s-124 28.667 -164 86c-36 50.667 -54 112 -54 184zM145 254c0 -70 4.33301 -121.333 13 -154
c16.667 -62.667 50.334 -94 101.001 -94s84.334 31.333 101.001 94c8.66699 32.667 13 84 13 154s-4.33301 121.333 -13 154c-16.667 62.667 -50.334 94 -101.001 94s-84.334 -31.333 -101.001 -94c-8.66699 -32.667 -13 -84 -13 -154zM366 549h-31l-76 80l-75 -80h-31
l80 122h53zM338 723l1.99902 76.999c30.667 15.333 53.667 23 69 23c20 0 37.5 -6.5 52.5 -19.5s22.5 -29.167 22.5 -48.5c0 -29.333 -24.667 -62.666 -74 -99.999c-1.33301 -2.66699 -2 -10.334 -2 -23.001l-15 -3v9c0 8 8.33301 24 25 48s25 46.333 25 67
c0 34.667 -13.333 52 -40 52c-16.667 0 -29.667 -10 -39 -30c-3.33301 -7.33301 -8.66602 -24.666 -15.999 -51.999h-10z" />
    <glyph glyph-name="glyph335" unicode="&#x1ed6;" horiz-adv-x="685" 
d="M54 346c0 94 24 175.667 72 245c54 78 126 117 216 117s162 -39 216 -117c48 -69.333 72 -151 72 -245c0 -93.333 -24 -174.666 -72 -243.999c-54.667 -78.667 -126.667 -118 -216 -118s-161.333 39.333 -216 118c-48 69.333 -72 150.666 -72 243.999zM178 346
c0 -98 6.33301 -169.333 19 -214c24 -84 72.333 -126 145 -126s121 42 145 126c12.667 44.667 19 116 19 214s-6.33301 169.333 -19 214c-24 84 -72.333 126 -145 126s-121 -42 -145 -126c-12.667 -44.667 -19 -116 -19 -214zM460 740h-34l-84 89l-84 -89h-34l89 136h58z
M236 912h-23.001c7.33301 30.667 15.666 52.667 24.999 66c14 19.333 34 29 60 29c14 0 33.833 -7.66699 59.5 -23s41.834 -23 48.501 -23c14 0 28.333 15.333 43 46h24c-14 -63.333 -42 -95 -84 -95c-12 0 -31.333 7.5 -58 22.5s-44 22.5 -52 22.5
c-17.333 0 -31.666 -15 -42.999 -45z" />
    <glyph glyph-name="glyph336" unicode="&#x1ed7;" horiz-adv-x="519" 
d="M41 254c0 72 18 133.333 54 184c40 57.333 94.667 86 164 86s124 -28.667 164 -86c36 -50.667 54 -112 54 -184s-18 -133.333 -54 -184c-40 -57.333 -94.667 -86 -164 -86s-124 28.667 -164 86c-36 50.667 -54 112 -54 184zM145 254c0 -70 4.33301 -121.333 13 -154
c16.667 -62.667 50.334 -94 101.001 -94s84.334 31.333 101.001 94c8.66699 32.667 13 84 13 154s-4.33301 121.333 -13 154c-16.667 62.667 -50.334 94 -101.001 94s-84.334 -31.333 -101.001 -94c-8.66699 -32.667 -13 -84 -13 -154zM365 549h-31l-75 81l-76 -81h-30
l80 123h52zM164 704h-21c12 57.333 37.333 86 76 86c12.667 0 30.667 -7 54 -21s37.666 -21 42.999 -21c13.333 0 26.333 14 39 42h22c-13.333 -57.333 -38.666 -86 -75.999 -86c-10.667 0 -28 6.83301 -52 20.5s-39.667 20.5 -47 20.5c-16 0 -28.667 -13.667 -38 -41z" />
    <glyph glyph-name="glyph337" unicode="&#x1ed8;" horiz-adv-x="685" 
d="M54 346c0 94 24 175.667 72 245c54 78 126 117 216 117s162 -39 216 -117c48 -69.333 72 -151 72 -245c0 -93.333 -24 -174.666 -72 -243.999c-54.667 -78.667 -126.667 -118 -216 -118s-161.333 39.333 -216 118c-48 69.333 -72 150.666 -72 243.999zM178 346
c0 -98 6.33301 -169.333 19 -214c24 -84 72.333 -126 145 -126s121 42 145 126c12.667 44.667 19 116 19 214s-6.33301 169.333 -19 214c-24 84 -72.333 126 -145 126s-121 -42 -145 -126c-12.667 -44.667 -19 -116 -19 -214zM459 740h-34l-84 89l-84 -89h-34l89 136h58z
M293 -99c0 13.333 4.83301 24.833 14.5 34.5s21.167 14.5 34.5 14.5s24.833 -4.83301 34.5 -14.5s14.5 -21.167 14.5 -34.5s-4.83301 -24.833 -14.5 -34.5s-21.167 -14.5 -34.5 -14.5s-24.833 4.83301 -34.5 14.5s-14.5 21.167 -14.5 34.5z" />
    <glyph glyph-name="glyph338" unicode="&#x1ed9;" horiz-adv-x="519" 
d="M41 254c0 72 18 133.333 54 184c40 57.333 94.667 86 164 86s124 -28.667 164 -86c36 -50.667 54 -112 54 -184s-18 -133.333 -54 -184c-40 -57.333 -94.667 -86 -164 -86s-124 28.667 -164 86c-36 50.667 -54 112 -54 184zM145 254c0 -70 4.33301 -121.333 13 -154
c16.667 -62.667 50.334 -94 101.001 -94s84.334 31.333 101.001 94c8.66699 32.667 13 84 13 154s-4.33301 121.333 -13 154c-16.667 62.667 -50.334 94 -101.001 94s-84.334 -31.333 -101.001 -94c-8.66699 -32.667 -13 -84 -13 -154zM364 549h-30l-76 80l-75 -80h-31
l80 122h52zM216 -94c0 12 4.33301 22.333 13 31s19 13 31 13s22.333 -4.33301 31 -13s13 -19 13 -31s-4.33301 -22.333 -13 -31s-19 -13 -31 -13s-22.333 4.33301 -31 13s-13 19 -13 31z" />
    <glyph glyph-name="glyph339" unicode="&#x1eda;" horiz-adv-x="685" 
d="M178 346c0 -98 6.33301 -169.333 19 -214c24 -84 72.333 -126 145 -126s121 42 145 126c12.667 44.667 19 116 19 214s-6.33301 169.333 -19 214c-24 84 -72.333 126 -145 126s-121 -42 -145 -126c-12.667 -44.667 -19 -116 -19 -214zM433 690
c12.667 4 24.667 7.99902 36 11.999c17.333 6.66699 28 12.334 32 17.001c-19.333 6.66699 -29 18 -29 34c0 19.333 10.333 29 31 29c10 0 18.5 -3.66699 25.5 -11s10.5 -16 10.5 -26c0 -26.667 -26 -49.334 -78 -68.001c56.667 -30 99.667 -77 129 -141
c26.667 -57.333 40 -120.666 40 -189.999c0 -93.333 -24 -174.666 -72 -243.999c-54.667 -78.667 -126.667 -118 -216 -118s-161.333 39.333 -216 118c-48 69.333 -72 150.666 -72 243.999c0 94 24 175.667 72 245c54 78 126 117 216 117c32 0 62.333 -6 91 -18z
M361 789.999l-39.001 0.000976562l111 126c18 20.667 34.333 31 49 31c8.66699 0 16.334 -3.33301 23.001 -10s10 -14.334 10 -23.001c0 -12.667 -8.66699 -25 -26 -37z" />
    <glyph glyph-name="glyph340" unicode="&#x1edb;" horiz-adv-x="519" 
d="M145 254c0 -70 4.33301 -121.333 13 -154c16.667 -62.667 50.334 -94 101.001 -94s84.334 31.333 101.001 94c8.66699 32.667 13 84 13 154s-4.33301 121.333 -13 154c-16.667 62.667 -50.334 94 -101.001 94s-84.334 -31.333 -101.001 -94
c-8.66699 -32.667 -13 -84 -13 -154zM370 490c25.333 11.333 44.333 24.998 57 40.998c-21.333 4 -32 13.667 -32 29c0 11.333 4 20 12 26s17.667 8 29 6c18.667 -3.33301 28 -13.666 28 -30.999c0 -28 -26.667 -55 -80 -81c62 -51.333 93 -126.666 93 -225.999
c0 -72 -18 -133.333 -54 -184c-40 -57.333 -94.667 -86 -164 -86s-124 28.667 -164 86c-36 50.667 -54 112 -54 184s18 133.333 54 184c40 57.333 94.667 86 164 86c41.333 0 78.333 -11.333 111 -34zM275 585.998h-35.001l100 113c16.667 18.667 31.334 28 44.001 28
c20 0 30 -10 30 -30c0 -12 -7.66699 -23 -23 -33z" />
    <glyph glyph-name="glyph341" unicode="&#x1edc;" horiz-adv-x="685" 
d="M178 346c0 -98 6.33301 -169.333 19 -214c24 -84 72.333 -126 145 -126s121 42 145 126c12.667 44.667 19 116 19 214s-6.33301 169.333 -19 214c-24 84 -72.333 126 -145 126s-121 -42 -145 -126c-12.667 -44.667 -19 -116 -19 -214zM433 690
c12.667 4 24.667 7.99902 36 11.999c17.333 6.66699 28 12.334 32 17.001c-19.333 6.66699 -29 18 -29 34c0 19.333 10.333 29 31 29c10 0 18.5 -3.66699 25.5 -11s10.5 -16 10.5 -26c0 -26.667 -26 -49.334 -78 -68.001c56.667 -30 99.667 -77 129 -141
c26.667 -57.333 40 -120.666 40 -189.999c0 -93.333 -24 -174.666 -72 -243.999c-54.667 -78.667 -126.667 -118 -216 -118s-161.333 39.333 -216 118c-48 69.333 -72 150.666 -72 243.999c0 94 24 175.667 72 245c54 78 126 117 216 117c32 0 62.333 -6 91 -18z
M361 789.999h-39l-128 87c-17.333 12 -26 24.333 -26 37c0 22 11 33 33 33c14.667 0 31 -10.333 49 -31z" />
    <glyph glyph-name="glyph342" unicode="&#x1edd;" horiz-adv-x="519" 
d="M145 254c0 -70 4.33301 -121.333 13 -154c16.667 -62.667 50.334 -94 101.001 -94s84.334 31.333 101.001 94c8.66699 32.667 13 84 13 154s-4.33301 121.333 -13 154c-16.667 62.667 -50.334 94 -101.001 94s-84.334 -31.333 -101.001 -94
c-8.66699 -32.667 -13 -84 -13 -154zM370 490c25.333 11.333 44.333 24.998 57 40.998c-21.333 4 -32 13.667 -32 29c0 11.333 4 20 12 26s17.667 8 29 6c18.667 -3.33301 28 -13.666 28 -30.999c0 -28 -26.667 -55 -80 -81c62 -51.333 93 -126.666 93 -225.999
c0 -72 -18 -133.333 -54 -184c-40 -57.333 -94.667 -86 -164 -86s-124 28.667 -164 86c-36 50.667 -54 112 -54 184s18 133.333 54 184c40 57.333 94.667 86 164 86c41.333 0 78.333 -11.333 111 -34zM275 585.998h-35.001l-115 78c-15.333 10.667 -23 21.667 -23 33
c0 20 10 30 30 30c12.667 0 27.334 -9.33301 44.001 -28z" />
    <glyph glyph-name="glyph343" unicode="&#x1ede;" horiz-adv-x="685" 
d="M178 346c0 -98 6.33301 -169.333 19 -214c24 -84 72.333 -126 145 -126s121 42 145 126c12.667 44.667 19 116 19 214s-6.33301 169.333 -19 214c-24 84 -72.333 126 -145 126s-121 -42 -145 -126c-12.667 -44.667 -19 -116 -19 -214zM433 690
c12.667 4 24.667 7.99902 36 11.999c17.333 6.66699 28 12.334 32 17.001c-19.333 6.66699 -29 18 -29 34c0 19.333 10.333 29 31 29c10 0 18.5 -3.66699 25.5 -11s10.5 -16 10.5 -26c0 -26.667 -26 -49.334 -78 -68.001c56.667 -30 99.667 -77 129 -141
c26.667 -57.333 40 -120.666 40 -189.999c0 -93.333 -24 -174.666 -72 -243.999c-54.667 -78.667 -126.667 -118 -216 -118s-161.333 39.333 -216 118c-48 69.333 -72 150.666 -72 243.999c0 94 24 175.667 72 245c54 78 126 117 216 117c32 0 62.333 -6 91 -18z
M271 884.999l3 84.999c32.667 17.333 58 26 76 26c22.667 0 42.334 -7.16699 59.001 -21.5s25 -32.5 25 -54.5c0 -23.333 -9 -45 -27 -65c-18.667 -15.333 -37 -31 -55 -47c-2 -2.66699 -3 -11 -3 -25l-16 -3v10c0 9.33301 9.16699 27.333 27.5 54s27.5 51.334 27.5 74.001
c0 38.667 -14.667 58 -44 58c-18.667 0 -33.334 -11 -44.001 -33c-3.33301 -6.66699 -9 -26 -17 -58h-12z" />
    <glyph glyph-name="glyph344" unicode="&#x1edf;" horiz-adv-x="519" 
d="M145 254c0 -70 4.33301 -121.333 13 -154c16.667 -62.667 50.334 -94 101.001 -94s84.334 31.333 101.001 94c8.66699 32.667 13 84 13 154s-4.33301 121.333 -13 154c-16.667 62.667 -50.334 94 -101.001 94s-84.334 -31.333 -101.001 -94
c-8.66699 -32.667 -13 -84 -13 -154zM370 490c25.333 11.333 44.333 24.998 57 40.998c-21.333 4 -32 13.667 -32 29c0 11.333 4 20 12 26s17.667 8 29 6c18.667 -3.33301 28 -13.666 28 -30.999c0 -28 -26.667 -55 -80 -81c62 -51.333 93 -126.666 93 -225.999
c0 -72 -18 -133.333 -54 -184c-40 -57.333 -94.667 -86 -164 -86s-124 28.667 -164 86c-36 50.667 -54 112 -54 184s18 133.333 54 184c40 57.333 94.667 86 164 86c41.333 0 78.333 -11.333 111 -34zM194 672.998l1.99902 76.999c30.667 15.333 53.667 23 69 23
c20 0 37.5 -6.5 52.5 -19.5s22.5 -29.167 22.5 -48.5c0 -29.333 -24.667 -62.666 -74 -99.999c-1.33301 -2.66699 -2 -10.334 -2 -23.001l-15 -3v9c0 8 8.33301 24 25 48s25 46.333 25 67c0 34.667 -13.333 52 -40 52c-16.667 0 -29.667 -10 -39 -30
c-3.33301 -7.33301 -8.66602 -24.666 -15.999 -51.999h-10z" />
    <glyph glyph-name="glyph345" unicode="&#x1ee0;" horiz-adv-x="685" 
d="M178 346c0 -98 6.33301 -169.333 19 -214c24 -84 72.333 -126 145 -126s121 42 145 126c12.667 44.667 19 116 19 214s-6.33301 169.333 -19 214c-24 84 -72.333 126 -145 126s-121 -42 -145 -126c-12.667 -44.667 -19 -116 -19 -214zM433 690
c12.667 4 24.667 7.99902 36 11.999c17.333 6.66699 28 12.334 32 17.001c-19.333 6.66699 -29 18 -29 34c0 19.333 10.333 29 31 29c10 0 18.5 -3.66699 25.5 -11s10.5 -16 10.5 -26c0 -26.667 -26 -49.334 -78 -68.001c56.667 -30 99.667 -77 129 -141
c26.667 -57.333 40 -120.666 40 -189.999c0 -93.333 -24 -174.666 -72 -243.999c-54.667 -78.667 -126.667 -118 -216 -118s-161.333 39.333 -216 118c-48 69.333 -72 150.666 -72 243.999c0 94 24 175.667 72 245c54 78 126 117 216 117c32 0 62.333 -6 91 -18z
M236 789.999h-23.001c7.33301 30.667 15.666 52.667 24.999 66c14 19.333 34 29 60 29c14 0 33.833 -7.66699 59.5 -23s41.834 -23 48.501 -23c14 0 28.333 15.333 43 46h24c-14 -63.333 -42 -95 -84 -95c-12 0 -31.333 7.5 -58 22.5s-44 22.5 -52 22.5
c-17.333 0 -31.666 -15 -42.999 -45z" />
    <glyph glyph-name="glyph346" unicode="&#x1ee1;" horiz-adv-x="519" 
d="M145 254c0 -70 4.33301 -121.333 13 -154c16.667 -62.667 50.334 -94 101.001 -94s84.334 31.333 101.001 94c8.66699 32.667 13 84 13 154s-4.33301 121.333 -13 154c-16.667 62.667 -50.334 94 -101.001 94s-84.334 -31.333 -101.001 -94
c-8.66699 -32.667 -13 -84 -13 -154zM370 490c25.333 11.333 44.333 24.998 57 40.998c-21.333 4 -32 13.667 -32 29c0 11.333 4 20 12 26s17.667 8 29 6c18.667 -3.33301 28 -13.666 28 -30.999c0 -28 -26.667 -55 -80 -81c62 -51.333 93 -126.666 93 -225.999
c0 -72 -18 -133.333 -54 -184c-40 -57.333 -94.667 -86 -164 -86s-124 28.667 -164 86c-36 50.667 -54 112 -54 184s18 133.333 54 184c40 57.333 94.667 86 164 86c41.333 0 78.333 -11.333 111 -34zM164 585.998h-21c12 57.333 37.333 86 76 86c12.667 0 30.667 -7 54 -21
s37.666 -21 42.999 -21c13.333 0 26.333 14 39 42h22c-13.333 -57.333 -38.666 -86 -75.999 -86c-10.667 0 -28 6.83301 -52 20.5s-39.667 20.5 -47 20.5c-16 0 -28.667 -13.667 -38 -41z" />
    <glyph glyph-name="glyph347" unicode="&#x1ee2;" horiz-adv-x="685" 
d="M178 346c0 -98 6.33301 -169.333 19 -214c24 -84 72.333 -126 145 -126s121 42 145 126c12.667 44.667 19 116 19 214s-6.33301 169.333 -19 214c-24 84 -72.333 126 -145 126s-121 -42 -145 -126c-12.667 -44.667 -19 -116 -19 -214zM433 690
c12.667 4 24.667 7.99902 36 11.999c17.333 6.66699 28 12.334 32 17.001c-19.333 6.66699 -29 18 -29 34c0 19.333 10.333 29 31 29c10 0 18.5 -3.66699 25.5 -11s10.5 -16 10.5 -26c0 -26.667 -26 -49.334 -78 -68.001c56.667 -30 99.667 -77 129 -141
c26.667 -57.333 40 -120.666 40 -189.999c0 -93.333 -24 -174.666 -72 -243.999c-54.667 -78.667 -126.667 -118 -216 -118s-161.333 39.333 -216 118c-48 69.333 -72 150.666 -72 243.999c0 94 24 175.667 72 245c54 78 126 117 216 117c32 0 62.333 -6 91 -18z
M293 -99.001c0 13.333 4.83301 24.833 14.5 34.5s21.167 14.5 34.5 14.5s24.833 -4.83301 34.5 -14.5s14.5 -21.167 14.5 -34.5s-4.83301 -24.833 -14.5 -34.5s-21.167 -14.5 -34.5 -14.5s-24.833 4.83301 -34.5 14.5s-14.5 21.167 -14.5 34.5z" />
    <glyph glyph-name="glyph348" unicode="&#x1ee3;" horiz-adv-x="519" 
d="M145 254c0 -70 4.33301 -121.333 13 -154c16.667 -62.667 50.334 -94 101.001 -94s84.334 31.333 101.001 94c8.66699 32.667 13 84 13 154s-4.33301 121.333 -13 154c-16.667 62.667 -50.334 94 -101.001 94s-84.334 -31.333 -101.001 -94
c-8.66699 -32.667 -13 -84 -13 -154zM370 490c25.333 11.333 44.333 24.998 57 40.998c-21.333 4 -32 13.667 -32 29c0 11.333 4 20 12 26s17.667 8 29 6c18.667 -3.33301 28 -13.666 28 -30.999c0 -28 -26.667 -55 -80 -81c62 -51.333 93 -126.666 93 -225.999
c0 -72 -18 -133.333 -54 -184c-40 -57.333 -94.667 -86 -164 -86s-124 28.667 -164 86c-36 50.667 -54 112 -54 184s18 133.333 54 184c40 57.333 94.667 86 164 86c41.333 0 78.333 -11.333 111 -34zM216 -94.002c0 12 4.33301 22.333 13 31s19 13 31 13
s22.333 -4.33301 31 -13s13 -19 13 -31s-4.33301 -22.333 -13 -31s-19 -13 -31 -13s-22.333 4.33301 -31 13s-13 19 -13 31z" />
    <glyph glyph-name="glyph349" unicode="&#x1ee4;" 
d="M30 692l240 0.000976562v-22h-72v-503c0 -46.667 10 -84 30 -112c23.333 -32.667 57.333 -49 102 -49c50 0 89.5 15.5 118.5 46.5s43.5 71.5 43.5 121.5v496h-90v22h178v-22h-60v-497c0 -58.667 -17.667 -104.834 -53 -138.501s-82.333 -50.5 -141 -50.5
c-157.333 0 -236 68.667 -236 206v480h-60v22zM277 -99.999c0 13.333 4.83301 24.833 14.5 34.5s21.167 14.5 34.5 14.5s24.833 -4.83301 34.5 -14.5s14.5 -21.167 14.5 -34.5s-4.83301 -24.833 -14.5 -34.5s-21.167 -14.5 -34.5 -14.5s-24.833 4.83301 -34.5 14.5
s-14.5 21.167 -14.5 34.5z" />
    <glyph glyph-name="glyph350" unicode="&#x1ee5;" horiz-adv-x="537" 
d="M505 22l-0.000976562 -22h-148v66h-2c-8.66699 -25.333 -25.5 -45.333 -50.5 -60s-51.5 -22 -79.5 -22c-92 0 -138 48.333 -138 145v357h-54v22h148v-396c0 -30 4.33301 -52 13 -66c10.667 -17.333 30.334 -26 59.001 -26c36.667 0 64 17 82 51
c14.667 27.333 22 61 22 101v314h-58v22h152v-486h54zM226.999 -89c0 12 4.33301 22.333 13 31s19 13 31 13s22.333 -4.33301 31 -13s13 -19 13 -31s-4.33301 -22.333 -13 -31s-19 -13 -31 -13s-22.333 4.33301 -31 13s-13 19 -13 31z" />
    <glyph glyph-name="glyph351" unicode="&#x1ee6;" 
d="M30 692l240 0.000976562v-22h-72v-503c0 -46.667 10 -84 30 -112c23.333 -32.667 57.333 -49 102 -49c50 0 89.5 15.5 118.5 46.5s43.5 71.5 43.5 121.5v496h-90v22h178v-22h-60v-497c0 -58.667 -17.667 -104.834 -53 -138.501s-82.333 -50.5 -141 -50.5
c-157.333 0 -236 68.667 -236 206v480h-60v22zM266 845.001l3 84.999c32.667 17.333 58 26 76 26c22.667 0 42.334 -7.16699 59.001 -21.5s25 -32.5 25 -54.5c0 -23.333 -9 -45 -27 -65c-18.667 -15.333 -37 -31 -55 -47c-2 -2.66699 -3 -11 -3 -25l-16 -3v10
c0 9.33301 9.16699 27.333 27.5 54s27.5 51.334 27.5 74.001c0 38.667 -14.667 58 -44 58c-18.667 0 -33.334 -11 -44.001 -33c-3.33301 -6.66699 -9 -26 -17 -58h-12z" />
    <glyph glyph-name="glyph352" unicode="&#x1ee7;" horiz-adv-x="537" 
d="M505 22l-0.000976562 -22h-148v66h-2c-8.66699 -25.333 -25.5 -45.333 -50.5 -60s-51.5 -22 -79.5 -22c-92 0 -138 48.333 -138 145v357h-54v22h148v-396c0 -30 4.33301 -52 13 -66c10.667 -17.333 30.334 -26 59.001 -26c36.667 0 64 17 82 51
c14.667 27.333 22 61 22 101v314h-58v22h152v-486h54zM177.999 645l1.99902 76.999c30.667 15.333 53.667 23 69 23c20 0 37.5 -6.5 52.5 -19.5s22.5 -29.167 22.5 -48.5c0 -29.333 -24.667 -62.666 -74 -99.999c-1.33301 -2.66699 -2 -10.334 -2 -23.001l-15 -3v9
c0 8 8.33301 24 25 48s25 46.333 25 67c0 34.667 -13.333 52 -40 52c-16.667 0 -29.667 -10 -39 -30c-3.33301 -7.33301 -8.66602 -24.666 -15.999 -51.999h-10z" />
    <glyph glyph-name="glyph353" unicode="&#x1ee8;" 
d="M582 692c6.66699 6 15 15.668 25 29.001c-25.333 0 -38 10.667 -38 32c0 18.667 11 28 33 28s33 -11.667 33 -35s-16 -48.333 -48 -75l-4 -1h-63v-497c0 -58.667 -17.667 -104.834 -53 -138.501s-82.333 -50.5 -141 -50.5c-157.333 0 -236 68.667 -236 206v480h-60v22
h240v-22h-72v-503c0 -46.667 10 -84 30 -112c23.333 -32.667 57.333 -49 102 -49c50 0 89.5 15.5 118.5 46.5s43.5 71.5 43.5 121.5v496h-90v22h180zM355 769.001l-39.001 0.000976562l111 126c18 20.667 34.333 31 49 31c8.66699 0 16.334 -3.33301 23.001 -10
s10 -14.334 10 -23.001c0 -12.667 -8.66699 -25 -26 -37z" />
    <glyph glyph-name="glyph354" unicode="&#x1ee9;" horiz-adv-x="537" 
d="M451 488l-0.000976562 -466.001h54v-22h-148v66h-2c-8.66699 -25.333 -25.5 -45.333 -50.5 -60s-51.5 -22 -79.5 -22c-92 0 -138 48.333 -138 145v357h-54v22h148v-396c0 -30 4.33301 -52 13 -66c10.667 -17.333 30.334 -26 59.001 -26c36.667 0 64 17 82 51
c14.667 27.333 22 61 22 101v314h-58v22h152v-1c12 8.66699 20.667 16.667 26 24c-21.333 4 -32 13.667 -32 29c0 11.333 4 20 12 26s17.667 8 29 6c18.667 -3.33301 28 -13.666 28 -30.999c0 -24.667 -21 -49 -63 -73zM256.999 575.999h-35.001l100 113
c16.667 18.667 31.334 28 44.001 28c20 0 30 -10 30 -30c0 -12 -7.66699 -23 -23 -33z" />
    <glyph glyph-name="glyph355" unicode="&#x1eea;" 
d="M582 692c6.66699 6 15 15.668 25 29.001c-25.333 0 -38 10.667 -38 32c0 18.667 11 28 33 28s33 -11.667 33 -35s-16 -48.333 -48 -75l-4 -1h-63v-497c0 -58.667 -17.667 -104.834 -53 -138.501s-82.333 -50.5 -141 -50.5c-157.333 0 -236 68.667 -236 206v480h-60v22
h240v-22h-72v-503c0 -46.667 10 -84 30 -112c23.333 -32.667 57.333 -49 102 -49c50 0 89.5 15.5 118.5 46.5s43.5 71.5 43.5 121.5v496h-90v22h180zM356 770.001h-39l-128 87c-17.333 12 -26 24.333 -26 37c0 22 11 33 33 33c14.667 0 31 -10.333 49 -31z" />
    <glyph glyph-name="glyph356" unicode="&#x1eeb;" horiz-adv-x="537" 
d="M451 488l-0.000976562 -466.001h54v-22h-148v66h-2c-8.66699 -25.333 -25.5 -45.333 -50.5 -60s-51.5 -22 -79.5 -22c-92 0 -138 48.333 -138 145v357h-54v22h148v-396c0 -30 4.33301 -52 13 -66c10.667 -17.333 30.334 -26 59.001 -26c36.667 0 64 17 82 51
c14.667 27.333 22 61 22 101v314h-58v22h152v-1c12 8.66699 20.667 16.667 26 24c-21.333 4 -32 13.667 -32 29c0 11.333 4 20 12 26s17.667 8 29 6c18.667 -3.33301 28 -13.666 28 -30.999c0 -24.667 -21 -49 -63 -73zM255.999 575.999h-35.001l-115 78
c-15.333 10.667 -23 21.667 -23 33c0 20 10 30 30 30c12.667 0 27.334 -9.33301 44.001 -28z" />
    <glyph glyph-name="glyph357" unicode="&#x1eec;" 
d="M582 692c6.66699 6 15 15.668 25 29.001c-25.333 0 -38 10.667 -38 32c0 18.667 11 28 33 28s33 -11.667 33 -35s-16 -48.333 -48 -75l-4 -1h-63v-497c0 -58.667 -17.667 -104.834 -53 -138.501s-82.333 -50.5 -141 -50.5c-157.333 0 -236 68.667 -236 206v480h-60v22
h240v-22h-72v-503c0 -46.667 10 -84 30 -112c23.333 -32.667 57.333 -49 102 -49c50 0 89.5 15.5 118.5 46.5s43.5 71.5 43.5 121.5v496h-90v22h180zM266 865.001l3 84.999c32.667 17.333 58 26 76 26c22.667 0 42.334 -7.16699 59.001 -21.5s25 -32.5 25 -54.5
c0 -23.333 -9 -45 -27 -65c-18.667 -15.333 -37 -31 -55 -47c-2 -2.66699 -3 -11 -3 -25l-16 -3v10c0 9.33301 9.16699 27.333 27.5 54s27.5 51.334 27.5 74.001c0 38.667 -14.667 58 -44 58c-18.667 0 -33.334 -11 -44.001 -33c-3.33301 -6.66699 -9 -26 -17 -58h-12z" />
    <glyph glyph-name="glyph358" unicode="&#x1eed;" horiz-adv-x="537" 
d="M451 488l-0.000976562 -466.001h54v-22h-148v66h-2c-8.66699 -25.333 -25.5 -45.333 -50.5 -60s-51.5 -22 -79.5 -22c-92 0 -138 48.333 -138 145v357h-54v22h148v-396c0 -30 4.33301 -52 13 -66c10.667 -17.333 30.334 -26 59.001 -26c36.667 0 64 17 82 51
c14.667 27.333 22 61 22 101v314h-58v22h152v-1c12 8.66699 20.667 16.667 26 24c-21.333 4 -32 13.667 -32 29c0 11.333 4 20 12 26s17.667 8 29 6c18.667 -3.33301 28 -13.666 28 -30.999c0 -24.667 -21 -49 -63 -73zM177.999 656.999l1.99902 76.999
c30.667 15.333 53.667 23 69 23c20 0 37.5 -6.5 52.5 -19.5s22.5 -29.167 22.5 -48.5c0 -29.333 -24.667 -62.666 -74 -99.999c-1.33301 -2.66699 -2 -10.334 -2 -23.001l-15 -3v9c0 8 8.33301 24 25 48s25 46.333 25 67c0 34.667 -13.333 52 -40 52
c-16.667 0 -29.667 -10 -39 -30c-3.33301 -7.33301 -8.66602 -24.666 -15.999 -51.999h-10z" />
    <glyph glyph-name="glyph359" unicode="&#x1eee;" 
d="M582 692c6.66699 6 15 15.668 25 29.001c-25.333 0 -38 10.667 -38 32c0 18.667 11 28 33 28s33 -11.667 33 -35s-16 -48.333 -48 -75l-4 -1h-63v-497c0 -58.667 -17.667 -104.834 -53 -138.501s-82.333 -50.5 -141 -50.5c-157.333 0 -236 68.667 -236 206v480h-60v22
h240v-22h-72v-503c0 -46.667 10 -84 30 -112c23.333 -32.667 57.333 -49 102 -49c50 0 89.5 15.5 118.5 46.5s43.5 71.5 43.5 121.5v496h-90v22h180zM232 770.001h-23.001c7.33301 30.667 15.666 52.667 24.999 66c14 19.333 34 29 60 29c14 0 33.833 -7.66699 59.5 -23
s41.834 -23 48.501 -23c14 0 28.333 15.333 43 46h24c-14 -63.333 -42 -95 -84 -95c-12 0 -31.333 7.5 -58 22.5s-44 22.5 -52 22.5c-17.333 0 -31.666 -15 -42.999 -45z" />
    <glyph glyph-name="glyph360" unicode="&#x1eef;" horiz-adv-x="537" 
d="M451 488l-0.000976562 -466.001h54v-22h-148v66h-2c-8.66699 -25.333 -25.5 -45.333 -50.5 -60s-51.5 -22 -79.5 -22c-92 0 -138 48.333 -138 145v357h-54v22h148v-396c0 -30 4.33301 -52 13 -66c10.667 -17.333 30.334 -26 59.001 -26c36.667 0 64 17 82 51
c14.667 27.333 22 61 22 101v314h-58v22h152v-1c12 8.66699 20.667 16.667 26 24c-21.333 4 -32 13.667 -32 29c0 11.333 4 20 12 26s17.667 8 29 6c18.667 -3.33301 28 -13.666 28 -30.999c0 -24.667 -21 -49 -63 -73zM144.999 575.999h-21c12 57.333 37.333 86 76 86
c12.667 0 30.667 -7 54 -21s37.666 -21 42.999 -21c13.333 0 26.333 14 39 42h22c-13.333 -57.333 -38.666 -86 -75.999 -86c-10.667 0 -28 6.83301 -52 20.5s-39.667 20.5 -47 20.5c-16 0 -28.667 -13.667 -38 -41z" />
    <glyph glyph-name="glyph361" unicode="&#x1ef0;" 
d="M582 692c6.66699 6 15 15.668 25 29.001c-25.333 0 -38 10.667 -38 32c0 18.667 11 28 33 28s33 -11.667 33 -35s-16 -48.333 -48 -75l-4 -1h-63v-497c0 -58.667 -17.667 -104.834 -53 -138.501s-82.333 -50.5 -141 -50.5c-157.333 0 -236 68.667 -236 206v480h-60v22
h240v-22h-72v-503c0 -46.667 10 -84 30 -112c23.333 -32.667 57.333 -49 102 -49c50 0 89.5 15.5 118.5 46.5s43.5 71.5 43.5 121.5v496h-90v22h180zM277 -99.999c0 13.333 4.83301 24.833 14.5 34.5s21.167 14.5 34.5 14.5s24.833 -4.83301 34.5 -14.5
s14.5 -21.167 14.5 -34.5s-4.83301 -24.833 -14.5 -34.5s-21.167 -14.5 -34.5 -14.5s-24.833 4.83301 -34.5 14.5s-14.5 21.167 -14.5 34.5z" />
    <glyph glyph-name="glyph362" unicode="&#x1ef1;" horiz-adv-x="537" 
d="M451 488l-0.000976562 -466.001h54v-22h-148v66h-2c-8.66699 -25.333 -25.5 -45.333 -50.5 -60s-51.5 -22 -79.5 -22c-92 0 -138 48.333 -138 145v357h-54v22h148v-396c0 -30 4.33301 -52 13 -66c10.667 -17.333 30.334 -26 59.001 -26c36.667 0 64 17 82 51
c14.667 27.333 22 61 22 101v314h-58v22h152v-1c12 8.66699 20.667 16.667 26 24c-21.333 4 -32 13.667 -32 29c0 11.333 4 20 12 26s17.667 8 29 6c18.667 -3.33301 28 -13.666 28 -30.999c0 -24.667 -21 -49 -63 -73zM226.999 -89.001c0 12 4.33301 22.333 13 31
s19 13 31 13s22.333 -4.33301 31 -13s13 -19 13 -31s-4.33301 -22.333 -13 -31s-19 -13 -31 -13s-22.333 4.33301 -31 13s-13 19 -13 31z" />
    <glyph glyph-name="glyph363" unicode="&#x1ef2;" horiz-adv-x="556" 
d="M-10 670v22h260v-22h-82l145 -306l162 306h-75v22h166v-22h-63l-175 -332v-316h80v-22h-268v22h80v294l-172 354h-58zM347 740h-39l-128 87c-17.333 12 -26 24.333 -26 37c0 22 11 33 33 33c14.667 0 31 -10.333 49 -31z" />
    <glyph glyph-name="glyph364" unicode="&#x1ef3;" horiz-adv-x="444" 
d="M0 486l0.000976562 22h214v-22h-75l146 -349l120 349h-87v22h160v-22h-45l-183 -527c-15.333 -44.667 -29 -75 -41 -91c-20.667 -28 -49 -42 -85 -42s-61.333 8 -76 24v156h22l27 -97c11.333 -40.667 26.666 -61 45.999 -61c35.333 0 67.333 51.667 96 155l-201 483h-38z
M285.001 560h-35.001l-115 78c-15.333 10.667 -23 21.667 -23 33c0 20 10 30 30 30c12.667 0 27.334 -9.33301 44.001 -28z" />
    <glyph glyph-name="glyph365" unicode="&#x1ef4;" horiz-adv-x="556" 
d="M-10 670v22h260v-22h-82l145 -306l162 306h-75v22h166v-22h-63l-175 -332v-316h80v-22h-268v22h80v294l-172 354h-58zM225 -84c0 13.333 4.83301 24.833 14.5 34.5s21.167 14.5 34.5 14.5s24.833 -4.83301 34.5 -14.5s14.5 -21.167 14.5 -34.5
s-4.83301 -24.833 -14.5 -34.5s-21.167 -14.5 -34.5 -14.5s-24.833 4.83301 -34.5 14.5s-14.5 21.167 -14.5 34.5z" />
    <glyph glyph-name="glyph366" unicode="&#x1ef5;" horiz-adv-x="444" 
d="M0 486l0.000976562 22h214v-22h-75l146 -349l120 349h-87v22h160v-22h-45l-183 -527c-15.333 -44.667 -29 -75 -41 -91c-20.667 -28 -49 -42 -85 -42s-61.333 8 -76 24v156h22l27 -97c11.333 -40.667 26.666 -61 45.999 -61c35.333 0 67.333 51.667 96 155l-201 483h-38z
M298.001 -80c0 12 4.33301 22.333 13 31s19 13 31 13s22.333 -4.33301 31 -13s13 -19 13 -31s-4.33301 -22.333 -13 -31s-19 -13 -31 -13s-22.333 4.33301 -31 13s-13 19 -13 31z" />
    <glyph glyph-name="glyph367" unicode="&#x1ef6;" horiz-adv-x="556" 
d="M-10 670v22h260v-22h-82l145 -306l162 306h-75v22h166v-22h-63l-175 -332v-316h80v-22h-268v22h80v294l-172 354h-58zM255 845l3 84.999c32.667 17.333 58 26 76 26c22.667 0 42.334 -7.16699 59.001 -21.5s25 -32.5 25 -54.5c0 -23.333 -9 -45 -27 -65
c-18.667 -15.333 -37 -31 -55 -47c-2 -2.66699 -3 -11 -3 -25l-16 -3v10c0 9.33301 9.16699 27.333 27.5 54s27.5 51.334 27.5 74.001c0 38.667 -14.667 58 -44 58c-18.667 0 -33.334 -11 -44.001 -33c-3.33301 -6.66699 -9 -26 -17 -58h-12z" />
    <glyph glyph-name="glyph368" unicode="&#x1ef7;" horiz-adv-x="444" 
d="M0 486l0.000976562 22h214v-22h-75l146 -349l120 349h-87v22h160v-22h-45l-183 -527c-15.333 -44.667 -29 -75 -41 -91c-20.667 -28 -49 -42 -85 -42s-61.333 8 -76 24v156h22l27 -97c11.333 -40.667 26.666 -61 45.999 -61c35.333 0 67.333 51.667 96 155l-201 483h-38z
M204.001 646l1.99902 76.999c30.667 15.333 53.667 23 69 23c20 0 37.5 -6.5 52.5 -19.5s22.5 -29.167 22.5 -48.5c0 -29.333 -24.667 -62.666 -74 -99.999c-1.33301 -2.66699 -2 -10.334 -2 -23.001l-15 -3v9c0 8 8.33301 24 25 48s25 46.333 25 67
c0 34.667 -13.333 52 -40 52c-16.667 0 -29.667 -10 -39 -30c-3.33301 -7.33301 -8.66602 -24.666 -15.999 -51.999h-10z" />
    <glyph glyph-name="glyph369" unicode="&#x1ef8;" horiz-adv-x="556" 
d="M-10 670v22h260v-22h-82l145 -306l162 306h-75v22h166v-22h-63l-175 -332v-316h80v-22h-268v22h80v294l-172 354h-58zM217 740h-23.001c7.33301 30.667 15.666 52.667 24.999 66c14 19.333 34 29 60 29c14 0 33.833 -7.66699 59.5 -23s41.834 -23 48.501 -23
c14 0 28.333 15.333 43 46h24c-14 -63.333 -42 -95 -84 -95c-12 0 -31.333 7.5 -58 22.5s-44 22.5 -52 22.5c-17.333 0 -31.666 -15 -42.999 -45z" />
    <glyph glyph-name="glyph370" unicode="&#x1ef9;" horiz-adv-x="444" 
d="M0 486l0.000976562 22h214v-22h-75l146 -349l120 349h-87v22h160v-22h-45l-183 -527c-15.333 -44.667 -29 -75 -41 -91c-20.667 -28 -49 -42 -85 -42s-61.333 8 -76 24v156h22l27 -97c11.333 -40.667 26.666 -61 45.999 -61c35.333 0 67.333 51.667 96 155l-201 483h-38z
M170.001 565h-21c12 57.333 37.333 86 76 86c12.667 0 30.667 -7 54 -21s37.666 -21 42.999 -21c13.333 0 26.333 14 39 42h22c-13.333 -57.333 -38.666 -86 -75.999 -86c-10.667 0 -28 6.83301 -52 20.5s-39.667 20.5 -47 20.5c-16 0 -28.667 -13.667 -38 -41z" />
    <glyph glyph-name="endash" unicode="&#x2013;" horiz-adv-x="500" 
d="M0 222v64h500v-64h-500z" />
    <glyph glyph-name="emdash" unicode="&#x2014;" horiz-adv-x="1000" 
d="M0 222v64h1000v-64h-1000z" />
    <glyph glyph-name="quoteleft" unicode="&#x2018;" horiz-adv-x="222" 
d="M147 718l17.999 -18.001c-36 -26 -59 -51.333 -69 -76c46 0 69 -18 69 -54c0 -15.333 -5.16699 -28.166 -15.5 -38.499s-23.166 -15.5 -38.499 -15.5c-36 0 -54 21.333 -54 64c0 42 30 88 90 138z" />
    <glyph glyph-name="quoteright" unicode="&#x2019;" horiz-adv-x="222" 
d="M75 506l-17.999 18.001c36 26 59 51.333 69 76c-46 0 -69 18 -69 54c0 15.333 5.16699 28.166 15.5 38.499s23.166 15.5 38.499 15.5c36 0 54 -21.333 54 -64c0 -42 -30 -88 -90 -138z" />
    <glyph glyph-name="quotesinglbase" unicode="&#x201a;" horiz-adv-x="222" 
d="M75 -110l-17.999 18.001c36 26 59 51.333 69 76c-46 0 -69 18 -69 54c0 15.333 5.16699 28.166 15.5 38.499s23.166 15.5 38.499 15.5c36 0 54 -21.333 54 -64c0 -42 -30 -88 -90 -138z" />
    <glyph glyph-name="quotedblleft" unicode="&#x201c;" horiz-adv-x="407" 
d="M323 718l17.999 -18.001c-36 -26 -59 -51.333 -69 -76c46 0 69 -18 69 -54c0 -15.333 -5.16699 -28.166 -15.5 -38.499s-23.166 -15.5 -38.499 -15.5c-36 0 -54 21.333 -54 64c0 42 30 88 90 138zM155.999 717.999l17.999 -18.001c-36 -26 -59 -51.333 -69 -76
c46 0 69 -18 69 -54c0 -15.333 -5.16699 -28.166 -15.5 -38.499s-23.166 -15.5 -38.499 -15.5c-36 0 -54 21.333 -54 64c0 42 30 88 90 138z" />
    <glyph glyph-name="quotedblright" unicode="&#x201d;" horiz-adv-x="407" 
d="M84 506l-17.999 18.001c36 26 59 51.333 69 76c-46 0 -69 18 -69 54c0 15.333 5.16699 28.166 15.5 38.499s23.166 15.5 38.499 15.5c36 0 54 -21.333 54 -64c0 -42 -30 -88 -90 -138zM251.001 506.001l-17.999 18.001c36 26 59 51.333 69 76c-46 0 -69 18 -69 54
c0 15.333 5.16699 28.166 15.5 38.499s23.166 15.5 38.499 15.5c36 0 54 -21.333 54 -64c0 -42 -30 -88 -90 -138z" />
    <glyph glyph-name="quotedblbase" unicode="&#x201e;" horiz-adv-x="407" 
d="M251 -110l-17.999 18.001c36 26 59 51.333 69 76c-46 0 -69 18 -69 54c0 15.333 5.16699 28.166 15.5 38.499s23.166 15.5 38.499 15.5c36 0 54 -21.333 54 -64c0 -42 -30 -88 -90 -138zM84.001 -109.999l-17.999 18.001c36 26 59 51.333 69 76c-46 0 -69 18 -69 54
c0 15.333 5.16699 28.166 15.5 38.499s23.166 15.5 38.499 15.5c36 0 54 -21.333 54 -64c0 -42 -30 -88 -90 -138z" />
    <glyph glyph-name="dagger" unicode="&#x2020;" horiz-adv-x="556" 
d="M94 338h-22v160h22v-48h142v220h-48v22h180v-22h-48v-220h142v48h22v-160h-22v48h-142v-538h48v-22h-180v22h48v538h-142v-48z" />
    <glyph glyph-name="daggerdbl" unicode="&#x2021;" horiz-adv-x="556" 
d="M94 6h-22v160h22v-48h142v282h-142v-48h-22v160h22v-48h142v206h-46v22h176v-22h-46v-206h142v48h22v-160h-22v48h-142v-282h142v48h22v-160h-22v48h-142v-206h46v-22h-176v22h46v206h-142v-48z" />
    <glyph glyph-name="bullet" unicode="&#x2022;" horiz-adv-x="500" 
d="M423 346c0 -48 -16.833 -88.833 -50.5 -122.5s-74.5 -50.5 -122.5 -50.5c-48.667 0 -89.667 16.667 -123 50s-50 74.333 -50 123s16.667 89.667 50 123s74.333 50 123 50c48 0 88.833 -16.833 122.5 -50.5s50.5 -74.5 50.5 -122.5z" />
    <glyph glyph-name="ellipsis" unicode="&#x2026;" horiz-adv-x="1000" 
d="M113 38c0 15.333 5.16895 28.1641 15.502 38.4971s23.166 15.5 38.499 15.5s28.166 -5.16699 38.499 -15.5s15.5 -23.166 15.5 -38.499s-5.16699 -28.166 -15.5 -38.499s-23.166 -15.5 -38.499 -15.5c-14.667 0 -27.334 5.33301 -38.001 16s-16 23.334 -16 38.001z
M446.002 37.998c0 15.333 5.16895 28.1641 15.502 38.4971s23.166 15.5 38.499 15.5s28.166 -5.16699 38.499 -15.5s15.5 -23.166 15.5 -38.499s-5.16699 -28.166 -15.5 -38.499s-23.166 -15.5 -38.499 -15.5c-14.667 0 -27.334 5.33301 -38.001 16s-16 23.334 -16 38.001z
M779.004 37.9961c0 15.333 5.16895 28.1641 15.502 38.4971s23.166 15.5 38.499 15.5s28.166 -5.16699 38.499 -15.5s15.5 -23.166 15.5 -38.499s-5.16699 -28.166 -15.5 -38.499s-23.166 -15.5 -38.499 -15.5c-14.667 0 -27.334 5.33301 -38.001 16s-16 23.334 -16 38.001z
" />
    <glyph glyph-name="perthousand" unicode="&#x2030;" horiz-adv-x="1000" 
d="M853 358c-34.667 0 -57 -22.667 -67 -68c-3.33301 -16.667 -5 -52.667 -5 -108c0 -54.667 2 -90.667 6 -108c9.33301 -45.333 31.333 -68 66 -68s56.667 22.667 66 68c4 17.333 6 53.333 6 108c0 55.333 -1.66699 91.333 -5 108c-10 45.333 -32.333 68 -67 68zM148 -16
h-54l416 724h54zM147 686c-34.667 0 -57 -22.667 -67 -68c-3.33301 -16.667 -5 -52.667 -5 -108c0 -54.667 2 -90.667 6 -108c9.33301 -45.333 31.333 -68 66 -68s56.667 22.667 66 68c4 17.333 6 53.333 6 108c0 55.333 -1.66699 91.333 -5 108
c-10 45.333 -32.333 68 -67 68zM853 380c96 0 144 -66 144 -198s-48 -198 -144 -198s-144 66 -144 198s48 198 144 198zM147 708c96 0 144 -66 144 -198s-48 -198 -144 -198s-144 66 -144 198s48 198 144 198zM509 380c96 0 144 -66 144 -198s-48 -198 -144 -198
s-144 66 -144 198s48 198 144 198zM509 358c-34.667 0 -57 -22.667 -67 -68c-3.33301 -16.667 -5 -52.667 -5 -108c0 -54.667 2 -90.667 6 -108c9.33301 -45.333 31.333 -68 66 -68s56.667 22.667 66 68c4 17.333 6 53.333 6 108c0 55.333 -1.66699 91.333 -5 108
c-10 45.333 -32.333 68 -67 68z" />
    <glyph glyph-name="guilsinglleft" unicode="&#x2039;" horiz-adv-x="278" 
d="M212 357l-75 -103.002l75 -103c14 -19.333 21 -31.666 21 -36.999c0 -6 -3 -9 -9 -9s-14 4.33301 -24 13l-155 136l155 136c10 8.66699 18 13 24 13s9 -3 9 -9c0 -5.33301 -7 -17.666 -21 -36.999z" />
    <glyph glyph-name="guilsinglright" unicode="&#x203a;" horiz-adv-x="278" 
d="M66 151l75 103.002l-75 103c-14 19.333 -21 31.666 -21 36.999c0 6 3 9 9 9s14 -4.33301 24 -13l155 -136l-155 -136c-10 -8.66699 -18 -13 -24 -13s-9 3 -9 9c0 5.33301 7 17.666 21 36.999z" />
    <glyph glyph-name="fraction" unicode="&#x2044;" horiz-adv-x="167" 
d="M-97 -16h-70l431 724h70z" />
    <glyph glyph-name="franc" unicode="&#x20a3;" horiz-adv-x="1035" 
d="M210 348v-326.002h92v-22h-260v22h60v648h-60v22h508v-222h-22c-27.333 89.333 -49.666 146 -66.999 170c-14.667 20 -36.334 30 -65.001 30h-186v-300h78c30.667 0 54 16.333 70 49c8 16.667 16 46.334 24 89.001h22v-298h-22c-8 42.667 -16 72.334 -24 89.001
c-16 32.667 -39.333 49 -70 49h-78zM746 21.998v464h-54v22h146v-74h2c22 60 62.333 90 121 90c20 0 43 -6 69 -18v-196h-22l-35 103c-16.667 50 -34 75 -52 75c-26.667 0 -47.667 -22 -63 -66c-12 -33.333 -18 -66 -18 -98v-302h66v-22h-214v22h54z" />
    <glyph glyph-name="u20AB" unicode="&#x20ab;" horiz-adv-x="393" 
d="M197 501c-32 0 -60 -29.333 -84 -88c-13.333 -32.667 -20 -62.667 -20 -90c0 -34 13 -51 39 -51c27.333 0 52 23.667 74 71c18.667 40 28 75.667 28 107c0 34 -12.333 51 -37 51zM200 267c-35.333 -41.333 -70.667 -62.001 -106 -62.001c-60.667 0 -91 34 -91 102
c0 54 18 105 54 153c39.333 52 85 78 137 78c22.667 0 43 -8 61 -24l20 75h-100l10 36h100l2 16c0 20.667 -16 31.334 -48 32.001l7 33c44.667 1.33301 87.334 6 128.001 14l15 3c4 0 6 -3 6 -9c-0.666992 -1.33301 -1.66699 -5.33301 -3 -12l-19 -77h65l-10 -36h-65
l-69 -280c-3.33301 -13.333 -5 -22.333 -5 -27c0 -10 4 -15 12 -15c4 0 20.333 14 49 42l20 -18c-46.667 -57.333 -85.667 -86 -117 -86c-28.667 0 -46.334 20.667 -53.001 62zM8.99902 159.999h221v-56h-221v56z" />
    <glyph glyph-name="trademark" unicode="&#x2122;" horiz-adv-x="990" 
d="M164 350l-0.000976562 320h-43c-33.333 0 -55.666 -22 -66.999 -66h-22v88h344v-88h-22c-10 44 -32 66 -66 66h-44v-320c0 -15.333 4.66699 -25.333 14 -30c6.66699 -3.33301 18.667 -5.33301 36 -6v-22h-180v22c18 0.666992 30 2.33398 36 5.00098
c9.33301 5.33301 14 15.666 14 30.999zM659.999 292l-146 302.001h-2v-218c0 -21.333 3.33301 -36.333 10 -45c7.33301 -10.667 21.333 -16.334 42 -17.001v-22h-134v22c21.333 0.666992 35.333 6 42 16c5.33301 8 8 23.333 8 46v252c-14.667 26 -36.667 40 -66 42v22h128
l148 -304l150 304h110v-22c-17.333 -0.666992 -29.333 -2.66699 -36 -6c-9.33301 -4.66699 -14 -14.667 -14 -30v-284c0 -15.333 4.66699 -25.333 14 -30c6.66699 -3.33301 18.667 -5.33301 36 -6v-22h-180v22c17.333 0.666992 29.333 2.66699 36 6
c9.33301 4.66699 14 14.667 14 30v240h-2l-146 -298h-12z" />
    <glyph glyph-name="minus" unicode="&#x2212;" horiz-adv-x="600" 
d="M46 222v64h508v-64h-508z" />
    <glyph glyph-name="SF370000" unicode="&#x255f;" horiz-adv-x="718" 
d="M166 0h-182v22h58l232 678h64l220 -678h40v-22h-222v22h74l-82 256h-211l-87 -256h96v-22zM264 593l-100 -293h197l-95 293h-2z" />
    <glyph glyph-name="SF420000" unicode="&#x2560;" horiz-adv-x="681" 
d="M559 0l-517.001 -0.00195312v22h60v648h-60v22h508v-222h-22c-26 91.333 -46.333 148 -61 170c-12.667 20 -32.334 30 -59.001 30h-198v-300h78c30.667 0 54 16.333 70 49c8 16.667 16 46.334 24 89.001h22v-298h-22c-8 42.667 -16 72.334 -24 89.001
c-16 32.667 -39.333 49 -70 49h-78v-326h176c32 0 59 14.667 81 44c16.667 22 31.334 53.667 44.001 95c8.66699 32 17.334 63.667 26.001 95h22v-256z" />
    <glyph glyph-name="SF190000" unicode="&#x2561;" horiz-adv-x="429" 
d="M271 0h-228v22h60v648h-60v22h228v-22h-60v-648h60v-22z" />
    <glyph glyph-name="SF200000" unicode="&#x2562;" horiz-adv-x="773" 
d="M54 346c0 94 24 175.667 72 245c54 78 126 117 216 117s162 -39 216 -117c48 -69.333 72 -151 72 -245c0 -93.333 -24 -174.666 -72 -243.999c-54.667 -78.667 -126.667 -118 -216 -118s-161.333 39.333 -216 118c-48 69.333 -72 150.666 -72 243.999zM178 346
c0 -98 6.33301 -169.333 19 -214c24 -84 72.333 -126 145 -126s121 42 145 126c12.667 44.667 19 116 19 214s-6.33301 169.333 -19 214c-24 84 -72.333 126 -145 126s-121 -42 -145 -126c-12.667 -44.667 -19 -116 -19 -214z" />
    <glyph glyph-name="SF230000" unicode="&#x2563;" horiz-adv-x="811" 
d="M30 692l240 0.00195312v-22h-72v-503c0 -46.667 10.333 -84.334 31 -113.001c22.667 -32 56.334 -48 101.001 -48c49.333 0 88.666 15.5 117.999 46.5s44 71.5 44 121.5v496h-90v22h178v-22h-60v-497c0 -58.667 -17.667 -104.834 -53 -138.501s-82.333 -50.5 -141 -50.5
c-157.333 0 -236 68.667 -236 206v480h-60v22z" />
    <glyph glyph-name="SF470000" unicode="&#x2564;" horiz-adv-x="699" 
d="M-10 670v22h260v-22h-82l145 -306l162 306h-75v22h166v-22h-63l-175 -332v-316h80v-22h-268v22h80v294l-172 354h-58z" />
    <glyph glyph-name="SF480000" unicode="&#x2565;" horiz-adv-x="541" 
d="M128 326h-21.999v162c59.333 24 110.333 36 153 36c46 0 86 -9.66699 120 -29c40.667 -23.333 61 -56.333 61 -99v-374h48v-22h-136v88h-2c-12 -32 -31.833 -57.333 -59.5 -76s-58.5 -28 -92.5 -28c-44.667 0 -80.667 12 -108 36c-29.333 24.667 -44 59 -44 103
c0 52 19 89.333 57 112c23.333 14 65 26.333 125 37s101.333 22.667 124 36v105c0 59.333 -29 89 -87 89c-34.667 0 -60.334 -11.667 -77.001 -35c-14.667 -20 -34.667 -67 -60 -141zM352.001 206l-0.000976562 75.999c-22 -10.667 -56.667 -21.667 -104 -33
c-36 -8.66699 -60.667 -19.667 -74 -33c-18.667 -18 -28 -49 -28 -93c0 -69.333 27 -103.666 81 -102.999c42.667 0.666992 75.334 22.334 98.001 65.001c18 33.333 27 73.666 27 120.999z" />
    <glyph glyph-name="SF410000" unicode="&#x2566;" horiz-adv-x="431" 
d="M449 302h-297c-0.666992 -6.66699 -1 -16.667 -1 -30c0 -173.333 41.333 -260 124 -260c94.667 0 146.667 59.333 156 178h22c-2.66699 -60.667 -19.334 -109.334 -50.001 -146.001c-33.333 -40 -79.333 -60 -138 -60c-70 0 -125 28.333 -165 85
c-35.333 50.667 -53 112.334 -53 185.001c0 70 18 131 54 183c40 58 93.667 87 161 87c62.667 0 110.334 -22 143.001 -66c29.333 -39.333 44 -91.333 44 -156zM153 324h192v39c0 92.667 -28.333 139 -85 139c-63.333 0 -99 -59.333 -107 -178z" />
    <glyph glyph-name="SF450000" unicode="&#x2567;" horiz-adv-x="314" 
d="M186 508v-486h48v-22h-190v22h48v464h-48v22h142zM82 621c0 16.667 5.33301 30.334 16 41.001s24.334 16 41.001 16s30.334 -5.33301 41.001 -16s16 -24.334 16 -41.001s-5.33301 -30.334 -16 -41.001s-24.334 -16 -41.001 -16s-30.334 5.33301 -41.001 16
s-16 24.334 -16 41.001z" />
    <glyph glyph-name="SF460000" unicode="&#x2568;" horiz-adv-x="314" 
d="M186 508v-486h48v-22h-190v22h48v464h-48v22h142z" />
    <glyph glyph-name="SF400000" unicode="&#x2569;" horiz-adv-x="498" 
d="M41 254c0 72 18 133.333 54 184c40 57.333 94.667 86 164 86s124 -28.667 164 -86c36 -50.667 54 -112 54 -184s-18 -133.333 -54 -184c-40 -57.333 -94.667 -86 -164 -86s-124 28.667 -164 86c-36 50.667 -54 112 -54 184zM145 254c0 -70.667 4.33301 -122 13 -154
c16.667 -62.667 50.334 -94 101.001 -94s84.334 31.333 101.001 94c8.66699 32 13 83.333 13 154s-4.33301 122 -13 154c-16.667 62.667 -50.334 94 -101.001 94s-84.334 -31.333 -101.001 -94c-8.66699 -32 -13 -83.333 -13 -154z" />
    <glyph glyph-name="SF540000" unicode="&#x256a;" horiz-adv-x="557" 
d="M505 22v-22h-148v66h-2c-8.66699 -25.333 -25.5 -45.333 -50.5 -60s-51.5 -22 -79.5 -22c-92 0 -138 48.333 -138 145v357h-54v22h148v-396c0 -30 4.33301 -52 13 -66c11.333 -17.333 31 -26 59 -26c36.667 0 64 17 82 51c14.667 27.333 22 61 22 101v314h-58v22h152
v-486h54z" />
    <glyph glyph-name="SF530000" unicode="&#x256b;" horiz-adv-x="497" 
d="M0 486v22h214v-22h-75l146 -349l120 349h-87v22h160v-22h-45l-183 -527c-15.333 -44 -29 -74.333 -41 -91c-21.333 -28 -49.666 -42 -84.999 -42c-36 0 -61.333 8 -76 24v156h22l27 -97c11.333 -40.667 26.666 -61 45.999 -61c35.333 0 67.333 51.667 96 155l-201 483
h-38z" />
    <glyph glyph-name="circle" unicode="&#x25cb;" horiz-adv-x="718" 
d="M514 808h-42l-105 112l-105 -112h-42l111 170h72zM315 996h-43l123 140c20 22.667 38 34 54 34c24.667 0 37 -12 37 -36c0 -14 -9.66699 -27.667 -29 -41z" />
    <glyph glyph-name="H18533" unicode="&#x25cf;" horiz-adv-x="718" 
d="M514 808h-42l-105 112l-105 -112h-42l111 170h72zM519 997h-43l-142 97c-19.333 13.333 -29 27 -29 41c0 10 3.66699 18.5 11 25.5s16 10.5 26 10.5c16 0 34 -11.333 54 -34z" />
    <glyph glyph-name="invbullet" unicode="&#x25d8;" horiz-adv-x="718" 
d="M514 808h-42l-105 112l-105 -112h-42l111 170h72zM614 903c6 18.667 9.66602 40.001 10.999 64.001c0.666992 7.33301 3.33398 11.666 8.00098 12.999c1.33301 0 4 0.333008 8 1c44.667 7.33301 67 25.333 67 54c0 23.333 -9.33301 35 -28 35
c-3.33301 0 -8 -0.333008 -14 -1s-10.667 -1 -14 -1c-14 0 -21 6 -21 18c0 18.667 10.667 28 32 28c30.667 0 55.667 -8 75 -24c20.667 -18 29.667 -42 27 -72c-4 -39.333 -33 -66.333 -87 -81c-16.667 -4.66699 -27 -16 -31 -34h-33z" />
    <glyph glyph-name="invcircle" unicode="&#x25d9;" horiz-adv-x="718" 
d="M514 808h-42l-105 112l-105 -112h-42l111 170h72zM289 1020h-27.999c8.66699 36.667 18.334 62 29.001 76c16 21.333 39.667 32 71 32c18 0 41.333 -7.66699 70 -23s48 -23 58 -23c17.333 0 34 16.667 50 50h28c-15.333 -72 -48 -108 -98 -108
c-16.667 0 -39.834 7.66699 -69.501 23s-49.834 23 -60.501 23c-22 0 -38.667 -16.667 -50 -50z" />
    <glyph glyph-name="fi" unicode="&#xf001;" horiz-adv-x="556" 
d="M38 486l0.00195312 22h48v55c0 96.667 52.667 145 158 145c29.333 0 58.666 -4.66699 87.999 -14v-132h-22c-15.333 47.333 -24 73 -26 77c-14.667 31.333 -33.334 47 -56.001 47c-32 0 -48 -22 -48 -66v-112h114v-22h-114v-464h72v-22h-214v22h48v464h-48zM464.002 508
v-486h48v-22h-190v22h48v464h-46v22h140zM360.002 621c0 16.667 5.33301 30.334 16 41.001s24.334 16 41.001 16s30.334 -5.33301 41.001 -16s16 -24.334 16 -41.001s-5.33301 -30.334 -16 -41.001s-24.334 -16 -41.001 -16s-30.334 5.33301 -41.001 16
s-16 24.334 -16 41.001z" />
    <glyph glyph-name="fl" unicode="&#xf002;" horiz-adv-x="556" 
d="M38 486v21.999h48v55c0 96.667 52.667 145 158 145c24 0 50.667 -4.66699 80 -14v-132h-22c-14.667 46.667 -22.667 71.334 -24 74.001c-14 33.333 -30.667 50 -50 50c-32 0 -48 -22 -48 -66v-112h120v-22h-120v-464h72v-22h-214v22h48v464h-48zM464 691.999v-670h48v-22
h-190v22h48v648h-28v22h122z" />
    <glyph glyph-name=".null" horiz-adv-x="0" 
 />
    <glyph glyph-name="nonmarkingreturn" horiz-adv-x="278" 
 />
    <glyph glyph-name="periodcentered" horiz-adv-x="278" 
d="M85 254c0 15.333 5.16895 28.1641 15.502 38.4971s23.166 15.5 38.499 15.5s28.166 -5.16699 38.499 -15.5s15.5 -23.166 15.5 -38.499s-5.16699 -28.166 -15.5 -38.499s-23.166 -15.5 -38.499 -15.5c-14.667 0 -27.334 5.33301 -38.001 16s-16 23.334 -16 38.001z" />
    <glyph glyph-name="glyph231" horiz-adv-x="278" 
 />
    <glyph glyph-name="glyph232" horiz-adv-x="278" 
 />
    <glyph glyph-name="glyph258" horiz-adv-x="278" 
 />
    <glyph glyph-name="glyph259" horiz-adv-x="278" 
 />
    <glyph glyph-name="glyph275" horiz-adv-x="249" 
 />
    <glyph glyph-name="glyph276" horiz-adv-x="249" 
 />
    <glyph glyph-name="glyph261" horiz-adv-x="500" 
d="M253 522c6 18.667 9.66602 40.001 10.999 64.001c0.666992 7.33301 3.33398 11.666 8.00098 12.999c1.33301 0 4 0.333008 8 1c44.667 7.33301 67 25.333 67 54c0 23.333 -9.33301 35 -28 35c-3.33301 0 -8 -0.333008 -14 -1s-10.667 -1 -14 -1c-14 0 -21 6 -21 18
c0 18.667 10.667 28 32 28c30.667 0 55.667 -8 75 -24c20.667 -18 29.667 -42 27 -72c-4 -39.333 -33 -66.333 -87 -81c-16.667 -4.66699 -27 -16 -31 -34h-33z" />
    <glyph glyph-name="glyph262" horiz-adv-x="541" 
d="M311 576h-42l-105 112l-105 -112h-42l111 170h72zM111 765h-43l123 140c20 22.667 38 34 54 34c24.667 0 37 -12 37 -36c0 -14 -9.66699 -27.667 -29 -41z" />
    <glyph glyph-name="glyph263" horiz-adv-x="541" 
d="M311 576h-42l-105 112l-105 -112h-42l111 170h72zM316 765h-43l-142 97c-19.333 13.333 -29 27 -29 41c0 10 3.66699 18.5 11 25.5s16 10.5 26 10.5c16 0 34 -11.333 54 -34z" />
    <glyph glyph-name="glyph264" horiz-adv-x="541" 
d="M311 576h-42l-105 112l-105 -112h-42l111 170h72zM411 671c6 18.667 9.66602 40.001 10.999 64.001c0.666992 7.33301 3.33398 11.666 8.00098 12.999c1.33301 0 4 0.333008 8 1c44.667 7.33301 67 25.333 67 54c0 23.333 -9.33301 35 -28 35
c-3.33301 0 -8 -0.333008 -14 -1s-10.667 -1 -14 -1c-14 0 -21 6 -21 18c0 18.667 10.667 28 32 28c30.667 0 55.667 -8 75 -24c20.667 -18 29.667 -42 27 -72c-4 -39.333 -33 -66.333 -87 -81c-16.667 -4.66699 -27 -16 -31 -34h-33z" />
    <glyph glyph-name="glyph265" horiz-adv-x="541" 
d="M311 576h-42l-105 112l-105 -112h-42l111 170h72zM86 788h-27.999c8.66699 36.667 18.334 62 29.001 76c16 21.333 39.667 32 71 32c18 0 41.333 -7.66699 70 -23s48 -23 58 -23c17.333 0 34 16.667 50 50h28c-15.333 -72 -48 -108 -98 -108
c-16.667 0 -39.834 7.66699 -69.501 23s-49.834 23 -60.501 23c-22 0 -38.667 -16.667 -50 -50z" />
    <glyph glyph-name="glyph266" horiz-adv-x="541" 
d="M40 725l32 -0.000976562c4 -57.333 37.667 -86 101 -86c52.667 0 83.667 28.667 93 86h32c-10.667 -100 -55 -150 -133 -150c-40.667 0 -72 15.333 -94 46c-20 26.667 -30.333 61.334 -31 104.001zM190 764.999h-43l123 140c20 22.667 38 34 54 34
c24.667 0 37 -12 37 -36c0 -14 -9.66699 -27.667 -29 -41z" />
    <glyph glyph-name="glyph267" horiz-adv-x="541" 
d="M40 725l32 -0.000976562c4 -57.333 37.667 -86 101 -86c52.667 0 83.667 28.667 93 86h32c-10.667 -100 -55 -150 -133 -150c-40.667 0 -72 15.333 -94 46c-20 26.667 -30.333 61.334 -31 104.001zM263 764.999h-43l-142 97c-19.333 13.333 -29 27 -29 41
c0 10 3.66699 18.5 11 25.5s16 10.5 26 10.5c16 0 34 -11.333 54 -34z" />
    <glyph glyph-name="glyph268" horiz-adv-x="541" 
d="M40 725l32 -0.000976562c4 -57.333 37.667 -86 101 -86c52.667 0 83.667 28.667 93 86h32c-10.667 -100 -55 -150 -133 -150c-40.667 0 -72 15.333 -94 46c-20 26.667 -30.333 61.334 -31 104.001zM306 670.999c6 18.667 9.66602 40.001 10.999 64.001
c0.666992 7.33301 3.33398 11.666 8.00098 12.999c1.33301 0 4 0.333008 8 1c44.667 7.33301 67 25.333 67 54c0 23.333 -9.33301 35 -28 35c-3.33301 0 -8 -0.333008 -14 -1s-10.667 -1 -14 -1c-14 0 -21 6 -21 18c0 18.667 10.667 28 32 28c30.667 0 55.667 -8 75 -24
c20.667 -18 29.667 -42 27 -72c-4 -39.333 -33 -66.333 -87 -81c-16.667 -4.66699 -27 -16 -31 -34h-33z" />
    <glyph glyph-name="glyph269" horiz-adv-x="541" 
d="M40 725l32 -0.000976562c4 -57.333 37.667 -86 101 -86c52.667 0 83.667 28.667 93 86h32c-10.667 -100 -55 -150 -133 -150c-40.667 0 -72 15.333 -94 46c-20 26.667 -30.333 61.334 -31 104.001zM86 787.999h-27.999c8.66699 36.667 18.334 62 29.001 76
c16 21.333 39.667 32 71 32c18 0 41.333 -7.66699 70 -23s48 -23 58 -23c17.333 0 34 16.667 50 50h28c-15.333 -72 -48 -108 -98 -108c-16.667 0 -39.834 7.66699 -69.501 23s-49.834 23 -60.501 23c-22 0 -38.667 -16.667 -50 -50z" />
    <glyph glyph-name="glyph270" horiz-adv-x="249" 
 />
  </font>
</defs>
</svg>
