<?xml version="1.0" standalone="no"?>
<!DOCTYPE svg PUBLIC "-//W3C//DTD SVG 1.1//EN" "http://www.w3.org/Graphics/SVG/1.1/DTD/svg11.dtd" >
<svg xmlns="http://www.w3.org/2000/svg" xmlns:xlink="http://www.w3.org/1999/xlink" version="1.1">
<metadata>
Created by FontForge 20161116 at Tue Oct  4 20:13:30 2005
 By Jimmy Wärting
(c) Copyright 2005 by Tong Duc Thinh. All Rights Reserved
</metadata>
<defs>
<font id="SFUFeniceBold" horiz-adv-x="574" >
  <font-face 
    font-family="SFU Fenice"
    font-weight="700"
    font-stretch="normal"
    units-per-em="1000"
    panose-1="0 0 7 0 0 0 0 0 0 0"
    ascent="800"
    descent="-200"
    x-height="508"
    cap-height="692"
    bbox="-167 -227.001 1068 1189"
    underline-thickness="50"
    underline-position="-125"
    unicode-range="U+0020-F002"
  />
<missing-glyph horiz-adv-x="500" 
d="M63 0v1134h375v-1134h-375zM125 63h250v1009h-250v-1009z" />
    <glyph glyph-name=".notdef" horiz-adv-x="500" 
d="M63 0v1134h375v-1134h-375zM125 63h250v1009h-250v-1009z" />
    <glyph glyph-name="space" unicode=" " horiz-adv-x="305" 
 />
    <glyph glyph-name="exclam" unicode="!" horiz-adv-x="315" 
d="M169 211h-24c-5.33301 26 -24 118 -56 276c-13.333 65.333 -20 108.333 -20 129c0 26 8.16699 47.833 24.5 65.5s37.5 26.5 63.5 26.5s47.167 -8.83301 63.5 -26.5s24.5 -39.5 24.5 -65.5c0 -20.667 -6.66699 -63.667 -20 -129zM157 144c22.667 0 41.667 -7.66699 57 -23
s23 -34.333 23 -57s-7.66699 -41.667 -23 -57s-34.333 -23 -57 -23s-41.667 7.66699 -57 23s-23 34.333 -23 57s7.66699 41.667 23 57s34.333 23 57 23z" />
    <glyph glyph-name="quotedbl" unicode="&#x22;" horiz-adv-x="333" 
d="M126 627c0 -19.333 -6 -75 -18 -167c-2 -15.333 -3.66699 -30.333 -5 -45c-4 -15.333 -11.667 -23 -23 -23s-19 7.66699 -23 23c-1.33301 14.667 -3 29.667 -5 45c-12 92 -18 147.667 -18 167c0 54 15.333 81 46 81s46 -27 46 -81zM299 627c0 -19.333 -6 -75 -18 -167
c-2 -15.333 -3.66699 -30.333 -5 -45c-4 -15.333 -11.667 -23 -23 -23s-19 7.66699 -23 23c-1.33301 14.667 -3 29.667 -5 45c-12 92 -18 147.667 -18 167c0 54 15.333 81 46 81s46 -27 46 -81z" />
    <glyph glyph-name="numbersign" unicode="#" horiz-adv-x="611" 
d="M523 285v-86h-98l-27 -199h-92l28 199h-92l-27 -199h-92l28 199h-92v86h106l15 121h-92v86h105l28 200h91l-28 -200h92l28 200h91l-28 -200h84v-86h-96l-16 -121h84zM363 406h-91l-16 -121h92z" />
    <glyph glyph-name="dollar" unicode="$" horiz-adv-x="611" 
d="M320 260v-238c35.333 1.33301 66 12 92 32c28 22.667 42 51 42 85c0 32 -15.333 58.333 -46 79c-6 4 -35.333 18 -88 42zM73 49v205.999h33c29.333 -102.667 55.666 -168.334 78.999 -197.001c18.667 -22.667 49.667 -34.667 93 -36v253
c-56.667 24 -89.334 38 -98.001 42c-39.333 19.333 -67.666 39 -84.999 59c-23.333 27.333 -35 60.666 -35 99.999c0 63.333 20.5 115.333 61.5 156s93.167 62.667 156.5 66v80h42v-78c72 -3.33301 133.333 -17.666 184 -42.999v-177h-31l-34 103
c-11.333 34 -25.166 57.833 -41.499 71.5s-42.166 21.5 -77.499 23.5v-236c77.333 -26 129.666 -49 156.999 -69c48.667 -35.333 73 -83.666 73 -144.999c0 -63.333 -22.5 -117.166 -67.5 -161.499s-99.167 -66.5 -162.5 -66.5v-94h-42v94c-66.667 -0 -135 16.333 -205 49z
M278 455.999v220c-31.333 -0.666992 -59.666 -9.66699 -84.999 -27c-28.667 -20 -43 -44.667 -43 -74c0 -32 14.333 -58 43 -78c11.333 -8 39.666 -21.667 84.999 -41z" />
    <glyph glyph-name="percent" unicode="%" horiz-adv-x="889" 
d="M662 438c55.333 0 99 -25 131 -75c28 -42.667 42 -93.334 42 -152.001s-14 -109.334 -42 -152.001c-32 -50 -75.667 -75 -131 -75s-99 25 -131 75c-28 42.667 -42 93.334 -42 152.001s14 109.334 42 152.001c32 50 75.667 75 131 75zM662 416
c-34.667 0 -51.667 -45 -51 -135l2 -70l-2 -70c-0.666992 -90 16.333 -135 51 -135s51.667 45 51 135l-2 70l2 70c0.666992 90 -16.333 135 -51 135zM227 708c55.333 0 99 -25 131 -75c28 -42.667 42 -93.334 42 -152.001s-14 -109.334 -42 -152.001
c-32 -50 -75.667 -75 -131 -75s-99 25 -131 75c-28 42.667 -42 93.334 -42 152.001s14 109.334 42 152.001c32 50 75.667 75 131 75zM227 686c-34.667 0 -51.667 -45 -51 -135l2 -70l-2 -70c-0.666992 -90 16.333 -135 51 -135s51.667 45 51 135l-2 70l2 70
c0.666992 90 -16.333 135 -51 135zM251 -16l338 724h48l-338 -724h-48z" />
    <glyph glyph-name="ampersand" unicode="&#x26;" horiz-adv-x="722" 
d="M509 378l183 -0.00195312v-22h-67c-6 -79.333 -22.333 -142.333 -49 -189l108 -145h43v-22h-220l-35 47c-56.667 -42 -121.667 -63 -195 -63c-67.333 0 -123 14.667 -167 44c-50.667 34 -76 83 -76 147c0 89.333 61.333 160.333 184 213c-38.667 56.667 -58 106 -58 148
c0 53.333 21 96 63 128c38 29.333 84.333 44 139 44c44 0 82.333 -10 115 -30c39.333 -23.333 59 -55.666 59 -96.999c0 -60 -50.667 -111 -152 -153l176 -239c22.667 44.667 35 100.334 37 167.001h-88v22zM457 66.998l-225 302c-38.667 -20 -58 -55.667 -58 -107
c0 -52.667 15.333 -103.667 46 -153c35.333 -55.333 78 -83 128 -83c38.667 0 75 13.667 109 41zM351 685.998c-46 0 -69 -23.333 -69 -70c0 -25.333 10.333 -54 31 -86c2.66699 -4 21.667 -31.667 57 -83c36 17.333 54 56.333 54 117c0 81.333 -24.333 122 -73 122z" />
    <glyph glyph-name="quotesingle" unicode="'" horiz-adv-x="222" 
d="M157 627c0 -19.333 -6 -75 -18 -167c-2 -15.333 -3.66699 -30.333 -5 -45c-4 -15.333 -11.667 -23 -23 -23s-19 7.66699 -23 23c-1.33301 14.667 -3 29.667 -5 45c-12 92 -18 147.667 -18 167c0 54 15.333 81 46 81s46 -27 46 -81z" />
    <glyph glyph-name="parenleft" unicode="(" horiz-adv-x="389" 
d="M342 -174l-16 -16.002c-160 126.667 -240 276.334 -240 449.001s80 322.334 240 449.001l16 -16c-41.333 -43.333 -69.333 -101.333 -84 -174c-12 -58.667 -18 -145 -18 -259s6 -200.333 18 -259c14.667 -72.667 42.667 -130.667 84 -174z" />
    <glyph glyph-name="parenright" unicode=")" horiz-adv-x="389" 
d="M47 692l16 16.002c160 -126.667 240 -276.334 240 -449.001s-80 -322.334 -240 -449.001l-16 16c41.333 43.333 69.333 101.333 84 174c12 58.667 18 145 18 259s-6 200.333 -18 259c-14.667 72.667 -42.667 130.667 -84 174z" />
    <glyph glyph-name="asterisk" unicode="*" horiz-adv-x="500" 
d="M264 550l53 56c24 25.333 42 38 54 38c10 0 20.167 -5.83301 30.5 -17.5s15.5 -22.5 15.5 -32.5c0 -24.667 -19 -40.667 -57 -48l-81 -16v-2l79 -18c21.333 -4.66699 35 -8.66699 41 -12c13.333 -6.66699 20 -17.334 20 -32.001
c0 -10.667 -4.83301 -22.334 -14.5 -35.001s-19.5 -19 -29.5 -19c-15.333 0 -35.666 13 -60.999 39l-49 50l-2 -2c2 -6.66699 8.33301 -25.667 19 -57s16 -50 16 -56c0 -27.333 -16 -41 -48 -41s-48 13.667 -48 41c0 5.33301 5.33301 24 16 56c12 35.333 18.333 55 19 59
l-1 2l-50 -52c-24.667 -26 -45.334 -39 -62.001 -39c-10 0 -19.833 6.33301 -29.5 19s-14.5 24.334 -14.5 35.001c0 14.667 6.66699 25.334 20 32.001c6 3.33301 19.667 7.33301 41 12l79 18v2l-80 16c-38.667 8 -58 24 -58 48c0 10 5.16699 20.833 15.5 32.5
s20.5 17.5 30.5 17.5c12 0 30 -12.667 54 -38l53 -56l2 2c-0.666992 4 -7 23.667 -19 59c-10.667 32 -16 50.667 -16 56c0 27.333 16 41 48 41s48 -13.667 48 -41c0 -5.33301 -5.33301 -24 -16 -56c-12 -35.333 -18.333 -55 -19 -59z" />
    <glyph glyph-name="plus" unicode="+" horiz-adv-x="600" 
d="M248 306v202h104v-202h202v-104h-202v-202h-104v202h-202v104h202z" />
    <glyph glyph-name="comma" unicode="," horiz-adv-x="305" 
d="M93 -136l-13 18c61.333 30 96 66 104 108c-10 -4 -20.667 -6 -32 -6c-22.667 0 -41.667 7.66699 -57 23s-23 34.333 -23 57s7.66699 41.667 23 57s34.333 23 57 23c26 0 46.333 -10 61 -30c12.667 -18 19 -40.667 19 -68c0 -36 -14.333 -72.333 -43 -109
s-60.667 -61 -96 -73z" />
    <glyph glyph-name="hyphen" unicode="-" horiz-adv-x="333" 
d="M289 182v144h-246v-144h246z" />
    <glyph glyph-name="hyphen" unicode="&#x2010;" horiz-adv-x="333" 
d="M289 182v144h-246v-144h246z" />
    <glyph glyph-name="period" unicode="." horiz-adv-x="305" 
d="M152 144c22.667 0 41.667 -7.66699 57 -23s23 -34.333 23 -57s-7.66699 -41.667 -23 -57s-34.333 -23 -57 -23s-41.667 7.66699 -57 23s-23 34.333 -23 57s7.66699 41.667 23 57s34.333 23 57 23z" />
    <glyph glyph-name="slash" unicode="/" horiz-adv-x="278" 
d="M-42 -16l263 724h99l-263 -724h-99z" />
    <glyph glyph-name="zero" unicode="0" horiz-adv-x="611" 
d="M37 346c0 92 21.333 172.333 64 241c49.333 80.667 117.333 121 204 121s154.667 -40.333 204 -121c42.667 -68.667 64 -149 64 -241s-21.333 -172.333 -64 -241c-49.333 -80.667 -117.333 -121 -204 -121s-154.667 40.333 -204 121c-42.667 68.667 -64 149 -64 241z
M379 346c0 396 0.666992 433 2 111c0 64 -4.66699 114.667 -14 152c-12.667 51.333 -33.334 77 -62.001 77s-49.334 -25.667 -62.001 -77c-9.33301 -37.333 -14 -88 -14 -152c1.33301 321.333 2 284.333 2 -111c0 -396 -0.666992 -433 -2 -111
c0 -64 4.66699 -114.667 14 -152c12.667 -51.333 33.334 -77 62.001 -77s49.334 25.667 62.001 77c9.33301 37.333 14 88 14 152c-1.33301 -321.333 -2 -284.333 -2 111z" />
    <glyph glyph-name="one" unicode="1" horiz-adv-x="611" 
d="M413 708v-686.001h56v-22h-283v22h63v545c-18 -14.667 -52.333 -36.667 -103 -66l-11 19c76 38.667 146 101.334 210 188.001h68z" />
    <glyph glyph-name="two" unicode="2" horiz-adv-x="611" 
d="M538 0l-466 -0.00292969v145c89.333 60.667 154.333 114 195 160c62 70.667 93 146.334 93 227.001c0 102.667 -31.333 154 -94 154c-46.667 0 -85 -47.333 -115 -142c-6 -19.333 -15 -48.666 -27 -87.999h-38v207c59.333 30 123 45 191 45c72.667 0 133 -14.333 181 -43
c58.667 -34.667 88 -85.667 88 -153c0 -91.333 -74.667 -177.666 -224 -258.999c-36.667 -20 -100 -53.667 -190 -101v-2h376v76h30v-226z" />
    <glyph glyph-name="three" unicode="3" horiz-adv-x="611" 
d="M72 34l-0.000976562 207.999h38l74 -185c18 -34 46.333 -51 85 -51c74 0 111 60.667 111 182c0 60.667 -10.333 103 -31 127c-22 26.667 -62.667 40 -122 40v30c50.667 0 85.334 8 104.001 24c22.667 20 34 59.667 34 119c0 105.333 -30 158 -90 158
c-51.333 0 -93 -43.333 -125 -130l-32 -88h-30v194c66.667 30.667 133 46 199 46c64 0 119.333 -12 166 -36c58.667 -30 88 -74.333 88 -133c0 -50 -22 -90 -66 -120c-34.667 -24 -80 -40.333 -136 -49v-2c56.667 -6 106.334 -22.667 149.001 -50
c52 -33.333 78 -75.666 78 -126.999c0 -67.333 -33.667 -120.333 -101 -159c-56.667 -32 -121 -48 -193 -48c-70.667 0 -137.334 16.667 -200.001 50z" />
    <glyph glyph-name="four" unicode="4" horiz-adv-x="611" 
d="M381 700h93v-447h101v-56h-101v-175h56v-22h-310v22h90v175h-265v50c102 162.667 214 313.667 336 453zM310 253l-0.000976562 320c-69.333 -81.333 -147.666 -188 -234.999 -320h235z" />
    <glyph glyph-name="five" unicode="5" horiz-adv-x="611" 
d="M74 33l0.00195312 189h38c7.33301 -19.333 18.666 -48 33.999 -86c36 -86.667 77.667 -130 125 -130c43.333 0 72 26.333 86 79c6.66699 26 10 69.333 10 130c0 66 -6 114.333 -18 145c-20 49.333 -57.333 74 -112 74c-66.667 0 -108.334 -35 -125.001 -105h-33v363h426
v-150h-396v-157h2c24 30 48.5 50.667 73.5 62s57.167 17 96.5 17c76.667 0 141 -19.667 193 -59c58 -43.333 87 -102.333 87 -177c0 -80 -30 -141.667 -90 -185c-53.333 -39.333 -121.333 -59 -204 -59c-64.667 0 -129 16.333 -193 49z" />
    <glyph glyph-name="six" unicode="6" horiz-adv-x="611" 
d="M522 676l0.000976562 -180.999h-38c-22 47.333 -44.333 94.333 -67 141c-20 33.333 -45.333 50 -76 50c-37.333 0 -64 -27.333 -80 -82c-13.333 -45.333 -23.333 -126 -30 -242h2c32 57.333 77 86 135 86c61.333 0 111.833 -20 151.5 -60s59.5 -90.667 59.5 -152
c0 -70.667 -24.833 -130.334 -74.5 -179.001s-109.834 -73 -180.501 -73c-90 0 -160.667 38.333 -212 115c-44.667 66 -67 146.333 -67 241c0 102 26 187 78 255c57.333 75.333 135.333 113 234 113c42.667 0 97.667 -10.667 165 -32zM397.001 208.001
c0 134.667 -24.667 202 -74 202c-56 0 -84 -67.333 -84 -202s26.333 -202 79 -202s79 67.333 79 202z" />
    <glyph glyph-name="seven" unicode="7" horiz-adv-x="611" 
d="M102 470l-30 -0.00195312v222h499l-107 -262c-28 -70 -46.667 -136.667 -56 -200c-8 -52 -12 -121.333 -12 -208h50v-22h-282v22h50v36c0 92.667 22 175.334 66 248.001c26 42.667 90.667 121.334 194 236.001h-372v-72z" />
    <glyph glyph-name="eight" unicode="8" horiz-adv-x="611" 
d="M217 177c0 -114 29.667 -171 89 -171c58 0 87 57 87 171s-29 171 -87 171c-38 0 -63.667 -20.667 -77 -62c-8 -24 -12 -60.333 -12 -109zM221 359l0.00195312 1.99902c-105.333 16.667 -158 74.334 -158 173.001c0 56 27.667 100.333 83 133c46.667 27.333 100 41 160 41
c59.333 0 112.333 -14 159 -42c54.667 -32.667 82 -76.667 82 -132c0 -98.667 -52.667 -156.334 -158 -173.001v-2c55.333 -5.33301 99.666 -23.666 132.999 -54.999c35.333 -33.333 53 -77.333 53 -132c0 -59.333 -29.667 -106.666 -89 -141.999
c-51.333 -30.667 -111.333 -46 -180 -46c-66.667 0 -125.667 14.333 -177 43c-62.667 34.667 -94 83 -94 145c0 54.667 17.667 98.667 53 132c33.333 31.333 77.666 49.666 132.999 54.999zM223.002 527.999c0 -45.333 3.66699 -79 11 -101c12.667 -38 36.667 -57 72 -57
c54 0 81 52.667 81 158s-27 158 -81 158c-35.333 0 -59.333 -19 -72 -57c-7.33301 -22 -11 -55.667 -11 -101z" />
    <glyph glyph-name="nine" unicode="9" horiz-adv-x="611" 
d="M220 497c0 -54.667 2.00098 -93.667 6.00098 -117c9.33301 -55.333 29.666 -83 60.999 -83c56.667 0 85 61.667 85 185c0 54 -2.66699 94.333 -8 121c-11.333 55.333 -34.333 83 -69 83c-50 0 -75 -63 -75 -189zM71.001 28v207.001h38
c47.333 -112 75.333 -174.667 84 -188c17.333 -27.333 42 -41 74 -41c48 0 79.333 32.667 94 98c7.33301 31.333 11 82.666 11 153.999v74h-2c-24 -48.667 -64.667 -73 -122 -73c-58 0 -107.5 20.167 -148.5 60.5s-61.5 89.5 -61.5 147.5c0 70.667 24.333 128.5 73 173.5
s108.667 67.5 180 67.5c87.333 0 156.333 -35.667 207 -107c45.333 -63.333 68 -140.333 68 -231c0 -104.667 -24.667 -192.667 -74 -264c-56 -81.333 -134 -122 -234 -122c-70.667 0 -133 14.667 -187 44z" />
    <glyph glyph-name="colon" unicode=":" horiz-adv-x="305" 
d="M152 436c22.667 0 41.667 -7.66699 57 -23s23 -34.333 23 -57s-7.66699 -41.667 -23 -57s-34.333 -23 -57 -23s-41.667 7.66699 -57 23s-23 34.333 -23 57s7.66699 41.667 23 57s34.333 23 57 23zM152 144c22.667 0 41.667 -7.66699 57 -23s23 -34.333 23 -57
s-7.66699 -41.667 -23 -57s-34.333 -23 -57 -23s-41.667 7.66699 -57 23s-23 34.333 -23 57s7.66699 41.667 23 57s34.333 23 57 23z" />
    <glyph glyph-name="semicolon" unicode=";" horiz-adv-x="305" 
d="M93 -136l-13 18c61.333 30 96 66 104 108c-10 -4 -20.667 -6 -32 -6c-22.667 0 -41.667 7.66699 -57 23s-23 34.333 -23 57s7.66699 41.667 23 57s34.333 23 57 23c26 0 46.333 -10 61 -30c12.667 -18 19 -40.667 19 -68c0 -36 -14.333 -72.333 -43 -109
s-60.667 -61 -96 -73zM152 436c22.667 0 41.667 -7.66699 57 -23s23 -34.333 23 -57s-7.66699 -41.667 -23 -57s-34.333 -23 -57 -23s-41.667 7.66699 -57 23s-23 34.333 -23 57s7.66699 41.667 23 57s34.333 23 57 23z" />
    <glyph glyph-name="less" unicode="&#x3c;" horiz-adv-x="600" 
d="M554 96v-103l-508 221v80l508 221v-103l-367 -158z" />
    <glyph glyph-name="equal" unicode="=" horiz-adv-x="600" 
d="M554 410v-104h-508v104h508zM554 202v-104h-508v104h508z" />
    <glyph glyph-name="greater" unicode="&#x3e;" horiz-adv-x="600" 
d="M46 -7v103l367 158l-367 158v103l508 -221v-80z" />
    <glyph glyph-name="question" unicode="?" horiz-adv-x="500" 
d="M94 467l-29.999 0.000976562v204c67.333 24.667 127.666 37 180.999 37c61.333 0 112.333 -11.333 153 -34c50 -28 75 -70.333 75 -127c0 -51.333 -20.333 -94.333 -61 -129c-4.66699 -4 -43 -28.333 -115 -73c-40.667 -25.333 -61 -52 -61 -80v-52h-22v74
c0 26 7.66699 50.333 23 73c22.667 34 36.334 56.333 41.001 67c15.333 34.667 23 77.667 23 129c0 86.667 -24.333 130 -73 130c-28.667 0 -54.334 -21.333 -77.001 -64c-16 -30.667 -35 -82.334 -57 -155.001zM222.001 144.001c22.667 0 41.667 -7.66699 57 -23
s23 -34.333 23 -57s-7.66699 -41.667 -23 -57s-34.333 -23 -57 -23s-41.667 7.66699 -57 23s-23 34.333 -23 57s7.66699 41.667 23 57s34.333 23 57 23z" />
    <glyph glyph-name="at" unicode="@" horiz-adv-x="800" 
d="M349 294c0 -53.333 14 -80.001 42 -80.001c33.333 0 60.333 26 81 78c14 34.667 23.333 74.334 28 119.001c0 39.333 -11.333 59 -34 59c-33.333 0 -62 -22 -86 -66c-20.667 -37.333 -31 -74 -31 -110zM529 483.999l10.001 36.0029h77l-59 -240
c-4.66699 -18.667 -7 -33.334 -7 -44.001c0 -26 11.333 -39 34 -39c32.667 0 61 26.333 85 79c19.333 44 29 84.667 29 122c0 72 -29.333 131.333 -88 178c-54 44 -118 66 -192 66c-84 0 -151 -31 -201 -93c-47.333 -57.333 -71 -129 -71 -215c0 -80 27 -147.333 81 -202
s121 -82 201 -82c76 0 145.333 15.667 208 47l11 -50c-80 -42 -152.667 -63 -218 -63c-125.333 0 -225 40 -299 120c-62.667 67.333 -94 142.666 -94 225.999c0 109.333 36.333 199.666 109 270.999s163.667 107 273 107c94 0 174 -27.667 240 -83
c70.667 -58.667 106 -134 106 -226c0 -60 -17 -115 -51 -165c-38.667 -56.667 -87 -85 -145 -85c-42 0 -73.667 21 -95 63h-2c-37.333 -41.333 -77.333 -62 -120 -62c-68 0 -102 43 -102 129c0 53.333 17 106.333 51 159c41.333 64 93.666 96 156.999 96
c21.333 0 37.666 -5.33301 48.999 -16c4.66699 -4.66699 12.334 -16 23.001 -34z" />
    <glyph glyph-name="A" unicode="A" horiz-adv-x="630" 
d="M250 571l-92 -273h178l-84 273h-2zM147 0h-164v22h50l238 678h113l220 -678h43v-22h-310v22h83l-77 254h-193l-89 -254h86v-22z" />
    <glyph glyph-name="B" unicode="B" horiz-adv-x="667" 
d="M266 670l-0.000976562 -298h26c52.667 0 88.334 12.667 107.001 38c16 21.333 24 59.333 24 114c0 44.667 -4.66699 77.667 -14 99c-13.333 31.333 -39.333 47 -78 47h-65zM83.999 22v648h-52v22h326c66 0 120.333 -10.333 163 -31c56 -28 84 -71.667 84 -131
c0 -49.333 -22.667 -88.666 -68 -117.999c-36 -23.333 -81.333 -38 -136 -44v-2c160.667 -11.333 241 -69.333 241 -174c0 -70.667 -33.667 -122.334 -101 -155.001c-51.333 -24.667 -116.333 -37 -195 -37h-314v22h52zM265.999 350l-0.000976562 -328h60
c53.333 0 90 14.667 110 44c16 24 24 64.333 24 121c0 60 -11.667 102.167 -35 126.5s-64.666 36.5 -123.999 36.5h-35z" />
    <glyph glyph-name="C" unicode="C" horiz-adv-x="630" 
d="M574 674v-202.999h-34c-42.667 102.667 -66.334 157.667 -71.001 165c-20 33.333 -50 50 -90 50c-64.667 0 -105.334 -44.333 -122.001 -133c-6 -30.667 -9 -99.667 -9 -207s3 -176.333 9 -207c16.667 -88.667 57.334 -133 122.001 -133c36.667 0 65.334 9 86.001 27
c17.333 15.333 32.333 41.666 45 78.999c10 30 24.667 75.333 44 136h34v-216c-72 -32 -143.667 -48 -215 -48c-102.667 0 -184.334 35.333 -245.001 106c-57.333 66.667 -86 152 -86 256s28.667 189.333 86 256c60.667 70.667 142.334 106 245.001 106
c52 0 119 -11.333 201 -34z" />
    <glyph glyph-name="D" unicode="D" horiz-adv-x="722" 
d="M266 670v-648h27c84.667 0 139 35.333 163 106c12 35.333 18 108 18 218c0 84.667 -0.666992 134 -2 148c-4 54.667 -17 96 -39 124c-27.333 34.667 -70 52 -128 52h-39zM84 22l-0.000976562 648h-52v22h306c108 0 192 -30.667 252 -92s90 -146 90 -254
c0 -104.667 -32.667 -188.5 -98 -251.5s-150.666 -94.5 -255.999 -94.5h-294v22h52z" />
    <glyph glyph-name="E" unicode="E" horiz-adv-x="630" 
d="M84 22l0.000976562 648h-47v22h537v-220h-34c-24.667 84.667 -43.334 138 -56.001 160c-14 25.333 -35 38 -63 38h-155v-298h56c31.333 0 54.333 16 69 48c3.33301 8.66699 11.333 38.667 24 90h22v-298h-22c-12.667 51.333 -20.667 81.333 -24 90
c-14.667 32 -37.667 48 -69 48h-56v-328h154c28 0 50.667 19.333 68 58c12.667 28 30 87.333 52 178h34v-258h-542v22h52z" />
    <glyph glyph-name="F" unicode="F" 
d="M347 22l0.000976562 -22h-315v22h52v649h-52v21h530v-220h-34c-24.667 84.667 -43.334 138 -56.001 160c-14 25.333 -35 38 -63 38h-143v-298h47c31.333 0 54.333 16 69 48c3.33301 8.66699 11.333 38.667 24 90h22v-298h-22c-12.667 51.333 -20.667 81.333 -24 90
c-14.667 32 -37.667 48 -69 48h-47v-328h81z" />
    <glyph glyph-name="G" unicode="G" horiz-adv-x="667" 
d="M600 293l-0.00195312 -228.001c-26.667 -25.333 -65 -45.666 -115 -60.999c-44 -13.333 -87 -20 -129 -20c-97.333 0 -175 36.667 -233 110c-54 68 -81 152 -81 252c0 108 31.333 195.333 94 262s148 100 256 100c52.667 0 113.334 -10 182.001 -30v-207h-34
c-29.333 87.333 -48.666 139.333 -57.999 156c-22 39.333 -52.667 59 -92 59c-64 0 -106.333 -44.333 -127 -133c-10 -42.667 -15 -111.667 -15 -207c0 -226.667 36.333 -340 109 -340c40.667 0 61 32.667 61 98v189h-66v22h300v-22h-52z" />
    <glyph glyph-name="H" unicode="H" horiz-adv-x="704" 
d="M319 22v-22h-292v22h52v648h-52v22h292v-22h-58v-298h182v298h-58v22h292v-22h-52v-648h52v-22h-292v22h58v328h-182v-328h58z" />
    <glyph glyph-name="I" unicode="I" horiz-adv-x="370" 
d="M328 22v-22h-286v22h52v648h-52v22h286v-22h-52v-648h52z" />
    <glyph glyph-name="J" unicode="J" horiz-adv-x="500" 
d="M46 13v257h34c19.333 -81.333 32 -131 38 -149c25.333 -76.667 52.666 -115 81.999 -115c34.667 0 52 20 52 60v604h-74v22h308v-22h-52v-468c0 -79.333 -21.333 -136.333 -64 -171c-39.333 -31.333 -99.666 -47 -180.999 -47c-63.333 0 -111 9.66699 -143 29z" />
    <glyph glyph-name="K" unicode="K" horiz-adv-x="648" 
d="M666 0h-211l-186 368l260 302h-88v22h186v-22h-56l-178 -201l245 -447h28v-22zM318 0h-286v22h52v648h-52v22h286v-22h-52v-648h52v-22z" />
    <glyph glyph-name="L" unicode="L" 
d="M550 277l-0.000976562 -276.999h-518v21h52v649h-52v22h312v-22h-78v-648h132c28 0 49.667 17.667 65 53c12.667 29.333 30.334 96.666 53.001 201.999h34z" />
    <glyph glyph-name="M" unicode="M" horiz-adv-x="833" 
d="M75 22v648h-52v22h252l139 -467h2l150 467h243v-22h-52v-648h52v-22h-306v22h72v626h-2l-203 -648h-58l-206 648h-3v-626h72v-22h-152v22h52z" />
    <glyph glyph-name="N" unicode="N" horiz-adv-x="648" 
d="M199 22v-22h-172v22h52v648h-52v22h259l253 -474h2v452h-75v22h162v-22h-59v-670h-114l-346 660h-2v-638h92z" />
    <glyph glyph-name="O" unicode="O" horiz-adv-x="722" 
d="M361 708c100 0 179.333 -35.998 238 -107.998c54 -66.667 81 -151.334 81 -254.001s-27 -187.334 -81 -254.001c-58.667 -72 -138 -108 -238 -108c-99.333 0 -178.333 36.333 -237 109c-54.667 66.667 -82 151 -82 253s27.333 186.333 82 253
c58.667 72.667 137.667 109 237 109zM474 346.002c0 105.333 -2.33301 172.333 -7 201c-14 92.667 -49.333 139 -106 139s-92 -46.333 -106 -139c-4.66699 -28.667 -7 -95.667 -7 -201s2.33301 -172.333 7 -201c14 -92.667 49.333 -139 106 -139s92 46.333 106 139
c4.66699 28.667 7 95.667 7 201z" />
    <glyph glyph-name="P" unicode="P" horiz-adv-x="630" 
d="M266 670v-316h65c62 0 93 52.667 93 158s-31 158 -93 158h-65zM340 0h-308v22h52v648h-52v22h329c70.667 0 128.334 -12 173.001 -36c56 -30.667 84 -78.667 84 -144s-28 -113.333 -84 -144c-44.667 -24 -102.334 -36 -173.001 -36h-95v-310h74v-22z" />
    <glyph glyph-name="Q" unicode="Q" horiz-adv-x="722" 
d="M478 -106v-29.998h-79c-34.667 0 -59.667 7.66699 -75 23s-23 40.666 -23 75.999v27c-83.333 13.333 -148.333 55.666 -195 126.999c-42.667 64 -64 140.333 -64 229c0 102 27.333 186.333 82 253c58.667 72.667 137.667 109 237 109c100 0 179.333 -36 238 -108
c54 -66.667 81 -151.334 81 -254.001c0 -88.667 -21.333 -165 -64 -229c-46.667 -71.333 -111.667 -113.666 -195 -126.999v-51c0 -30 14 -45 42 -45h15zM474 346.002c0 105.333 -2.33301 172.333 -7 201c-14 92.667 -49.333 139 -106 139s-92 -46.333 -106 -139
c-4.66699 -28.667 -7 -95.667 -7 -201s2.33301 -172.333 7 -201c14 -92.667 49.333 -139 106 -139s92 46.333 106 139c4.66699 28.667 7 95.667 7 201z" />
    <glyph glyph-name="R" unicode="R" horiz-adv-x="667" 
d="M260 670l-0.000976562 -302h16c60 0 101.167 10.5 123.5 31.5s33.5 60.833 33.5 119.5c0 49.333 -6.66699 85 -20 107c-17.333 29.333 -48.666 44 -93.999 44h-59zM324.999 0l-299 0.000976562v22h52v648h-52v22h337c168 0 252 -55.667 252 -167
c0 -50 -17.333 -89.333 -52 -118c-32 -26.667 -73.667 -40.334 -125 -41.001l185 -344h41v-22h-228l-174 352h-2v-330h65v-22z" />
    <glyph glyph-name="S" unicode="S" 
d="M496 669l0.00195312 -190.001h-34c-30.667 88 -52.334 141.333 -65.001 160c-21.333 31.333 -54.333 47 -99 47c-41.333 0 -75.333 -7 -102 -21c-34.667 -18 -52 -45.667 -52 -83c0 -43.333 34.333 -78.666 103 -105.999l192 -76
c68.667 -38.667 103 -93.334 103 -164.001c0 -81.333 -25.667 -144.333 -77 -189c-48.667 -42 -114.334 -63 -197.001 -63c-69.333 0 -141.333 22 -216 66v210h34c35.333 -112.667 62 -181.334 80 -206.001c23.333 -32 65 -48 125 -48c38.667 0 72.667 10.667 102 32
c32.667 23.333 49 53.333 49 90c0 44.667 -34.333 81.334 -103 110.001l-192 80c-68.667 40.667 -103 97.334 -103 170.001c0 70 25 125 75 165c46 36.667 105 55 177 55c70 0 136.667 -13 200 -39z" />
    <glyph glyph-name="T" unicode="T" 
d="M430 0l-285.999 0.000976562v22h52v648h-32c-24.667 0 -45.334 -12.333 -62.001 -37c-14.667 -21.333 -32.667 -76 -54 -164h-34v223h546v-223h-34c-12.667 51.333 -19.667 79.666 -21 84.999c-10.667 36 -21.667 62.333 -33 79c-17.333 24.667 -38.333 37 -63 37h-31
v-648h52v-22z" />
    <glyph glyph-name="U" unicode="U" horiz-adv-x="611" 
d="M21 670l0.000976562 21.999h308v-22h-74v-513c0 -39.333 8 -72 24 -98c19.333 -30 47.666 -45 84.999 -45c97.333 0 146 62.667 146 188v468h-74v22h154v-22h-52v-453c0 -82.667 -17.167 -142.167 -51.5 -178.5s-92.833 -54.5 -175.5 -54.5c-78 0 -135.667 14 -173 42
c-43.333 32.667 -65 86.334 -65 161.001v483h-52z" />
    <glyph glyph-name="V" unicode="V" horiz-adv-x="593" 
d="M-34 670v22h303v-22h-65l155 -547h2l180 547h-78v22h146v-22h-42l-223 -670h-119l-203 670h-56z" />
    <glyph glyph-name="W" unicode="W" horiz-adv-x="870" 
d="M-13 670v22h293v-22h-70l122 -458h2l95 327l-34 131h-50v22h300v-22h-75l116 -458h2l135 458h-83v22h142v-22h-34l-194 -670h-80l-132 493h-2l-144 -493h-79l-181 670h-49z" />
    <glyph glyph-name="X" unicode="X" horiz-adv-x="611" 
d="M172 0h-170v22h49l186 294l-170 354h-46v22h319v-22h-80l106 -221l132 221h-91v22h160v-22h-43l-143 -249l192 -399h54v-22h-335v22h86l-129 269l-169 -269h92v-22z" />
    <glyph glyph-name="Y" unicode="Y" 
d="M-15 670v22h321v-22h-72l143 -308l152 308h-95v22h168v-22h-42l-166 -329v-319h52v-22h-286v22h52v287l-173 361h-54z" />
    <glyph glyph-name="Z" unicode="Z" 
d="M8 0l332 670h-150c-27.333 0 -49.333 -16.333 -66 -49c-13.333 -26 -29 -76 -47 -150h-34v221h492l-327 -670h158c30 0 52.667 12.667 68 38c18 30 39.333 97.333 64 202h34v-262h-524z" />
    <glyph glyph-name="bracketleft" unicode="[" horiz-adv-x="389" 
d="M264 -152h65v-22h-203v866h203v-22h-65v-822z" />
    <glyph glyph-name="backslash" unicode="\" horiz-adv-x="278" 
d="M57 708l263 -724h-99l-263 724h99z" />
    <glyph glyph-name="bracketright" unicode="]" horiz-adv-x="389" 
d="M125 670h-65v22h203v-866h-203v22h65v822z" />
    <glyph glyph-name="asciicircum" unicode="^" horiz-adv-x="600" 
d="M181 327h-107l177 365h98l177 -365h-108l-118 255z" />
    <glyph glyph-name="underscore" unicode="_" horiz-adv-x="500" 
d="M500 -125h-500v50h500v-50z" />
    <glyph glyph-name="grave" unicode="`" horiz-adv-x="296" 
d="M232 578l-59.999 -0.000976562c-32.667 19.333 -81.334 48.333 -146.001 87c-24 14.667 -36 32.667 -36 54c0 14.667 5.5 26.5 16.5 35.5s23.833 13.5 38.5 13.5c16 0 30.333 -5 43 -15c6.66699 -5.33301 17 -16.666 31 -33.999z" />
    <glyph glyph-name="a" unicode="a" horiz-adv-x="556" 
d="M133 329l-39.999 0.000976562v158c56.667 24.667 116 37 178 37c69.333 0 120.333 -9.66699 153 -29c41.333 -24.667 62 -69.334 62 -134.001v-339h48v-22h-194v72h-2c-24 -58.667 -69.333 -88 -136 -88c-46 0 -85 12 -117 36c-36 27.333 -54 63 -54 107
c0 52 22 91.667 66 119c24 14.667 68 30 132 46c53.333 13.333 84.666 26.666 93.999 39.999v87c0 55.333 -21.333 83 -64 83c-30 0 -57.333 -22.333 -82 -67c-6 -11.333 -20.667 -46.666 -44 -105.999zM322.001 131.001v170c-8 -5.33301 -29.333 -16 -64 -32
c-22.667 -10.667 -36.667 -33 -42 -67c-2 -10.667 -3 -39 -3 -85c0 -28.667 2 -49 6 -61c6.66699 -22.667 21 -34 43 -34c40 0 60 36.333 60 109z" />
    <glyph glyph-name="b" unicode="b" 
d="M226 381l0.000976562 -264.999c0 -34.667 2.33301 -59 7 -73c8.66699 -24.667 26.667 -37 54 -37c31.333 0 50.666 35.333 57.999 106c2 16 3 61.667 3 137c0 79.333 -0.666992 125.666 -2 138.999c-7.33301 69.333 -26.333 104 -57 104c-42 0 -63 -37 -63 -111z
M66.001 0.000976562v670.001h-48v22h208v-206h2c16.667 25.333 43.667 38 81 38c66 0 120.667 -30 164 -90c38 -54.667 57 -116.334 57 -185.001c0 -71.333 -21.333 -132.333 -64 -183c-44.667 -54.667 -102 -82 -172 -82c-66 0 -118.333 24.667 -157 74l-26 -58h-45z" />
    <glyph glyph-name="c" unicode="c" horiz-adv-x="519" 
d="M457 492l-0.00292969 -177.003h-30c-20 53.333 -35.333 90 -46 110c-27.333 51.333 -54.333 77 -81 77c-37.333 0 -60.666 -35 -69.999 -105c-2.66699 -20 -4 -67.667 -4 -143c0 -71.333 2.33301 -119.666 7 -144.999c12.667 -62 41.334 -93.667 86.001 -95
c82 -2.66699 129 55.333 141 174h22c-1.33301 -59.333 -17.666 -107.666 -48.999 -144.999c-34 -39.333 -80 -59 -138 -59c-77.333 0 -139 26 -185 78c-44 50 -66 114 -66 192c0 74.667 24.5 138.334 73.5 191.001s110.5 79 184.5 79c58 0 109.667 -10.667 155 -32z" />
    <glyph glyph-name="d" unicode="d" 
d="M348 187v193.999c0 74 -21 111 -63 111c-30.667 0 -49.667 -34.667 -57 -104c-1.33301 -13.333 -2 -59.666 -2 -138.999c0 -76 0.666992 -120.333 2 -133c7.33301 -66.667 27 -100 59 -100c30 0 49 23 57 69c2.66699 16.667 4 50.667 4 102zM508 691.999v-670.001h36v-22
h-185v44h-2c-21.333 -40 -55.666 -60 -102.999 -60c-62.667 0 -114.334 29.333 -155.001 88c-36.667 52.667 -55 111.667 -55 177c0 68.667 19 130.334 57 185.001c43.333 60 98 90 164 90c37.333 0 64.333 -12.667 81 -38h2v184h-52v22h212z" />
    <glyph glyph-name="e" unicode="e" horiz-adv-x="556" 
d="M512 286l-286 -0.000976562c0 -98 5.66699 -166 17 -204c15.333 -50.667 46.666 -76 93.999 -76c88.667 0 139.334 64.667 152.001 194h22c-11.333 -144 -78.333 -216 -201 -216c-80 0 -144.333 24 -193 72s-73 112 -73 192c0 75.333 22.333 139.333 67 192
c46.667 56 107 84 181 84c72.667 0 128 -22 166 -66c36 -41.333 54 -98.666 54 -171.999zM226 307.999l114.002 0.000976562c0 80 -2.33301 130.333 -7 151c-6.66699 28.667 -21.334 43 -44.001 43c-26 0 -43.333 -16 -52 -48
c-6.66699 -24.667 -10.334 -73.334 -11.001 -146.001z" />
    <glyph glyph-name="f" unicode="f" horiz-adv-x="333" 
d="M298 0h-276v22h46v464h-48v22h48v8c0 128 61 192 183 192c43.333 0 83.333 -7.66699 120 -23v-131h-28l-39 93c-12 26 -27 39 -45 39c-20.667 0 -31 -16.333 -31 -49v-129h102v-22h-102v-464h70v-22z" />
    <glyph glyph-name="g" unicode="g" horiz-adv-x="556" 
d="M243 357c0 -43.333 1.33301 -72 4 -86c6.66699 -39.333 22.667 -59 48 -59s41.333 19.667 48 59c2.66699 14 4 42.667 4 86s-1.33301 72 -4 86c-6.66699 39.333 -22.667 59 -48 59s-41.333 -19.667 -48 -59c-2.66699 -14 -4 -42.667 -4 -86zM391 508l148.001 0.000976562
v-22h-106v-4c49.333 -28.667 74 -71.334 74 -128.001c0 -53.333 -23 -95 -69 -125c-39.333 -26 -87.333 -39 -144 -39s-106.334 13.333 -149.001 40c-32.667 -6.66699 -49 -21 -49 -43c0 -31.333 43.667 -47 131 -47h13c8 0.666992 14.333 1 19 1h33
c76.667 0 133.334 -7.33301 170.001 -22c53.333 -21.333 80 -61.666 80 -120.999c0 -63.333 -31.333 -112 -94 -146c-51.333 -28 -111.333 -42 -180 -42c-46.667 0 -92.334 8.33301 -137.001 25c-59.333 22 -89 52.333 -89 91c0 34 22.667 61.333 68 82
c-64 19.333 -96 56 -96 110c0 64.667 37 108 111 130c-28 26 -42 60.667 -42 104c0 55.333 21.667 98.666 65 129.999c38.667 28 86.667 42 144 42c41.333 0 74.333 -5.33301 99 -16zM278.001 -167.999c41.333 0 80.334 8 117.001 24c47.333 20.667 71 49.334 71 86.001
c0 31.333 -31.333 48.666 -94 51.999c-46.667 1.33301 -116.334 3.33301 -209.001 6c-26 -12.667 -39 -35.667 -39 -69s18.333 -59 55 -77c29.333 -14.667 62.333 -22 99 -22z" />
    <glyph glyph-name="h" unicode="h" 
d="M260 22v-22h-238v22h48v648h-48v22h208v-243h2c10 21.333 28.333 39.166 55 53.499s52.667 21.5 78 21.5c92.667 0 139 -52.667 139 -158v-344h48v-22h-238v22h30v385c0 46 -13.667 69 -41 69s-47.333 -20.667 -60 -62c-8.66699 -27.333 -13 -58.666 -13 -93.999v-298h30
z" />
    <glyph glyph-name="i" unicode="i" horiz-adv-x="296" 
d="M276 22v-22h-256v22h48v464h-48v22h208v-486h48zM66 626c0 22.667 8 42 24 58s35.333 24 58 24s42 -8 58 -24s24 -35.333 24 -58s-8 -42 -24 -58s-35.333 -24 -58 -24s-42 8 -58 24s-24 35.333 -24 58z" />
    <glyph glyph-name="j" unicode="j" horiz-adv-x="296" 
d="M228 508v-501c0 -82 -19 -136.333 -57 -163c-30 -21.333 -89 -32.666 -177 -33.999v22c32 1.33301 52.333 6.16602 61 14.499s13 28.5 13 60.5v579h-48v22h208zM66 626c0 22.667 8 42 24 58s35.333 24 58 24s42 -8 58 -24s24 -35.333 24 -58s-8 -42 -24 -58
s-35.333 -24 -58 -24s-42 8 -58 24s-24 35.333 -24 58z" />
    <glyph glyph-name="k" unicode="k" horiz-adv-x="519" 
d="M340 508h156v-22h-40l-103 -126l163 -338h22v-22h-180l-116 260l182 226h-84v22zM292 0h-264v22h48v648h-48v22h208v-670h56v-22z" />
    <glyph glyph-name="l" unicode="l" horiz-adv-x="296" 
d="M276 22v-22h-256v22h48v648h-48v22h208v-670h48z" />
    <glyph glyph-name="m" unicode="m" horiz-adv-x="852" 
d="M271 22l0.000976562 -22h-238v22h48v464h-48v22h194v-49h2c27.333 43.333 69.333 65 126 65c69.333 0 113.666 -24.333 132.999 -73c26.667 48.667 70.667 73 132 73c100.667 0 151 -50.333 151 -151v-352h48v-21h-238v21h30v406c0 39.333 -15.333 59 -46 59
c-39.333 0 -59 -30.333 -59 -91v-373h30v-22h-220v22h30v398c0 44 -14 66 -42 66c-42 0 -63 -35.667 -63 -107v-357h30z" />
    <glyph glyph-name="n" unicode="n" 
d="M260 22v-22h-238v22h48v464h-48v22h199v-77h2c10 28 29 50.667 57 68c26 16.667 54.333 25 85 25c92.667 0 139 -52.667 139 -158v-344h48v-22h-238v22h30v385c0 46 -13.667 69 -41 69c-48.667 0 -73 -52 -73 -156v-298h30z" />
    <glyph glyph-name="o" unicode="o" 
d="M537 254c0 -78 -22 -142 -66 -192c-46 -52 -107.333 -78 -184 -78s-138 26 -184 78c-44 50 -66 114 -66 192c0 78.667 21.667 142.667 65 192c46 52 107.667 78 185 78s139 -26 185 -78c43.333 -49.333 65 -113.333 65 -192zM219 254c0 -94 3 -157 9 -189
c7.33301 -39.333 27 -59 59 -59s51.667 19.667 59 59c6 32 9 95 9 189s-3 157 -9 189c-7.33301 39.333 -27 59 -59 59s-51.667 -19.667 -59 -59c-6 -32 -9 -95 -9 -189z" />
    <glyph glyph-name="p" unicode="p" 
d="M226 340v-213.001c0 -25.333 4 -48.333 12 -69c10.667 -28 26.667 -42 48 -42c30.667 0 50 35.333 58 106c2.66699 22 4 67.667 4 137c0 74.667 -0.666992 118.334 -2 131.001c-6.66699 68 -25 102 -55 102c-43.333 0 -65 -50.667 -65 -152zM66 485.999h-47.999v22h202
v-42h2c20 38.667 52 58 96 58c62.667 0 114.667 -29.333 156 -88c37.333 -52.667 56 -111.667 56 -177c0 -70 -18 -131.667 -54 -185c-40.667 -60 -94.334 -90 -161.001 -90c-38 0 -67 12.667 -87 38h-2v-174h70v-22h-278v22h48v638z" />
    <glyph glyph-name="q" unicode="q" 
d="M348 127l-0.000976562 230.999c0 41.333 -1.66699 70 -5 86c-7.33301 38.667 -23.666 58 -48.999 58c-36 0 -57.333 -30.667 -64 -92c-2.66699 -25.333 -4 -75.666 -4 -150.999c0 -69.333 1.33301 -115 4 -137c8 -70.667 27.333 -106 58 -106c22 0 38.333 14 49 42
c7.33301 20 11 43 11 69zM507.999 507.999l0.000976562 -660h48v-22h-278v22h70v174h-2c-20 -25.333 -54.667 -38 -104 -38c-64.667 0 -115.334 31 -152.001 93c-30.667 52 -46 112.667 -46 182c0 72 22.5 134.167 67.5 186.5s103.167 78.5 174.5 78.5
c46.667 0 94 -22.667 142 -68l30 52h50z" />
    <glyph glyph-name="r" unicode="r" horiz-adv-x="444" 
d="M284 0h-256.001v22h48v464h-48v22h197v-83h2c30.667 66 73.667 99 129 99c16 0 36 -3.33301 60 -10v-203h-28c-21.333 66.667 -34 105 -38 115c-13.333 32 -28.666 48 -45.999 48c-19.333 0 -36 -14.667 -50 -44c-12 -24.667 -18 -48 -18 -70v-338h48v-22z" />
    <glyph glyph-name="s" unicode="s" horiz-adv-x="500" 
d="M42 31l0.00195312 153h48c9.33301 -26.667 18.666 -53.667 27.999 -81c13.333 -32.667 28 -56 44 -70c20 -18 47.667 -27 83 -27c73.333 0 110 24.667 110 74c0 35.333 -27.667 63.333 -83 84l-155 57c-55.333 30.667 -83 75 -83 133c0 54.667 22.667 97.667 68 129
c39.333 27.333 87.666 41 144.999 41c56 0 114.667 -13.333 176 -40v-143h-40c-18.667 56.667 -36 95.334 -52 116.001c-23.333 30 -56 45 -98 45c-23.333 0 -43.333 -5.33301 -60 -16c-19.333 -12.667 -29 -30 -29 -52c0 -33.333 27.667 -60.333 83 -81
c34 -12.667 85.667 -31.667 155 -57c55.333 -30.667 83 -73.667 83 -129c0 -60.667 -24 -107.334 -72 -140.001c-41.333 -28.667 -94 -43 -158 -43c-70.667 0 -135 15.667 -193 47z" />
    <glyph glyph-name="t" unicode="t" horiz-adv-x="389" 
d="M72 486l-58 0.000976562v22h58v132h160v-132h109v-22h-109v-393c0 -22.667 1.66699 -38.334 5 -47.001c6 -16 18 -24 36 -24c45.333 0 68 52 68 156v22h22v-33c0 -64.667 -9.66699 -110 -29 -136c-23.333 -31.333 -66 -47 -128 -47c-89.333 0 -134 44 -134 132v370z" />
    <glyph glyph-name="u" unicode="u" 
d="M70 142v344h-48v22h208v-407c0 -46 13.667 -69 41 -69c48.667 0 73 52 73 156v298h-30v22h190v-486h48v-22h-199v77h-2c-10 -28 -28.5 -50.5 -55.5 -67.5s-55.833 -25.5 -86.5 -25.5c-92.667 0 -139 52.667 -139 158z" />
    <glyph glyph-name="v" unicode="v" horiz-adv-x="444" 
d="M-17 508h281v-22h-64l96 -329h2l104 329h-73v22h132v-22h-36l-155 -490h-87l-159 490h-41v22z" />
    <glyph glyph-name="w" unicode="w" horiz-adv-x="704" 
d="M-18 508h246v-22h-45l90 -307h2l56 220l-27 87h-40v22h266v-22h-61l100 -307h2l96 307h-63v22h118v-22h-30l-154 -490h-73l-119 364h-2l-97 -364h-76l-151 490h-38v22z" />
    <glyph glyph-name="x" unicode="x" horiz-adv-x="500" 
d="M112 0h-114v22h44l137 207l-122 257h-43v22h268v-22h-46l75 -158l103 158h-68v22h138v-22h-43l-119 -179l137 -285h43v-22h-301v22h78l-89 183l-120 -183h42v-22z" />
    <glyph glyph-name="y" unicode="y" horiz-adv-x="444" 
d="M-16 508h270v-22h-57l105 -289h2l100 289h-82v22h138v-22h-32l-199 -577c-22.667 -66 -57 -99 -103 -99c-34.667 0 -63.667 8 -87 24v181h28l30 -79c11.333 -30.667 18 -47.667 20 -51c12 -24.667 24 -37 36 -37c20 0 39.667 28.667 59 86l18 53l-214 499h-32v22z" />
    <glyph glyph-name="z" unicode="z" horiz-adv-x="481" 
d="M442 206v-206h-426l283 486h-128c-21.333 0 -40 -16.333 -56 -49c-9.33301 -18.667 -23.333 -56 -42 -112h-28v183h414l-284 -486h128c33.333 0 70.333 61.333 111 184h28z" />
    <glyph glyph-name="braceleft" unicode="{" horiz-adv-x="389" 
d="M135 -44l0.000976562 184c0 38 -8.66699 65.667 -26 83c-15.333 15.333 -43 27.333 -83 36c39.333 8.66699 66.666 20.667 81.999 36c18 18 27 45.667 27 83v184c0 59.333 20 99.333 60 120c33.333 17.333 93.333 26 180 26v-22
c-36.667 -2.66699 -62.834 -12.167 -78.501 -28.5s-23.5 -42.833 -23.5 -79.5v-185c0 -42.667 -8.5 -73.5 -25.5 -92.5s-47.167 -32.5 -90.5 -40.5v-2c43.333 -8 73.5 -21.333 90.5 -40s25.5 -49.667 25.5 -93v-185c0 -36.667 7.83301 -63.167 23.5 -79.5
s41.834 -25.833 78.501 -28.5v-22c-86.667 0 -146.667 8.66699 -180 26c-40 20.667 -60 60.667 -60 120z" />
    <glyph glyph-name="bar" unicode="|" horiz-adv-x="222" 
d="M59 0v692h104v-692h-104z" />
    <glyph glyph-name="braceright" unicode="}" horiz-adv-x="389" 
d="M254 562v-184c0 -37.333 9 -65 27 -83c15.333 -15.333 42.666 -27.333 81.999 -36c-39.333 -8.66699 -66.666 -20.667 -81.999 -36c-18 -17.333 -27 -45 -27 -83v-184c0 -59.333 -20 -99.333 -60 -120c-33.333 -17.333 -93.333 -26 -180 -26v22
c36.667 2.66699 62.834 12.167 78.501 28.5s23.5 42.833 23.5 79.5v185c0 43.333 8.5 74.333 25.5 93s47.167 32 90.5 40v2c-43.333 8 -73.5 21.5 -90.5 40.5s-25.5 49.833 -25.5 92.5v185c0 36.667 -7.83301 63.167 -23.5 79.5s-41.834 25.833 -78.501 28.5v22
c86.667 0 146.667 -8.66699 180 -26c40 -20.667 60 -60.667 60 -120z" />
    <glyph glyph-name="asciitilde" unicode="~" horiz-adv-x="600" 
d="M495 345l40.002 -92c-24.667 -30 -42.667 -49.667 -54 -59c-22 -18 -47 -27 -75 -27c-24 0 -59.333 11.333 -106 34s-83.667 34 -111 34c-34 0 -62 -24 -84 -72l-40 92c35.333 57.333 78.333 86 129 86c25.333 0 63.166 -11.333 113.499 -34s83.5 -34 99.5 -34
c27.333 0 56.666 24 87.999 72z" />
    <glyph glyph-name="euro" horiz-adv-x="498" 
d="M522 633l-22.999 -156.001l-48 6c0 104.667 -31.333 157 -94 157c-68.667 0 -122.334 -70.333 -161.001 -211h172l-21 -48h-164c-4 -16 -9.33301 -40.333 -16 -73h147l-21 -47h-134c-4 -27.333 -6 -52 -6 -74c0 -37.333 7 -67.666 21 -90.999
c17.333 -28.667 43.333 -43 78 -43c38.667 0 72.334 22.667 101.001 68c16 25.333 33 65 51 119l55 -10l-54 -188c-51.333 -35.333 -104.333 -53 -159 -53c-74 0 -129.333 28 -166 84c-31.333 47.333 -47 110 -47 188h-74l21 47h56c2 16.667 6 41 12 73h-66l21 48h59
c27.333 74.667 63.333 135.667 108 183c55.333 58.667 117.666 88 186.999 88c62.667 0 117.667 -22.333 165 -67z" />
    <glyph glyph-name="exclamdown" unicode="&#xa1;" horiz-adv-x="315" 
d="M146 307h24c5.33301 -26 24 -118 56 -276c13.333 -65.333 20 -108.333 20 -129c0 -26 -8.16699 -47.833 -24.5 -65.5s-37.5 -26.5 -63.5 -26.5s-47.167 8.83301 -63.5 26.5s-24.5 39.5 -24.5 65.5c0 20.667 6.66699 63.667 20 129zM158 374
c-22.667 0 -41.667 7.66699 -57 23s-23 34.333 -23 57s7.66699 41.667 23 57s34.333 23 57 23s41.667 -7.66699 57 -23s23 -34.333 23 -57s-7.66699 -41.667 -23 -57s-34.333 -23 -57 -23z" />
    <glyph glyph-name="cent" unicode="&#xa2;" horiz-adv-x="611" 
d="M290 110l0.000976562 482.997h-1c-30.667 0 -50.334 -36 -59.001 -108c-3.33301 -27.333 -5 -73.666 -5 -138.999c0 -71.333 1.33301 -115.666 4 -132.999c8.66699 -55.333 29 -89.666 61 -102.999zM328.001 707.997l-0.000976562 -94
c53.333 -3.33301 96 -14.333 128 -33v-175h-30c-43.333 115.333 -76 174.666 -98 177.999v-477c76.667 6 120.334 63.333 131.001 172h22c-1.33301 -50.667 -14.333 -94.334 -39 -131.001c-28 -40.667 -66 -63.667 -114 -69v-105h-38v101
c-76 2.66699 -136.167 29.334 -180.5 80.001s-66.5 114.334 -66.5 191.001c0 74 23 136.667 69 188s105.333 78.333 178 81v93h38z" />
    <glyph glyph-name="sterling" unicode="&#xa3;" horiz-adv-x="611" 
d="M148 330l-94.999 -0.00195312v22h85c-34.667 64.667 -52 118.334 -52 161.001c0 61.333 28.333 110.333 85 147c49.333 32 106.666 48 171.999 48c62.667 0 125.667 -13.667 189 -41v-208h-30c-30 76 -48.667 120.667 -56 134c-31.333 56.667 -66 85 -104 85
c-70.667 0 -106 -34.333 -106 -103c0 -29.333 11.667 -67 35 -113c26 -51.333 40.667 -88 44 -110h171v-22h-170c-6.66699 -60.667 -48 -120 -124 -178v-2h344v86h22v-236h-464v122c56 8 84 40.667 84 98c0 30.667 -10 67.334 -30 110.001z" />
    <glyph glyph-name="currency" unicode="&#xa4;" horiz-adv-x="611" 
d="M510 613l60 -60l-58 -57c32 -35.333 48 -85.333 48 -150s-16 -114.667 -48 -150l58 -57l-60 -60l-59 58c-36.667 -31.333 -83.334 -47 -140.001 -47c-65.333 0 -117.333 16.667 -156 50l-58 -59l-56 56l59 60c-33.333 33.333 -50 83 -50 149s16.667 115.667 50 149
l-59 60l56 56l58 -59c38.667 33.333 90.667 50 156 50c56.667 0 103.334 -15.667 140.001 -47zM305 504c-43.333 0 -79.666 -15.5 -108.999 -46.5s-44 -68.167 -44 -111.5s14.667 -80.5 44 -111.5s65.666 -46.5 108.999 -46.5s79.666 15.5 108.999 46.5s44 68.167 44 111.5
s-14.667 80.5 -44 111.5s-65.666 46.5 -108.999 46.5z" />
    <glyph glyph-name="yen" unicode="&#xa5;" horiz-adv-x="611" 
d="M420 398h117v-22h-128l-18 -35v-51h146v-22h-146v-246h53v-22h-273v22h50v246h-146v22h146v19l-32 67h-114v22h103l-130 272h-54v22h309v-22h-72l143 -308l152 308h-95v22h168v-22h-42z" />
    <glyph glyph-name="brokenbar" unicode="&#xa6;" horiz-adv-x="222" 
d="M59 0v259h104v-259h-104zM59 433v259h104v-259h-104z" />
    <glyph glyph-name="section" unicode="&#xa7;" horiz-adv-x="611" 
d="M120 -125v181.002h38c22.667 -79.333 40.667 -130.666 54 -153.999c20.667 -36 50.334 -54 89.001 -54c32 0 58.333 6.33301 79 19c24.667 14.667 37 37 37 67c0 22.667 -11 42 -33 58c-16 12 -75.667 47 -179 105c-46 26 -79.333 49 -100 69
c-31.333 32 -47 67.667 -47 107c0 72 33.333 123.333 100 154c-23.333 29.333 -35 63.666 -35 102.999c0 52.667 20 96 60 130c38 32 83.667 48 137 48s104.666 -12.333 153.999 -37v-176h-30c-28 86.667 -47.667 138.667 -59 156c-15.333 23.333 -39.333 35 -72 35
c-29.333 0 -54.333 -7 -75 -21c-23.333 -16.667 -35 -39 -35 -67c0 -21.333 11.333 -40.333 34 -57c17.333 -12.667 72.333 -46.334 165 -101.001c59.333 -35.333 98.666 -63 117.999 -83c21.333 -22.667 32 -50.667 32 -84c0 -54.667 -29 -106.334 -87 -155.001
c28 -27.333 42 -61.333 42 -102c0 -56.667 -20.667 -102.5 -62 -137.5s-90.666 -52.5 -147.999 -52.5c-54 0 -113 16.333 -177 49zM446 132.002c21.333 21.333 32.001 38.999 32.001 52.999c0 22.667 -35.333 53.667 -106 93c-96 53.333 -162 96.333 -198 129
c-10 -3.33301 -19.5 -9.66602 -28.5 -18.999s-13.5 -19 -13.5 -29c0 -20 10 -37.667 30 -53c13.333 -10 46.666 -30.333 99.999 -61c70 -40 131.333 -77.667 184 -113z" />
    <glyph glyph-name="dieresis" unicode="&#xa8;" horiz-adv-x="296" 
d="M-24 656c0 19.333 6.83301 35.833 20.5 49.5s30.167 20.5 49.5 20.5s35.833 -6.83301 49.5 -20.5s20.5 -30.167 20.5 -49.5s-6.83301 -35.833 -20.5 -49.5s-30.167 -20.5 -49.5 -20.5s-35.833 6.83301 -49.5 20.5s-20.5 30.167 -20.5 49.5zM180 656
c0 19.333 6.83301 35.833 20.5 49.5s30.167 20.5 49.5 20.5s35.833 -6.83301 49.5 -20.5s20.5 -30.167 20.5 -49.5s-6.83301 -35.833 -20.5 -49.5s-30.167 -20.5 -49.5 -20.5s-35.833 6.83301 -49.5 20.5s-20.5 30.167 -20.5 49.5z" />
    <glyph glyph-name="copyright" unicode="&#xa9;" horiz-adv-x="800" 
d="M400 -16c-102.667 0 -187.334 34.333 -254.001 103s-100 154.667 -100 258s33.333 189.666 100 258.999s151.334 104 254.001 104s187.334 -34.667 254.001 -104s100 -155.666 100 -258.999s-33.333 -189.333 -100 -258s-151.334 -103 -254.001 -103zM400 640
c-78.667 0 -142.335 -30 -191.002 -90c-46 -56 -69 -124.333 -69 -205s23 -148.667 69 -204c48.667 -59.333 112.334 -89 191.001 -89s142.334 29.667 191.001 89c46 55.333 69 123.333 69 204s-22.667 149 -68 205c-49.333 60 -113.333 90 -192 90zM548.999 270h22.999
l-15 -78c-1.33301 -8.66699 -11.333 -16 -30 -22c-39.333 -13.333 -75.333 -20 -108 -20c-69.333 0 -123.666 17.667 -162.999 53s-59 87 -59 155c0 65.333 22.333 116 67 152c41.333 33.333 96 50 164 50c30 0 65 -6.33301 105 -19c14.667 -4.66699 22 -12 22 -22v-73h-22
c-18.667 54.667 -53 82 -103 82c-68.667 0 -103.667 -55 -105 -165c-1.33301 -120.667 33 -181 103 -181c54 0 94.333 29.333 121 88z" />
    <glyph glyph-name="ordfeminine" unicode="&#xaa;" horiz-adv-x="334" 
d="M77 591l-26.001 0.00195312v95c35.333 14.667 74 22 116 22c44.667 0 77 -5.33301 97 -16c28.667 -14.667 43 -41.667 43 -81v-199h31v-18h-126v39h-2c-16 -32.667 -45.333 -49 -88 -49c-28.667 0 -53.667 7 -75 21c-24 16 -36 37.667 -36 65c0 31.333 14.333 55 43 71
c16.667 9.33301 45.334 18.666 86.001 27.999c34.667 8 55 16 61 24v47c0 33.333 -14 50 -42 50c-20 0 -37.667 -12.333 -53 -37c-4 -6.66699 -13.667 -27.334 -29 -62.001zM200.999 475.002l0.000976562 94c-18.667 -8.66699 -37.334 -17.667 -56.001 -27
c-10.667 -8.66699 -16 -34.667 -16 -78c0 -36 10.667 -54 32 -54c26.667 0 40 21.667 40 65z" />
    <glyph glyph-name="guillemotleft" unicode="&#xab;" horiz-adv-x="463" 
d="M229 100c-5.33301 0 -19.666 11.335 -42.999 34.002c-48.667 46.667 -92 86.667 -130 120c38 33.333 81.333 73.333 130 120c23.333 22.667 37.666 34 42.999 34c7.33301 0 11 -4.66699 11 -14c0 -12.667 -25.667 -59.334 -77 -140.001
c51.333 -80.667 77 -127.334 77 -140.001c0 -9.33301 -3.66699 -14 -11 -14zM396 100.002c-5.33301 0 -19.666 11.335 -42.999 34.002c-48.667 46.667 -92 86.667 -130 120c38 33.333 81.333 73.333 130 120c23.333 22.667 37.666 34 42.999 34
c7.33301 0 11 -4.66699 11 -14c0 -12.667 -25.667 -59.334 -77 -140.001c51.333 -80.667 77 -127.334 77 -140.001c0 -9.33301 -3.66699 -14 -11 -14z" />
    <glyph glyph-name="logicalnot" unicode="&#xac;" horiz-adv-x="600" 
d="M450 98v208h-404v104h508v-312h-104z" />
    <glyph glyph-name="sfthyphen" unicode="&#xad;" horiz-adv-x="338" 
d="M8 174l33 122h246l-33 -122h-246z" />
    <glyph glyph-name="registered" unicode="&#xae;" horiz-adv-x="800" 
d="M228 527l-0.000976562 21h210c34 0 61.167 -8.66699 81.5 -26s30.5 -42.666 30.5 -75.999c0 -24 -7.16699 -45.333 -21.5 -64s-33.166 -31.667 -56.499 -39l58 -85c20.667 -30.667 41 -58.334 61 -83.001v-14h-96c-12 0 -28 20 -48 60l-55 109h-24v-107
c0 -16 1.66699 -26 5 -30c5.33301 -6 18 -9.33301 38 -10v-22h-183v22c20.667 0.666992 33.667 4 39 10c3.33301 4 5 14 5 30v264c0 16.667 -1.66699 27 -5 31c-5.33301 5.33301 -18.333 8.33301 -39 9zM367.999 522v-166h26c34.667 0 52 28.667 52 86
c0 53.333 -16 80 -48 80h-30zM399.999 -16c-102.667 0 -187.334 34.333 -254.001 103s-100 154.667 -100 258s33.333 189.666 100 258.999s151.334 104 254.001 104s187.334 -34.667 254.001 -104s100 -155.666 100 -258.999s-33.333 -189.333 -100 -258
s-151.334 -103 -254.001 -103zM399.999 640c-78.667 0 -142.335 -30 -191.002 -90c-46 -56 -69 -124.333 -69 -205s23 -148.667 69 -204c48.667 -59.333 112.334 -89 191.001 -89s142.334 29.667 191.001 89c46 55.333 69 123.333 69 204s-22.667 149 -68 205
c-49.333 60 -113.333 90 -192 90z" />
    <glyph glyph-name="macron" unicode="&#xaf;" horiz-adv-x="296" 
d="M308 692v-76h-320v76h320z" />
    <glyph glyph-name="macron" unicode="&#x2c9;" horiz-adv-x="296" 
d="M308 692v-76h-320v76h320z" />
    <glyph glyph-name="degree" unicode="&#xb0;" horiz-adv-x="400" 
d="M200 650c-23.333 0 -42.833 -8.33301 -58.5 -25s-23.5 -36.667 -23.5 -60s7.83301 -43.333 23.5 -60s35.167 -25 58.5 -25s42.833 8.33301 58.5 25s23.5 36.667 23.5 60s-7.83301 43.333 -23.5 60s-35.167 25 -58.5 25zM200 708c40 0 74 -13.833 102 -41.5
s42 -61.5 42 -101.5s-14 -73.833 -42 -101.5s-62 -41.5 -102 -41.5s-74 13.833 -102 41.5s-42 61.5 -42 101.5s14 73.833 42 101.5s62 41.5 102 41.5z" />
    <glyph glyph-name="plusminus" unicode="&#xb1;" horiz-adv-x="600" 
d="M248 373v135h104v-135h202v-104h-202v-134h-104v134h-202v104h202zM46 0v104h508v-104h-508z" />
    <glyph glyph-name="twosuperior" unicode="&#xb2;" horiz-adv-x="366" 
d="M327 284h-303v86c55.333 34.667 96.333 66.667 123 96c38 42 57 87.333 57 136c0 56 -18 84 -54 84c-24 0 -44.333 -17 -61 -51l-30 -78h-26v124c38.667 18 80 27 124 27c46 0 84.333 -8 115 -24c40 -21.333 60 -52.666 60 -93.999c0 -56 -46.333 -107.667 -139 -155
c-26 -12.667 -65 -32.334 -117 -59.001v-2h229v45h22v-135z" />
    <glyph glyph-name="threesuperior" unicode="&#xb3;" horiz-adv-x="366" 
d="M19 304l-0.00195312 133h26l48 -111c11.333 -20 29.333 -30 54 -30c43.333 0 65 33.333 65 100c0 35.333 -6.66699 60.5 -20 75.5s-37.333 22.5 -72 22.5v22c32 0 53.667 6 65 18s17 34 17 66c0 20.667 -3.33301 39 -10 55c-9.33301 20.667 -23 31 -41 31
c-26 0 -48 -16.667 -66 -50c-11.333 -26.667 -22.666 -53.667 -33.999 -81h-22v125c43.333 18.667 86.666 28 129.999 28c40.667 0 76 -7 106 -21c39.333 -18 59 -45 59 -81c0 -55.333 -36 -89 -108 -101v-2c32.667 -3.33301 60.334 -13.333 83.001 -30
c27.333 -19.333 41 -44.333 41 -75c0 -41.333 -22.667 -73.333 -68 -96c-36.667 -18.667 -77.667 -28 -123 -28s-88.666 10 -129.999 30z" />
    <glyph glyph-name="acute" unicode="&#xb4;" horiz-adv-x="296" 
d="M124 578l-59.999 0.000976562l113 141c14 17.333 24.333 28.666 31 33.999c12.667 10 27 15 43 15c14.667 0 27.5 -4.5 38.5 -13.5s16.5 -20.833 16.5 -35.5c0 -21.333 -12 -39.333 -36 -54c-32.667 -19.333 -81.334 -48.333 -146.001 -87z" />
    <glyph glyph-name="mu" unicode="&#xb5;" 
d="M70 -152v638h-48v22h208v-407c0 -46 13.667 -69 41 -69c48.667 0 73 52 73 156v298h-30v22h190v-486h48v-22h-199v77h-2c-20 -52 -60.333 -83 -121 -93v-158h-208v22h48z" />
    <glyph glyph-name="mu" unicode="&#x3bc;" 
d="M70 -152v638h-48v22h208v-407c0 -46 13.667 -69 41 -69c48.667 0 73 52 73 156v298h-30v22h190v-486h48v-22h-199v77h-2c-20 -52 -60.333 -83 -121 -93v-158h-208v22h48z" />
    <glyph glyph-name="paragraph" unicode="&#xb6;" horiz-adv-x="620" 
d="M237 -174l-0.000976562 455.001c-58 0 -102.333 21.667 -133 65c-26.667 38 -40 87.333 -40 148c0 71.333 17 122.666 51 153.999c32.667 29.333 85.334 44 158.001 44h291v-22h-76v-844h-96v844h-59v-844h-96z" />
    <glyph glyph-name="ch270" unicode="&#xb7;" horiz-adv-x="249" 
d="M38 348c0 22.667 7.66699 41.667 23 57s34.333 23 57 23s41.834 -7.66699 57.501 -23s23.5 -34.333 23.5 -57s-7.83301 -41.834 -23.5 -57.501s-34.834 -23.5 -57.501 -23.5s-41.667 7.83301 -57 23.5s-23 34.834 -23 57.501z" />
    <glyph glyph-name="ch270" unicode="&#x2219;" horiz-adv-x="249" 
d="M38 348c0 22.667 7.66699 41.667 23 57s34.333 23 57 23s41.834 -7.66699 57.501 -23s23.5 -34.333 23.5 -57s-7.83301 -41.834 -23.5 -57.501s-34.834 -23.5 -57.501 -23.5s-41.667 7.83301 -57 23.5s-23 34.834 -23 57.501z" />
    <glyph glyph-name="cedilla" unicode="&#xb8;" horiz-adv-x="296" 
d="M118 -5h44l-30 -63l40 4c23.333 0 43.333 -6.66699 60 -20s25 -31.333 25 -54c0 -32.667 -16 -56.667 -48 -72c-24 -11.333 -54.333 -17 -91 -17c-34 0 -65.333 6.66699 -94 20l15 37c20.667 -8.66699 41 -13 61 -13c36.667 0 55 13 55 39c0 24 -15.333 36 -46 36
c-6.66699 0 -12.667 -1.66699 -18 -5l-19 9z" />
    <glyph glyph-name="onesuperior" unicode="&#xb9;" horiz-adv-x="366" 
d="M247 708v-402h37v-22h-196v22h41v311c-12 -8.66699 -34.333 -21.667 -67 -39l-7 17c45.333 23.333 91 61 137 113h55z" />
    <glyph glyph-name="ordmasculine" unicode="&#xba;" horiz-adv-x="344" 
d="M335 546c0 -48 -15 -87.002 -45 -117.002s-69 -45 -117 -45c-48.667 0 -88.167 14.833 -118.5 44.5s-45.5 68.834 -45.5 117.501s15 87.834 45 117.501s69.667 44.5 119 44.5c48 0 87 -15 117 -45s45 -69 45 -117zM217 545.998c0 51.333 -0.333008 79.6699 -1 85.0029
c-4.66699 39.333 -19 59 -43 59c-24.667 0 -39.667 -19.333 -45 -58c-0.666992 -4.66699 -1 -33.334 -1 -86.001s0.333008 -81.334 1 -86.001c5.33301 -38.667 20.333 -58 45 -58c24 0 38.333 19.667 43 59c0.666992 5.33301 1 33.666 1 84.999z" />
    <glyph glyph-name="guillemotright" unicode="&#xbb;" horiz-adv-x="463" 
d="M67 408c5.33301 0 19.666 -11.335 42.999 -34.002c48.667 -46.667 92 -86.667 130 -120c-38 -33.333 -81.333 -73.333 -130 -120c-23.333 -22.667 -37.666 -34 -42.999 -34c-7.33301 0 -11 4.66699 -11 14c0 12.667 25.667 59.334 77 140.001
c-51.333 80.667 -77 127.334 -77 140.001c0 9.33301 3.66699 14 11 14zM234 407.998c5.33301 0 19.666 -11.335 42.999 -34.002c48.667 -46.667 92 -86.667 130 -120c-38 -33.333 -81.333 -73.333 -130 -120c-23.333 -22.667 -37.666 -34 -42.999 -34
c-7.33301 0 -11 4.66699 -11 14c0 12.667 25.667 59.334 77 140.001c-51.333 80.667 -77 127.334 -77 140.001c0 9.33301 3.66699 14 11 14z" />
    <glyph glyph-name="onequarter" unicode="&#xbc;" horiz-adv-x="916" 
d="M756 420h64v-268h66v-42h-66v-88h37v-22h-214v22h59v88h-165v38c69.333 101.333 142.333 192 219 272zM702 152v168c-26 -29.333 -69 -85.333 -129 -168h129zM215 708v-402h37v-22h-196v22h41v311c-12 -8.66699 -34.333 -21.667 -67 -39l-7 17
c45.333 23.333 91 61 137 113h55zM291 -16h-98l403 724h98z" />
    <glyph glyph-name="onehalf" unicode="&#xbd;" horiz-adv-x="916" 
d="M215 708v-402h37v-22h-196v22h41v311c-12 -8.66699 -34.333 -21.667 -67 -39l-7 17c45.333 23.333 91 61 137 113h55zM867 0h-303v86c55.333 34.667 96.333 66.667 123 96c38 42 57 87.333 57 136c0 56 -18 84 -54 84c-24 0 -44.333 -17 -61 -51l-30 -78h-26v124
c38.667 18 80 27 124 27c46 0 84.333 -8 115 -24c40 -21.333 60 -52.666 60 -93.999c0 -56 -46.333 -107.667 -139 -155c-26 -12.667 -65 -32.334 -117 -59.001v-2h229v45h22v-135zM275 -16h-98l403 724h98z" />
    <glyph glyph-name="threequarters" unicode="&#xbe;" horiz-adv-x="916" 
d="M776 420h64v-268h66v-42h-66v-88h37v-22h-214v22h59v88h-165v38c69.333 101.333 142.333 192 219 272zM722 152v168c-26 -29.333 -69 -85.333 -129 -168h129zM347 -16h-98l403 724h98zM39 304l-0.00195312 133h26l48 -111c11.333 -20 29.333 -30 54 -30
c43.333 0 65 33.333 65 100c0 35.333 -6.66699 60.5 -20 75.5s-37.333 22.5 -72 22.5v22c32 0 53.667 6 65 18s17 34 17 66c0 20.667 -3.33301 39 -10 55c-9.33301 20.667 -23 31 -41 31c-26 0 -48 -16.667 -66 -50c-11.333 -26.667 -22.666 -53.667 -33.999 -81h-22v125
c43.333 18.667 86.666 28 129.999 28c40.667 0 76 -7 106 -21c39.333 -18 59 -45 59 -81c0 -55.333 -36 -89 -108 -101v-2c32.667 -3.33301 60.334 -13.333 83.001 -30c27.333 -19.333 41 -44.333 41 -75c0 -41.333 -22.667 -73.333 -68 -96
c-36.667 -18.667 -77.667 -28 -123 -28s-88.666 10 -129.999 30z" />
    <glyph glyph-name="questiondown" unicode="&#xbf;" horiz-adv-x="500" 
d="M406 51l29.999 -0.000976562v-204c-67.333 -24.667 -127.666 -37 -180.999 -37c-61.333 0 -112.333 11.333 -153 34c-50 28 -75 70.333 -75 127c0 51.333 20.333 94.333 61 129c4.66699 4 43 28.333 115 73c40.667 25.333 61 52 61 80v52h22v-74
c0 -25.333 -7.66699 -49.666 -23 -72.999c-22.667 -34 -36.334 -56.333 -41.001 -67c-15.333 -34.667 -23 -77.667 -23 -129c0 -86.667 24.333 -130 73 -130c29.333 0 55.333 21.333 78 64c14.667 27.333 33.334 79 56.001 155zM277.999 373.999
c-22.667 0 -41.667 7.66699 -57 23s-23 34.333 -23 57s7.66699 41.667 23 57s34.333 23 57 23s41.667 -7.66699 57 -23s23 -34.333 23 -57s-7.66699 -41.667 -23 -57s-34.333 -23 -57 -23z" />
    <glyph glyph-name="Agrave" unicode="&#xc0;" horiz-adv-x="630" 
d="M250 571l-92 -273h178l-84 273h-2zM147 0h-164v22h50l238 678h113l220 -678h43v-22h-310v22h83l-77 254h-193l-89 -254h86v-22zM346 780h-53.999c-60.667 36 -104.334 62.333 -131.001 79c-22 14 -33 30 -33 48c0 13.333 5 24 15 32s21.667 12 35 12
c20.667 0 42.667 -14.667 66 -44z" />
    <glyph glyph-name="Aacute" unicode="&#xc1;" horiz-adv-x="630" 
d="M250 571l-92 -273h178l-84 273h-2zM147 0h-164v22h50l238 678h113l220 -678h43v-22h-310v22h83l-77 254h-193l-89 -254h86v-22zM343 779h-53.999l102 127c23.333 29.333 45.333 44 66 44c13.333 0 25 -4.16699 35 -12.5s15 -18.833 15 -31.5c0 -18 -11 -34 -33 -48
c-26.667 -16.667 -70.334 -43 -131.001 -79z" />
    <glyph glyph-name="Acircumflex" unicode="&#xc2;" horiz-adv-x="630" 
d="M250 571l-92 -273h178l-84 273h-2zM147 0h-164v22h50l238 678h113l220 -678h43v-22h-310v22h83l-77 254h-193l-89 -254h86v-22zM276 883h84l96 -144h-55l-83 78l-83 -78h-55z" />
    <glyph glyph-name="Atilde" unicode="&#xc3;" horiz-adv-x="630" 
d="M250 571l-92 -273h178l-84 273h-2zM147 0h-164v22h50l238 678h113l220 -678h43v-22h-310v22h83l-77 254h-193l-89 -254h86v-22zM432 893h38.001c-4.66699 -30.667 -14.334 -56 -29.001 -76c-18 -25.333 -41 -38 -69 -38c-14 0 -36.167 8 -66.5 24s-49.833 24 -58.5 24
c-19.333 0 -33.333 -14.667 -42 -44h-37c14.667 76 46.667 114 96 114c11.333 0 33.5 -8 66.5 -24s53.5 -24 61.5 -24c16.667 0 30 14.667 40 44z" />
    <glyph glyph-name="Adieresis" unicode="&#xc4;" horiz-adv-x="630" 
d="M250 571l-92 -273h178l-84 273h-2zM147 0h-164v22h50l238 678h113l220 -678h43v-22h-310v22h83l-77 254h-193l-89 -254h86v-22zM143 815c0 19.333 6.83301 35.833 20.5 49.5s30.167 20.5 49.5 20.5s35.833 -6.83301 49.5 -20.5s20.5 -30.167 20.5 -49.5
s-6.83301 -35.833 -20.5 -49.5s-30.167 -20.5 -49.5 -20.5s-35.833 6.83301 -49.5 20.5s-20.5 30.167 -20.5 49.5zM347 815c0 19.333 6.83301 35.833 20.5 49.5s30.167 20.5 49.5 20.5s35.833 -6.83301 49.5 -20.5s20.5 -30.167 20.5 -49.5s-6.83301 -35.833 -20.5 -49.5
s-30.167 -20.5 -49.5 -20.5s-35.833 6.83301 -49.5 20.5s-20.5 30.167 -20.5 49.5z" />
    <glyph glyph-name="Aring" unicode="&#xc5;" horiz-adv-x="630" 
d="M250 571l-92 -273h178l-84 273h-2zM147 0h-164v22h50l238 678h113l220 -678h43v-22h-310v22h83l-77 254h-193l-89 -254h86v-22zM315 899c-15.333 0 -28.166 -5.16895 -38.499 -15.502s-15.5 -23.166 -15.5 -38.499s5.16699 -28 15.5 -38s23.166 -15 38.499 -15
c14.667 0 27.167 5.16699 37.5 15.5s15.5 22.833 15.5 37.5s-5.16699 27.334 -15.5 38.001s-22.833 16 -37.5 16zM315 737.998c-30 0 -55.5 10.332 -76.5 30.999s-31.5 46 -31.5 76s10.5 55.5 31.5 76.5s46.5 31.5 76.5 31.5c29.333 0 54.5 -10.667 75.5 -32
s31.5 -46.666 31.5 -75.999c0 -30 -10.333 -55.333 -31 -76s-46 -31 -76 -31z" />
    <glyph glyph-name="AE" unicode="&#xc6;" horiz-adv-x="907" 
d="M359 660l-192 -372h194v372h-2zM289 692h562.001v-220h-34c-24.667 84.667 -43.334 138 -56.001 160c-14 25.333 -35 38 -63 38h-155v-298h56c31.333 0 54.333 16 69 48c3.33301 8.66699 11.333 38.667 24 90h22v-298h-22c-12.667 51.333 -20.667 81.333 -24 90
c-14.667 32 -37.667 48 -69 48h-56v-328h154c28 0 50.667 19.333 68 58c12.667 28 30 87.333 52 178h34v-258h-542v22h52v244h-205l-128 -244h91v-22h-160v22h45l337 648h-52v22z" />
    <glyph glyph-name="Ccedilla" unicode="&#xc7;" horiz-adv-x="630" 
d="M574 674l-0.000976562 -202.998h-34c-42.667 102.667 -66.334 157.667 -71.001 165c-20 33.333 -50 50 -90 50c-64.667 0 -105.334 -44.333 -122.001 -133c-6 -30.667 -9 -99.667 -9 -207s3 -176.333 9 -207c16.667 -88.667 57.334 -133 122.001 -133
c36.667 0 65.334 9 86.001 27c17.333 15.333 32.333 41.666 45 78.999c10 30 24.667 75.333 44 136h34v-216c-68 -30.667 -136.667 -46.334 -206 -47.001l-25 -53l40 4c23.333 0 43.333 -6.66699 60 -20s25 -31.333 25 -54c0 -32.667 -16 -56.667 -48 -72
c-24 -11.333 -54.333 -17 -91 -17c-34 0 -65.333 6.66699 -94 20l15 37c20.667 -8.66699 41 -13 61 -13c36.667 0 55 13 55 39c0 24 -15.333 36 -46 36c-6.66699 0 -12.667 -1.66699 -18 -5l-19 9l42 90c-93.333 8 -167 47 -221 117c-50.667 65.333 -76 146.333 -76 243
c0 104 28.667 189.333 86 256c60.667 70.667 142.334 106 245.001 106c52 0 119 -11.333 201 -34z" />
    <glyph glyph-name="Egrave" unicode="&#xc8;" horiz-adv-x="630" 
d="M84 22v648.001h-47v22h537v-220h-34c-24.667 83.333 -43.667 137.166 -57 161.499s-34 36.5 -62 36.5h-155v-298h56c32 0 55 16 69 48c2.66699 6 10.667 36 24 90h22v-298h-22c-13.333 54 -21.333 84 -24 90c-14 32 -37 48 -69 48h-56v-328h154c28 0 50.667 19.333 68 58
c12.667 28 30 87.333 52 178h34v-258h-542v22h52zM331 779.001h-53.999c-60.667 36 -104.334 62.333 -131.001 79c-22 14 -33 30 -33 48c0 13.333 5 24 15 32s21.667 12 35 12c20.667 0 42.667 -14.667 66 -44z" />
    <glyph glyph-name="Eacute" unicode="&#xc9;" horiz-adv-x="630" 
d="M84 22v648.001h-47v22h537v-220h-34c-24.667 83.333 -43.667 137.166 -57 161.499s-34 36.5 -62 36.5h-155v-298h56c32 0 55 16 69 48c2.66699 6 10.667 36 24 90h22v-298h-22c-13.333 54 -21.333 84 -24 90c-14 32 -37 48 -69 48h-56v-328h154c28 0 50.667 19.333 68 58
c12.667 28 30 87.333 52 178h34v-258h-542v22h52zM330 780.001h-53.999l102 127c23.333 29.333 45.333 44 66 44c13.333 0 25 -4.16699 35 -12.5s15 -18.833 15 -31.5c0 -18 -11 -34 -33 -48c-26.667 -16.667 -70.334 -43 -131.001 -79z" />
    <glyph glyph-name="Ecircumflex" unicode="&#xca;" horiz-adv-x="630" 
d="M84 22v648.001h-47v22h537v-220h-34c-24.667 83.333 -43.667 137.166 -57 161.499s-34 36.5 -62 36.5h-155v-298h56c32 0 55 16 69 48c2.66699 6 10.667 36 24 90h22v-298h-22c-13.333 54 -21.333 84 -24 90c-14 32 -37 48 -69 48h-56v-328h154c28 0 50.667 19.333 68 58
c12.667 28 30 87.333 52 178h34v-258h-542v22h52zM262 894.001h84l96 -144h-55l-83 78l-83 -78h-55z" />
    <glyph glyph-name="Edieresis" unicode="&#xcb;" horiz-adv-x="630" 
d="M84 22l0.000976562 648h-47v22h537v-220h-34c-24.667 84.667 -43.334 138 -56.001 160c-14 25.333 -35 38 -63 38h-155v-298h56c31.333 0 54.333 16 69 48c3.33301 8.66699 11.333 38.667 24 90h22v-298h-22c-12.667 51.333 -20.667 81.333 -24 90
c-14.667 32 -37.667 48 -69 48h-56v-328h154c28 0 50.667 19.333 68 58c12.667 28 30 87.333 52 178h34v-258h-542v22h52zM155.001 815c0 19.333 6.83301 35.833 20.5 49.5s30.167 20.5 49.5 20.5s35.833 -6.83301 49.5 -20.5s20.5 -30.167 20.5 -49.5
s-6.83301 -35.833 -20.5 -49.5s-30.167 -20.5 -49.5 -20.5s-35.833 6.83301 -49.5 20.5s-20.5 30.167 -20.5 49.5zM359.001 815c0 19.333 6.83301 35.833 20.5 49.5s30.167 20.5 49.5 20.5s35.833 -6.83301 49.5 -20.5s20.5 -30.167 20.5 -49.5
s-6.83301 -35.833 -20.5 -49.5s-30.167 -20.5 -49.5 -20.5s-35.833 6.83301 -49.5 20.5s-20.5 30.167 -20.5 49.5z" />
    <glyph glyph-name="Igrave" unicode="&#xcc;" horiz-adv-x="370" 
d="M328 22v-22h-286v22h52v648h-52v22h286v-22h-52v-648h52zM211 780h-53.999c-60.667 36 -104.334 62.333 -131.001 79c-22 14 -33 30 -33 48c0 13.333 5 24 15 32s21.667 12 35 12c20.667 0 42.667 -14.667 66 -44z" />
    <glyph glyph-name="Iacute" unicode="&#xcd;" horiz-adv-x="370" 
d="M328 22v-22h-286v22h52v648h-52v22h286v-22h-52v-648h52zM207 779h-53.999l102 127c23.333 29.333 45.333 44 66 44c13.333 0 25 -4.16699 35 -12.5s15 -18.833 15 -31.5c0 -18 -11 -34 -33 -48c-26.667 -16.667 -70.334 -43 -131.001 -79z" />
    <glyph glyph-name="Icircumflex" unicode="&#xce;" horiz-adv-x="370" 
d="M328 22v-22h-286v22h52v648h-52v22h286v-22h-52v-648h52zM132 917h106l119 -180h-68l-104 97l-104 -97h-68z" />
    <glyph glyph-name="Idieresis" unicode="&#xcf;" horiz-adv-x="370" 
d="M328 22v-22h-286v22h52v648h-52v22h286v-22h-52v-648h52zM13 815c0 19.333 6.83301 35.833 20.5 49.5s30.167 20.5 49.5 20.5s35.833 -6.83301 49.5 -20.5s20.5 -30.167 20.5 -49.5s-6.83301 -35.833 -20.5 -49.5s-30.167 -20.5 -49.5 -20.5s-35.833 6.83301 -49.5 20.5
s-20.5 30.167 -20.5 49.5zM217 815c0 19.333 6.83301 35.833 20.5 49.5s30.167 20.5 49.5 20.5s35.833 -6.83301 49.5 -20.5s20.5 -30.167 20.5 -49.5s-6.83301 -35.833 -20.5 -49.5s-30.167 -20.5 -49.5 -20.5s-35.833 6.83301 -49.5 20.5s-20.5 30.167 -20.5 49.5z" />
    <glyph glyph-name="Eth" unicode="&#xd0;" horiz-adv-x="722" 
d="M266 350v-328h27c84.667 0 139 35.333 163 106c12 35.333 18 108 18 218c0 84.667 -0.666992 134 -2 148c-4 54.667 -17 96 -39 124c-27.333 34.667 -70 52 -128 52h-39v-298h110v-22h-110zM84 372l-0.000976562 298h-52v22h306c108 0 192 -30.667 252 -92
s90 -146 90 -254c0 -104.667 -32.667 -188.5 -98 -251.5s-150.666 -94.5 -255.999 -94.5h-294v22h52v328h-70v22h70z" />
    <glyph glyph-name="Ntilde" unicode="&#xd1;" horiz-adv-x="648" 
d="M199 22v-22h-172v22h52v648h-52v22h259l253 -474h2v452h-75v22h162v-22h-59v-670h-114l-346 660h-2v-638h92zM463 891h45c-6 -35.333 -17.667 -65 -35 -89c-21.333 -30 -48 -45 -80 -45c-18 0 -44.167 8.66699 -78.5 26s-57.5 26 -69.5 26c-22.667 0 -39 -16 -49 -48h-44
c18 89.333 56 134 114 134c13.333 0 39.333 -8.66699 78 -26s62.667 -26 72 -26c21.333 0 37 16 47 48z" />
    <glyph glyph-name="Ograve" unicode="&#xd2;" horiz-adv-x="722" 
d="M361 708c100.667 0 180 -36 238 -108c54 -66 81 -150.667 81 -254s-27 -188 -81 -254c-58 -72 -137.333 -108 -238 -108c-99.333 0 -178.333 36.333 -237 109c-54.667 66.667 -82 151 -82 253s27.333 186.333 82 253c58.667 72.667 137.667 109 237 109zM474 346
c0 103.333 -2.33301 170.333 -7 201c-14 92.667 -49.333 139 -106 139s-92 -46.333 -106 -139c-4.66699 -30 -7 -97 -7 -201s2.33301 -171 7 -201c14 -92.667 49.333 -139 106 -139s92 46.333 106 139c4.66699 30.667 7 97.667 7 201zM387 780h-53.999
c-60.667 36 -104.334 62.333 -131.001 79c-22 14 -33 30 -33 48c0 13.333 5 24 15 32s21.667 12 35 12c20.667 0 42.667 -14.667 66 -44z" />
    <glyph glyph-name="Oacute" unicode="&#xd3;" horiz-adv-x="722" 
d="M361 708c100.667 0 180 -36 238 -108c54 -66 81 -150.667 81 -254s-27 -188 -81 -254c-58 -72 -137.333 -108 -238 -108c-99.333 0 -178.333 36.333 -237 109c-54.667 66.667 -82 151 -82 253s27.333 186.333 82 253c58.667 72.667 137.667 109 237 109zM474 346
c0 103.333 -2.33301 170.333 -7 201c-14 92.667 -49.333 139 -106 139s-92 -46.333 -106 -139c-4.66699 -30 -7 -97 -7 -201s2.33301 -171 7 -201c14 -92.667 49.333 -139 106 -139s92 46.333 106 139c4.66699 30.667 7 97.667 7 201zM386 780h-53.999l102 127
c23.333 29.333 45.333 44 66 44c13.333 0 25 -4.16699 35 -12.5s15 -18.833 15 -31.5c0 -18 -11 -34 -33 -48c-26.667 -16.667 -70.334 -43 -131.001 -79z" />
    <glyph glyph-name="Ocircumflex" unicode="&#xd4;" horiz-adv-x="722" 
d="M361 708c100.667 0 180 -36 238 -108c54 -66 81 -150.667 81 -254s-27 -188 -81 -254c-58 -72 -137.333 -108 -238 -108c-99.333 0 -178.333 36.333 -237 109c-54.667 66.667 -82 151 -82 253s27.333 186.333 82 253c58.667 72.667 137.667 109 237 109zM474 346
c0 103.333 -2.33301 170.333 -7 201c-14 92.667 -49.333 139 -106 139s-92 -46.333 -106 -139c-4.66699 -30 -7 -97 -7 -201s2.33301 -171 7 -201c14 -92.667 49.333 -139 106 -139s92 46.333 106 139c4.66699 30.667 7 97.667 7 201zM319 894h84l96 -144h-55l-83 78
l-83 -78h-55z" />
    <glyph glyph-name="Otilde" unicode="&#xd5;" horiz-adv-x="722" 
d="M361 708c100.667 0 180 -36 238 -108c54 -66 81 -150.667 81 -254s-27 -188 -81 -254c-58 -72 -137.333 -108 -238 -108c-99.333 0 -178.333 36.333 -237 109c-54.667 66.667 -82 151 -82 253s27.333 186.333 82 253c58.667 72.667 137.667 109 237 109zM474 346
c0 103.333 -2.33301 170.333 -7 201c-14 92.667 -49.333 139 -106 139s-92 -46.333 -106 -139c-4.66699 -30 -7 -97 -7 -201s2.33301 -171 7 -201c14 -92.667 49.333 -139 106 -139s92 46.333 106 139c4.66699 30.667 7 97.667 7 201zM475 894h38.001
c-4.66699 -30.667 -14.334 -56 -29.001 -76c-18 -25.333 -41 -38 -69 -38c-14 0 -36.167 8 -66.5 24s-49.833 24 -58.5 24c-19.333 0 -33.333 -14.667 -42 -44h-37c14.667 76 46.667 114 96 114c11.333 0 33.5 -8 66.5 -24s53.5 -24 61.5 -24c16.667 0 30 14.667 40 44z" />
    <glyph glyph-name="Odieresis" unicode="&#xd6;" horiz-adv-x="722" 
d="M361 708c100 0 179.333 -35.998 238 -107.998c54 -66.667 81 -151.334 81 -254.001s-27 -187.334 -81 -254.001c-58.667 -72 -138 -108 -238 -108c-99.333 0 -178.333 36.333 -237 109c-54.667 66.667 -82 151 -82 253s27.333 186.333 82 253
c58.667 72.667 137.667 109 237 109zM474 346.002c0 105.333 -2.33301 172.333 -7 201c-14 92.667 -49.333 139 -106 139s-92 -46.333 -106 -139c-4.66699 -28.667 -7 -95.667 -7 -201s2.33301 -172.333 7 -201c14 -92.667 49.333 -139 106 -139s92 46.333 106 139
c4.66699 28.667 7 95.667 7 201zM195 815.002c0 19.333 6.83301 35.833 20.5 49.5s30.167 20.5 49.5 20.5s35.833 -6.83301 49.5 -20.5s20.5 -30.167 20.5 -49.5s-6.83301 -35.833 -20.5 -49.5s-30.167 -20.5 -49.5 -20.5s-35.833 6.83301 -49.5 20.5
s-20.5 30.167 -20.5 49.5zM399 815.002c0 19.333 6.83301 35.833 20.5 49.5s30.167 20.5 49.5 20.5s35.833 -6.83301 49.5 -20.5s20.5 -30.167 20.5 -49.5s-6.83301 -35.833 -20.5 -49.5s-30.167 -20.5 -49.5 -20.5s-35.833 6.83301 -49.5 20.5s-20.5 30.167 -20.5 49.5z
" />
    <glyph glyph-name="multiply" unicode="&#xd7;" horiz-adv-x="600" 
d="M226 254l-180 180l74 74l180 -181l180 181l74 -74l-180 -180l180 -180l-74 -74l-180 180l-180 -180l-74 74z" />
    <glyph glyph-name="Oslash" unicode="&#xd8;" horiz-adv-x="722" 
d="M468 515l-207 -397c6.66699 -35.333 16 -61.333 28 -78c16.667 -22.667 40.667 -34 72 -34c56.667 0 92 46.333 106 139c4.66699 28.667 7 95.667 7 201c0 54 -1.33301 110.333 -4 169h-2zM253 194l205 395c-14.667 64.667 -47 97 -97 97
c-56.667 0 -92 -46.333 -106 -139c-4.66699 -28.667 -7 -95.667 -7 -201c0 -61.333 1 -112 3 -152h2zM552 767h47.999l-59 -114c46.667 -32.667 82 -78 106 -136c22 -52 33 -109 33 -171c0 -102.667 -27 -187.334 -81 -254.001c-58.667 -72 -138 -108 -238 -108
c-56.667 0 -107 12.333 -151 37l-50 -96h-48l62 119c-44 33.333 -77.667 78.333 -101 135c-20.667 50.667 -31 106.334 -31 167.001c0 102 27.333 186.333 82 253c58.667 72.667 137.667 109 237 109c52.667 0 100.334 -10.667 143.001 -32z" />
    <glyph glyph-name="Ugrave" unicode="&#xd9;" horiz-adv-x="611" 
d="M21 670v21.999h308v-22h-74v-513c0 -40 8 -72.667 24 -98c18.667 -30 47 -45 85 -45c97.333 0 146 62.667 146 188v468h-74v22h154v-22h-52v-453c0 -82.667 -17.333 -142.167 -52 -178.5s-93 -54.5 -175 -54.5c-77.333 0 -135 14 -173 42
c-43.333 32.667 -65 86.334 -65 161.001v483h-52zM409 769.999h-53.999c-60.667 36 -104.334 62.333 -131.001 79c-22 14 -33 30 -33 48c0 13.333 5 24 15 32s21.667 12 35 12c20.667 0 42.667 -14.667 66 -44z" />
    <glyph glyph-name="Uacute" unicode="&#xda;" horiz-adv-x="611" 
d="M21 670v21.999h308v-22h-74v-513c0 -40 8 -72.667 24 -98c18.667 -30 47 -45 85 -45c97.333 0 146 62.667 146 188v468h-74v22h154v-22h-52v-453c0 -82.667 -17.333 -142.167 -52 -178.5s-93 -54.5 -175 -54.5c-77.333 0 -135 14 -173 42
c-43.333 32.667 -65 86.334 -65 161.001v483h-52zM405 768.999h-53.999l102 127c23.333 29.333 45.333 44 66 44c13.333 0 25 -4.16699 35 -12.5s15 -18.833 15 -31.5c0 -18 -11 -34 -33 -48c-26.667 -16.667 -70.334 -43 -131.001 -79z" />
    <glyph glyph-name="Ucircumflex" unicode="&#xdb;" horiz-adv-x="611" 
d="M21 670l0.000976562 21.999h308v-22h-74v-513c0 -39.333 8 -72 24 -98c19.333 -30 47.666 -45 84.999 -45c97.333 0 146 62.667 146 188v468h-74v22h154v-22h-52v-453c0 -82.667 -17.167 -142.167 -51.5 -178.5s-92.833 -54.5 -175.5 -54.5c-78 0 -135.667 14 -173 42
c-43.333 32.667 -65 86.334 -65 161.001v483h-52zM259.001 916.999h106l119 -180h-68l-104 97l-104 -97h-68z" />
    <glyph glyph-name="Udieresis" unicode="&#xdc;" horiz-adv-x="611" 
d="M21 670l0.000976562 21.999h308v-22h-74v-513c0 -39.333 8 -72 24 -98c19.333 -30 47.666 -45 84.999 -45c97.333 0 146 62.667 146 188v468h-74v22h154v-22h-52v-453c0 -82.667 -17.167 -142.167 -51.5 -178.5s-92.833 -54.5 -175.5 -54.5c-78 0 -135.667 14 -173 42
c-43.333 32.667 -65 86.334 -65 161.001v483h-52zM140.001 814.999c0 19.333 6.83301 35.833 20.5 49.5s30.167 20.5 49.5 20.5s35.833 -6.83301 49.5 -20.5s20.5 -30.167 20.5 -49.5s-6.83301 -35.833 -20.5 -49.5s-30.167 -20.5 -49.5 -20.5s-35.833 6.83301 -49.5 20.5
s-20.5 30.167 -20.5 49.5zM344.001 814.999c0 19.333 6.83301 35.833 20.5 49.5s30.167 20.5 49.5 20.5s35.833 -6.83301 49.5 -20.5s20.5 -30.167 20.5 -49.5s-6.83301 -35.833 -20.5 -49.5s-30.167 -20.5 -49.5 -20.5s-35.833 6.83301 -49.5 20.5s-20.5 30.167 -20.5 49.5
z" />
    <glyph glyph-name="Yacute" unicode="&#xdd;" 
d="M-15 670v22h321v-22h-72l143 -308l152 308h-95v22h168v-22h-42l-166 -329v-319h52v-22h-286v22h52v287l-173 361h-54zM392 769h-53.999l102 127c23.333 29.333 45.333 44 66 44c13.333 0 25 -4.16699 35 -12.5s15 -18.833 15 -31.5c0 -18 -11 -34 -33 -48
c-26.667 -16.667 -70.334 -43 -131.001 -79z" />
    <glyph glyph-name="Thorn" unicode="&#xde;" horiz-adv-x="630" 
d="M32 692h286v-22h-52v-128h95c70.667 0 128.334 -12 173.001 -36c56 -30.667 84 -78.667 84 -144s-28 -113.333 -84 -144c-44.667 -24 -102.334 -36 -173.001 -36h-95v-160h52v-22h-286v22h52v648h-52v22zM266 204h65c62 0 93 52.667 93 158s-31 158 -93 158h-65v-316z
" />
    <glyph glyph-name="germandbls" unicode="&#xdf;" 
d="M80 22v502.003c0 122.667 68.333 184 205 184c54.667 0 100.667 -11 138 -33c46 -26.667 69 -65.334 69 -116.001c0 -73.333 -48.667 -122 -146 -146v-2c57.333 -7.33301 103.333 -29.333 138 -66s52 -83.334 52 -140.001c0 -60 -17.667 -111 -53 -153
c-37.333 -45.333 -85.333 -68 -144 -68c-18 0 -40.667 6 -68 18l9 21c13.333 -6 23.333 -9 30 -9c29.333 0 44 44.333 44 133v117c0 49.333 -5 82.666 -15 99.999c-14 24 -43 36 -87 36v22c31.333 0 52.5 5.83301 63.5 17.5s16.5 33.5 16.5 65.5v101
c0 53.333 -15.333 80 -46 80s-46 -26.667 -46 -80v-606h-208v22h48z" />
    <glyph glyph-name="agrave" unicode="&#xe0;" horiz-adv-x="556" 
d="M133 329l-39.999 0.000976562v158c56.667 24.667 116 37 178 37c69.333 0 120 -9.66699 152 -29c42 -24.667 63 -69.334 63 -134.001v-339h48v-22h-194v72h-2c-24 -58.667 -69.333 -88 -136 -88c-46 0 -85 12 -117 36c-36 26.667 -54 62.334 -54 107.001
c0 52 22 91.667 66 119c23.333 14.667 67.333 30 132 46c53.333 13.333 84.666 26.666 93.999 39.999v87c0 55.333 -21.333 83 -64 83c-30 0 -57.333 -22.333 -82 -67c-5.33301 -10 -20 -45.333 -44 -106zM322.001 131.001l-0.000976562 170.001
c-7.33301 -4.66699 -28.666 -15.334 -63.999 -32.001c-22.667 -10.667 -36.667 -33 -42 -67c-2 -12 -3 -40.333 -3 -85c0 -28 2 -48.333 6 -61c6.66699 -22.667 21 -34 43 -34c40 0 60 36.333 60 109zM306 593.002h-49c-50.667 30 -89.667 53.667 -117 71
c-20 12.667 -30 27 -30 43c0 26.667 15 40 45 40c18 0 37.667 -13.333 59 -40z" />
    <glyph glyph-name="aacute" unicode="&#xe1;" horiz-adv-x="556" 
d="M133 329l-39.999 0.000976562v158c56.667 24.667 116 37 178 37c69.333 0 120 -9.66699 152 -29c42 -24.667 63 -69.334 63 -134.001v-339h48v-22h-194v72h-2c-24 -58.667 -69.333 -88 -136 -88c-46 0 -85 12 -117 36c-36 26.667 -54 62.334 -54 107.001
c0 52 22 91.667 66 119c23.333 14.667 67.333 30 132 46c53.333 13.333 84.666 26.666 93.999 39.999v87c0 55.333 -21.333 83 -64 83c-30 0 -57.333 -22.333 -82 -67c-5.33301 -10 -20 -45.333 -44 -106zM322.001 131.001l-0.000976562 170.001
c-7.33301 -4.66699 -28.666 -15.334 -63.999 -32.001c-22.667 -10.667 -36.667 -33 -42 -67c-2 -12 -3 -40.333 -3 -85c0 -28 2 -48.333 6 -61c6.66699 -22.667 21 -34 43 -34c40 0 60 36.333 60 109zM303 594.002h-48l92 114c21.333 26.667 41 40 59 40
c12 0 22.5 -3.66699 31.5 -11s13.5 -17 13.5 -29c0 -17.333 -21 -39.333 -63 -66c-28 -16 -56.333 -32 -85 -48z" />
    <glyph glyph-name="acircumflex" unicode="&#xe2;" horiz-adv-x="556" 
d="M133 329l-39.999 0.000976562v158c56.667 24.667 116 37 178 37c69.333 0 120 -9.66699 152 -29c42 -24.667 63 -69.334 63 -134.001v-339h48v-22h-194v72h-2c-24 -58.667 -69.333 -88 -136 -88c-46 0 -85 12 -117 36c-36 26.667 -54 62.334 -54 107.001
c0 52 22 91.667 66 119c23.333 14.667 67.333 30 132 46c53.333 13.333 84.666 26.666 93.999 39.999v87c0 55.333 -21.333 83 -64 83c-30 0 -57.333 -22.333 -82 -67c-5.33301 -10 -20 -45.333 -44 -106zM322.001 131.001l-0.000976562 170.001
c-7.33301 -4.66699 -28.666 -15.334 -63.999 -32.001c-22.667 -10.667 -36.667 -33 -42 -67c-2 -12 -3 -40.333 -3 -85c0 -28 2 -48.333 6 -61c6.66699 -22.667 21 -34 43 -34c40 0 60 36.333 60 109zM241 685.002h76l86 -129h-49l-75 70l-75 -70h-49z" />
    <glyph glyph-name="atilde" unicode="&#xe3;" horiz-adv-x="556" 
d="M133 329l-39.999 0.000976562v158c56.667 24.667 116 37 178 37c69.333 0 120 -9.66699 152 -29c42 -24.667 63 -69.334 63 -134.001v-339h48v-22h-194v72h-2c-24 -58.667 -69.333 -88 -136 -88c-46 0 -85 12 -117 36c-36 26.667 -54 62.334 -54 107.001
c0 52 22 91.667 66 119c23.333 14.667 67.333 30 132 46c53.333 13.333 84.666 26.666 93.999 39.999v87c0 55.333 -21.333 83 -64 83c-30 0 -57.333 -22.333 -82 -67c-5.33301 -10 -20 -45.333 -44 -106zM322.001 131.001l-0.000976562 170.001
c-7.33301 -4.66699 -28.666 -15.334 -63.999 -32.001c-22.667 -10.667 -36.667 -33 -42 -67c-2 -12 -3 -40.333 -3 -85c0 -28 2 -48.333 6 -61c6.66699 -22.667 21 -34 43 -34c40 0 60 36.333 60 109zM382 697.002h34c-4 -26.667 -13 -49.667 -27 -69
c-16 -22.667 -36.333 -34 -61 -34c-12.667 0 -32.667 7.16699 -60 21.5s-45 21.5 -53 21.5c-17.333 0 -30 -13 -38 -39h-33c14 68 42.667 102 86 102c10 0 30 -7.16699 60 -21.5s48.667 -21.5 56 -21.5c14 0 26 13.333 36 40z" />
    <glyph glyph-name="adieresis" unicode="&#xe4;" horiz-adv-x="556" 
d="M133 329l-39.999 0.000976562v158c56.667 24.667 116 37 178 37c69.333 0 120.333 -9.66699 153 -29c41.333 -24.667 62 -69.334 62 -134.001v-339h48v-22h-194v72h-2c-24 -58.667 -69.333 -88 -136 -88c-46 0 -85 12 -117 36c-36 27.333 -54 63 -54 107
c0 52 22 91.667 66 119c24 14.667 68 30 132 46c53.333 13.333 84.666 26.666 93.999 39.999v87c0 55.333 -21.333 83 -64 83c-30 0 -57.333 -22.333 -82 -67c-6 -11.333 -20.667 -46.666 -44 -105.999zM322.001 131.001v170c-8 -5.33301 -29.333 -16 -64 -32
c-22.667 -10.667 -36.667 -33 -42 -67c-2 -10.667 -3 -39 -3 -85c0 -28.667 2 -49 6 -61c6.66699 -22.667 21 -34 43 -34c40 0 60 36.333 60 109zM106.001 656.001c0 19.333 6.83301 35.833 20.5 49.5s30.167 20.5 49.5 20.5s35.833 -6.83301 49.5 -20.5
s20.5 -30.167 20.5 -49.5s-6.83301 -35.833 -20.5 -49.5s-30.167 -20.5 -49.5 -20.5s-35.833 6.83301 -49.5 20.5s-20.5 30.167 -20.5 49.5zM310.001 656.001c0 19.333 6.83301 35.833 20.5 49.5s30.167 20.5 49.5 20.5s35.833 -6.83301 49.5 -20.5s20.5 -30.167 20.5 -49.5
s-6.83301 -35.833 -20.5 -49.5s-30.167 -20.5 -49.5 -20.5s-35.833 6.83301 -49.5 20.5s-20.5 30.167 -20.5 49.5z" />
    <glyph glyph-name="aring" unicode="&#xe5;" horiz-adv-x="556" 
d="M133 329l-39.999 0.000976562v158c56.667 24.667 116 37 178 37c69.333 0 120.333 -9.66699 153 -29c41.333 -24.667 62 -69.334 62 -134.001v-339h48v-22h-194v72h-2c-24 -58.667 -69.333 -88 -136 -88c-46 0 -85 12 -117 36c-36 27.333 -54 63 -54 107
c0 52 22 91.667 66 119c24 14.667 68 30 132 46c53.333 13.333 84.666 26.666 93.999 39.999v87c0 55.333 -21.333 83 -64 83c-30 0 -57.333 -22.333 -82 -67c-6 -11.333 -20.667 -46.666 -44 -105.999zM322.001 131.001v170c-8 -5.33301 -29.333 -16 -64 -32
c-22.667 -10.667 -36.667 -33 -42 -67c-2 -10.667 -3 -39 -3 -85c0 -28.667 2 -49 6 -61c6.66699 -22.667 21 -34 43 -34c40 0 60 36.333 60 109zM278.001 740.001c-15.333 0 -28.166 -5.16895 -38.499 -15.502s-15.5 -23.166 -15.5 -38.499s5.16699 -28 15.5 -38
s23.166 -15 38.499 -15c14.667 0 27.167 5.16699 37.5 15.5s15.5 22.833 15.5 37.5s-5.16699 27.334 -15.5 38.001s-22.833 16 -37.5 16zM278.001 578.999c-30 0 -55.5 10.332 -76.5 30.999s-31.5 46 -31.5 76s10.5 55.5 31.5 76.5s46.5 31.5 76.5 31.5
c29.333 0 54.5 -10.667 75.5 -32s31.5 -46.666 31.5 -75.999c0 -30 -10.333 -55.333 -31 -76s-46 -31 -76 -31z" />
    <glyph glyph-name="ae" unicode="&#xe6;" horiz-adv-x="815" 
d="M322 131v170c-8 -5.33301 -29.333 -16 -64 -32c-22.667 -10.667 -36.667 -33 -42 -67c-2 -10.667 -3 -39 -3 -85c0 -28.667 2 -49 6 -61c6.66699 -22.667 21 -34 43 -34c21.333 0 37.333 13.667 48 41c8 20 12 42.667 12 68zM771 286h-285.001
c0 -99.333 5.33301 -167.333 16 -204c14.667 -50.667 44.667 -76 90 -76c91.333 0 143.333 64.667 156 194h22c-5.33301 -70.667 -23 -123.334 -53 -158.001c-33.333 -38.667 -84.666 -58 -153.999 -58c-42.667 0 -83.834 10.333 -123.501 31s-70.5 48.667 -92.5 84
c-19.333 -76.667 -67.333 -115 -144 -115c-48.667 0 -88.667 11.333 -120 34c-34.667 26 -52 62.333 -52 109c0 52 22 91.667 66 119c24 14.667 68 30 132 46c53.333 13.333 84.666 26.666 93.999 39.999v87c0 55.333 -21.333 83 -64 83c-30 0 -57.333 -22.333 -82 -67
c-6 -11.333 -20.667 -46.666 -44 -105.999h-40v158c56.667 24.667 116 37 178 37c72.667 0 125.334 -11 158.001 -33c36.667 22 77.334 33 122.001 33c72.667 0 128 -22 166 -66c36 -41.333 54 -98.666 54 -171.999zM485.999 308l113.002 0.000976562
c0 80 -2.33301 130.333 -7 151c-6.66699 28.667 -21.334 43 -44.001 43c-25.333 0 -42.333 -16 -51 -48c-6.66699 -24.667 -10.334 -73.334 -11.001 -146.001z" />
    <glyph glyph-name="ccedilla" unicode="&#xe7;" horiz-adv-x="519" 
d="M457 492l-0.00195312 -177.001h-30c-20 53.333 -35.333 90 -46 110c-27.333 51.333 -54.333 77 -81 77c-37.333 0 -60.666 -35 -69.999 -105c-2.66699 -20 -4 -67.667 -4 -143c0 -71.333 2.33301 -119.666 7 -144.999c12.667 -62 41.334 -93.667 86.001 -95
c82 -2.66699 129 55.333 141 174h22c-1.33301 -59.333 -17.333 -107.333 -48 -144c-33.333 -39.333 -79 -59.333 -137 -60l-24 -52l40 4c23.333 0 43.333 -6.66699 60 -20s25 -31.333 25 -54c0 -32.667 -16 -56.667 -48 -72c-24 -11.333 -54.333 -17 -91 -17
c-34 0 -65.333 6.66699 -94 20l15 37c20.667 -8.66699 41 -13 61 -13c36.667 0 55 13 55 39c0 24 -15.333 36 -46 36c-6.66699 0 -12.667 -1.66699 -18 -5l-19 9l42 91c-66.667 9.33301 -119 39.666 -157 90.999c-36 48 -54 106.667 -54 176
c0 74.667 24.5 138.334 73.5 191.001s110.5 79 184.5 79c58 0 109.667 -10.667 155 -32z" />
    <glyph glyph-name="egrave" unicode="&#xe8;" horiz-adv-x="556" 
d="M512 286l-286 -0.000976562c0 -98 5.66699 -166 17 -204c15.333 -50.667 46.666 -76 93.999 -76c88.667 0 139.334 64.667 152.001 194h22c-11.333 -144 -78.333 -216 -201 -216c-80.667 0 -145.167 24 -193.5 72s-72.5 112 -72.5 192c0 75.333 22.333 139.333 67 192
c46.667 56 107 84 181 84c72.667 0 128 -22 166 -66c36 -41.333 54 -98.666 54 -171.999zM226 307.999l114.002 0.000976562c0 80.667 -2.33301 131 -7 151c-6.66699 28.667 -21.334 43 -44.001 43c-26 0 -43.333 -16 -52 -48
c-6.66699 -24.667 -10.334 -73.334 -11.001 -146.001zM318.002 593h-49c-50.667 30 -89.667 53.667 -117 71c-20 12.667 -30 27 -30 43c0 26.667 15 40 45 40c18 0 37.667 -13.333 59 -40z" />
    <glyph glyph-name="eacute" unicode="&#xe9;" horiz-adv-x="556" 
d="M512 286l-286 -0.000976562c0 -98 5.66699 -166 17 -204c15.333 -50.667 46.666 -76 93.999 -76c88.667 0 139.334 64.667 152.001 194h22c-11.333 -144 -78.333 -216 -201 -216c-80.667 0 -145.167 24 -193.5 72s-72.5 112 -72.5 192c0 75.333 22.333 139.333 67 192
c46.667 56 107 84 181 84c72.667 0 128 -22 166 -66c36 -41.333 54 -98.666 54 -171.999zM226 307.999l114.002 0.000976562c0 80.667 -2.33301 131 -7 151c-6.66699 28.667 -21.334 43 -44.001 43c-26 0 -43.333 -16 -52 -48
c-6.66699 -24.667 -10.334 -73.334 -11.001 -146.001zM313.002 594h-48l92 114c21.333 26.667 41 40 59 40c12 0 22.5 -3.66699 31.5 -11s13.5 -17 13.5 -29c0 -17.333 -21 -39.333 -63 -66c-28 -16 -56.333 -32 -85 -48z" />
    <glyph glyph-name="ecircumflex" unicode="&#xea;" horiz-adv-x="556" 
d="M512 286l-286 -0.000976562c0 -98 5.66699 -166 17 -204c15.333 -50.667 46.666 -76 93.999 -76c88.667 0 139.334 64.667 152.001 194h22c-11.333 -144 -78.333 -216 -201 -216c-80.667 0 -145.167 24 -193.5 72s-72.5 112 -72.5 192c0 75.333 22.333 139.333 67 192
c46.667 56 107 84 181 84c72.667 0 128 -22 166 -66c36 -41.333 54 -98.666 54 -171.999zM226 307.999l114.002 0.000976562c0 80.667 -2.33301 131 -7 151c-6.66699 28.667 -21.334 43 -44.001 43c-26 0 -43.333 -16 -52 -48
c-6.66699 -24.667 -10.334 -73.334 -11.001 -146.001zM254.002 685h76l86 -129h-49l-75 70l-75 -70h-49z" />
    <glyph glyph-name="edieresis" unicode="&#xeb;" horiz-adv-x="556" 
d="M512 286l-286 -0.000976562c0 -98 5.66699 -166 17 -204c15.333 -50.667 46.666 -76 93.999 -76c88.667 0 139.334 64.667 152.001 194h22c-11.333 -144 -78.333 -216 -201 -216c-80 0 -144.333 24 -193 72s-73 112 -73 192c0 75.333 22.333 139.333 67 192
c46.667 56 107 84 181 84c72.667 0 128 -22 166 -66c36 -41.333 54 -98.666 54 -171.999zM226 307.999l114.002 0.000976562c0 80 -2.33301 130.333 -7 151c-6.66699 28.667 -21.334 43 -44.001 43c-26 0 -43.333 -16 -52 -48
c-6.66699 -24.667 -10.334 -73.334 -11.001 -146.001zM118.002 656c0 19.333 6.83301 35.833 20.5 49.5s30.167 20.5 49.5 20.5s35.833 -6.83301 49.5 -20.5s20.5 -30.167 20.5 -49.5s-6.83301 -35.833 -20.5 -49.5s-30.167 -20.5 -49.5 -20.5s-35.833 6.83301 -49.5 20.5
s-20.5 30.167 -20.5 49.5zM322.002 656c0 19.333 6.83301 35.833 20.5 49.5s30.167 20.5 49.5 20.5s35.833 -6.83301 49.5 -20.5s20.5 -30.167 20.5 -49.5s-6.83301 -35.833 -20.5 -49.5s-30.167 -20.5 -49.5 -20.5s-35.833 6.83301 -49.5 20.5s-20.5 30.167 -20.5 49.5z
" />
    <glyph glyph-name="igrave" unicode="&#xec;" horiz-adv-x="296" 
d="M276 22v-22h-256v22h48v464h-48v22h208v-486h48zM173 584h-49c-50.667 30 -89.667 53.667 -117 71c-20 12.667 -30 27 -30 43c0 26.667 15 40 45 40c18 0 37.667 -13.333 59 -40z" />
    <glyph glyph-name="iacute" unicode="&#xed;" horiz-adv-x="296" 
d="M276 22v-22h-256v22h48v464h-48v22h208v-486h48zM171 584h-48l92 114c21.333 26.667 41 40 59 40c12 0 22.5 -3.66699 31.5 -11s13.5 -17 13.5 -29c0 -17.333 -21 -39.333 -63 -66c-28 -16 -56.333 -32 -85 -48z" />
    <glyph glyph-name="icircumflex" unicode="&#xee;" horiz-adv-x="296" 
d="M276 22v-22h-256v22h48v464h-48v22h208v-486h48zM95 758h106l119 -180h-68l-104 97l-104 -97h-68z" />
    <glyph glyph-name="idieresis" unicode="&#xef;" horiz-adv-x="296" 
d="M276 22v-22h-256v22h48v464h-48v22h208v-486h48zM-24 656c0 19.333 6.83301 35.833 20.5 49.5s30.167 20.5 49.5 20.5s35.833 -6.83301 49.5 -20.5s20.5 -30.167 20.5 -49.5s-6.83301 -35.833 -20.5 -49.5s-30.167 -20.5 -49.5 -20.5s-35.833 6.83301 -49.5 20.5
s-20.5 30.167 -20.5 49.5zM180 656c0 19.333 6.83301 35.833 20.5 49.5s30.167 20.5 49.5 20.5s35.833 -6.83301 49.5 -20.5s20.5 -30.167 20.5 -49.5s-6.83301 -35.833 -20.5 -49.5s-30.167 -20.5 -49.5 -20.5s-35.833 6.83301 -49.5 20.5s-20.5 30.167 -20.5 49.5z" />
    <glyph glyph-name="eth" unicode="&#xf0;" 
d="M219 238c0 -88 3 -147 9 -177c7.33301 -36.667 27 -55 59 -55s51.667 18.333 59 55c6 30 9 89 9 177s-3 147 -9 177c-7.33301 36.667 -27 55 -59 55s-51.667 -18.333 -59 -55c-6 -30 -9 -89 -9 -177zM194 678l20 30c46 -12.667 88.667 -33.667 128 -63l108 63l24 -26
l-104 -60c53.333 -44.667 94.5 -98.334 123.5 -161.001s43.5 -129 43.5 -199c0 -84 -20.333 -150.333 -61 -199c-43.333 -52.667 -106.333 -79 -189 -79c-75.333 0 -135.833 23.5 -181.5 70.5s-68.5 108.167 -68.5 183.5s22.833 136.5 68.5 183.5s106.167 70.5 181.5 70.5
c18.667 0 35 -1.33301 49 -4c-9.33301 32.667 -22 63.334 -38 92.001l-104 -60l-23 26l108 62c-24 30 -52.333 53.333 -85 70z" />
    <glyph glyph-name="ntilde" unicode="&#xf1;" 
d="M260 22v-22h-238v22h48v464h-48v22h199v-77h2c10 28 29 50.667 57 68c26 16.667 54.333 25 85 25c92.667 0 139 -52.667 139 -158v-344h48v-22h-238v22h30v385c0 46 -13.667 69 -41 69c-48.667 0 -73 -52 -73 -156v-298h30zM420 732h45c-6 -35.333 -17.667 -65 -35 -89
c-21.333 -30 -48 -45 -80 -45c-18 0 -44.167 8.66699 -78.5 26s-57.5 26 -69.5 26c-22.667 0 -39 -16 -49 -48h-44c18 89.333 56 134 114 134c13.333 0 39.333 -8.66699 78 -26s62.667 -26 72 -26c21.333 0 37 16 47 48z" />
    <glyph glyph-name="ograve" unicode="&#xf2;" 
d="M537 254c0 -78 -22 -141.667 -66 -191c-46 -52.667 -107.333 -79 -184 -79c-77.333 0 -139 26 -185 78c-43.333 50 -65 114 -65 192c0 78.667 21.667 142.667 65 192c45.333 52 107 78 185 78s139.667 -26 185 -78c43.333 -49.333 65 -113.333 65 -192zM219 254
c0 -94 3 -157 9 -189c7.33301 -39.333 27 -59 59 -59s51.667 19.667 59 59c6 32 9 95 9 189s-3 157 -9 189c-7.33301 39.333 -27 59 -59 59s-51.667 -19.667 -59 -59c-6 -32 -9 -95 -9 -189zM313 593h-49c-50.667 30 -89.667 53.667 -117 71c-20 12.667 -30 27 -30 43
c0 26.667 15 40 45 40c18 0 37.667 -13.333 59 -40z" />
    <glyph glyph-name="oacute" unicode="&#xf3;" 
d="M537 254c0 -78 -22 -141.667 -66 -191c-46 -52.667 -107.333 -79 -184 -79c-77.333 0 -139 26 -185 78c-43.333 50 -65 114 -65 192c0 78.667 21.667 142.667 65 192c45.333 52 107 78 185 78s139.667 -26 185 -78c43.333 -49.333 65 -113.333 65 -192zM219 254
c0 -94 3 -157 9 -189c7.33301 -39.333 27 -59 59 -59s51.667 19.667 59 59c6 32 9 95 9 189s-3 157 -9 189c-7.33301 39.333 -27 59 -59 59s-51.667 -19.667 -59 -59c-6 -32 -9 -95 -9 -189zM308 594h-48l92 114c21.333 26.667 41 40 59 40c12 0 22.5 -3.66699 31.5 -11
s13.5 -17 13.5 -29c0 -17.333 -21 -39.333 -63 -66c-28 -16 -56.333 -32 -85 -48z" />
    <glyph glyph-name="ocircumflex" unicode="&#xf4;" 
d="M537 254c0 -78 -22 -141.667 -66 -191c-46 -52.667 -107.333 -79 -184 -79c-77.333 0 -139 26 -185 78c-43.333 50 -65 114 -65 192c0 78.667 21.667 142.667 65 192c45.333 52 107 78 185 78s139.667 -26 185 -78c43.333 -49.333 65 -113.333 65 -192zM219 254
c0 -94 3 -157 9 -189c7.33301 -39.333 27 -59 59 -59s51.667 19.667 59 59c6 32 9 95 9 189s-3 157 -9 189c-7.33301 39.333 -27 59 -59 59s-51.667 -19.667 -59 -59c-6 -32 -9 -95 -9 -189zM249 685h76l86 -129h-49l-75 70l-75 -70h-49z" />
    <glyph glyph-name="otilde" unicode="&#xf5;" 
d="M537 254c0 -78 -22 -141.667 -66 -191c-46 -52.667 -107.333 -79 -184 -79c-77.333 0 -139 26 -185 78c-43.333 50 -65 114 -65 192c0 78.667 21.667 142.667 65 192c45.333 52 107 78 185 78s139.667 -26 185 -78c43.333 -49.333 65 -113.333 65 -192zM219 254
c0 -94 3 -157 9 -189c7.33301 -39.333 27 -59 59 -59s51.667 19.667 59 59c6 32 9 95 9 189s-3 157 -9 189c-7.33301 39.333 -27 59 -59 59s-51.667 -19.667 -59 -59c-6 -32 -9 -95 -9 -189zM390 697h34c-4 -26.667 -13 -49.667 -27 -69c-16 -22.667 -36.333 -34 -61 -34
c-12.667 0 -32.667 7.16699 -60 21.5s-45 21.5 -53 21.5c-17.333 0 -30 -13 -38 -39h-33c14 68 42.667 102 86 102c10 0 30 -7.16699 60 -21.5s48.667 -21.5 56 -21.5c14 0 26 13.333 36 40z" />
    <glyph glyph-name="odieresis" unicode="&#xf6;" 
d="M537 254c0 -78 -22 -142 -66 -192c-46 -52 -107.333 -78 -184 -78s-138 26 -184 78c-44 50 -66 114 -66 192c0 78.667 21.667 142.667 65 192c46 52 107.667 78 185 78s139 -26 185 -78c43.333 -49.333 65 -113.333 65 -192zM219 254c0 -94 3 -157 9 -189
c7.33301 -39.333 27 -59 59 -59s51.667 19.667 59 59c6 32 9 95 9 189s-3 157 -9 189c-7.33301 39.333 -27 59 -59 59s-51.667 -19.667 -59 -59c-6 -32 -9 -95 -9 -189zM115 656c0 19.333 6.83301 35.833 20.5 49.5s30.167 20.5 49.5 20.5s35.833 -6.83301 49.5 -20.5
s20.5 -30.167 20.5 -49.5s-6.83301 -35.833 -20.5 -49.5s-30.167 -20.5 -49.5 -20.5s-35.833 6.83301 -49.5 20.5s-20.5 30.167 -20.5 49.5zM319 656c0 19.333 6.83301 35.833 20.5 49.5s30.167 20.5 49.5 20.5s35.833 -6.83301 49.5 -20.5s20.5 -30.167 20.5 -49.5
s-6.83301 -35.833 -20.5 -49.5s-30.167 -20.5 -49.5 -20.5s-35.833 6.83301 -49.5 20.5s-20.5 30.167 -20.5 49.5z" />
    <glyph glyph-name="divide" unicode="&#xf7;" horiz-adv-x="600" 
d="M554 202h-508v104h508v-104zM302 127c22.667 0 41.667 -7.66699 57 -23s23 -34.333 23 -57s-7.66699 -41.667 -23 -57s-34.333 -23 -57 -23s-41.667 7.66699 -57 23s-23 34.333 -23 57s7.66699 41.667 23 57s34.333 23 57 23zM302 541c22.667 0 41.667 -7.66699 57 -23
s23 -34.333 23 -57s-7.66699 -41.667 -23 -57s-34.333 -23 -57 -23s-41.667 7.66699 -57 23s-23 34.333 -23 57s7.66699 41.667 23 57s34.333 23 57 23z" />
    <glyph glyph-name="oslash" unicode="&#xf8;" 
d="M221 168l128 243c0 60.667 -20.667 91 -62 91c-32 0 -51.667 -19.667 -59 -59c-6 -32 -9 -95 -9 -189v-86h2zM353 339l-129 -244c5.33301 -59.333 26.333 -89 63 -89c32 0 51.667 19.667 59 59c6 32 9 95 9 189v85h-2zM487 590l-57.001 -108
c71.333 -52 107 -128 107 -228c0 -78 -22 -141.667 -66 -191c-46 -52.667 -107.333 -79 -184 -79c-41.333 0 -78 7.66699 -110 23l-48 -89h-42l58 108c-72 49.333 -108 125.333 -108 228c0 78.667 21.667 142.667 65 192c46 52 107.667 78 185 78
c40.667 0 77.334 -7.66699 110.001 -23l48 89h42z" />
    <glyph glyph-name="ugrave" unicode="&#xf9;" 
d="M70 142v344h-48v22h208v-407c0 -46 13.667 -69 41 -69c48.667 0 73 52 73 156v298h-30v22h190v-486h48v-22h-199v77h-2c-10 -28 -28.5 -50.5 -55.5 -67.5s-55.833 -25.5 -86.5 -25.5c-92.667 0 -139 52.667 -139 158zM298 572h-49c-50.667 30 -89.667 53.667 -117 71
c-20 12.667 -30 27 -30 43c0 26.667 15 40 45 40c18 0 37.667 -13.333 59 -40z" />
    <glyph glyph-name="uacute" unicode="&#xfa;" 
d="M70 142v344h-48v22h208v-407c0 -46 13.667 -69 41 -69c48.667 0 73 52 73 156v298h-30v22h190v-486h48v-22h-199v77h-2c-10 -28 -28.5 -50.5 -55.5 -67.5s-55.833 -25.5 -86.5 -25.5c-92.667 0 -139 52.667 -139 158zM296 571h-48l92 114c21.333 26.667 41 40 59 40
c12 0 22.5 -3.66699 31.5 -11s13.5 -17 13.5 -29c0 -17.333 -21 -39.333 -63 -66c-28 -16 -56.333 -32 -85 -48z" />
    <glyph glyph-name="ucircumflex" unicode="&#xfb;" 
d="M70 142v344h-48v22h208v-407c0 -46 13.667 -69 41 -69c48.667 0 73 52 73 156v298h-30v22h190v-486h48v-22h-199v77h-2c-10 -28 -28.5 -50.5 -55.5 -67.5s-55.833 -25.5 -86.5 -25.5c-92.667 0 -139 52.667 -139 158zM234 758h106l119 -180h-68l-104 97l-104 -97h-68z
" />
    <glyph glyph-name="udieresis" unicode="&#xfc;" 
d="M70 142v344h-48v22h208v-407c0 -46 13.667 -69 41 -69c48.667 0 73 52 73 156v298h-30v22h190v-486h48v-22h-199v77h-2c-10 -28 -28.5 -50.5 -55.5 -67.5s-55.833 -25.5 -86.5 -25.5c-92.667 0 -139 52.667 -139 158zM115 656c0 19.333 6.83301 35.833 20.5 49.5
s30.167 20.5 49.5 20.5s35.833 -6.83301 49.5 -20.5s20.5 -30.167 20.5 -49.5s-6.83301 -35.833 -20.5 -49.5s-30.167 -20.5 -49.5 -20.5s-35.833 6.83301 -49.5 20.5s-20.5 30.167 -20.5 49.5zM319 656c0 19.333 6.83301 35.833 20.5 49.5s30.167 20.5 49.5 20.5
s35.833 -6.83301 49.5 -20.5s20.5 -30.167 20.5 -49.5s-6.83301 -35.833 -20.5 -49.5s-30.167 -20.5 -49.5 -20.5s-35.833 6.83301 -49.5 20.5s-20.5 30.167 -20.5 49.5z" />
    <glyph glyph-name="yacute" unicode="&#xfd;" horiz-adv-x="444" 
d="M-16 508h270v-22h-57l105 -289h2l100 289h-82v22h138v-22h-32l-199 -577c-22.667 -66 -57 -99 -103 -99c-34.667 0 -63.667 8 -87 24v181h28l30 -79c6 -16 12.667 -33 20 -51c12 -24.667 24 -37 36 -37c20 0 39.667 28.667 59 86l18 53l-214 499h-32v22zM310 572h-48
l92 114c21.333 26.667 41 40 59 40c12 0 22.5 -3.66699 31.5 -11s13.5 -17 13.5 -29c0 -17.333 -21 -39.333 -63 -66c-28 -16 -56.333 -32 -85 -48z" />
    <glyph glyph-name="thorn" unicode="&#xfe;" 
d="M226 340v-213.001c0 -25.333 4 -48.333 12 -69c10.667 -28 26.667 -42 48 -42c30.667 0 50 35.333 58 106c2.66699 22 4 67.667 4 137c0 74.667 -0.666992 118.334 -2 131.001c-6.66699 68 -25 102 -55 102c-43.333 0 -65 -50.667 -65 -152zM66 669.999h-47.999v22h208
v-218h2c15.333 33.333 45.333 50 90 50c62.667 0 114.667 -29.333 156 -88c37.333 -52.667 56 -111.667 56 -177c0 -70 -18 -131.667 -54 -185c-40.667 -60 -94.334 -90 -161.001 -90c-38 0 -67 12.667 -87 38h-2v-174h70v-22h-278v22h48v822z" />
    <glyph glyph-name="ydieresis" unicode="&#xff;" horiz-adv-x="444" 
d="M-16 508h270v-22h-57l105 -289h2l100 289h-82v22h138v-22h-32l-199 -577c-22.667 -66 -57 -99 -103 -99c-34.667 0 -63.667 8 -87 24v181h28l30 -79c11.333 -30.667 18 -47.667 20 -51c12 -24.667 24 -37 36 -37c20 0 39.667 28.667 59 86l18 53l-214 499h-32v22zM50 656
c0 19.333 6.83301 35.833 20.5 49.5s30.167 20.5 49.5 20.5s35.833 -6.83301 49.5 -20.5s20.5 -30.167 20.5 -49.5s-6.83301 -35.833 -20.5 -49.5s-30.167 -20.5 -49.5 -20.5s-35.833 6.83301 -49.5 20.5s-20.5 30.167 -20.5 49.5zM254 656
c0 19.333 6.83301 35.833 20.5 49.5s30.167 20.5 49.5 20.5s35.833 -6.83301 49.5 -20.5s20.5 -30.167 20.5 -49.5s-6.83301 -35.833 -20.5 -49.5s-30.167 -20.5 -49.5 -20.5s-35.833 6.83301 -49.5 20.5s-20.5 30.167 -20.5 49.5z" />
    <glyph glyph-name="glyph271" unicode="&#x102;" horiz-adv-x="630" 
d="M250 571l-92 -273h178l-84 273h-2zM147 0h-164v22h50l238 678h113l220 -678h43v-22h-310v22h83l-77 254h-193l-89 -254h86v-22zM403 878h35.999c-9.33301 -85.333 -51 -128 -125 -128c-38 0 -67.333 11.667 -88 35s-31 54.333 -31 93h38
c2.66699 -45.333 30.334 -68 83.001 -68c48 0 77 22.667 87 68z" />
    <glyph glyph-name="glyph272" unicode="&#x103;" horiz-adv-x="556" 
d="M133 329l-39.999 0.000976562v158c56.667 24.667 116 37 178 37c69.333 0 120 -9.66699 152 -29c42 -24.667 63 -69.334 63 -134.001v-339h48v-22h-194v72h-2c-24 -58.667 -69.333 -88 -136 -88c-46 0 -85 12 -117 36c-36 26.667 -54 62.334 -54 107.001
c0 52 22 91.667 66 119c23.333 14.667 67.333 30 132 46c53.333 13.333 84.666 26.666 93.999 39.999v87c0 55.333 -21.333 83 -64 83c-30 0 -57.333 -22.333 -82 -67c-5.33301 -10 -20 -45.333 -44 -106zM322.001 131.001l-0.000976562 170.001
c-7.33301 -4.66699 -28.666 -15.334 -63.999 -32.001c-22.667 -10.667 -36.667 -33 -42 -67c-2 -12 -3 -40.333 -3 -85c0 -28 2 -48.333 6 -61c6.66699 -22.667 21 -34 43 -34c40 0 60 36.333 60 109zM359 686.002h32c-8.66699 -76.667 -46 -115 -112 -115
c-34.667 0 -61.167 10.333 -79.5 31s-27.5 48.667 -27.5 84h34c2.66699 -40.667 27.667 -61 75 -61c42.667 0 68.667 20.333 78 61z" />
    <glyph glyph-name="Cacute" unicode="&#x106;" horiz-adv-x="711" 
d="M574 674v-202.999h-34c-42.667 102.667 -66.334 157.667 -71.001 165c-20 33.333 -50 50 -90 50c-64.667 0 -105.334 -44.333 -122.001 -133c-6 -30.667 -9 -99.667 -9 -207s3 -176.333 9 -207c16.667 -88.667 57.334 -133 122.001 -133c36.667 0 65.334 9 86.001 27
c17.333 15.333 32.333 41.666 45 78.999c10 30 24.667 75.333 44 136h34v-216c-72 -32 -143.667 -48 -215 -48c-102.667 0 -184.334 35.333 -245.001 106c-57.333 66.667 -86 152 -86 256s28.667 189.333 86 256c60.667 70.667 142.334 106 245.001 106
c52 0 119 -11.333 201 -34zM301 833.001l-59.999 0.000976562l113 141c14 17.333 24.333 28.666 31 33.999c12.667 10 27 15 43 15c14.667 0 27.5 -4.5 38.5 -13.5s16.5 -20.833 16.5 -35.5c0 -21.333 -12 -39.333 -36 -54c-32.667 -19.333 -81.334 -48.333 -146.001 -87z
" />
    <glyph glyph-name="cacute" unicode="&#x107;" horiz-adv-x="441" 
d="M457 492l-0.00292969 -177.003h-30c-20 53.333 -35.333 90 -46 110c-27.333 51.333 -54.333 77 -81 77c-37.333 0 -60.666 -35 -69.999 -105c-2.66699 -20 -4 -67.667 -4 -143c0 -71.333 2.33301 -119.666 7 -144.999c12.667 -62 41.334 -93.667 86.001 -95
c82 -2.66699 129 55.333 141 174h22c-1.33301 -59.333 -17.666 -107.666 -48.999 -144.999c-34 -39.333 -80 -59 -138 -59c-77.333 0 -139 26 -185 78c-44 50 -66 114 -66 192c0 74.667 24.5 138.334 73.5 191.001s110.5 79 184.5 79c58 0 109.667 -10.667 155 -32z
M101.997 577.997l-59.999 0.000976562l113 141c14 17.333 24.333 28.666 31 33.999c12.667 10 27 15 43 15c14.667 0 27.5 -4.5 38.5 -13.5s16.5 -20.833 16.5 -35.5c0 -21.333 -12 -39.333 -36 -54c-32.667 -19.333 -81.334 -48.333 -146.001 -87z" />
    <glyph glyph-name="Ccaron" unicode="&#x10c;" horiz-adv-x="711" 
d="M574 674v-202.999h-34c-42.667 102.667 -66.334 157.667 -71.001 165c-20 33.333 -50 50 -90 50c-64.667 0 -105.334 -44.333 -122.001 -133c-6 -30.667 -9 -99.667 -9 -207s3 -176.333 9 -207c16.667 -88.667 57.334 -133 122.001 -133c36.667 0 65.334 9 86.001 27
c17.333 15.333 32.333 41.666 45 78.999c10 30 24.667 75.333 44 136h34v-216c-72 -32 -143.667 -48 -215 -48c-102.667 0 -184.334 35.333 -245.001 106c-57.333 66.667 -86 152 -86 256s28.667 189.333 86 256c60.667 70.667 142.334 106 245.001 106
c52 0 119 -11.333 201 -34zM378 833.001h-106l-119 180h68l104 -97l104 97h68z" />
    <glyph glyph-name="ccaron" unicode="&#x10d;" horiz-adv-x="441" 
d="M457 492l-0.00292969 -177.003h-30c-20 53.333 -35.333 90 -46 110c-27.333 51.333 -54.333 77 -81 77c-37.333 0 -60.666 -35 -69.999 -105c-2.66699 -20 -4 -67.667 -4 -143c0 -71.333 2.33301 -119.666 7 -144.999c12.667 -62 41.334 -93.667 86.001 -95
c82 -2.66699 129 55.333 141 174h22c-1.33301 -59.333 -17.666 -107.666 -48.999 -144.999c-34 -39.333 -80 -59 -138 -59c-77.333 0 -139 26 -185 78c-44 50 -66 114 -66 192c0 74.667 24.5 138.334 73.5 191.001s110.5 79 184.5 79c58 0 109.667 -10.667 155 -32z
M178.997 577.997h-106l-119 180h68l104 -97l104 97h68z" />
    <glyph glyph-name="Dslash" unicode="&#x110;" horiz-adv-x="722" 
d="M266 350v-327.999h27c84.667 0 139 35.333 163 106c12 35.333 18 108 18 218c0 81.333 -0.666992 130.666 -2 147.999c-9.33301 117.333 -65 176 -167 176h-39v-298h110v-22h-110zM84 372.001l-0.000976562 298h-52v22h306c108 0 192 -30.5 252 -91.5
s90 -145.833 90 -254.5c0 -105.333 -32.667 -189.333 -98 -252s-150.666 -94 -255.999 -94h-294v22h52v328h-70v22h70z" />
    <glyph glyph-name="dcroat" unicode="&#x111;" 
d="M348 187v194c0 74 -21 111 -63 111c-30.667 0 -49.667 -34.667 -57 -104c-1.33301 -12.667 -2 -59 -2 -139c0 -76.667 0.666992 -121 2 -133c7.33301 -66.667 27 -100 59 -100c30 0 49 23 57 69c2.66699 16 4 50 4 102zM508 600h34.998v-24h-35v-554h36v-22h-185v44h-2
c-21.333 -40 -55.666 -60 -102.999 -60c-63.333 0 -115.333 29.333 -156 88c-36 52 -54 111 -54 177c0 70 19 131.667 57 185c42.667 60 97.334 90 164.001 90c37.333 0 64.333 -12.667 81 -38h2v90h-121v24h121v70h-52v22h212v-92z" />
    <glyph glyph-name="Gbreve" unicode="&#x11e;" horiz-adv-x="767" 
d="M600 293l-0.00195312 -228.001c-26.667 -25.333 -65 -45.666 -115 -60.999c-44 -13.333 -87 -20 -129 -20c-97.333 0 -175 36.667 -233 110c-54 68 -81 152 -81 252c0 108 31.333 195.333 94 262s148 100 256 100c52.667 0 113.334 -10 182.001 -30v-207h-34
c-29.333 87.333 -48.666 139.333 -57.999 156c-22 39.333 -52.667 59 -92 59c-64 0 -106.333 -44.333 -127 -133c-10 -42.667 -15 -111.667 -15 -207c0 -226.667 36.333 -340 109 -340c40.667 0 61 32.667 61 98v189h-66v22h300v-22h-52zM444.998 998.999l45 0.000976562
c-11.333 -110.667 -61 -166 -149 -166c-48 0 -84.333 16 -109 48c-22.667 29.333 -34 68.666 -34 117.999h48c2.66699 -56 35 -84 97 -84c56 0 90 28 102 84z" />
    <glyph glyph-name="gbreve" unicode="&#x11f;" horiz-adv-x="492" 
d="M243 357c0 -43.333 1.33301 -72 4 -86c6.66699 -39.333 22.667 -59 48 -59s41.333 19.667 48 59c2.66699 14 4 42.667 4 86s-1.33301 72 -4 86c-6.66699 39.333 -22.667 59 -48 59s-41.333 -19.667 -48 -59c-2.66699 -14 -4 -42.667 -4 -86zM391 508l148.001 0.000976562
v-22h-106v-4c49.333 -28.667 74 -71.334 74 -128.001c0 -53.333 -23 -95 -69 -125c-39.333 -26 -87.333 -39 -144 -39s-106.334 13.333 -149.001 40c-32.667 -6.66699 -49 -21 -49 -43c0 -31.333 43.667 -47 131 -47h13c8 0.666992 14.333 1 19 1h33
c76.667 0 133.334 -7.33301 170.001 -22c53.333 -21.333 80 -61.666 80 -120.999c0 -63.333 -31.333 -112 -94 -146c-51.333 -28 -111.333 -42 -180 -42c-46.667 0 -92.334 8.33301 -137.001 25c-59.333 22 -89 52.333 -89 91c0 34 22.667 61.333 68 82
c-64 19.333 -96 56 -96 110c0 64.667 37 108 111 130c-28 26 -42 60.667 -42 104c0 55.333 21.667 98.666 65 129.999c38.667 28 86.667 42 144 42c41.333 0 74.333 -5.33301 99 -16zM278.001 -167.999c41.333 0 80.334 8 117.001 24c47.333 20.667 71 49.334 71 86.001
c0 31.333 -31.333 48.666 -94 51.999c-46.667 1.33301 -116.334 3.33301 -209.001 6c-26 -12.667 -39 -35.667 -39 -69s18.333 -59 55 -77c29.333 -14.667 62.333 -22 99 -22zM245.002 744.001l45 0.000976562c-11.333 -110.667 -61 -166 -149 -166
c-48 0 -84.333 16 -109 48c-22.667 29.333 -34 68.666 -34 117.999h48c2.66699 -56 35 -84 97 -84c56 0 90 28 102 84z" />
    <glyph glyph-name="glyph273" unicode="&#x128;" horiz-adv-x="370" 
d="M328 22v-22h-286v22h52v648h-52v22h286v-22h-52v-648h52zM297 893h38.001c-4.66699 -30.667 -14.334 -56 -29.001 -76c-18 -25.333 -41 -38 -69 -38c-14 0 -36.167 8 -66.5 24s-49.833 24 -58.5 24c-19.333 0 -33.333 -14.667 -42 -44h-37c14.667 76 46.667 114 96 114
c11.333 0 33.5 -8 66.5 -24s53.5 -24 61.5 -24c16.667 0 30 14.667 40 44z" />
    <glyph glyph-name="glyph274" unicode="&#x129;" horiz-adv-x="296" 
d="M276 22v-22h-256v22h48v464h-48v22h208v-486h48zM251 687h34c-4 -26.667 -13 -49.667 -27 -69c-16 -22.667 -36.333 -34 -61 -34c-12.667 0 -32.667 7.16699 -60 21.5s-45 21.5 -53 21.5c-17.333 0 -30 -13 -38 -39h-33c14 68 42.667 102 86 102
c10 0 30 -7.16699 60 -21.5s48.667 -21.5 56 -21.5c14 0 26 13.333 36 40z" />
    <glyph glyph-name="Idotaccent" unicode="&#x130;" horiz-adv-x="429" 
d="M328 22v-22h-286v22h52v648h-52v22h286v-22h-52v-648h52zM105 911c0 19.333 6.83301 35.833 20.5 49.5s30.167 20.5 49.5 20.5s35.833 -6.83301 49.5 -20.5s20.5 -30.167 20.5 -49.5s-6.83301 -35.833 -20.5 -49.5s-30.167 -20.5 -49.5 -20.5s-35.833 6.83301 -49.5 20.5
s-20.5 30.167 -20.5 49.5z" />
    <glyph glyph-name="dotlessi" unicode="&#x131;" horiz-adv-x="296" 
d="M276 22v-22h-256v22h48v464h-48v22h208v-486h48z" />
    <glyph glyph-name="Lslash" unicode="&#x141;" 
d="M84 21l-0.000976562 276.001l-76 -31v44l76 31v329h-52v22h312v-22h-78v-256l176 70v-44l-176 -70v-348h132c28 0 49.667 17.667 65 53c12.667 29.333 30.334 96.666 53.001 201.999h34v-277h-518v21h52z" />
    <glyph glyph-name="lslash" unicode="&#x142;" horiz-adv-x="296" 
d="M68 22v303l-80 -41v40l80 41v305h-48v22h208v-246l80 40v-40l-80 -40v-384h48v-22h-256v22h48z" />
    <glyph glyph-name="OE" unicode="&#x152;" horiz-adv-x="1000" 
d="M471 692h481.001v-220h-34c-24.667 84.667 -43.334 138 -56.001 160c-14 25.333 -35 38 -63 38h-151v-298h52c31.333 0 54.333 16 69 48c3.33301 8.66699 11.333 38.667 24 90h22v-298h-22c-12.667 51.333 -20.667 81.333 -24 90c-14.667 32 -37.667 48 -69 48h-52v-328
h150c28 0 50.667 19.333 68 58c12.667 28 30 87.333 52 178h34v-258h-481c-12 -0 -30.833 -2.66699 -56.5 -8s-45.167 -8 -58.5 -8c-97.333 0 -175 37 -233 111c-54 68 -81 151.667 -81 251s27 183 81 251c58 74 135.667 111 233 111c13.333 0 32.833 -2.66699 58.5 -8
s44.5 -8 56.5 -8zM466.001 346c0 114.667 0.334961 156 1.00195 124c-1.33301 62.667 -9 111.334 -23 146.001c-18 46.667 -47 70 -87 70s-69 -23.333 -87 -70c-14 -34.667 -21.667 -83.334 -23 -146.001c0.666992 32 1 -9.33301 1 -124c0 -118.667 -0.333008 -160 -1 -124
c1.33301 -62.667 8.66602 -111.334 21.999 -146.001c18.667 -46.667 48 -70 88 -70s69.333 23.333 88 70c13.333 34.667 20.666 83.334 21.999 146.001c-0.666992 -36 -1 5.33301 -1 124z" />
    <glyph glyph-name="oe" unicode="&#x153;" horiz-adv-x="852" 
d="M219 254c0 -94 3 -157 9 -189c7.33301 -39.333 27 -59 59 -59s51.667 19.667 59 59c6 32 9 95 9 189s-3 157 -9 189c-7.33301 39.333 -27 59 -59 59s-51.667 -19.667 -59 -59c-6 -32 -9 -95 -9 -189zM808 286l-289 -0.000976562c0 -99.333 5.66699 -167.333 17 -204
c15.333 -50.667 47.666 -76 96.999 -76c88.667 0 139.334 64.667 152.001 194h22c-11.333 -144 -78.333 -216 -201 -216c-65.333 0 -120.666 16.333 -165.999 49c-41.333 -32.667 -92.333 -49 -153 -49c-76.667 0 -138 26 -184 78c-44 50 -66 114 -66 192
c0 78.667 21.667 142.667 65 192c46 52 107.667 78 185 78c61.333 0 112.666 -16.667 153.999 -50c42 33.333 91 50 147 50c72.667 0 128 -22 166 -66c36 -41.333 54 -98.666 54 -171.999zM519 307.999h117.001c0 80 -2.33301 130.333 -7 151
c-6.66699 28.667 -21.334 43 -44.001 43c-26.667 0 -44.667 -16 -54 -48c-7.33301 -25.333 -11.333 -74 -12 -146z" />
    <glyph glyph-name="Scedilla" unicode="&#x15e;" horiz-adv-x="656" 
d="M496 669l0.00195312 -190.001h-34c-30.667 88 -52.334 141.333 -65.001 160c-21.333 31.333 -54.333 47 -99 47c-41.333 0 -75.333 -7 -102 -21c-34.667 -18 -52 -45.667 -52 -83c0 -43.333 34.333 -78.666 103 -105.999l192 -76
c68.667 -38.667 103 -93.334 103 -164.001c0 -81.333 -25.667 -144.333 -77 -189c-48.667 -42 -114.334 -63 -197.001 -63c-69.333 0 -141.333 22 -216 66v210h34c35.333 -112.667 62 -181.334 80 -206.001c23.333 -32 65 -48 125 -48c38.667 0 72.667 10.667 102 32
c32.667 23.333 49 53.333 49 90c0 44.667 -34.333 81.334 -103 110.001l-192 80c-68.667 40.667 -103 97.334 -103 170.001c0 70 25 125 75 165c46 36.667 105 55 177 55c70 0 136.667 -13 200 -39zM157.002 -5.00098h44l-30 -63l40 4c23.333 0 43.333 -6.66699 60 -20
s25 -31.333 25 -54c0 -32.667 -16 -56.667 -48 -72c-24 -11.333 -54.333 -17 -91 -17c-34 0 -65.333 6.66699 -94 20l15 37c20.667 -8.66699 41 -13 61 -13c36.667 0 55 13 55 39c0 24 -15.333 36 -46 36c-6.66699 0 -12.667 -1.66699 -18 -5l-19 9z" />
    <glyph glyph-name="scedilla" unicode="&#x15f;" horiz-adv-x="383" 
d="M42 31l0.00195312 153h48c9.33301 -26.667 18.666 -53.667 27.999 -81c13.333 -32.667 28 -56 44 -70c20 -18 47.667 -27 83 -27c73.333 0 110 24.667 110 74c0 35.333 -27.667 63.333 -83 84l-155 57c-55.333 30.667 -83 75 -83 133c0 54.667 22.667 97.667 68 129
c39.333 27.333 87.666 41 144.999 41c56 0 114.667 -13.333 176 -40v-143h-40c-18.667 56.667 -36 95.334 -52 116.001c-23.333 30 -56 45 -98 45c-23.333 0 -43.333 -5.33301 -60 -16c-19.333 -12.667 -29 -30 -29 -52c0 -33.333 27.667 -60.333 83 -81
c34 -12.667 85.667 -31.667 155 -57c55.333 -30.667 83 -73.667 83 -129c0 -60.667 -24 -107.334 -72 -140.001c-41.333 -28.667 -94 -43 -158 -43c-70.667 0 -135 15.667 -193 47zM60.002 -5h44l-30 -63l40 4c23.333 0 43.333 -6.66699 60 -20s25 -31.333 25 -54
c0 -32.667 -16 -56.667 -48 -72c-24 -11.333 -54.333 -17 -91 -17c-34 0 -65.333 6.66699 -94 20l15 37c20.667 -8.66699 41 -13 61 -13c36.667 0 55 13 55 39c0 24 -15.333 36 -46 36c-6.66699 0 -12.667 -1.66699 -18 -5l-19 9z" />
    <glyph glyph-name="Scaron" unicode="&#x160;" 
d="M496 669l0.00195312 -190.001h-34c-30.667 88 -52.334 141.333 -65.001 160c-21.333 31.333 -54.333 47 -99 47c-41.333 0 -75.333 -7 -102 -21c-34.667 -18 -52 -45.667 -52 -83c0 -43.333 34.333 -78.666 103 -105.999l192 -76
c68.667 -38.667 103 -93.334 103 -164.001c0 -81.333 -25.667 -144.333 -77 -189c-48.667 -42 -114.334 -63 -197.001 -63c-69.333 0 -141.333 22 -216 66v210h34c35.333 -112.667 62 -181.334 80 -206.001c23.333 -32 65 -48 125 -48c38.667 0 72.667 10.667 102 32
c32.667 23.333 49 53.333 49 90c0 44.667 -34.333 81.334 -103 110.001l-192 80c-68.667 40.667 -103 97.334 -103 170.001c0 70 25 125 75 165c46 36.667 105 55 177 55c70 0 136.667 -13 200 -39zM352.002 736.999h-106l-119 180h68l104 -97l104 97h68z" />
    <glyph glyph-name="scaron" unicode="&#x161;" horiz-adv-x="500" 
d="M42 31l0.00195312 153h48c9.33301 -26.667 18.666 -53.667 27.999 -81c13.333 -32.667 28 -56 44 -70c20 -18 47.667 -27 83 -27c73.333 0 110 24.667 110 74c0 35.333 -27.667 63.333 -83 84l-155 57c-55.333 30.667 -83 75 -83 133c0 54.667 22.667 97.667 68 129
c39.333 27.333 87.666 41 144.999 41c56 0 114.667 -13.333 176 -40v-143h-40c-18.667 56.667 -36 95.334 -52 116.001c-23.333 30 -56 45 -98 45c-23.333 0 -43.333 -5.33301 -60 -16c-19.333 -12.667 -29 -30 -29 -52c0 -33.333 27.667 -60.333 83 -81
c34 -12.667 85.667 -31.667 155 -57c55.333 -30.667 83 -73.667 83 -129c0 -60.667 -24 -107.334 -72 -140.001c-41.333 -28.667 -94 -43 -158 -43c-70.667 0 -135 15.667 -193 47zM303.002 578h-106l-119 180h68l104 -97l104 97h68z" />
    <glyph glyph-name="ch903" unicode="&#x168;" horiz-adv-x="611" 
d="M21 670v21.999h308v-22h-74v-513c0 -40 8 -72.667 24 -98c18.667 -30 47 -45 85 -45c97.333 0 146 62.667 146 188v468h-74v22h154v-22h-52v-453c0 -82.667 -17.333 -142.167 -52 -178.5s-93 -54.5 -175 -54.5c-77.333 0 -135 14 -173 42
c-43.333 32.667 -65 86.334 -65 161.001v483h-52zM497 883.999h38.001c-4.66699 -30.667 -14.334 -56 -29.001 -76c-18 -25.333 -41 -38 -69 -38c-14 0 -36.167 8 -66.5 24s-49.833 24 -58.5 24c-19.333 0 -33.333 -14.667 -42 -44h-37c14.667 76 46.667 114 96 114
c11.333 0 33.5 -8 66.5 -24s53.5 -24 61.5 -24c16.667 0 30 14.667 40 44z" />
    <glyph glyph-name="ch904" unicode="&#x169;" 
d="M70 142v344h-48v22h208v-407c0 -46 13.667 -69 41 -69c48.667 0 73 52 73 156v298h-30v22h190v-486h48v-22h-199v77h-2c-10 -28 -28.5 -50.5 -55.5 -67.5s-55.833 -25.5 -86.5 -25.5c-92.667 0 -139 52.667 -139 158zM375 687h34c-4 -26.667 -13 -49.667 -27 -69
c-16 -22.667 -36.333 -34 -61 -34c-12.667 0 -32.667 7.16699 -60 21.5s-45 21.5 -53 21.5c-17.333 0 -30 -13 -38 -39h-33c14 68 42.667 102 86 102c10 0 30 -7.16699 60 -21.5s48.667 -21.5 56 -21.5c14 0 26 13.333 36 40z" />
    <glyph glyph-name="Ydieresis" unicode="&#x178;" 
d="M-15 670v22h321v-22h-72l143 -308l152 308h-95v22h168v-22h-42l-166 -329v-319h52v-22h-286v22h52v287l-173 361h-54zM127 815c0 19.333 6.83301 35.833 20.5 49.5s30.167 20.5 49.5 20.5s35.833 -6.83301 49.5 -20.5s20.5 -30.167 20.5 -49.5
s-6.83301 -35.833 -20.5 -49.5s-30.167 -20.5 -49.5 -20.5s-35.833 6.83301 -49.5 20.5s-20.5 30.167 -20.5 49.5zM331 815c0 19.333 6.83301 35.833 20.5 49.5s30.167 20.5 49.5 20.5s35.833 -6.83301 49.5 -20.5s20.5 -30.167 20.5 -49.5s-6.83301 -35.833 -20.5 -49.5
s-30.167 -20.5 -49.5 -20.5s-35.833 6.83301 -49.5 20.5s-20.5 30.167 -20.5 49.5z" />
    <glyph glyph-name="Zcaron" unicode="&#x17d;" 
d="M8 0l332 670h-150c-27.333 0 -49.333 -16.333 -66 -49c-13.333 -26 -29 -76 -47 -150h-34v221h492l-327 -670h158c30 0 52.667 12.667 68 38c18 30 39.333 97.333 64 202h34v-262h-524zM352 737h-106l-119 180h68l104 -97l104 97h68z" />
    <glyph glyph-name="zcaron" unicode="&#x17e;" horiz-adv-x="481" 
d="M442 206v-206h-426l283 486h-128c-21.333 0 -40 -16.333 -56 -49c-9.33301 -18.667 -23.333 -56 -42 -112h-28v183h414l-284 -486h128c33.333 0 70.333 61.333 111 184h28zM294 578h-106l-119 180h68l104 -97l104 97h68z" />
    <glyph glyph-name="florin" unicode="&#x192;" horiz-adv-x="611" 
d="M418 404h114.998l-4 -22h-115l-86 -397c-12.667 -60 -33.667 -103.667 -63 -131c-31.333 -29.333 -76.666 -44 -135.999 -44c-44 0 -86 7 -126 21l25 132h36c5.33301 -38 9.33301 -62 12 -72c8.66699 -36.667 20.667 -55 36 -55c16 0 27.333 16 34 48l105 498h-119l5 22
h118l31 145c22.667 106 90 159 202 159c36.667 0 76.334 -6 119.001 -18l-25 -133h-34l-16 78c-6.66699 34 -17.667 51 -33 51s-26.333 -16.333 -33 -49z" />
    <glyph glyph-name="glyph277" unicode="&#x1a0;" horiz-adv-x="722" 
d="M474 346c0 103.333 -2.33301 170.333 -7 201c-14 92.667 -49.333 139 -106 139s-92 -46.333 -106 -139c-4.66699 -30 -7 -97 -7 -201s2.33301 -171 7 -201c14 -92.667 49.333 -139 106 -139s92 46.333 106 139c4.66699 30.667 7 97.667 7 201zM514 670
c56 -30.667 98.332 -76.666 126.999 -137.999c26 -54.667 39 -116.667 39 -186c0 -103.333 -27 -188 -81 -254c-58 -72 -137.333 -108 -238 -108c-99.333 0 -178.333 36.333 -237 109c-54.667 66.667 -82 151 -82 253s27.333 186.333 82 253
c58.667 72.667 137.667 109 237 109c48 0 91.333 -8.66699 130 -26c41.333 4 69.333 15.333 84 34c-3.33301 -1.33301 -6.66602 -1 -9.99902 1c-3.33301 0 -5.66602 0.666992 -6.99902 2c-16.667 6 -25 17.667 -25 35c0 8 2 15.333 6 22c9.33301 16 22.666 24 39.999 24
c30 0 45 -13.667 45 -41c0 -8.66699 -3 -18.334 -9 -29.001c-18 -31.333 -51.667 -51.333 -101 -60z" />
    <glyph glyph-name="glyph278" unicode="&#x1a1;" 
d="M219 254c0 -94 3 -157 9 -189c7.33301 -39.333 27 -59 59 -59s51.667 19.667 59 59c6 32 9 95 9 189s-3 157 -9 189c-7.33301 39.333 -27 59 -59 59s-51.667 -19.667 -59 -59c-6 -32 -9 -95 -9 -189zM446 470c60.667 -51.333 91 -123.333 91 -216
c0 -78 -22 -141.667 -66 -191c-46 -52.667 -107.333 -79 -184 -79c-77.333 0 -139 26 -185 78c-43.333 50 -65 114 -65 192c0 78.667 21.667 142.667 65 192c45.333 52 107 78 185 78c55.333 0 103.333 -14.333 144 -43c32 8.66699 51.667 21 59 37
c-2 0 -4.33301 -0.666992 -7 -2h-8c-16.667 2.66699 -25 13.667 -25 33c0 12 4.33301 21.333 13 28s19 9 31 7c21.333 -4 32 -18 32 -42c0 -34 -26.667 -58 -80 -72z" />
    <glyph glyph-name="glyph279" unicode="&#x1af;" horiz-adv-x="611" 
d="M538 659v-442.003c0 -82.667 -17.333 -142.167 -52 -178.5s-93 -54.5 -175 -54.5c-77.333 0 -135 14 -173 42c-43.333 32.667 -65 86.334 -65 161.001v483h-52v22h308v-22h-74v-513c0 -40 8 -72.667 24 -98c18.667 -30 47 -45 85 -45c97.333 0 146 62.667 146 188v468
h-74v22h145c10.667 7.33301 18.334 16 23.001 26c-2.66699 -1.33301 -5.66699 -1.66602 -9 -0.999023c-3.33301 0 -6 0.333008 -8 1c-22.667 4 -34 17 -34 39c0 14.667 5 26 15 34s22.333 10.667 37 8c24 -4 36 -18.667 36 -44c0 -23.333 -11.667 -44.666 -35 -63.999
c-20.667 -17.333 -43.334 -28 -68.001 -32z" />
    <glyph glyph-name="glyph280" unicode="&#x1b0;" 
d="M504 472l-0.000976562 -450h48v-22h-199v77h-2c-10 -28 -28.5 -50.5 -55.5 -67.5s-55.833 -25.5 -86.5 -25.5c-92.667 0 -139 52.667 -139 158v344h-48v22h208v-407c0 -46 13.667 -69 41 -69c48.667 0 73 52 73 156v298h-30v22l190 -2c4 1.33301 10.667 2.33301 20 3
c6.66699 0 11.334 3 14.001 9c-2 0 -4.33301 -0.666992 -7 -2h-8c-16.667 2.66699 -25 13.667 -25 33c0 12 4.33301 21.333 13 28s19 9 31 7c21.333 -4 32 -18 32 -42c0 -30 -23.333 -53.333 -70 -70z" />
    <glyph glyph-name="circumflex" unicode="&#x2c6;" horiz-adv-x="296" 
d="M95 758h106l119 -180h-68l-104 97l-104 -97h-68z" />
    <glyph glyph-name="caron" unicode="&#x2c7;" horiz-adv-x="296" 
d="M201 578h-106l-119 180h68l104 -97l104 97h68z" />
    <glyph glyph-name="breve" unicode="&#x2d8;" horiz-adv-x="296" 
d="M249 744l45 0.000976562c-11.333 -110.667 -61 -166 -149 -166c-48 0 -84.333 16 -109 48c-22.667 29.333 -34 68.666 -34 117.999h48c2.66699 -56 35 -84 97 -84c56 0 90 28 102 84z" />
    <glyph glyph-name="dotaccent" unicode="&#x2d9;" horiz-adv-x="296" 
d="M78 656c0 19.333 6.83301 35.833 20.5 49.5s30.167 20.5 49.5 20.5s35.833 -6.83301 49.5 -20.5s20.5 -30.167 20.5 -49.5s-6.83301 -35.833 -20.5 -49.5s-30.167 -20.5 -49.5 -20.5s-35.833 6.83301 -49.5 20.5s-20.5 30.167 -20.5 49.5z" />
    <glyph glyph-name="ring" unicode="&#x2da;" horiz-adv-x="296" 
d="M148 740c-15.333 0 -28.166 -5.16895 -38.499 -15.502s-15.5 -23.166 -15.5 -38.499s5.16699 -28 15.5 -38s23.166 -15 38.499 -15c14.667 0 27.167 5.16699 37.5 15.5s15.5 22.833 15.5 37.5s-5.16699 27.334 -15.5 38.001s-22.833 16 -37.5 16zM148 578.998
c-30 0 -55.5 10.332 -76.5 30.999s-31.5 46 -31.5 76s10.5 55.5 31.5 76.5s46.5 31.5 76.5 31.5c29.333 0 54.5 -10.667 75.5 -32s31.5 -46.666 31.5 -75.999c0 -30 -10.333 -55.333 -31 -76s-46 -31 -76 -31z" />
    <glyph glyph-name="ogonek" unicode="&#x2db;" horiz-adv-x="296" 
d="M256 22l0.000976562 -14.999c-98 -34 -147 -74.667 -147 -122c0 -31.333 17.667 -47 53 -47c22.667 0 54.667 13.333 96 40l22 -40c-56.667 -41.333 -108.667 -62 -156 -62c-31.333 0 -57.333 8.66699 -78 26s-31 41.333 -31 72c0 41.333 31 76.666 93 105.999
c45.333 21.333 94.666 35.333 147.999 42z" />
    <glyph glyph-name="tilde" unicode="&#x2dc;" horiz-adv-x="296" 
d="M281 732h45c-6 -35.333 -17.667 -65 -35 -89c-21.333 -30 -48 -45 -80 -45c-18 0 -44.167 8.66699 -78.5 26s-57.5 26 -69.5 26c-22.667 0 -39 -16 -49 -48h-44c18 89.333 56 134 114 134c13.333 0 39.333 -8.66699 78 -26s62.667 -26 72 -26c21.333 0 37 16 47 48z" />
    <glyph glyph-name="hungarumlaut" unicode="&#x2dd;" horiz-adv-x="296" 
d="M54 578h-56l107 141c14 18.667 23.667 30 29 34c11.333 10 25 15 41 15c14.667 0 27.5 -4.5 38.5 -13.5s16.5 -20.833 16.5 -35.5c0 -21.333 -11.667 -39.333 -35 -54zM232 578l-59.999 0.000976562l113 141c14 17.333 24.333 28.666 31 33.999c12.667 10 27 15 43 15
c14.667 0 27.5 -4.5 38.5 -13.5s16.5 -20.833 16.5 -35.5c0 -21.333 -12 -39.333 -36 -54c-32.667 -19.333 -81.334 -48.333 -146.001 -87z" />
    <glyph glyph-name="glyph281" unicode="&#x1ea0;" horiz-adv-x="630" 
d="M250 571l-92 -273h178l-84 273h-2zM147 0h-164v22h50l238 678h113l220 -678h43v-22h-310v22h83l-77 254h-193l-89 -254h86v-22zM239 -24c19.333 0 35.5 -6.5 48.5 -19.5s19.5 -29.167 19.5 -48.5s-6.5 -35.5 -19.5 -48.5s-29.167 -19.5 -48.5 -19.5
c-18.667 0 -34.667 6.66699 -48 20s-20 29.333 -20 48s6.66699 34.667 20 48s29.333 20 48 20z" />
    <glyph glyph-name="glyph282" unicode="&#x1ea1;" horiz-adv-x="556" 
d="M133 329l-39.999 0.000976562v158c56.667 24.667 116 37 178 37c69.333 0 120 -9.66699 152 -29c42 -24.667 63 -69.334 63 -134.001v-339h48v-22h-194v72h-2c-24 -58.667 -69.333 -88 -136 -88c-46 0 -85 12 -117 36c-36 26.667 -54 62.334 -54 107.001
c0 52 22 91.667 66 119c23.333 14.667 67.333 30 132 46c53.333 13.333 84.666 26.666 93.999 39.999v87c0 55.333 -21.333 83 -64 83c-30 0 -57.333 -22.333 -82 -67c-5.33301 -10 -20 -45.333 -44 -106zM322.001 131.001l-0.000976562 170.001
c-7.33301 -4.66699 -28.666 -15.334 -63.999 -32.001c-22.667 -10.667 -36.667 -33 -42 -67c-2 -12 -3 -40.333 -3 -85c0 -28 2 -48.333 6 -61c6.66699 -22.667 21 -34 43 -34c40 0 60 36.333 60 109zM280 -43.998c17.333 0 31.833 -5.83301 43.5 -17.5
s17.5 -26.167 17.5 -43.5s-5.83301 -31.833 -17.5 -43.5s-26.167 -17.5 -43.5 -17.5c-16.667 0 -31 6 -43 18s-18 26.333 -18 43s6 31 18 43s26.333 18 43 18z" />
    <glyph glyph-name="glyph283" unicode="&#x1ea2;" horiz-adv-x="630" 
d="M250 571l-92 -273h178l-84 273h-2zM147 0h-164v22h50l238 678h113l220 -678h43v-22h-310v22h83l-77 254h-193l-89 -254h86v-22zM247 862h-15.002v102c44 18 74 27 90 27c30.667 0 56.334 -7 77.001 -21c24.667 -16 37 -38.667 37 -68c0 -26 -9.66699 -48.333 -29 -67
c-3.33301 -4.66699 -20.666 -17.667 -51.999 -39c-19.333 -13.333 -29 -26.666 -29 -39.999v-11h-15v22c0 8.66699 6.5 28.5 19.5 59.5s19.5 57.167 19.5 78.5c0 43.333 -12 65 -36 65c-14.667 0 -27.667 -10.333 -39 -31c-8 -14.667 -17.333 -40.334 -28 -77.001z" />
    <glyph glyph-name="glyph284" unicode="&#x1ea3;" horiz-adv-x="556" 
d="M133 329l-39.999 0.000976562v158c56.667 24.667 116 37 178 37c69.333 0 120 -9.66699 152 -29c42 -24.667 63 -69.334 63 -134.001v-339h48v-22h-194v72h-2c-24 -58.667 -69.333 -88 -136 -88c-46 0 -85 12 -117 36c-36 26.667 -54 62.334 -54 107.001
c0 52 22 91.667 66 119c23.333 14.667 67.333 30 132 46c53.333 13.333 84.666 26.666 93.999 39.999v87c0 55.333 -21.333 83 -64 83c-30 0 -57.333 -22.333 -82 -67c-5.33301 -10 -20 -45.333 -44 -106zM322.001 131.001l-0.000976562 170.001
c-7.33301 -4.66699 -28.666 -15.334 -63.999 -32.001c-22.667 -10.667 -36.667 -33 -42 -67c-2 -12 -3 -40.333 -3 -85c0 -28 2 -48.333 6 -61c6.66699 -22.667 21 -34 43 -34c40 0 60 36.333 60 109zM215 677.002l-13 0.00195312v92c42 16.667 68.667 25 80 25
c28 0 51.333 -6.33301 70 -19c22 -14.667 33 -35.334 33 -62.001c0 -23.333 -8.66699 -43.333 -26 -60c-5.33301 -4.66699 -21 -16.334 -47 -35.001c-17.333 -12 -26 -24 -26 -36v-10h-13v20c0 7.33301 5.83301 25 17.5 53s17.5 51.667 17.5 71c0 39.333 -11 59 -33 59
c-20.667 0 -40.667 -32.667 -60 -98z" />
    <glyph glyph-name="glyph285" unicode="&#x1ea4;" horiz-adv-x="630" 
d="M250 571l-92 -273h178l-84 273h-2zM147 0h-164v22h50l238 678h113l220 -678h43v-22h-310v22h83l-77 254h-193l-89 -254h86v-22zM276 883h84l96 -144h-55l-83 78l-83 -78h-55zM503 817h-53.999l102 127c23.333 29.333 45.333 44 66 44c13.333 0 25 -4.16699 35 -12.5
s15 -18.833 15 -31.5c0 -18 -11 -34 -33 -48c-26.667 -16.667 -70.334 -43 -131.001 -79z" />
    <glyph glyph-name="glyph286" unicode="&#x1ea5;" horiz-adv-x="556" 
d="M133 329l-39.999 0.000976562v158c56.667 24.667 116 37 178 37c69.333 0 120 -9.66699 152 -29c42 -24.667 63 -69.334 63 -134.001v-339h48v-22h-194v72h-2c-24 -58.667 -69.333 -88 -136 -88c-46 0 -85 12 -117 36c-36 26.667 -54 62.334 -54 107.001
c0 52 22 91.667 66 119c23.333 14.667 67.333 30 132 46c53.333 13.333 84.666 26.666 93.999 39.999v87c0 55.333 -21.333 83 -64 83c-30 0 -57.333 -22.333 -82 -67c-5.33301 -10 -20 -45.333 -44 -106zM322.001 131.001l-0.000976562 170.001
c-7.33301 -4.66699 -28.666 -15.334 -63.999 -32.001c-22.667 -10.667 -36.667 -33 -42 -67c-2 -12 -3 -40.333 -3 -85c0 -28 2 -48.333 6 -61c6.66699 -22.667 21 -34 43 -34c40 0 60 36.333 60 109zM241 685.002h76l86 -129h-49l-75 70l-75 -70h-49zM445 626.002h-48
l92 114c21.333 26.667 41 40 59 40c12 0 22.5 -3.66699 31.5 -11s13.5 -17 13.5 -29c0 -17.333 -21 -39.333 -63 -66c-28 -16 -56.333 -32 -85 -48z" />
    <glyph glyph-name="glyph287" unicode="&#x1ea6;" horiz-adv-x="630" 
d="M250 571l-92 -273h178l-84 273h-2zM147 0h-164v22h50l238 678h113l220 -678h43v-22h-310v22h83l-77 254h-193l-89 -254h86v-22zM276 883h84l96 -144h-55l-83 78l-83 -78h-55zM188 817h-53.999c-60.667 36 -104.334 62.333 -131.001 79c-22 14 -33 30 -33 48
c0 13.333 5 24 15 32s21.667 12 35 12c20.667 0 42.667 -14.667 66 -44z" />
    <glyph glyph-name="glyph288" unicode="&#x1ea7;" horiz-adv-x="556" 
d="M133 329l-39.999 0.000976562v158c56.667 24.667 116 37 178 37c69.333 0 120 -9.66699 152 -29c42 -24.667 63 -69.334 63 -134.001v-339h48v-22h-194v72h-2c-24 -58.667 -69.333 -88 -136 -88c-46 0 -85 12 -117 36c-36 26.667 -54 62.334 -54 107.001
c0 52 22 91.667 66 119c23.333 14.667 67.333 30 132 46c53.333 13.333 84.666 26.666 93.999 39.999v87c0 55.333 -21.333 83 -64 83c-30 0 -57.333 -22.333 -82 -67c-5.33301 -10 -20 -45.333 -44 -106zM322.001 131.001l-0.000976562 170.001
c-7.33301 -4.66699 -28.666 -15.334 -63.999 -32.001c-22.667 -10.667 -36.667 -33 -42 -67c-2 -12 -3 -40.333 -3 -85c0 -28 2 -48.333 6 -61c6.66699 -22.667 21 -34 43 -34c40 0 60 36.333 60 109zM241 685.002h76l86 -129h-49l-75 70l-75 -70h-49zM162 626.002h-49
c-50.667 30 -89.667 53.667 -117 71c-20 12.667 -30 27 -30 43c0 26.667 15 40 45 40c18 0 37.667 -13.333 59 -40z" />
    <glyph glyph-name="glyph289" unicode="&#x1ea8;" horiz-adv-x="630" 
d="M250 571l-92 -273h178l-84 273h-2zM147 0h-164v22h50l238 678h113l220 -678h43v-22h-310v22h83l-77 254h-193l-89 -254h86v-22zM276 883h84l96 -144h-55l-83 78l-83 -78h-55zM440 929h-15.002v102c44 18 74 27 90 27c30.667 0 56.334 -7 77.001 -21
c24.667 -16 37 -38.667 37 -68c0 -26 -9.66699 -48.333 -29 -67c-3.33301 -4.66699 -20.666 -17.667 -51.999 -39c-19.333 -13.333 -29 -26.666 -29 -39.999v-11h-15v22c0 8.66699 6.5 28.5 19.5 59.5s19.5 57.167 19.5 78.5c0 43.333 -12 65 -36 65
c-14.667 0 -27.667 -10.333 -39 -31c-8 -14.667 -17.333 -40.334 -28 -77.001z" />
    <glyph glyph-name="glyph290" unicode="&#x1ea9;" horiz-adv-x="556" 
d="M133 329l-39.999 0.000976562v158c56.667 24.667 116 37 178 37c69.333 0 120 -9.66699 152 -29c42 -24.667 63 -69.334 63 -134.001v-339h48v-22h-194v72h-2c-24 -58.667 -69.333 -88 -136 -88c-46 0 -85 12 -117 36c-36 26.667 -54 62.334 -54 107.001
c0 52 22 91.667 66 119c23.333 14.667 67.333 30 132 46c53.333 13.333 84.666 26.666 93.999 39.999v87c0 55.333 -21.333 83 -64 83c-30 0 -57.333 -22.333 -82 -67c-5.33301 -10 -20 -45.333 -44 -106zM322.001 131.001l-0.000976562 170.001
c-7.33301 -4.66699 -28.666 -15.334 -63.999 -32.001c-22.667 -10.667 -36.667 -33 -42 -67c-2 -12 -3 -40.333 -3 -85c0 -28 2 -48.333 6 -61c6.66699 -22.667 21 -34 43 -34c40 0 60 36.333 60 109zM241 685.002h76l86 -129h-49l-75 70l-74 -70h-50zM389 726.002
l-13 0.00195312v92c42 16.667 68.667 25 80 25c28 0 51.333 -6.33301 70 -19c22 -14.667 33 -35.334 33 -62.001c0 -23.333 -8.66699 -43.333 -26 -60c-5.33301 -4.66699 -21 -16.334 -47 -35.001c-17.333 -12 -26 -24 -26 -36v-10h-13v20c0 7.33301 5.83301 25 17.5 53
s17.5 51.667 17.5 71c0 39.333 -11 59 -33 59c-20.667 0 -40.667 -32.667 -60 -98z" />
    <glyph glyph-name="glyph291" unicode="&#x1eaa;" horiz-adv-x="630" 
d="M250 571l-92 -273h178l-84 273h-2zM147 0h-164v22h50l238 678h113l220 -678h43v-22h-310v22h83l-77 254h-193l-89 -254h86v-22zM276 883h84l96 -144h-55l-83 78l-83 -78h-55zM432 1031h38.001c-4.66699 -30.667 -14.334 -56 -29.001 -76c-18 -25.333 -41 -38 -69 -38
c-14 0 -36.167 8 -66.5 24s-49.833 24 -58.5 24c-19.333 0 -33.333 -14.667 -42 -44h-37c14.667 76 46.667 114 96 114c11.333 0 33.5 -8 66.5 -24s53.5 -24 61.5 -24c16.667 0 30 14.667 40 44z" />
    <glyph glyph-name="glyph292" unicode="&#x1eab;" horiz-adv-x="556" 
d="M133 329l-39.999 0.000976562v158c56.667 24.667 116 37 178 37c69.333 0 120 -9.66699 152 -29c42 -24.667 63 -69.334 63 -134.001v-339h48v-22h-194v72h-2c-24 -58.667 -69.333 -88 -136 -88c-46 0 -85 12 -117 36c-36 26.667 -54 62.334 -54 107.001
c0 52 22 91.667 66 119c23.333 14.667 67.333 30 132 46c53.333 13.333 84.666 26.666 93.999 39.999v87c0 55.333 -21.333 83 -64 83c-30 0 -57.333 -22.333 -82 -67c-5.33301 -10 -20 -45.333 -44 -106zM322.001 131.001l-0.000976562 170.001
c-7.33301 -4.66699 -28.666 -15.334 -63.999 -32.001c-22.667 -10.667 -36.667 -33 -42 -67c-2 -12 -3 -40.333 -3 -85c0 -28 2 -48.333 6 -61c6.66699 -22.667 21 -34 43 -34c40 0 60 36.333 60 109zM241 686.002h76l86 -130h-49l-75 70l-75 -70h-49zM382 819.002h34
c-4 -26.667 -13 -49.667 -27 -69c-16 -22.667 -36.333 -34 -61 -34c-12.667 0 -32.667 7.16699 -60 21.5s-45 21.5 -53 21.5c-17.333 0 -30 -13 -38 -39h-33c14 68 42.667 102 86 102c10 0 30 -7.16699 60 -21.5s48.667 -21.5 56 -21.5c14 0 26 13.333 36 40z" />
    <glyph glyph-name="glyph293" unicode="&#x1eac;" horiz-adv-x="630" 
d="M250 571l-92 -273h178l-84 273h-2zM147 0h-164v22h50l238 678h113l220 -678h43v-22h-310v22h83l-77 254h-193l-89 -254h86v-22zM276 883h84l96 -144h-55l-83 78l-83 -78h-55zM239 -24c19.333 0 35.5 -6.5 48.5 -19.5s19.5 -29.167 19.5 -48.5s-6.5 -35.5 -19.5 -48.5
s-29.167 -19.5 -48.5 -19.5c-18.667 0 -34.667 6.66699 -48 20s-20 29.333 -20 48s6.66699 34.667 20 48s29.333 20 48 20z" />
    <glyph glyph-name="glyph294" unicode="&#x1ead;" horiz-adv-x="556" 
d="M133 329l-39.999 0.000976562v158c56.667 24.667 116 37 178 37c69.333 0 120 -9.66699 152 -29c42 -24.667 63 -69.334 63 -134.001v-339h48v-22h-194v72h-2c-24 -58.667 -69.333 -88 -136 -88c-46 0 -85 12 -117 36c-36 26.667 -54 62.334 -54 107.001
c0 52 22 91.667 66 119c23.333 14.667 67.333 30 132 46c53.333 13.333 84.666 26.666 93.999 39.999v87c0 55.333 -21.333 83 -64 83c-30 0 -57.333 -22.333 -82 -67c-5.33301 -10 -20 -45.333 -44 -106zM322.001 131.001l-0.000976562 170.001
c-7.33301 -4.66699 -28.666 -15.334 -63.999 -32.001c-22.667 -10.667 -36.667 -33 -42 -67c-2 -12 -3 -40.333 -3 -85c0 -28 2 -48.333 6 -61c6.66699 -22.667 21 -34 43 -34c40 0 60 36.333 60 109zM241 685.002h76l86 -129h-49l-75 70l-75 -70h-49zM280 -43.998
c17.333 0 31.833 -5.83301 43.5 -17.5s17.5 -26.167 17.5 -43.5s-5.83301 -31.833 -17.5 -43.5s-26.167 -17.5 -43.5 -17.5c-16.667 0 -31 6 -43 18s-18 26.333 -18 43s6 31 18 43s26.333 18 43 18z" />
    <glyph glyph-name="glyph295" unicode="&#x1eae;" horiz-adv-x="630" 
d="M250 571l-92 -273h178l-84 273h-2zM147 0h-164v22h50l238 678h113l220 -678h43v-22h-310v22h83l-77 254h-193l-89 -254h86v-22zM403 878h35.999c-9.33301 -85.333 -51 -128 -125 -128c-38 0 -67.333 11.667 -88 35s-31 54.333 -31 93h38
c2.66699 -45.333 30.334 -68 83.001 -68c48 0 77 22.667 87 68zM342.999 883h-53.999l102 127c23.333 29.333 45.333 44 66 44c13.333 0 25 -4.16699 35 -12.5s15 -18.833 15 -31.5c0 -18 -11 -34 -33 -48c-26.667 -16.667 -70.334 -43 -131.001 -79z" />
    <glyph glyph-name="glyph296" unicode="&#x1eaf;" horiz-adv-x="556" 
d="M133 329l-39.999 0.000976562v158c56.667 24.667 116 37 178 37c69.333 0 120 -9.66699 152 -29c42 -24.667 63 -69.334 63 -134.001v-339h48v-22h-194v72h-2c-24 -58.667 -69.333 -88 -136 -88c-46 0 -85 12 -117 36c-36 26.667 -54 62.334 -54 107.001
c0 52 22 91.667 66 119c23.333 14.667 67.333 30 132 46c53.333 13.333 84.666 26.666 93.999 39.999v87c0 55.333 -21.333 83 -64 83c-30 0 -57.333 -22.333 -82 -67c-5.33301 -10 -20 -45.333 -44 -106zM322.001 131.001l-0.000976562 170.001
c-7.33301 -4.66699 -28.666 -15.334 -63.999 -32.001c-22.667 -10.667 -36.667 -33 -42 -67c-2 -12 -3 -40.333 -3 -85c0 -28 2 -48.333 6 -61c6.66699 -22.667 21 -34 43 -34c40 0 60 36.333 60 109zM359 686.002h32c-8.66699 -76.667 -46 -115 -112 -115
c-34.667 0 -61.167 10.333 -79.5 31s-27.5 48.667 -27.5 84h34c2.66699 -40.667 27.667 -61 75 -61c42.667 0 68.667 20.333 78 61zM305 691.002h-48.999l92 114c21.333 26.667 41.333 40 60 40c11.333 0 21.666 -3.83301 30.999 -11.5s14 -17.167 14 -28.5
c0 -17.333 -10 -32 -30 -44z" />
    <glyph glyph-name="glyph297" unicode="&#x1eb0;" horiz-adv-x="630" 
d="M250 571l-92 -273h178l-84 273h-2zM147 0h-164v22h50l238 678h113l220 -678h43v-22h-310v22h83l-77 254h-193l-89 -254h86v-22zM403 878h35.999c-9.33301 -85.333 -51 -128 -125 -128c-38 0 -67.333 11.667 -88 35s-31 54.333 -31 93h38
c2.66699 -45.333 30.334 -68 83.001 -68c48 0 77 22.667 87 68zM345.999 884h-53.999c-60.667 36 -104.334 62.333 -131.001 79c-22 14 -33 30 -33 48c0 13.333 5 24 15 32s21.667 12 35 12c20.667 0 42.667 -14.667 66 -44z" />
    <glyph glyph-name="glyph298" unicode="&#x1eb1;" horiz-adv-x="556" 
d="M133 329l-39.999 0.000976562v158c56.667 24.667 116 37 178 37c69.333 0 120 -9.66699 152 -29c42 -24.667 63 -69.334 63 -134.001v-339h48v-22h-194v72h-2c-24 -58.667 -69.333 -88 -136 -88c-46 0 -85 12 -117 36c-36 26.667 -54 62.334 -54 107.001
c0 52 22 91.667 66 119c23.333 14.667 67.333 30 132 46c53.333 13.333 84.666 26.666 93.999 39.999v87c0 55.333 -21.333 83 -64 83c-30 0 -57.333 -22.333 -82 -67c-5.33301 -10 -20 -45.333 -44 -106zM322.001 131.001l-0.000976562 170.001
c-7.33301 -4.66699 -28.666 -15.334 -63.999 -32.001c-22.667 -10.667 -36.667 -33 -42 -67c-2 -12 -3 -40.333 -3 -85c0 -28 2 -48.333 6 -61c6.66699 -22.667 21 -34 43 -34c40 0 60 36.333 60 109zM359 686.002h32.001c-8.66699 -76.667 -46 -115 -112 -115
c-34.667 0 -61.167 10.333 -79.5 31s-27.5 48.667 -27.5 84h34c2 -40.667 26.667 -61 74 -61c43.333 0 69.666 20.333 78.999 61zM307.001 692.002h-48l-118 70c-20 12 -30 26.667 -30 44c0 11.333 4.5 20.833 13.5 28.5s19.5 11.5 31.5 11.5
c18.667 0 38.667 -13.333 60 -40z" />
    <glyph glyph-name="glyph299" unicode="&#x1eb2;" horiz-adv-x="630" 
d="M250 571l-92 -273h178l-84 273h-2zM147 0h-164v22h50l238 678h113l220 -678h43v-22h-310v22h83l-77 254h-193l-89 -254h86v-22zM403 878h35.999c-9.33301 -85.333 -51 -128 -125 -128c-38 0 -67.333 11.667 -88 35s-31 54.333 -31 93h38
c2.66699 -45.333 30.334 -68 83.001 -68c48 0 77 22.667 87 68zM257.999 971l-13 0.00195312v92c40 16 66.667 24 80 24c27.333 0 50.666 -6.33301 69.999 -19c22 -14.667 33 -35 33 -61c0 -22.667 -9 -42.334 -27 -59.001c-5.33301 -4.66699 -21.666 -15.667 -48.999 -33
c-18 -11.333 -27 -23 -27 -35v-10h-14v20c0 5.33301 6.66699 21.166 20 47.499s20 50.5 20 72.5c0 38.667 -11 58 -33 58c-21.333 0 -41.333 -32.333 -60 -97z" />
    <glyph glyph-name="glyph300" unicode="&#x1eb3;" horiz-adv-x="556" 
d="M133 329l-39.999 0.000976562v158c56.667 24.667 116 37 178 37c69.333 0 120 -9.66699 152 -29c42 -24.667 63 -69.334 63 -134.001v-339h48v-22h-194v72h-2c-24 -58.667 -69.333 -88 -136 -88c-46 0 -85 12 -117 36c-36 26.667 -54 62.334 -54 107.001
c0 52 22 91.667 66 119c23.333 14.667 67.333 30 132 46c53.333 13.333 84.666 26.666 93.999 39.999v87c0 55.333 -21.333 83 -64 83c-30 0 -57.333 -22.333 -82 -67c-5.33301 -10 -20 -45.333 -44 -106zM322.001 131.001l-0.000976562 170.001
c-7.33301 -4.66699 -28.666 -15.334 -63.999 -32.001c-22.667 -10.667 -36.667 -33 -42 -67c-2 -12 -3 -40.333 -3 -85c0 -28 2 -48.333 6 -61c6.66699 -22.667 21 -34 43 -34c40 0 60 36.333 60 109zM360 687.002h33c-9.33301 -76.667 -47 -115 -113 -115
c-71.333 0 -107 38.333 -107 115h34c2.66699 -40.667 27.667 -61 75 -61c43.333 0 69.333 20.333 78 61zM224 783.002l-13 0.00195312v92c40 16 66.667 24 80 24c27.333 0 50.666 -6.33301 69.999 -19c22 -14.667 33 -35 33 -61c0 -22.667 -9 -42.334 -27 -59.001
c-5.33301 -4.66699 -21.666 -15.667 -48.999 -33c-18 -11.333 -27 -23 -27 -35v-10h-14v20c0 5.33301 6.66699 21.166 20 47.499s20 50.5 20 72.5c0 38.667 -11 58 -33 58c-21.333 0 -41.333 -32.333 -60 -97z" />
    <glyph glyph-name="glyph301" unicode="&#x1eb4;" horiz-adv-x="630" 
d="M250 571l-92 -273h178l-84 273h-2zM147 0h-164v22h50l238 678h113l220 -678h43v-22h-310v22h83l-77 254h-193l-89 -254h86v-22zM403 878h35.999c-9.33301 -85.333 -51 -128 -125 -128c-38 0 -67.333 11.667 -88 35s-31 54.333 -31 93h38
c2.66699 -45.333 30.334 -68 83.001 -68c48 0 77 22.667 87 68zM559.999 1021h38.001c-4.66699 -30.667 -14.334 -56 -29.001 -76c-18 -25.333 -41 -38 -69 -38c-14 0 -36.167 8 -66.5 24s-49.833 24 -58.5 24c-19.333 0 -33.333 -14.667 -42 -44h-37
c14.667 76 46.667 114 96 114c11.333 0 33.5 -8 66.5 -24s53.5 -24 61.5 -24c16.667 0 30 14.667 40 44z" />
    <glyph glyph-name="glyph302" unicode="&#x1eb5;" horiz-adv-x="556" 
d="M133 329l-39.999 0.000976562v158c56.667 24.667 116 37 178 37c69.333 0 120 -9.66699 152 -29c42 -24.667 63 -69.334 63 -134.001v-339h48v-22h-194v72h-2c-24 -58.667 -69.333 -88 -136 -88c-46 0 -85 12 -117 36c-36 26.667 -54 62.334 -54 107.001
c0 52 22 91.667 66 119c23.333 14.667 67.333 30 132 46c53.333 13.333 84.666 26.666 93.999 39.999v87c0 55.333 -21.333 83 -64 83c-30 0 -57.333 -22.333 -82 -67c-5.33301 -10 -20 -45.333 -44 -106zM322.001 131.001l-0.000976562 170.001
c-7.33301 -4.66699 -28.666 -15.334 -63.999 -32.001c-22.667 -10.667 -36.667 -33 -42 -67c-2 -12 -3 -40.333 -3 -85c0 -28 2 -48.333 6 -61c6.66699 -22.667 21 -34 43 -34c40 0 60 36.333 60 109zM360 687.002h32c-8 -77.333 -45.333 -116 -112 -116
c-34 0 -60.333 10.667 -79 32s-28 49.333 -28 84h34c2.66699 -41.333 27.667 -62 75 -62c42.667 0 68.667 20.667 78 62zM501 815.002h33.999c-4 -27.333 -12.667 -50 -26 -68c-16.667 -22.667 -37.334 -34 -62.001 -34c-12.667 0 -32.667 7.16699 -60 21.5
s-44.666 21.5 -51.999 21.5c-18 0 -30.667 -13.333 -38 -40h-33c12.667 68.667 41.334 103 86.001 103c10 0 30 -7.16699 60 -21.5s48.333 -21.5 55 -21.5c16 0 28 13 36 39z" />
    <glyph glyph-name="glyph303" unicode="&#x1eb6;" horiz-adv-x="630" 
d="M250 571l-92 -273h178l-84 273h-2zM147 0h-164v22h50l238 678h113l220 -678h43v-22h-310v22h83l-77 254h-193l-89 -254h86v-22zM403 878h35.999c-9.33301 -85.333 -51 -128 -125 -128c-38 0 -67.333 11.667 -88 35s-31 54.333 -31 93h38
c2.66699 -45.333 30.334 -68 83.001 -68c48 0 77 22.667 87 68zM238.999 -24c19.333 0 35.5 -6.5 48.5 -19.5s19.5 -29.167 19.5 -48.5s-6.5 -35.5 -19.5 -48.5s-29.167 -19.5 -48.5 -19.5c-18.667 0 -34.667 6.66699 -48 20s-20 29.333 -20 48s6.66699 34.667 20 48
s29.333 20 48 20z" />
    <glyph glyph-name="glyph304" unicode="&#x1eb7;" horiz-adv-x="556" 
d="M133 329l-39.999 0.000976562v158c56.667 24.667 116 37 178 37c69.333 0 120 -9.66699 152 -29c42 -24.667 63 -69.334 63 -134.001v-339h48v-22h-194v72h-2c-24 -58.667 -69.333 -88 -136 -88c-46 0 -85 12 -117 36c-36 26.667 -54 62.334 -54 107.001
c0 52 22 91.667 66 119c23.333 14.667 67.333 30 132 46c53.333 13.333 84.666 26.666 93.999 39.999v87c0 55.333 -21.333 83 -64 83c-30 0 -57.333 -22.333 -82 -67c-5.33301 -10 -20 -45.333 -44 -106zM322.001 131.001l-0.000976562 170.001
c-7.33301 -4.66699 -28.666 -15.334 -63.999 -32.001c-22.667 -10.667 -36.667 -33 -42 -67c-2 -12 -3 -40.333 -3 -85c0 -28 2 -48.333 6 -61c6.66699 -22.667 21 -34 43 -34c40 0 60 36.333 60 109zM280 -43.998c17.333 0 31.833 -5.83301 43.5 -17.5
s17.5 -26.167 17.5 -43.5s-5.83301 -31.833 -17.5 -43.5s-26.167 -17.5 -43.5 -17.5c-16.667 0 -31 6 -43 18s-18 26.333 -18 43s6 31 18 43s26.333 18 43 18zM359 686.002h32c-8.66699 -76.667 -46 -115 -112 -115c-34.667 0 -61.167 10.333 -79.5 31
s-27.5 48.667 -27.5 84h34c2.66699 -40.667 27.667 -61 75 -61c42.667 0 68.667 20.333 78 61z" />
    <glyph glyph-name="glyph305" unicode="&#x1eb8;" horiz-adv-x="630" 
d="M84 22v648.001h-47v22h537v-220h-34c-24.667 83.333 -43.667 137.166 -57 161.499s-34 36.5 -62 36.5h-155v-298h56c32 0 55 16 69 48c2.66699 6 10.667 36 24 90h22v-298h-22c-13.333 54 -21.333 84 -24 90c-14 32 -37 48 -69 48h-56v-328h154c28 0 50.667 19.333 68 58
c12.667 28 30 87.333 52 178h34v-258h-542v22h52zM305 -35.999c19.333 0 35.5 -6.5 48.5 -19.5s19.5 -29.167 19.5 -48.5s-6.5 -35.5 -19.5 -48.5s-29.167 -19.5 -48.5 -19.5c-18.667 0 -34.667 6.66699 -48 20s-20 29.333 -20 48s6.66699 34.667 20 48s29.333 20 48 20z
" />
    <glyph glyph-name="glyph306" unicode="&#x1eb9;" horiz-adv-x="556" 
d="M512 286l-286 -0.000976562c0 -98 5.66699 -166 17 -204c15.333 -50.667 46.666 -76 93.999 -76c88.667 0 139.334 64.667 152.001 194h22c-11.333 -144 -78.333 -216 -201 -216c-80.667 0 -145.167 24 -193.5 72s-72.5 112 -72.5 192c0 75.333 22.333 139.333 67 192
c46.667 56 107 84 181 84c72.667 0 128 -22 166 -66c36 -41.333 54 -98.666 54 -171.999zM226 307.999l114.002 0.000976562c0 80.667 -2.33301 131 -7 151c-6.66699 28.667 -21.334 43 -44.001 43c-26 0 -43.333 -16 -52 -48
c-6.66699 -24.667 -10.334 -73.334 -11.001 -146.001zM292.002 -54c17.333 0 31.833 -5.83301 43.5 -17.5s17.5 -26.167 17.5 -43.5s-5.83301 -31.833 -17.5 -43.5s-26.167 -17.5 -43.5 -17.5c-16.667 0 -31 6 -43 18s-18 26.333 -18 43s6 31 18 43s26.333 18 43 18z" />
    <glyph glyph-name="glyph307" unicode="&#x1eba;" horiz-adv-x="630" 
d="M84 22v648.001h-47v22h537v-220h-34c-24.667 83.333 -43.667 137.166 -57 161.499s-34 36.5 -62 36.5h-155v-298h56c32 0 55 16 69 48c2.66699 6 10.667 36 24 90h22v-298h-22c-13.333 54 -21.333 84 -24 90c-14 32 -37 48 -69 48h-56v-328h154c28 0 50.667 19.333 68 58
c12.667 28 30 87.333 52 178h34v-258h-542v22h52zM233 867.001h-15.002v102c44 18 74 27 90 27c30.667 0 56.334 -7 77.001 -21c24.667 -16 37 -38.667 37 -68c0 -26 -9.66699 -48.333 -29 -67c-3.33301 -4.66699 -20.666 -17.667 -51.999 -39
c-19.333 -13.333 -29 -26.666 -29 -39.999v-11h-15v22c0 8.66699 6.5 28.5 19.5 59.5s19.5 57.167 19.5 78.5c0 43.333 -12 65 -36 65c-14.667 0 -27.667 -10.333 -39 -31c-8 -14.667 -17.333 -40.334 -28 -77.001z" />
    <glyph glyph-name="glyph308" unicode="&#x1ebb;" horiz-adv-x="556" 
d="M512 286l-286 -0.000976562c0 -98 5.66699 -166 17 -204c15.333 -50.667 46.666 -76 93.999 -76c88.667 0 139.334 64.667 152.001 194h22c-11.333 -144 -78.333 -216 -201 -216c-80.667 0 -145.167 24 -193.5 72s-72.5 112 -72.5 192c0 75.333 22.333 139.333 67 192
c46.667 56 107 84 181 84c72.667 0 128 -22 166 -66c36 -41.333 54 -98.666 54 -171.999zM226 307.999l114.002 0.000976562c0 80.667 -2.33301 131 -7 151c-6.66699 28.667 -21.334 43 -44.001 43c-26 0 -43.333 -16 -52 -48
c-6.66699 -24.667 -10.334 -73.334 -11.001 -146.001zM227.002 677l-13 0.00195312v92c42 16.667 68.667 25 80 25c28 0 51.333 -6.33301 70 -19c22 -14.667 33 -35.334 33 -62.001c0 -23.333 -8.66699 -43.333 -26 -60c-5.33301 -4.66699 -21 -16.334 -47 -35.001
c-17.333 -12 -26 -24 -26 -36v-10h-13v20c0 7.33301 5.83301 25 17.5 53s17.5 51.667 17.5 71c0 39.333 -11 59 -33 59c-20.667 0 -40.667 -32.667 -60 -98z" />
    <glyph glyph-name="glyph309" unicode="&#x1ebc;" horiz-adv-x="630" 
d="M84 22v648.001h-47v22h537v-220h-34c-24.667 83.333 -43.667 137.166 -57 161.499s-34 36.5 -62 36.5h-155v-298h56c32 0 55 16 69 48c2.66699 6 10.667 36 24 90h22v-298h-22c-13.333 54 -21.333 84 -24 90c-14 32 -37 48 -69 48h-56v-328h154c28 0 50.667 19.333 68 58
c12.667 28 30 87.333 52 178h34v-258h-542v22h52zM418 894.001h38.001c-4.66699 -30.667 -14.334 -56 -29.001 -76c-18 -25.333 -41 -38 -69 -38c-14 0 -36.167 8 -66.5 24s-49.833 24 -58.5 24c-19.333 0 -33.333 -14.667 -42 -44h-37c14.667 76 46.667 114 96 114
c11.333 0 33.5 -8 66.5 -24s53.5 -24 61.5 -24c16.667 0 30 14.667 40 44z" />
    <glyph glyph-name="glyph310" unicode="&#x1ebd;" horiz-adv-x="556" 
d="M512 286l-286 -0.000976562c0 -98 5.66699 -166 17 -204c15.333 -50.667 46.666 -76 93.999 -76c88.667 0 139.334 64.667 152.001 194h22c-11.333 -144 -78.333 -216 -201 -216c-80.667 0 -145.167 24 -193.5 72s-72.5 112 -72.5 192c0 75.333 22.333 139.333 67 192
c46.667 56 107 84 181 84c72.667 0 128 -22 166 -66c36 -41.333 54 -98.666 54 -171.999zM226 307.999l114.002 0.000976562c0 80.667 -2.33301 131 -7 151c-6.66699 28.667 -21.334 43 -44.001 43c-26 0 -43.333 -16 -52 -48
c-6.66699 -24.667 -10.334 -73.334 -11.001 -146.001zM395.002 697h34c-4 -26.667 -13 -49.667 -27 -69c-16 -22.667 -36.333 -34 -61 -34c-12.667 0 -32.667 7.16699 -60 21.5s-45 21.5 -53 21.5c-17.333 0 -30 -13 -38 -39h-33c14 68 42.667 102 86 102
c10 0 30 -7.16699 60 -21.5s48.667 -21.5 56 -21.5c14 0 26 13.333 36 40z" />
    <glyph glyph-name="glyph311" unicode="&#x1ebe;" horiz-adv-x="630" 
d="M84 22v648.001h-47v22h537v-220h-34c-24.667 83.333 -43.667 137.166 -57 161.499s-34 36.5 -62 36.5h-155v-298h56c32 0 55 16 69 48c2.66699 6 10.667 36 24 90h22v-298h-22c-13.333 54 -21.333 84 -24 90c-14 32 -37 48 -69 48h-56v-328h154c28 0 50.667 19.333 68 58
c12.667 28 30 87.333 52 178h34v-258h-542v22h52zM262 894.001h84l96 -144h-55l-83 78l-83 -78h-55zM489 828.001h-53.999l102 127c23.333 29.333 45.333 44 66 44c13.333 0 25 -4.16699 35 -12.5s15 -18.833 15 -31.5c0 -18 -11 -34 -33 -48
c-26.667 -16.667 -70.334 -43 -131.001 -79z" />
    <glyph glyph-name="glyph312" unicode="&#x1ebf;" horiz-adv-x="556" 
d="M512 286l-286 -0.000976562c0 -98 5.66699 -166 17 -204c15.333 -50.667 46.666 -76 93.999 -76c88.667 0 139.334 64.667 152.001 194h22c-11.333 -144 -78.333 -216 -201 -216c-80.667 0 -145.167 24 -193.5 72s-72.5 112 -72.5 192c0 75.333 22.333 139.333 67 192
c46.667 56 107 84 181 84c72.667 0 128 -22 166 -66c36 -41.333 54 -98.666 54 -171.999zM226 307.999l114.002 0.000976562c0 80.667 -2.33301 131 -7 151c-6.66699 28.667 -21.334 43 -44.001 43c-26 0 -43.333 -16 -52 -48
c-6.66699 -24.667 -10.334 -73.334 -11.001 -146.001zM254.002 685h76l86 -129h-49l-75 70l-75 -70h-49zM458.002 626h-48l92 114c21.333 26.667 41 40 59 40c12 0 22.5 -3.66699 31.5 -11s13.5 -17 13.5 -29c0 -17.333 -21 -39.333 -63 -66c-28 -16 -56.333 -32 -85 -48z
" />
    <glyph glyph-name="glyph313" unicode="&#x1ec0;" horiz-adv-x="630" 
d="M84 22v648.001h-47v22h537v-220h-34c-24.667 83.333 -43.667 137.166 -57 161.499s-34 36.5 -62 36.5h-155v-298h56c32 0 55 16 69 48c2.66699 6 10.667 36 24 90h22v-298h-22c-13.333 54 -21.333 84 -24 90c-14 32 -37 48 -69 48h-56v-328h154c28 0 50.667 19.333 68 58
c12.667 28 30 87.333 52 178h34v-258h-542v22h52zM262 894.001h84l96 -144h-55l-83 78l-83 -78h-55zM174 828.001h-53.999c-60.667 36 -104.334 62.333 -131.001 79c-22 14 -33 30 -33 48c0 13.333 5 24 15 32s21.667 12 35 12c20.667 0 42.667 -14.667 66 -44z" />
    <glyph glyph-name="glyph314" unicode="&#x1ec1;" horiz-adv-x="556" 
d="M512 286l-286 -0.000976562c0 -98 5.66699 -166 17 -204c15.333 -50.667 46.666 -76 93.999 -76c88.667 0 139.334 64.667 152.001 194h22c-11.333 -144 -78.333 -216 -201 -216c-80.667 0 -145.167 24 -193.5 72s-72.5 112 -72.5 192c0 75.333 22.333 139.333 67 192
c46.667 56 107 84 181 84c72.667 0 128 -22 166 -66c36 -41.333 54 -98.666 54 -171.999zM226 307.999l114.002 0.000976562c0 80.667 -2.33301 131 -7 151c-6.66699 28.667 -21.334 43 -44.001 43c-26 0 -43.333 -16 -52 -48
c-6.66699 -24.667 -10.334 -73.334 -11.001 -146.001zM254.002 685h76l86 -129h-49l-75 70l-75 -70h-49zM175.002 626h-49c-50.667 30 -89.667 53.667 -117 71c-20 12.667 -30 27 -30 43c0 26.667 15 40 45 40c18 0 37.667 -13.333 59 -40z" />
    <glyph glyph-name="glyph315" unicode="&#x1ec2;" horiz-adv-x="630" 
d="M84 22v648.001h-47v22h537v-220h-34c-24.667 83.333 -43.667 137.166 -57 161.499s-34 36.5 -62 36.5h-155v-298h56c32 0 55 16 69 48c2.66699 6 10.667 36 24 90h22v-298h-22c-13.333 54 -21.333 84 -24 90c-14 32 -37 48 -69 48h-56v-328h154c28 0 50.667 19.333 68 58
c12.667 28 30 87.333 52 178h34v-258h-542v22h52zM262 894.001h84l96 -144h-55l-83 78l-83 -78h-55zM426 940.001h-15.002v102c44 18 74 27 90 27c30.667 0 56.334 -7 77.001 -21c24.667 -16 37 -38.667 37 -68c0 -26 -9.66699 -48.333 -29 -67
c-3.33301 -4.66699 -20.666 -17.667 -51.999 -39c-19.333 -13.333 -29 -26.666 -29 -39.999v-11h-15v22c0 8.66699 6.5 28.5 19.5 59.5s19.5 57.167 19.5 78.5c0 43.333 -12 65 -36 65c-14.667 0 -27.667 -10.333 -39 -31c-8 -14.667 -17.333 -40.334 -28 -77.001z" />
    <glyph glyph-name="glyph316" unicode="&#x1ec3;" horiz-adv-x="556" 
d="M512 286l-286 -0.000976562c0 -98 5.66699 -166 17 -204c15.333 -50.667 46.666 -76 93.999 -76c88.667 0 139.334 64.667 152.001 194h22c-11.333 -144 -78.333 -216 -201 -216c-80.667 0 -145.167 24 -193.5 72s-72.5 112 -72.5 192c0 75.333 22.333 139.333 67 192
c46.667 56 107 84 181 84c72.667 0 128 -22 166 -66c36 -41.333 54 -98.666 54 -171.999zM226 307.999l114.002 0.000976562c0 80.667 -2.33301 131 -7 151c-6.66699 28.667 -21.334 43 -44.001 43c-26 0 -43.333 -16 -52 -48
c-6.66699 -24.667 -10.334 -73.334 -11.001 -146.001zM254.002 685h76l86 -129h-49l-75 70l-74 -70h-50zM402.002 726l-13 0.00195312v92c42 16.667 68.667 25 80 25c28 0 51.333 -6.33301 70 -19c22 -14.667 33 -35.334 33 -62.001c0 -23.333 -8.66699 -43.333 -26 -60
c-5.33301 -4.66699 -21 -16.334 -47 -35.001c-17.333 -12 -26 -24 -26 -36v-10h-13v20c0 7.33301 5.83301 25 17.5 53s17.5 51.667 17.5 71c0 39.333 -11 59 -33 59c-20.667 0 -40.667 -32.667 -60 -98z" />
    <glyph glyph-name="glyph317" unicode="&#x1ec4;" horiz-adv-x="630" 
d="M84 22v648.001h-47v22h537v-220h-34c-24.667 83.333 -43.667 137.166 -57 161.499s-34 36.5 -62 36.5h-155v-298h56c32 0 55 16 69 48c2.66699 6 10.667 36 24 90h22v-298h-22c-13.333 54 -21.333 84 -24 90c-14 32 -37 48 -69 48h-56v-328h154c28 0 50.667 19.333 68 58
c12.667 28 30 87.333 52 178h34v-258h-542v22h52zM261 894.001h84l96 -144h-55l-83 78l-83 -78h-55zM417 1042h38.001c-4.66699 -30.667 -14.334 -56 -29.001 -76c-18 -25.333 -41 -38 -69 -38c-14 0 -36.167 8 -66.5 24s-49.833 24 -58.5 24
c-19.333 0 -33.333 -14.667 -42 -44h-37c14.667 76 46.667 114 96 114c11.333 0 33.5 -8 66.5 -24s53.5 -24 61.5 -24c16.667 0 30 14.667 40 44z" />
    <glyph glyph-name="glyph318" unicode="&#x1ec5;" horiz-adv-x="556" 
d="M512 286l-286 -0.000976562c0 -98 5.66699 -166 17 -204c15.333 -50.667 46.666 -76 93.999 -76c88.667 0 139.334 64.667 152.001 194h22c-11.333 -144 -78.333 -216 -201 -216c-80.667 0 -145.167 24 -193.5 72s-72.5 112 -72.5 192c0 75.333 22.333 139.333 67 192
c46.667 56 107 84 181 84c72.667 0 128 -22 166 -66c36 -41.333 54 -98.666 54 -171.999zM226 307.999l114.002 0.000976562c0 80.667 -2.33301 131 -7 151c-6.66699 28.667 -21.334 43 -44.001 43c-26 0 -43.333 -16 -52 -48
c-6.66699 -24.667 -10.334 -73.334 -11.001 -146.001zM254.002 686h76l86 -130h-49l-75 70l-75 -70h-49zM395.002 819h34c-4 -26.667 -13 -49.667 -27 -69c-16 -22.667 -36.333 -34 -61 -34c-12.667 0 -32.667 7.16699 -60 21.5s-45 21.5 -53 21.5
c-17.333 0 -30 -13 -38 -39h-33c14 68 42.667 102 86 102c10 0 30 -7.16699 60 -21.5s48.667 -21.5 56 -21.5c14 0 26 13.333 36 40z" />
    <glyph glyph-name="glyph319" unicode="&#x1ec6;" horiz-adv-x="630" 
d="M84 22v648.001h-47v22h537v-220h-34c-24.667 83.333 -43.667 137.166 -57 161.499s-34 36.5 -62 36.5h-155v-298h56c32 0 55 16 69 48c2.66699 6 10.667 36 24 90h22v-298h-22c-13.333 54 -21.333 84 -24 90c-14 32 -37 48 -69 48h-56v-328h154c28 0 50.667 19.333 68 58
c12.667 28 30 87.333 52 178h34v-258h-542v22h52zM262 894.001h84l96 -144h-55l-83 78l-83 -78h-55zM305 -35.999c19.333 0 35.5 -6.5 48.5 -19.5s19.5 -29.167 19.5 -48.5s-6.5 -35.5 -19.5 -48.5s-29.167 -19.5 -48.5 -19.5c-18.667 0 -34.667 6.66699 -48 20
s-20 29.333 -20 48s6.66699 34.667 20 48s29.333 20 48 20z" />
    <glyph glyph-name="glyph320" unicode="&#x1ec7;" horiz-adv-x="556" 
d="M512 286l-286 -0.000976562c0 -98 5.66699 -166 17 -204c15.333 -50.667 46.666 -76 93.999 -76c88.667 0 139.334 64.667 152.001 194h22c-11.333 -144 -78.333 -216 -201 -216c-80.667 0 -145.167 24 -193.5 72s-72.5 112 -72.5 192c0 75.333 22.333 139.333 67 192
c46.667 56 107 84 181 84c72.667 0 128 -22 166 -66c36 -41.333 54 -98.666 54 -171.999zM226 307.999l114.002 0.000976562c0 80.667 -2.33301 131 -7 151c-6.66699 28.667 -21.334 43 -44.001 43c-26 0 -43.333 -16 -52 -48
c-6.66699 -24.667 -10.334 -73.334 -11.001 -146.001zM254.002 685h76l86 -129h-49l-75 70l-75 -70h-49zM292.002 -54c17.333 0 31.833 -5.83301 43.5 -17.5s17.5 -26.167 17.5 -43.5s-5.83301 -31.833 -17.5 -43.5s-26.167 -17.5 -43.5 -17.5c-16.667 0 -31 6 -43 18
s-18 26.333 -18 43s6 31 18 43s26.333 18 43 18z" />
    <glyph glyph-name="glyph321" unicode="&#x1ec8;" horiz-adv-x="370" 
d="M328 22v-22h-286v22h52v648h-52v22h286v-22h-52v-648h52zM112 867h-15.002v102c44 18 74 27 90 27c30.667 0 56.334 -7 77.001 -21c24.667 -16 37 -38.667 37 -68c0 -26 -9.66699 -48.333 -29 -67c-3.33301 -4.66699 -20.666 -17.667 -51.999 -39
c-19.333 -13.333 -29 -26.666 -29 -39.999v-11h-15v22c0 8.66699 6.5 28.5 19.5 59.5s19.5 57.167 19.5 78.5c0 43.333 -12 65 -36 65c-14.667 0 -27.667 -10.333 -39 -31c-8 -14.667 -17.333 -40.334 -28 -77.001z" />
    <glyph glyph-name="glyph322" unicode="&#x1ec9;" horiz-adv-x="296" 
d="M276 22v-22h-256v22h48v464h-48v22h208v-486h48zM83 677l-13 0.00195312v92c42 16.667 68.667 25 80 25c28 0 51.333 -6.33301 70 -19c22 -14.667 33 -35.334 33 -62.001c0 -23.333 -8.66699 -43.333 -26 -60c-5.33301 -4.66699 -21 -16.334 -47 -35.001
c-17.333 -12 -26 -24 -26 -36v-10h-13v20c0 7.33301 5.83301 25 17.5 53s17.5 51.667 17.5 71c0 39.333 -11 59 -33 59c-20.667 0 -40.667 -32.667 -60 -98z" />
    <glyph glyph-name="glyph323" unicode="&#x1eca;" horiz-adv-x="370" 
d="M328 22v-22h-286v22h52v648h-52v22h286v-22h-52v-648h52zM185 -35c19.333 0 35.5 -6.5 48.5 -19.5s19.5 -29.167 19.5 -48.5s-6.5 -35.5 -19.5 -48.5s-29.167 -19.5 -48.5 -19.5c-18.667 0 -34.667 6.66699 -48 20s-20 29.333 -20 48s6.66699 34.667 20 48
s29.333 20 48 20z" />
    <glyph glyph-name="glyph324" unicode="&#x1ecb;" horiz-adv-x="296" 
d="M276 22v-22h-256v22h48v464h-48v22h208v-486h48zM85 646c0 17.333 6.16895 32.1641 18.502 44.4971s27.166 18.5 44.499 18.5s32.166 -6.16699 44.499 -18.5s18.5 -27.166 18.5 -44.499s-6.16699 -32.166 -18.5 -44.499s-27.166 -18.5 -44.499 -18.5
c-16.667 0 -31.334 6.33301 -44.001 19s-19 27.334 -19 44.001zM149.002 -54.002c17.333 0 31.833 -5.83301 43.5 -17.5s17.5 -26.167 17.5 -43.5s-5.83301 -31.833 -17.5 -43.5s-26.167 -17.5 -43.5 -17.5c-16.667 0 -31 6 -43 18s-18 26.333 -18 43s6 31 18 43
s26.333 18 43 18z" />
    <glyph glyph-name="glyph325" unicode="&#x1ecc;" horiz-adv-x="722" 
d="M361 708c100.667 0 180 -36 238 -108c54 -66 81 -150.667 81 -254s-27 -188 -81 -254c-58 -72 -137.333 -108 -238 -108c-99.333 0 -178.333 36.333 -237 109c-54.667 66.667 -82 151 -82 253s27.333 186.333 82 253c58.667 72.667 137.667 109 237 109zM474 346
c0 103.333 -2.33301 170.333 -7 201c-14 92.667 -49.333 139 -106 139s-92 -46.333 -106 -139c-4.66699 -30 -7 -97 -7 -201s2.33301 -171 7 -201c14 -92.667 49.333 -139 106 -139s92 46.333 106 139c4.66699 30.667 7 97.667 7 201zM361 -46
c19.333 0 35.5 -6.5 48.5 -19.5s19.5 -29.167 19.5 -48.5s-6.5 -35.5 -19.5 -48.5s-29.167 -19.5 -48.5 -19.5c-18.667 0 -34.667 6.66699 -48 20s-20 29.333 -20 48s6.66699 34.667 20 48s29.333 20 48 20z" />
    <glyph glyph-name="glyph326" unicode="&#x1ecd;" 
d="M537 254c0 -78 -22 -141.667 -66 -191c-46 -52.667 -107.333 -79 -184 -79c-77.333 0 -139 26 -185 78c-43.333 50 -65 114 -65 192c0 78.667 21.667 142.667 65 192c45.333 52 107 78 185 78s139.667 -26 185 -78c43.333 -49.333 65 -113.333 65 -192zM219 254
c0 -94 3 -157 9 -189c7.33301 -39.333 27 -59 59 -59s51.667 19.667 59 59c6 32 9 95 9 189s-3 157 -9 189c-7.33301 39.333 -27 59 -59 59s-51.667 -19.667 -59 -59c-6 -32 -9 -95 -9 -189zM287 -54c17.333 0 31.833 -5.83301 43.5 -17.5s17.5 -26.167 17.5 -43.5
s-5.83301 -31.833 -17.5 -43.5s-26.167 -17.5 -43.5 -17.5c-16.667 0 -31 6 -43 18s-18 26.333 -18 43s6 31 18 43s26.333 18 43 18z" />
    <glyph glyph-name="glyph327" unicode="&#x1ece;" horiz-adv-x="722" 
d="M361 708c100.667 0 180 -36 238 -108c54 -66 81 -150.667 81 -254s-27 -188 -81 -254c-58 -72 -137.333 -108 -238 -108c-99.333 0 -178.333 36.333 -237 109c-54.667 66.667 -82 151 -82 253s27.333 186.333 82 253c58.667 72.667 137.667 109 237 109zM474 346
c0 103.333 -2.33301 170.333 -7 201c-14 92.667 -49.333 139 -106 139s-92 -46.333 -106 -139c-4.66699 -30 -7 -97 -7 -201s2.33301 -171 7 -201c14 -92.667 49.333 -139 106 -139s92 46.333 106 139c4.66699 30.667 7 97.667 7 201zM289 877h-15.002v102
c44 18 74 27 90 27c30.667 0 56.334 -7 77.001 -21c24.667 -16 37 -38.667 37 -68c0 -26 -9.66699 -48.333 -29 -67c-3.33301 -4.66699 -20.666 -17.667 -51.999 -39c-19.333 -13.333 -29 -26.666 -29 -39.999v-11h-15v22c0 8.66699 6.5 28.5 19.5 59.5
s19.5 57.167 19.5 78.5c0 43.333 -12 65 -36 65c-14.667 0 -27.667 -10.333 -39 -31c-8 -14.667 -17.333 -40.334 -28 -77.001z" />
    <glyph glyph-name="glyph328" unicode="&#x1ecf;" 
d="M537 254c0 -78 -22 -141.667 -66 -191c-46 -52.667 -107.333 -79 -184 -79c-77.333 0 -139 26 -185 78c-43.333 50 -65 114 -65 192c0 78.667 21.667 142.667 65 192c45.333 52 107 78 185 78s139.667 -26 185 -78c43.333 -49.333 65 -113.333 65 -192zM219 254
c0 -94 3 -157 9 -189c7.33301 -39.333 27 -59 59 -59s51.667 19.667 59 59c6 32 9 95 9 189s-3 157 -9 189c-7.33301 39.333 -27 59 -59 59s-51.667 -19.667 -59 -59c-6 -32 -9 -95 -9 -189zM222 677l-13 0.00195312v92c42 16.667 68.667 25 80 25
c28 0 51.333 -6.33301 70 -19c22 -14.667 33 -35.334 33 -62.001c0 -23.333 -8.66699 -43.333 -26 -60c-5.33301 -4.66699 -21 -16.334 -47 -35.001c-17.333 -12 -26 -24 -26 -36v-10h-13v20c0 7.33301 5.83301 25 17.5 53s17.5 51.667 17.5 71c0 39.333 -11 59 -33 59
c-20.667 0 -40.667 -32.667 -60 -98z" />
    <glyph glyph-name="glyph329" unicode="&#x1ed0;" horiz-adv-x="722" 
d="M361 708c100.667 0 180 -36 238 -108c54 -66 81 -150.667 81 -254s-27 -188 -81 -254c-58 -72 -137.333 -108 -238 -108c-99.333 0 -178.333 36.333 -237 109c-54.667 66.667 -82 151 -82 253s27.333 186.333 82 253c58.667 72.667 137.667 109 237 109zM474 346
c0 103.333 -2.33301 170.333 -7 201c-14 92.667 -49.333 139 -106 139s-92 -46.333 -106 -139c-4.66699 -30 -7 -97 -7 -201s2.33301 -171 7 -201c14 -92.667 49.333 -139 106 -139s92 46.333 106 139c4.66699 30.667 7 97.667 7 201zM319 894h84l96 -144h-55l-83 78
l-83 -78h-55zM546 828h-53.999l102 127c23.333 29.333 45.333 44 66 44c13.333 0 25 -4.16699 35 -12.5s15 -18.833 15 -31.5c0 -18 -11 -34 -33 -48c-26.667 -16.667 -70.334 -43 -131.001 -79z" />
    <glyph glyph-name="glyph330" unicode="&#x1ed1;" 
d="M537 254c0 -78 -22 -141.667 -66 -191c-46 -52.667 -107.333 -79 -184 -79c-77.333 0 -139 26 -185 78c-43.333 50 -65 114 -65 192c0 78.667 21.667 142.667 65 192c45.333 52 107 78 185 78s139.667 -26 185 -78c43.333 -49.333 65 -113.333 65 -192zM219 254
c0 -94 3 -157 9 -189c7.33301 -39.333 27 -59 59 -59s51.667 19.667 59 59c6 32 9 95 9 189s-3 157 -9 189c-7.33301 39.333 -27 59 -59 59s-51.667 -19.667 -59 -59c-6 -32 -9 -95 -9 -189zM249 685h76l86 -129h-49l-75 70l-75 -70h-49zM453 626h-48l92 114
c21.333 26.667 41 40 59 40c12 0 22.5 -3.66699 31.5 -11s13.5 -17 13.5 -29c0 -17.333 -21 -39.333 -63 -66c-28 -16 -56.333 -32 -85 -48z" />
    <glyph glyph-name="glyph331" unicode="&#x1ed2;" horiz-adv-x="722" 
d="M361 708c100.667 0 180 -36 238 -108c54 -66 81 -150.667 81 -254s-27 -188 -81 -254c-58 -72 -137.333 -108 -238 -108c-99.333 0 -178.333 36.333 -237 109c-54.667 66.667 -82 151 -82 253s27.333 186.333 82 253c58.667 72.667 137.667 109 237 109zM474 346
c0 103.333 -2.33301 170.333 -7 201c-14 92.667 -49.333 139 -106 139s-92 -46.333 -106 -139c-4.66699 -30 -7 -97 -7 -201s2.33301 -171 7 -201c14 -92.667 49.333 -139 106 -139s92 46.333 106 139c4.66699 30.667 7 97.667 7 201zM320 894h84l96 -144h-55l-83 78
l-83 -78h-55zM232 828h-53.999c-60.667 36 -104.334 62.333 -131.001 79c-22 14 -33 30 -33 48c0 13.333 5 24 15 32s21.667 12 35 12c20.667 0 42.667 -14.667 66 -44z" />
    <glyph glyph-name="glyph332" unicode="&#x1ed3;" 
d="M537 254c0 -78 -22 -141.667 -66 -191c-46 -52.667 -107.333 -79 -184 -79c-77.333 0 -139 26 -185 78c-43.333 50 -65 114 -65 192c0 78.667 21.667 142.667 65 192c45.333 52 107 78 185 78s139.667 -26 185 -78c43.333 -49.333 65 -113.333 65 -192zM219 254
c0 -94 3 -157 9 -189c7.33301 -39.333 27 -59 59 -59s51.667 19.667 59 59c6 32 9 95 9 189s-3 157 -9 189c-7.33301 39.333 -27 59 -59 59s-51.667 -19.667 -59 -59c-6 -32 -9 -95 -9 -189zM249 685h76l86 -129h-49l-75 70l-75 -70h-49zM170 626h-49
c-50.667 30 -89.667 53.667 -117 71c-20 12.667 -30 27 -30 43c0 26.667 15 40 45 40c18 0 37.667 -13.333 59 -40z" />
    <glyph glyph-name="glyph333" unicode="&#x1ed4;" horiz-adv-x="722" 
d="M361 708c100.667 0 180 -36 238 -108c54 -66 81 -150.667 81 -254s-27 -188 -81 -254c-58 -72 -137.333 -108 -238 -108c-99.333 0 -178.333 36.333 -237 109c-54.667 66.667 -82 151 -82 253s27.333 186.333 82 253c58.667 72.667 137.667 109 237 109zM474 346
c0 103.333 -2.33301 170.333 -7 201c-14 92.667 -49.333 139 -106 139s-92 -46.333 -106 -139c-4.66699 -30 -7 -97 -7 -201s2.33301 -171 7 -201c14 -92.667 49.333 -139 106 -139s92 46.333 106 139c4.66699 30.667 7 97.667 7 201zM320 894h84l96 -144h-55l-83 78
l-83 -78h-55zM484 940h-15.002v102c44 18 74 27 90 27c30.667 0 56.334 -7 77.001 -21c24.667 -16 37 -38.667 37 -68c0 -26 -9.66699 -48.333 -29 -67c-3.33301 -4.66699 -20.666 -17.667 -51.999 -39c-19.333 -13.333 -29 -26.666 -29 -39.999v-11h-15v22
c0 8.66699 6.5 28.5 19.5 59.5s19.5 57.167 19.5 78.5c0 43.333 -12 65 -36 65c-14.667 0 -27.667 -10.333 -39 -31c-8 -14.667 -17.333 -40.334 -28 -77.001z" />
    <glyph glyph-name="glyph334" unicode="&#x1ed5;" 
d="M537 254c0 -78 -22 -141.667 -66 -191c-46 -52.667 -107.333 -79 -184 -79c-77.333 0 -139 26 -185 78c-43.333 50 -65 114 -65 192c0 78.667 21.667 142.667 65 192c45.333 52 107 78 185 78s139.667 -26 185 -78c43.333 -49.333 65 -113.333 65 -192zM219 254
c0 -94 3 -157 9 -189c7.33301 -39.333 27 -59 59 -59s51.667 19.667 59 59c6 32 9 95 9 189s-3 157 -9 189c-7.33301 39.333 -27 59 -59 59s-51.667 -19.667 -59 -59c-6 -32 -9 -95 -9 -189zM249 685h76l86 -129h-49l-75 70l-74 -70h-50zM397 726l-13 0.00195312v92
c42 16.667 68.667 25 80 25c28 0 51.333 -6.33301 70 -19c22 -14.667 33 -35.334 33 -62.001c0 -23.333 -8.66699 -43.333 -26 -60c-5.33301 -4.66699 -21 -16.334 -47 -35.001c-17.333 -12 -26 -24 -26 -36v-10h-13v20c0 7.33301 5.83301 25 17.5 53s17.5 51.667 17.5 71
c0 39.333 -11 59 -33 59c-20.667 0 -40.667 -32.667 -60 -98z" />
    <glyph glyph-name="glyph335" unicode="&#x1ed6;" horiz-adv-x="722" 
d="M361 708c100.667 0 180 -36 238 -108c54 -66 81 -150.667 81 -254s-27 -188 -81 -254c-58 -72 -137.333 -108 -238 -108c-99.333 0 -178.333 36.333 -237 109c-54.667 66.667 -82 151 -82 253s27.333 186.333 82 253c58.667 72.667 137.667 109 237 109zM474 346
c0 103.333 -2.33301 170.333 -7 201c-14 92.667 -49.333 139 -106 139s-92 -46.333 -106 -139c-4.66699 -30 -7 -97 -7 -201s2.33301 -171 7 -201c14 -92.667 49.333 -139 106 -139s92 46.333 106 139c4.66699 30.667 7 97.667 7 201zM319 894h84l96 -144h-55l-83 78
l-83 -78h-55zM475 1042h38.001c-4.66699 -30.667 -14.334 -56 -29.001 -76c-18 -25.333 -41 -38 -69 -38c-14 0 -36.167 8 -66.5 24s-49.833 24 -58.5 24c-19.333 0 -33.333 -14.667 -42 -44h-37c14.667 76 46.667 114 96 114c11.333 0 33.5 -8 66.5 -24s53.5 -24 61.5 -24
c16.667 0 30 14.667 40 44z" />
    <glyph glyph-name="glyph336" unicode="&#x1ed7;" 
d="M537 254c0 -78 -22 -141.667 -66 -191c-46 -52.667 -107.333 -79 -184 -79c-77.333 0 -139 26 -185 78c-43.333 50 -65 114 -65 192c0 78.667 21.667 142.667 65 192c45.333 52 107 78 185 78s139.667 -26 185 -78c43.333 -49.333 65 -113.333 65 -192zM219 254
c0 -94 3 -157 9 -189c7.33301 -39.333 27 -59 59 -59s51.667 19.667 59 59c6 32 9 95 9 189s-3 157 -9 189c-7.33301 39.333 -27 59 -59 59s-51.667 -19.667 -59 -59c-6 -32 -9 -95 -9 -189zM249 686h76l86 -130h-49l-75 70l-75 -70h-49zM390 819h34
c-4 -26.667 -13 -49.667 -27 -69c-16 -22.667 -36.333 -34 -61 -34c-12.667 0 -32.667 7.16699 -60 21.5s-45 21.5 -53 21.5c-17.333 0 -30 -13 -38 -39h-33c14 68 42.667 102 86 102c10 0 30 -7.16699 60 -21.5s48.667 -21.5 56 -21.5c14 0 26 13.333 36 40z" />
    <glyph glyph-name="glyph337" unicode="&#x1ed8;" horiz-adv-x="722" 
d="M361 708c100.667 0 180 -36 238 -108c54 -66 81 -150.667 81 -254s-27 -188 -81 -254c-58 -72 -137.333 -108 -238 -108c-99.333 0 -178.333 36.333 -237 109c-54.667 66.667 -82 151 -82 253s27.333 186.333 82 253c58.667 72.667 137.667 109 237 109zM474 346
c0 103.333 -2.33301 170.333 -7 201c-14 92.667 -49.333 139 -106 139s-92 -46.333 -106 -139c-4.66699 -30 -7 -97 -7 -201s2.33301 -171 7 -201c14 -92.667 49.333 -139 106 -139s92 46.333 106 139c4.66699 30.667 7 97.667 7 201zM319 894h84l96 -144h-55l-83 78
l-83 -78h-55zM361 -46c19.333 0 35.5 -6.5 48.5 -19.5s19.5 -29.167 19.5 -48.5s-6.5 -35.5 -19.5 -48.5s-29.167 -19.5 -48.5 -19.5c-18.667 0 -34.667 6.66699 -48 20s-20 29.333 -20 48s6.66699 34.667 20 48s29.333 20 48 20z" />
    <glyph glyph-name="glyph338" unicode="&#x1ed9;" 
d="M537 254c0 -78 -22 -141.667 -66 -191c-46 -52.667 -107.333 -79 -184 -79c-77.333 0 -139 26 -185 78c-43.333 50 -65 114 -65 192c0 78.667 21.667 142.667 65 192c45.333 52 107 78 185 78s139.667 -26 185 -78c43.333 -49.333 65 -113.333 65 -192zM219 254
c0 -94 3 -157 9 -189c7.33301 -39.333 27 -59 59 -59s51.667 19.667 59 59c6 32 9 95 9 189s-3 157 -9 189c-7.33301 39.333 -27 59 -59 59s-51.667 -19.667 -59 -59c-6 -32 -9 -95 -9 -189zM249 685h76l86 -129h-49l-75 70l-75 -70h-49zM287 -54
c17.333 0 31.833 -5.83301 43.5 -17.5s17.5 -26.167 17.5 -43.5s-5.83301 -31.833 -17.5 -43.5s-26.167 -17.5 -43.5 -17.5c-16.667 0 -31 6 -43 18s-18 26.333 -18 43s6 31 18 43s26.333 18 43 18z" />
    <glyph glyph-name="glyph339" unicode="&#x1eda;" horiz-adv-x="722" 
d="M474 346c0 103.333 -2.33301 170.333 -7 201c-14 92.667 -49.333 139 -106 139s-92 -46.333 -106 -139c-4.66699 -30 -7 -97 -7 -201s2.33301 -171 7 -201c14 -92.667 49.333 -139 106 -139s92 46.333 106 139c4.66699 30.667 7 97.667 7 201zM514 670
c56 -30.667 98.332 -76.666 126.999 -137.999c26 -54.667 39 -116.667 39 -186c0 -103.333 -27 -188 -81 -254c-58 -72 -137.333 -108 -238 -108c-99.333 0 -178.333 36.333 -237 109c-54.667 66.667 -82 151 -82 253s27.333 186.333 82 253
c58.667 72.667 137.667 109 237 109c48 0 91.333 -8.66699 130 -26c41.333 4 69.333 15.333 84 34c-3.33301 -1.33301 -6.66602 -1 -9.99902 1c-3.33301 0 -5.66602 0.666992 -6.99902 2c-16.667 6 -25 17.667 -25 35c0 8 2 15.333 6 22c9.33301 16 22.666 24 39.999 24
c30 0 45 -13.667 45 -41c0 -8.66699 -3 -18.334 -9 -29.001c-18 -31.333 -51.667 -51.333 -101 -60zM385.999 790.001h-53.999l102 127c23.333 29.333 45.333 44 66 44c13.333 0 25 -4.16699 35 -12.5s15 -18.833 15 -31.5c0 -18 -11 -34 -33 -48
c-26.667 -16.667 -70.334 -43 -131.001 -79z" />
    <glyph glyph-name="glyph340" unicode="&#x1edb;" 
d="M219 254c0 -94 3 -157 9 -189c7.33301 -39.333 27 -59 59 -59s51.667 19.667 59 59c6 32 9 95 9 189s-3 157 -9 189c-7.33301 39.333 -27 59 -59 59s-51.667 -19.667 -59 -59c-6 -32 -9 -95 -9 -189zM446 470c60.667 -51.333 91 -123.333 91 -216
c0 -78 -22 -141.667 -66 -191c-46 -52.667 -107.333 -79 -184 -79c-77.333 0 -139 26 -185 78c-43.333 50 -65 114 -65 192c0 78.667 21.667 142.667 65 192c45.333 52 107 78 185 78c55.333 0 103.333 -14.333 144 -43c32 8.66699 51.667 21 59 37
c-2 0 -4.33301 -0.666992 -7 -2h-8c-16.667 2.66699 -25 13.667 -25 33c0 12 4.33301 21.333 13 28s19 9 31 7c21.333 -4 32 -18 32 -42c0 -34 -26.667 -58 -80 -72zM308 594h-48l92 114c21.333 26.667 41 40 59 40c12 0 22.5 -3.66699 31.5 -11s13.5 -17 13.5 -29
c0 -17.333 -21 -39.333 -63 -66c-28 -16 -56.333 -32 -85 -48z" />
    <glyph glyph-name="glyph341" unicode="&#x1edc;" horiz-adv-x="722" 
d="M474 346c0 103.333 -2.33301 170.333 -7 201c-14 92.667 -49.333 139 -106 139s-92 -46.333 -106 -139c-4.66699 -30 -7 -97 -7 -201s2.33301 -171 7 -201c14 -92.667 49.333 -139 106 -139s92 46.333 106 139c4.66699 30.667 7 97.667 7 201zM514 670
c56 -30.667 98.332 -76.666 126.999 -137.999c26 -54.667 39 -116.667 39 -186c0 -103.333 -27 -188 -81 -254c-58 -72 -137.333 -108 -238 -108c-99.333 0 -178.333 36.333 -237 109c-54.667 66.667 -82 151 -82 253s27.333 186.333 82 253
c58.667 72.667 137.667 109 237 109c48 0 91.333 -8.66699 130 -26c41.333 4 69.333 15.333 84 34c-3.33301 -1.33301 -6.66602 -1 -9.99902 1c-3.33301 0 -5.66602 0.666992 -6.99902 2c-16.667 6 -25 17.667 -25 35c0 8 2 15.333 6 22c9.33301 16 22.666 24 39.999 24
c30 0 45 -13.667 45 -41c0 -8.66699 -3 -18.334 -9 -29.001c-18 -31.333 -51.667 -51.333 -101 -60zM386.999 791.001h-53.999c-60.667 36 -104.334 62.333 -131.001 79c-22 14 -33 30 -33 48c0 13.333 5 24 15 32s21.667 12 35 12c20.667 0 42.667 -14.667 66 -44z" />
    <glyph glyph-name="glyph342" unicode="&#x1edd;" 
d="M219 254c0 -94 3 -157 9 -189c7.33301 -39.333 27 -59 59 -59s51.667 19.667 59 59c6 32 9 95 9 189s-3 157 -9 189c-7.33301 39.333 -27 59 -59 59s-51.667 -19.667 -59 -59c-6 -32 -9 -95 -9 -189zM446 470c60.667 -51.333 91 -123.333 91 -216
c0 -78 -22 -141.667 -66 -191c-46 -52.667 -107.333 -79 -184 -79c-77.333 0 -139 26 -185 78c-43.333 50 -65 114 -65 192c0 78.667 21.667 142.667 65 192c45.333 52 107 78 185 78c55.333 0 103.333 -14.333 144 -43c32 8.66699 51.667 21 59 37
c-2 0 -4.33301 -0.666992 -7 -2h-8c-16.667 2.66699 -25 13.667 -25 33c0 12 4.33301 21.333 13 28s19 9 31 7c21.333 -4 32 -18 32 -42c0 -34 -26.667 -58 -80 -72zM313 593h-49c-50.667 30 -89.667 53.667 -117 71c-20 12.667 -30 27 -30 43c0 26.667 15 40 45 40
c18 0 37.667 -13.333 59 -40z" />
    <glyph glyph-name="glyph343" unicode="&#x1ede;" horiz-adv-x="722" 
d="M474 346c0 103.333 -2.33301 170.333 -7 201c-14 92.667 -49.333 139 -106 139s-92 -46.333 -106 -139c-4.66699 -30 -7 -97 -7 -201s2.33301 -171 7 -201c14 -92.667 49.333 -139 106 -139s92 46.333 106 139c4.66699 30.667 7 97.667 7 201zM514 670
c56 -30.667 98.332 -76.666 126.999 -137.999c26 -54.667 39 -116.667 39 -186c0 -103.333 -27 -188 -81 -254c-58 -72 -137.333 -108 -238 -108c-99.333 0 -178.333 36.333 -237 109c-54.667 66.667 -82 151 -82 253s27.333 186.333 82 253
c58.667 72.667 137.667 109 237 109c48 0 91.333 -8.66699 130 -26c41.333 4 69.333 15.333 84 34c-3.33301 -1.33301 -6.66602 -1 -9.99902 1c-3.33301 0 -5.66602 0.666992 -6.99902 2c-16.667 6 -25 17.667 -25 35c0 8 2 15.333 6 22c9.33301 16 22.666 24 39.999 24
c30 0 45 -13.667 45 -41c0 -8.66699 -3 -18.334 -9 -29.001c-18 -31.333 -51.667 -51.333 -101 -60zM288.999 887.001h-15.002v102c44 18 74 27 90 27c30.667 0 56.334 -7 77.001 -21c24.667 -16 37 -38.667 37 -68c0 -26 -9.66699 -48.333 -29 -67
c-3.33301 -4.66699 -20.666 -17.667 -51.999 -39c-19.333 -13.333 -29 -26.666 -29 -39.999v-11h-15v22c0 8.66699 6.5 28.5 19.5 59.5s19.5 57.167 19.5 78.5c0 43.333 -12 65 -36 65c-14.667 0 -27.667 -10.333 -39 -31c-8 -14.667 -17.333 -40.334 -28 -77.001z" />
    <glyph glyph-name="glyph344" unicode="&#x1edf;" 
d="M219 254c0 -94 3 -157 9 -189c7.33301 -39.333 27 -59 59 -59s51.667 19.667 59 59c6 32 9 95 9 189s-3 157 -9 189c-7.33301 39.333 -27 59 -59 59s-51.667 -19.667 -59 -59c-6 -32 -9 -95 -9 -189zM446 470c60.667 -51.333 91 -123.333 91 -216
c0 -78 -22 -141.667 -66 -191c-46 -52.667 -107.333 -79 -184 -79c-77.333 0 -139 26 -185 78c-43.333 50 -65 114 -65 192c0 78.667 21.667 142.667 65 192c45.333 52 107 78 185 78c55.333 0 103.333 -14.333 144 -43c32 8.66699 51.667 21 59 37
c-2 0 -4.33301 -0.666992 -7 -2h-8c-16.667 2.66699 -25 13.667 -25 33c0 12 4.33301 21.333 13 28s19 9 31 7c21.333 -4 32 -18 32 -42c0 -34 -26.667 -58 -80 -72zM222 687l-13 0.00195312v92c42 16.667 68.667 25 80 25c28 0 51.333 -6.33301 70 -19
c22 -14.667 33 -35.334 33 -62.001c0 -23.333 -8.66699 -43.333 -26 -60c-5.33301 -4.66699 -21 -16.334 -47 -35.001c-17.333 -12 -26 -24 -26 -36v-10h-13v20c0 7.33301 5.83301 25 17.5 53s17.5 51.667 17.5 71c0 39.333 -11 59 -33 59
c-20.667 0 -40.667 -32.667 -60 -98z" />
    <glyph glyph-name="glyph345" unicode="&#x1ee0;" horiz-adv-x="722" 
d="M474 346c0 103.333 -2.33301 170.333 -7 201c-14 92.667 -49.333 139 -106 139s-92 -46.333 -106 -139c-4.66699 -30 -7 -97 -7 -201s2.33301 -171 7 -201c14 -92.667 49.333 -139 106 -139s92 46.333 106 139c4.66699 30.667 7 97.667 7 201zM514 670
c56 -30.667 98.332 -76.666 126.999 -137.999c26 -54.667 39 -116.667 39 -186c0 -103.333 -27 -188 -81 -254c-58 -72 -137.333 -108 -238 -108c-99.333 0 -178.333 36.333 -237 109c-54.667 66.667 -82 151 -82 253s27.333 186.333 82 253
c58.667 72.667 137.667 109 237 109c48 0 91.333 -8.66699 130 -26c41.333 4 69.333 15.333 84 34c-3.33301 -1.33301 -6.66602 -1 -9.99902 1c-3.33301 0 -5.66602 0.666992 -6.99902 2c-16.667 6 -25 17.667 -25 35c0 8 2 15.333 6 22c9.33301 16 22.666 24 39.999 24
c30 0 45 -13.667 45 -41c0 -8.66699 -3 -18.334 -9 -29.001c-18 -31.333 -51.667 -51.333 -101 -60zM474.999 904.001h38.001c-4.66699 -30.667 -14.334 -56 -29.001 -76c-18 -25.333 -41 -38 -69 -38c-14 0 -36.167 8 -66.5 24s-49.833 24 -58.5 24
c-19.333 0 -33.333 -14.667 -42 -44h-37c14.667 76 46.667 114 96 114c11.333 0 33.5 -8 66.5 -24s53.5 -24 61.5 -24c16.667 0 30 14.667 40 44z" />
    <glyph glyph-name="glyph346" unicode="&#x1ee1;" 
d="M219 254c0 -94 3 -157 9 -189c7.33301 -39.333 27 -59 59 -59s51.667 19.667 59 59c6 32 9 95 9 189s-3 157 -9 189c-7.33301 39.333 -27 59 -59 59s-51.667 -19.667 -59 -59c-6 -32 -9 -95 -9 -189zM446 470c60.667 -51.333 91 -123.333 91 -216
c0 -78 -22 -141.667 -66 -191c-46 -52.667 -107.333 -79 -184 -79c-77.333 0 -139 26 -185 78c-43.333 50 -65 114 -65 192c0 78.667 21.667 142.667 65 192c45.333 52 107 78 185 78c55.333 0 103.333 -14.333 144 -43c32 8.66699 51.667 21 59 37
c-2 0 -4.33301 -0.666992 -7 -2h-8c-16.667 2.66699 -25 13.667 -25 33c0 12 4.33301 21.333 13 28s19 9 31 7c21.333 -4 32 -18 32 -42c0 -34 -26.667 -58 -80 -72zM390 697h34c-4 -26.667 -13 -49.667 -27 -69c-16 -22.667 -36.333 -34 -61 -34
c-12.667 0 -32.667 7.16699 -60 21.5s-45 21.5 -53 21.5c-17.333 0 -30 -13 -38 -39h-33c14 68 42.667 102 86 102c10 0 30 -7.16699 60 -21.5s48.667 -21.5 56 -21.5c14 0 26 13.333 36 40z" />
    <glyph glyph-name="glyph347" unicode="&#x1ee2;" horiz-adv-x="722" 
d="M474 346c0 103.333 -2.33301 170.333 -7 201c-14 92.667 -49.333 139 -106 139s-92 -46.333 -106 -139c-4.66699 -30 -7 -97 -7 -201s2.33301 -171 7 -201c14 -92.667 49.333 -139 106 -139s92 46.333 106 139c4.66699 30.667 7 97.667 7 201zM514 670
c56 -30.667 98.332 -76.666 126.999 -137.999c26 -54.667 39 -116.667 39 -186c0 -103.333 -27 -188 -81 -254c-58 -72 -137.333 -108 -238 -108c-99.333 0 -178.333 36.333 -237 109c-54.667 66.667 -82 151 -82 253s27.333 186.333 82 253
c58.667 72.667 137.667 109 237 109c48 0 91.333 -8.66699 130 -26c41.333 4 69.333 15.333 84 34c-3.33301 -1.33301 -6.66602 -1 -9.99902 1c-3.33301 0 -5.66602 0.666992 -6.99902 2c-16.667 6 -25 17.667 -25 35c0 8 2 15.333 6 22c9.33301 16 22.666 24 39.999 24
c30 0 45 -13.667 45 -41c0 -8.66699 -3 -18.334 -9 -29.001c-18 -31.333 -51.667 -51.333 -101 -60zM360.999 -45.999c19.333 0 35.5 -6.5 48.5 -19.5s19.5 -29.167 19.5 -48.5s-6.5 -35.5 -19.5 -48.5s-29.167 -19.5 -48.5 -19.5c-18.667 0 -34.667 6.66699 -48 20
s-20 29.333 -20 48s6.66699 34.667 20 48s29.333 20 48 20z" />
    <glyph glyph-name="glyph348" unicode="&#x1ee3;" 
d="M219 254c0 -94 3 -157 9 -189c7.33301 -39.333 27 -59 59 -59s51.667 19.667 59 59c6 32 9 95 9 189s-3 157 -9 189c-7.33301 39.333 -27 59 -59 59s-51.667 -19.667 -59 -59c-6 -32 -9 -95 -9 -189zM446 470c60.667 -51.333 91 -123.333 91 -216
c0 -78 -22 -141.667 -66 -191c-46 -52.667 -107.333 -79 -184 -79c-77.333 0 -139 26 -185 78c-43.333 50 -65 114 -65 192c0 78.667 21.667 142.667 65 192c45.333 52 107 78 185 78c55.333 0 103.333 -14.333 144 -43c32 8.66699 51.667 21 59 37
c-2 0 -4.33301 -0.666992 -7 -2h-8c-16.667 2.66699 -25 13.667 -25 33c0 12 4.33301 21.333 13 28s19 9 31 7c21.333 -4 32 -18 32 -42c0 -34 -26.667 -58 -80 -72zM287 -54c17.333 0 31.833 -5.83301 43.5 -17.5s17.5 -26.167 17.5 -43.5s-5.83301 -31.833 -17.5 -43.5
s-26.167 -17.5 -43.5 -17.5c-16.667 0 -31 6 -43 18s-18 26.333 -18 43s6 31 18 43s26.333 18 43 18z" />
    <glyph glyph-name="glyph349" unicode="&#x1ee4;" horiz-adv-x="611" 
d="M21 670v21.999h308v-22h-74v-513c0 -40 8 -72.667 24 -98c18.667 -30 47 -45 85 -45c97.333 0 146 62.667 146 188v468h-74v22h154v-22h-52v-453c0 -82.667 -17.333 -142.167 -52 -178.5s-93 -54.5 -175 -54.5c-77.333 0 -135 14 -173 42
c-43.333 32.667 -65 86.334 -65 161.001v483h-52zM364 -45.001c19.333 0 35.5 -6.5 48.5 -19.5s19.5 -29.167 19.5 -48.5s-6.5 -35.5 -19.5 -48.5s-29.167 -19.5 -48.5 -19.5c-18.667 0 -34.667 6.66699 -48 20s-20 29.333 -20 48s6.66699 34.667 20 48s29.333 20 48 20z
" />
    <glyph glyph-name="glyph350" unicode="&#x1ee5;" 
d="M70 142v344h-48v22h208v-407c0 -46 13.667 -69 41 -69c48.667 0 73 52 73 156v298h-30v22h190v-486h48v-22h-199v77h-2c-10 -28 -28.5 -50.5 -55.5 -67.5s-55.833 -25.5 -86.5 -25.5c-92.667 0 -139 52.667 -139 158zM288 -54c17.333 0 31.833 -5.83301 43.5 -17.5
s17.5 -26.167 17.5 -43.5s-5.83301 -31.833 -17.5 -43.5s-26.167 -17.5 -43.5 -17.5c-16.667 0 -31 6 -43 18s-18 26.333 -18 43s6 31 18 43s26.333 18 43 18z" />
    <glyph glyph-name="glyph351" unicode="&#x1ee6;" horiz-adv-x="611" 
d="M21 670v21.999h308v-22h-74v-513c0 -40 8 -72.667 24 -98c18.667 -30 47 -45 85 -45c97.333 0 146 62.667 146 188v468h-74v22h154v-22h-52v-453c0 -82.667 -17.333 -142.167 -52 -178.5s-93 -54.5 -175 -54.5c-77.333 0 -135 14 -173 42
c-43.333 32.667 -65 86.334 -65 161.001v483h-52zM312 856.999h-15.002v102c44 18 74 27 90 27c30.667 0 56.334 -7 77.001 -21c24.667 -16 37 -38.667 37 -68c0 -26 -9.66699 -48.333 -29 -67c-3.33301 -4.66699 -20.666 -17.667 -51.999 -39
c-19.333 -13.333 -29 -26.666 -29 -39.999v-11h-15v22c0 8.66699 6.5 28.5 19.5 59.5s19.5 57.167 19.5 78.5c0 43.333 -12 65 -36 65c-14.667 0 -27.667 -10.333 -39 -31c-8 -14.667 -17.333 -40.334 -28 -77.001z" />
    <glyph glyph-name="glyph352" unicode="&#x1ee7;" 
d="M70 142v344h-48v22h208v-407c0 -46 13.667 -69 41 -69c48.667 0 73 52 73 156v298h-30v22h190v-486h48v-22h-199v77h-2c-10 -28 -28.5 -50.5 -55.5 -67.5s-55.833 -25.5 -86.5 -25.5c-92.667 0 -139 52.667 -139 158zM208 666l-13 0.00195312v92
c42 16.667 68.667 25 80 25c28 0 51.333 -6.33301 70 -19c22 -14.667 33 -35.334 33 -62.001c0 -23.333 -8.66699 -43.333 -26 -60c-5.33301 -4.66699 -21 -16.334 -47 -35.001c-17.333 -12 -26 -24 -26 -36v-10h-13v20c0 7.33301 5.83301 25 17.5 53s17.5 51.667 17.5 71
c0 39.333 -11 59 -33 59c-20.667 0 -40.667 -32.667 -60 -98z" />
    <glyph glyph-name="glyph353" unicode="&#x1ee8;" horiz-adv-x="611" 
d="M538 659v-442.003c0 -82.667 -17.333 -142.167 -52 -178.5s-93 -54.5 -175 -54.5c-77.333 0 -135 14 -173 42c-43.333 32.667 -65 86.334 -65 161.001v483h-52v22h308v-22h-74v-513c0 -40 8 -72.667 24 -98c18.667 -30 47 -45 85 -45c97.333 0 146 62.667 146 188v468
h-74v22h145c10.667 7.33301 18.334 16 23.001 26c-2.66699 -1.33301 -5.66699 -1.66602 -9 -0.999023c-3.33301 0 -6 0.333008 -8 1c-22.667 4 -34 17 -34 39c0 14.667 5 26 15 34s22.333 10.667 37 8c24 -4 36 -18.667 36 -44c0 -23.333 -11.667 -44.666 -35 -63.999
c-20.667 -17.333 -43.334 -28 -68.001 -32zM405 778.997h-53.999l102 127c23.333 29.333 45.333 44 66 44c13.333 0 25 -4.16699 35 -12.5s15 -18.833 15 -31.5c0 -18 -11 -34 -33 -48c-26.667 -16.667 -70.334 -43 -131.001 -79z" />
    <glyph glyph-name="glyph354" unicode="&#x1ee9;" 
d="M504 472l-0.000976562 -450h48v-22h-199v77h-2c-10 -28 -28.5 -50.5 -55.5 -67.5s-55.833 -25.5 -86.5 -25.5c-92.667 0 -139 52.667 -139 158v344h-48v22h208v-407c0 -46 13.667 -69 41 -69c48.667 0 73 52 73 156v298h-30v22l190 -2c4 1.33301 10.667 2.33301 20 3
c6.66699 0 11.334 3 14.001 9c-2 0 -4.33301 -0.666992 -7 -2h-8c-16.667 2.66699 -25 13.667 -25 33c0 12 4.33301 21.333 13 28s19 9 31 7c21.333 -4 32 -18 32 -42c0 -30 -23.333 -53.333 -70 -70zM295.999 581h-48l92 114c21.333 26.667 41 40 59 40
c12 0 22.5 -3.66699 31.5 -11s13.5 -17 13.5 -29c0 -17.333 -21 -39.333 -63 -66c-28 -16 -56.333 -32 -85 -48z" />
    <glyph glyph-name="glyph355" unicode="&#x1eea;" horiz-adv-x="611" 
d="M538 659v-442.003c0 -82.667 -17.333 -142.167 -52 -178.5s-93 -54.5 -175 -54.5c-77.333 0 -135 14 -173 42c-43.333 32.667 -65 86.334 -65 161.001v483h-52v22h308v-22h-74v-513c0 -40 8 -72.667 24 -98c18.667 -30 47 -45 85 -45c97.333 0 146 62.667 146 188v468
h-74v22h145c10.667 7.33301 18.334 16 23.001 26c-2.66699 -1.33301 -5.66699 -1.66602 -9 -0.999023c-3.33301 0 -6 0.333008 -8 1c-22.667 4 -34 17 -34 39c0 14.667 5 26 15 34s22.333 10.667 37 8c24 -4 36 -18.667 36 -44c0 -23.333 -11.667 -44.666 -35 -63.999
c-20.667 -17.333 -43.334 -28 -68.001 -32zM409 779.997h-53.999c-60.667 36 -104.334 62.333 -131.001 79c-22 14 -33 30 -33 48c0 13.333 5 24 15 32s21.667 12 35 12c20.667 0 42.667 -14.667 66 -44z" />
    <glyph glyph-name="glyph356" unicode="&#x1eeb;" 
d="M504 472l-0.000976562 -450h48v-22h-199v77h-2c-10 -28 -28.5 -50.5 -55.5 -67.5s-55.833 -25.5 -86.5 -25.5c-92.667 0 -139 52.667 -139 158v344h-48v22h208v-407c0 -46 13.667 -69 41 -69c48.667 0 73 52 73 156v298h-30v22l190 -2c4 1.33301 10.667 2.33301 20 3
c6.66699 0 11.334 3 14.001 9c-2 0 -4.33301 -0.666992 -7 -2h-8c-16.667 2.66699 -25 13.667 -25 33c0 12 4.33301 21.333 13 28s19 9 31 7c21.333 -4 32 -18 32 -42c0 -30 -23.333 -53.333 -70 -70zM297.999 582h-49c-50.667 30 -89.667 53.667 -117 71
c-20 12.667 -30 27 -30 43c0 26.667 15 40 45 40c18 0 37.667 -13.333 59 -40z" />
    <glyph glyph-name="glyph357" unicode="&#x1eec;" horiz-adv-x="611" 
d="M538 659v-442.003c0 -82.667 -17.333 -142.167 -52 -178.5s-93 -54.5 -175 -54.5c-77.333 0 -135 14 -173 42c-43.333 32.667 -65 86.334 -65 161.001v483h-52v22h308v-22h-74v-513c0 -40 8 -72.667 24 -98c18.667 -30 47 -45 85 -45c97.333 0 146 62.667 146 188v468
h-74v22h145c10.667 7.33301 18.334 16 23.001 26c-2.66699 -1.33301 -5.66699 -1.66602 -9 -0.999023c-3.33301 0 -6 0.333008 -8 1c-22.667 4 -34 17 -34 39c0 14.667 5 26 15 34s22.333 10.667 37 8c24 -4 36 -18.667 36 -44c0 -23.333 -11.667 -44.666 -35 -63.999
c-20.667 -17.333 -43.334 -28 -68.001 -32zM312 866.997h-15.002v102c44 18 74 27 90 27c30.667 0 56.334 -7 77.001 -21c24.667 -16 37 -38.667 37 -68c0 -26 -9.66699 -48.333 -29 -67c-3.33301 -4.66699 -20.666 -17.667 -51.999 -39
c-19.333 -13.333 -29 -26.666 -29 -39.999v-11h-15v22c0 8.66699 6.5 28.5 19.5 59.5s19.5 57.167 19.5 78.5c0 43.333 -12 65 -36 65c-14.667 0 -27.667 -10.333 -39 -31c-8 -14.667 -17.333 -40.334 -28 -77.001z" />
    <glyph glyph-name="glyph358" unicode="&#x1eed;" 
d="M504 472l-0.000976562 -450h48v-22h-199v77h-2c-10 -28 -28.5 -50.5 -55.5 -67.5s-55.833 -25.5 -86.5 -25.5c-92.667 0 -139 52.667 -139 158v344h-48v22h208v-407c0 -46 13.667 -69 41 -69c48.667 0 73 52 73 156v298h-30v22l190 -2c4 1.33301 10.667 2.33301 20 3
c6.66699 0 11.334 3 14.001 9c-2 0 -4.33301 -0.666992 -7 -2h-8c-16.667 2.66699 -25 13.667 -25 33c0 12 4.33301 21.333 13 28s19 9 31 7c21.333 -4 32 -18 32 -42c0 -30 -23.333 -53.333 -70 -70zM207.999 676l-13 0.00195312v92c42 16.667 68.667 25 80 25
c28 0 51.333 -6.33301 70 -19c22 -14.667 33 -35.334 33 -62.001c0 -23.333 -8.66699 -43.333 -26 -60c-5.33301 -4.66699 -21 -16.334 -47 -35.001c-17.333 -12 -26 -24 -26 -36v-10h-13v20c0 7.33301 5.83301 25 17.5 53s17.5 51.667 17.5 71c0 39.333 -11 59 -33 59
c-20.667 0 -40.667 -32.667 -60 -98z" />
    <glyph glyph-name="glyph359" unicode="&#x1eee;" horiz-adv-x="611" 
d="M538 659v-442.003c0 -82.667 -17.333 -142.167 -52 -178.5s-93 -54.5 -175 -54.5c-77.333 0 -135 14 -173 42c-43.333 32.667 -65 86.334 -65 161.001v483h-52v22h308v-22h-74v-513c0 -40 8 -72.667 24 -98c18.667 -30 47 -45 85 -45c97.333 0 146 62.667 146 188v468
h-74v22h145c10.667 7.33301 18.334 16 23.001 26c-2.66699 -1.33301 -5.66699 -1.66602 -9 -0.999023c-3.33301 0 -6 0.333008 -8 1c-22.667 4 -34 17 -34 39c0 14.667 5 26 15 34s22.333 10.667 37 8c24 -4 36 -18.667 36 -44c0 -23.333 -11.667 -44.666 -35 -63.999
c-20.667 -17.333 -43.334 -28 -68.001 -32zM475 893.997h38.001c-4.66699 -30.667 -14.334 -56 -29.001 -76c-18 -25.333 -41 -38 -69 -38c-14 0 -36.167 8 -66.5 24s-49.833 24 -58.5 24c-19.333 0 -33.333 -14.667 -42 -44h-37c14.667 76 46.667 114 96 114
c11.333 0 33.5 -8 66.5 -24s53.5 -24 61.5 -24c16.667 0 30 14.667 40 44z" />
    <glyph glyph-name="glyph360" unicode="&#x1eef;" 
d="M504 472l-0.000976562 -450h48v-22h-199v77h-2c-10 -28 -28.5 -50.5 -55.5 -67.5s-55.833 -25.5 -86.5 -25.5c-92.667 0 -139 52.667 -139 158v344h-48v22h208v-407c0 -46 13.667 -69 41 -69c48.667 0 73 52 73 156v298h-30v22l190 -2c4 1.33301 10.667 2.33301 20 3
c6.66699 0 11.334 3 14.001 9c-2 0 -4.33301 -0.666992 -7 -2h-8c-16.667 2.66699 -25 13.667 -25 33c0 12 4.33301 21.333 13 28s19 9 31 7c21.333 -4 32 -18 32 -42c0 -30 -23.333 -53.333 -70 -70zM374.999 697h34c-4 -26.667 -13 -49.667 -27 -69
c-16 -22.667 -36.333 -34 -61 -34c-12.667 0 -32.667 7.16699 -60 21.5s-45 21.5 -53 21.5c-17.333 0 -30 -13 -38 -39h-33c14 68 42.667 102 86 102c10 0 30 -7.16699 60 -21.5s48.667 -21.5 56 -21.5c14 0 26 13.333 36 40z" />
    <glyph glyph-name="glyph361" unicode="&#x1ef0;" horiz-adv-x="611" 
d="M538 659v-442.003c0 -82.667 -17.333 -142.167 -52 -178.5s-93 -54.5 -175 -54.5c-77.333 0 -135 14 -173 42c-43.333 32.667 -65 86.334 -65 161.001v483h-52v22h308v-22h-74v-513c0 -40 8 -72.667 24 -98c18.667 -30 47 -45 85 -45c97.333 0 146 62.667 146 188v468
h-74v22h145c10.667 7.33301 18.334 16 23.001 26c-2.66699 -1.33301 -5.66699 -1.66602 -9 -0.999023c-3.33301 0 -6 0.333008 -8 1c-22.667 4 -34 17 -34 39c0 14.667 5 26 15 34s22.333 10.667 37 8c24 -4 36 -18.667 36 -44c0 -23.333 -11.667 -44.666 -35 -63.999
c-20.667 -17.333 -43.334 -28 -68.001 -32zM364 -45.0029c19.333 0 35.5 -6.5 48.5 -19.5s19.5 -29.167 19.5 -48.5s-6.5 -35.5 -19.5 -48.5s-29.167 -19.5 -48.5 -19.5c-18.667 0 -34.667 6.66699 -48 20s-20 29.333 -20 48s6.66699 34.667 20 48s29.333 20 48 20z" />
    <glyph glyph-name="glyph362" unicode="&#x1ef1;" 
d="M504 472l-0.000976562 -450h48v-22h-199v77h-2c-10 -28 -28.5 -50.5 -55.5 -67.5s-55.833 -25.5 -86.5 -25.5c-92.667 0 -139 52.667 -139 158v344h-48v22h208v-407c0 -46 13.667 -69 41 -69c48.667 0 73 52 73 156v298h-30v22l190 -2c4 1.33301 10.667 2.33301 20 3
c6.66699 0 11.334 3 14.001 9c-2 0 -4.33301 -0.666992 -7 -2h-8c-16.667 2.66699 -25 13.667 -25 33c0 12 4.33301 21.333 13 28s19 9 31 7c21.333 -4 32 -18 32 -42c0 -30 -23.333 -53.333 -70 -70zM287.999 -54c17.333 0 31.833 -5.83301 43.5 -17.5
s17.5 -26.167 17.5 -43.5s-5.83301 -31.833 -17.5 -43.5s-26.167 -17.5 -43.5 -17.5c-16.667 0 -31 6 -43 18s-18 26.333 -18 43s6 31 18 43s26.333 18 43 18z" />
    <glyph glyph-name="glyph363" unicode="&#x1ef2;" 
d="M-15 670v22h321v-22h-72l143 -308l152 308h-95v22h168v-22h-42l-166 -329v-319h52v-22h-286v22h52v287l-173 361h-54zM399 769h-53.999c-60.667 36 -104.334 62.333 -131.001 79c-22 14 -33 30 -33 48c0 13.333 5 24 15 32s21.667 12 35 12
c20.667 0 42.667 -14.667 66 -44z" />
    <glyph glyph-name="glyph364" unicode="&#x1ef3;" horiz-adv-x="444" 
d="M-16 508h270v-22h-57l105 -289h2l100 289h-82v22h138v-22h-32l-199 -577c-22.667 -66 -57 -99 -103 -99c-34.667 0 -63.667 8 -87 24v181h28l30 -79c6 -16 12.667 -33 20 -51c12 -24.667 24 -37 36 -37c20 0 39.667 28.667 59 86l18 53l-214 499h-32v22zM312 572h-49
c-50.667 30 -89.667 53.667 -117 71c-20 12.667 -30 27 -30 43c0 26.667 15 40 45 40c18 0 37.667 -13.333 59 -40z" />
    <glyph glyph-name="glyph365" unicode="&#x1ef4;" 
d="M-15 670v22h321v-22h-72l143 -308l152 308h-95v22h168v-22h-42l-166 -329v-319h52v-22h-286v22h52v287l-173 361h-54zM302 -35c19.333 0 35.5 -6.5 48.5 -19.5s19.5 -29.167 19.5 -48.5s-6.5 -35.5 -19.5 -48.5s-29.167 -19.5 -48.5 -19.5
c-18.667 0 -34.667 6.66699 -48 20s-20 29.333 -20 48s6.66699 34.667 20 48s29.333 20 48 20z" />
    <glyph glyph-name="glyph366" unicode="&#x1ef5;" horiz-adv-x="444" 
d="M-16 508h270v-22h-57l105 -289h2l100 289h-82v22h138v-22h-32l-199 -577c-22.667 -66 -57 -99 -103 -99c-34.667 0 -63.667 8 -87 24v181h28l30 -79c6 -16 12.667 -33 20 -51c12 -24.667 24 -37 36 -37c20 0 39.667 28.667 59 86l18 53l-214 499h-32v22zM353 -54
c17.333 0 31.833 -5.83301 43.5 -17.5s17.5 -26.167 17.5 -43.5s-5.83301 -31.833 -17.5 -43.5s-26.167 -17.5 -43.5 -17.5c-16.667 0 -31 6 -43 18s-18 26.333 -18 43s6 31 18 43s26.333 18 43 18z" />
    <glyph glyph-name="glyph367" unicode="&#x1ef6;" 
d="M-15 670v22h321v-22h-72l143 -308l152 308h-95v22h168v-22h-42l-166 -329v-319h52v-22h-286v22h52v287l-173 361h-54zM299 857h-15.002v102c44 18 74 27 90 27c30.667 0 56.334 -7 77.001 -21c24.667 -16 37 -38.667 37 -68c0 -26 -9.66699 -48.333 -29 -67
c-3.33301 -4.66699 -20.666 -17.667 -51.999 -39c-19.333 -13.333 -29 -26.666 -29 -39.999v-11h-15v22c0 8.66699 6.5 28.5 19.5 59.5s19.5 57.167 19.5 78.5c0 43.333 -12 65 -36 65c-14.667 0 -27.667 -10.333 -39 -31c-8 -14.667 -17.333 -40.334 -28 -77.001z" />
    <glyph glyph-name="glyph368" unicode="&#x1ef7;" horiz-adv-x="444" 
d="M-16 508h270v-22h-57l105 -289h2l100 289h-82v22h138v-22h-32l-199 -577c-22.667 -66 -57 -99 -103 -99c-34.667 0 -63.667 8 -87 24v181h28l30 -79c6 -16 12.667 -33 20 -51c12 -24.667 24 -37 36 -37c20 0 39.667 28.667 59 86l18 53l-214 499h-32v22zM225 666
l-13 0.00195312v92c42 16.667 68.667 25 80 25c28 0 51.333 -6.33301 70 -19c22 -14.667 33 -35.334 33 -62.001c0 -23.333 -8.66699 -43.333 -26 -60c-5.33301 -4.66699 -21 -16.334 -47 -35.001c-17.333 -12 -26 -24 -26 -36v-10h-13v20c0 7.33301 5.83301 25 17.5 53
s17.5 51.667 17.5 71c0 39.333 -11 59 -33 59c-20.667 0 -40.667 -32.667 -60 -98z" />
    <glyph glyph-name="glyph369" unicode="&#x1ef8;" 
d="M-15 670v22h321v-22h-72l143 -308l152 308h-95v22h168v-22h-42l-166 -329v-319h52v-22h-286v22h52v287l-173 361h-54zM483 884h38.001c-4.66699 -30.667 -14.334 -56 -29.001 -76c-18 -25.333 -41 -38 -69 -38c-14 0 -36.167 8 -66.5 24s-49.833 24 -58.5 24
c-19.333 0 -33.333 -14.667 -42 -44h-37c14.667 76 46.667 114 96 114c11.333 0 33.5 -8 66.5 -24s53.5 -24 61.5 -24c16.667 0 30 14.667 40 44z" />
    <glyph glyph-name="glyph370" unicode="&#x1ef9;" horiz-adv-x="444" 
d="M-16 508h270v-22h-57l105 -289h2l100 289h-82v22h138v-22h-32l-199 -577c-22.667 -66 -57 -99 -103 -99c-34.667 0 -63.667 8 -87 24v181h28l30 -79c6 -16 12.667 -33 20 -51c12 -24.667 24 -37 36 -37c20 0 39.667 28.667 59 86l18 53l-214 499h-32v22zM390 686h34
c-4 -26.667 -13 -49.667 -27 -69c-16 -22.667 -36.333 -34 -61 -34c-12.667 0 -32.667 7.16699 -60 21.5s-45 21.5 -53 21.5c-17.333 0 -30 -13 -38 -39h-33c14 68 42.667 102 86 102c10 0 30 -7.16699 60 -21.5s48.667 -21.5 56 -21.5c14 0 26 13.333 36 40z" />
    <glyph glyph-name="endash" unicode="&#x2013;" horiz-adv-x="500" 
d="M500 202h-500v104h500v-104z" />
    <glyph glyph-name="emdash" unicode="&#x2014;" horiz-adv-x="1000" 
d="M0 202v104h1000v-104h-1000z" />
    <glyph glyph-name="quoteleft" unicode="&#x2018;" horiz-adv-x="278" 
d="M198 718l13 -18c-61.333 -30 -96 -66 -104 -108c10 4 20.667 6 32 6c22.667 0 41.667 -7.66699 57 -23s23 -34.333 23 -57s-7.66699 -41.667 -23 -57s-34.333 -23 -57 -23c-26 0 -46.333 10 -61 30c-12.667 18 -19 40.667 -19 68c0 36 14.333 72.333 43 109
s60.667 61 96 73z" />
    <glyph glyph-name="quoteright" unicode="&#x2019;" horiz-adv-x="278" 
d="M80 428l-13 18c61.333 30 96 66 104 108c-10 -4 -20.667 -6 -32 -6c-22.667 0 -41.667 7.66699 -57 23s-23 34.333 -23 57s7.66699 41.667 23 57s34.333 23 57 23c26 0 46.333 -10 61 -30c12.667 -18 19 -40.667 19 -68c0 -36 -14.333 -72.333 -43 -109
s-60.667 -61 -96 -73z" />
    <glyph glyph-name="quotesinglbase" unicode="&#x201a;" horiz-adv-x="278" 
d="M80 -136l-13 18c61.333 30 96 66 104 108c-10 -4 -20.667 -6 -32 -6c-22.667 0 -41.667 7.66699 -57 23s-23 34.333 -23 57s7.66699 41.667 23 57s34.333 23 57 23c26 0 46.333 -10 61 -30c12.667 -18 19 -40.667 19 -68c0 -36 -14.333 -72.333 -43 -109
s-60.667 -61 -96 -73z" />
    <glyph glyph-name="quotedblleft" unicode="&#x201c;" horiz-adv-x="537" 
d="M457 718l13 -18c-61.333 -30 -96 -66 -104 -108c10 4 20.667 6 32 6c22.667 0 41.667 -7.66699 57 -23s23 -34.333 23 -57s-7.66699 -41.667 -23 -57s-34.333 -23 -57 -23c-26 0 -46.333 10 -61 30c-12.667 18 -19 40.667 -19 68c0 36 14.333 72.333 43 109
s60.667 61 96 73zM197 718l13 -18c-61.333 -30 -96 -66 -104 -108c10 4 20.667 6 32 6c22.667 0 41.667 -7.66699 57 -23s23 -34.333 23 -57s-7.66699 -41.667 -23 -57s-34.333 -23 -57 -23c-26 0 -46.333 10 -61 30c-12.667 18 -19 40.667 -19 68
c0 36 14.333 72.333 43 109s60.667 61 96 73z" />
    <glyph glyph-name="quotedblright" unicode="&#x201d;" horiz-adv-x="537" 
d="M80 428l-13 18c61.333 30 96 66 104 108c-10 -4 -20.667 -6 -32 -6c-22.667 0 -41.667 7.66699 -57 23s-23 34.333 -23 57s7.66699 41.667 23 57s34.333 23 57 23c26 0 46.333 -10 61 -30c12.667 -18 19 -40.667 19 -68c0 -36 -14.333 -72.333 -43 -109
s-60.667 -61 -96 -73zM340 428l-13 18c61.333 30 96 66 104 108c-10 -4 -20.667 -6 -32 -6c-22.667 0 -41.667 7.66699 -57 23s-23 34.333 -23 57s7.66699 41.667 23 57s34.333 23 57 23c26 0 46.333 -10 61 -30c12.667 -18 19 -40.667 19 -68
c0 -36 -14.333 -72.333 -43 -109s-60.667 -61 -96 -73z" />
    <glyph glyph-name="quotedblbase" unicode="&#x201e;" horiz-adv-x="537" 
d="M80 -136l-13 18c61.333 30 96 66 104 108c-10 -4 -20.667 -6 -32 -6c-22.667 0 -41.667 7.66699 -57 23s-23 34.333 -23 57s7.66699 41.667 23 57s34.333 23 57 23c26 0 46.333 -10 61 -30c12.667 -18 19 -40.667 19 -68c0 -36 -14.333 -72.333 -43 -109
s-60.667 -61 -96 -73zM340 -136l-13 18c61.333 30 96 66 104 108c-10 -4 -20.667 -6 -32 -6c-22.667 0 -41.667 7.66699 -57 23s-23 34.333 -23 57s7.66699 41.667 23 57s34.333 23 57 23c26 0 46.333 -10 61 -30c12.667 -18 19 -40.667 19 -68
c0 -36 -14.333 -72.333 -43 -109s-60.667 -61 -96 -73z" />
    <glyph glyph-name="dagger" unicode="&#x2020;" horiz-adv-x="611" 
d="M100 289h-22v194h22v-62h131v249h-68v22h284v-22h-68v-249h131v62h22v-194h-22v62h-131v-503h68v-22h-284v22h68v503h-131v-62z" />
    <glyph glyph-name="daggerdbl" unicode="&#x2021;" horiz-adv-x="611" 
d="M447 -174h-284v22h68v207h-131v-62h-22v194h22v-62h131v300h-131v-62h-22v194h22v-62h131v175h-68v22h284v-22h-68v-175h131v62h22v-194h-22v62h-131v-300h131v62h22v-194h-22v62h-131v-207h68v-22z" />
    <glyph glyph-name="bullet" unicode="&#x2022;" horiz-adv-x="500" 
d="M423 346c0 -48 -16.833 -88.833 -50.5 -122.5s-74.5 -50.5 -122.5 -50.5c-48.667 0 -89.667 16.667 -123 50s-50 74.333 -50 123s16.667 89.667 50 123s74.333 50 123 50c48 0 88.833 -16.833 122.5 -50.5s50.5 -74.5 50.5 -122.5z" />
    <glyph glyph-name="ellipsis" unicode="&#x2026;" horiz-adv-x="1000" 
d="M167 144c22.667 0 41.667 -7.66699 57 -23s23 -34.333 23 -57s-7.66699 -41.667 -23 -57s-34.333 -23 -57 -23s-41.667 7.66699 -57 23s-23 34.333 -23 57s7.66699 41.667 23 57s34.333 23 57 23zM500 144c22.667 0 41.667 -7.66699 57 -23s23 -34.333 23 -57
s-7.66699 -41.667 -23 -57s-34.333 -23 -57 -23s-41.667 7.66699 -57 23s-23 34.333 -23 57s7.66699 41.667 23 57s34.333 23 57 23zM833 144c22.667 0 41.667 -7.66699 57 -23s23 -34.333 23 -57s-7.66699 -41.667 -23 -57s-34.333 -23 -57 -23s-41.667 7.66699 -57 23
s-23 34.333 -23 57s7.66699 41.667 23 57s34.333 23 57 23z" />
    <glyph glyph-name="perthousand" unicode="&#x2030;" horiz-adv-x="1000" 
d="M841 380c50 0 88.333 -22.3311 115 -66.998c22 -36.667 33 -80.334 33 -131.001c0 -52 -11.333 -96.333 -34 -133c-26.667 -43.333 -64.667 -65 -114 -65c-48.667 0 -86.667 21.667 -114 65c-23.333 36.667 -35 81 -35 133c0 51.333 11.667 95.666 35 132.999
c27.333 43.333 65.333 65 114 65zM798 277.002v-193c0 -52 14.333 -78 43 -78c28 0 42 26 42 78v193c0 54 -14 81 -42 81c-28.667 0 -43 -27 -43 -81zM160 708.002c50 0 88.333 -22.3311 115 -66.998c22 -36.667 33 -80.334 33 -131.001c0 -52 -11.333 -96.333 -34 -133
c-26.667 -43.333 -64.667 -65 -114 -65c-48.667 0 -86.667 21.667 -114 65c-23.333 36.667 -35 81 -35 133c0 51.333 11.667 95.666 35 132.999c27.333 43.333 65.333 65 114 65zM117 605.004v-193c0 -52 14.333 -78 43 -78c28 0 42 26 42 78v193c0 54 -14 81 -42 81
c-28.667 0 -43 -27 -43 -81zM503 380.004c50 0 88.333 -22.3311 115 -66.998c22 -36.667 33 -80.334 33 -131.001c0 -52 -11.333 -96.333 -34 -133c-26.667 -43.333 -64.667 -65 -114 -65c-48.667 0 -86.667 21.667 -114 65c-23.333 36.667 -35 81 -35 133
c0 51.333 11.667 95.666 35 132.999c27.333 43.333 65.333 65 114 65zM460 277.006v-193c0 -52 14.333 -78 43 -78c28 0 42 26 42 78v193c0 54 -14 81 -42 81c-28.667 0 -43 -27 -43 -81zM536 708.006h-49l-365 -724h49z" />
    <glyph glyph-name="guilsinglleft" unicode="&#x2039;" horiz-adv-x="296" 
d="M229 100c-5.33301 0 -19.666 11.335 -42.999 34.002c-48.667 46.667 -92 86.667 -130 120c38 33.333 81.333 73.333 130 120c23.333 22.667 37.666 34 42.999 34c7.33301 0 11 -4.66699 11 -14c0 -12.667 -25.667 -59.334 -77 -140.001
c51.333 -80.667 77 -127.334 77 -140.001c0 -9.33301 -3.66699 -14 -11 -14z" />
    <glyph glyph-name="guilsinglright" unicode="&#x203a;" horiz-adv-x="296" 
d="M67 408c5.33301 0 19.666 -11.335 42.999 -34.002c48.667 -46.667 92 -86.667 130 -120c-38 -33.333 -81.333 -73.333 -130 -120c-23.333 -22.667 -37.666 -34 -42.999 -34c-7.33301 0 -11 4.66699 -11 14c0 12.667 25.667 59.334 77 140.001
c-51.333 80.667 -77 127.334 -77 140.001c0 9.33301 3.66699 14 11 14z" />
    <glyph glyph-name="fraction" unicode="&#x2044;" horiz-adv-x="167" 
d="M-69 -16h-98l403 724h98z" />
    <glyph glyph-name="franc" unicode="&#x20a3;" horiz-adv-x="1035" 
d="M347 22l0.000976562 -22h-315v22h52v649h-52v21h530v-220h-34c-24.667 84.667 -43.334 138 -56.001 160c-14 25.333 -35 38 -63 38h-143v-298h47c31.333 0 54.333 16 69 48c3.33301 8.66699 11.333 38.667 24 90h22v-298h-22c-12.667 51.333 -20.667 81.333 -24 90
c-14.667 32 -37.667 48 -69 48h-47v-328h81zM936.001 0h-256.001v22h48v464h-48v22h197v-83h2c30.667 66 73.667 99 129 99c16 0 36 -3.33301 60 -10v-203h-28c-21.333 66.667 -34 105 -38 115c-13.333 32 -28.666 48 -45.999 48c-19.333 0 -36 -14.667 -50 -44
c-12 -24.667 -18 -48 -18 -70v-338h48v-22z" />
    <glyph glyph-name="u20AB" unicode="&#x20ab;" horiz-adv-x="393" 
d="M197 501c-32 0 -60 -29.333 -84 -88c-13.333 -32.667 -20 -62.667 -20 -90c0 -34 13 -51 39 -51c27.333 0 52 23.667 74 71c18.667 40 28 75.667 28 107c0 34 -12.333 51 -37 51zM200 267c-35.333 -41.333 -70.667 -62.001 -106 -62.001c-60.667 0 -91 34 -91 102
c0 54 18 105 54 153c39.333 52 85 78 137 78c22.667 0 43 -8 61 -24l20 75h-100l10 36h100l2 16c0 20.667 -16 31.334 -48 32.001l7 33c44.667 1.33301 87.334 6 128.001 14l15 3c4 0 6 -3 6 -9c-0.666992 -1.33301 -1.66699 -5.33301 -3 -12l-19 -77h65l-10 -36h-65
l-69 -280c-3.33301 -13.333 -5 -22.333 -5 -27c0 -10 4 -15 12 -15c4 0 20.333 14 49 42l20 -18c-46.667 -57.333 -85.667 -86 -117 -86c-28.667 0 -46.334 20.667 -53.001 62zM8.99902 159.999h221v-56h-221v56z" />
    <glyph glyph-name="trademark" unicode="&#x2122;" horiz-adv-x="1000" 
d="M257 670l0.000976562 -318c0 -18.667 3.66699 -30.334 11 -35.001c5.33301 -3.33301 18.666 -5.66602 39.999 -6.99902v-22h-218v22c22 1.33301 35.333 3.33301 40 6c7.33301 5.33301 11 17.333 11 36v318h-43c-33.333 0 -54.333 -20.667 -63 -62h-26v84h379v-84h-26
c-8.66699 41.333 -29.667 62 -63 62h-42zM663.001 289l-130.999 278h-2v-184c0 -29.333 2.33301 -48 7 -56c6 -10.667 21 -16.334 45 -17.001v-22h-137v22c23.333 0.666992 38 6.33398 44 17.001c4.66699 8 7 26.667 7 56v234c-14.667 35.333 -38 53 -70 53v22h157l131 -270
l141 270h135v-22c-20 -0.666992 -33 -3 -39 -7c-8.66699 -5.33301 -13 -17 -13 -35v-276c0 -18.667 3.66699 -30.334 11 -35.001c5.33301 -3.33301 18.666 -5.66602 39.999 -6.99902v-22h-217v22c21.333 1.33301 34.333 3.66602 39 6.99902
c7.33301 4.66699 11 16.334 11 35.001v215h-2l-141 -278h-16z" />
    <glyph glyph-name="minus" unicode="&#x2212;" horiz-adv-x="600" 
d="M554 202h-508v104h508v-104z" />
    <glyph glyph-name="SF370000" unicode="&#x255f;" horiz-adv-x="718" 
d="M250 571l-92 -273h178l-84 273h-2zM147 0h-164v22h50l238 678h113l220 -678h43v-22h-310v22h83l-77 254h-193l-89 -254h86v-22z" />
    <glyph glyph-name="SF420000" unicode="&#x2560;" horiz-adv-x="681" 
d="M84 22l0.000976562 648h-47v22h537v-220h-34c-24.667 84.667 -43.334 138 -56.001 160c-14 25.333 -35 38 -63 38h-155v-298h56c31.333 0 54.333 16 69 48c3.33301 8.66699 11.333 38.667 24 90h22v-298h-22c-12.667 51.333 -20.667 81.333 -24 90
c-14.667 32 -37.667 48 -69 48h-56v-328h154c28 0 50.667 19.333 68 58c12.667 28 30 87.333 52 178h34v-258h-542v22h52z" />
    <glyph glyph-name="SF190000" unicode="&#x2561;" horiz-adv-x="429" 
d="M328 22v-22h-286v22h52v648h-52v22h286v-22h-52v-648h52z" />
    <glyph glyph-name="SF200000" unicode="&#x2562;" horiz-adv-x="773" 
d="M361 708c100 0 179.333 -35.998 238 -107.998c54 -66.667 81 -151.334 81 -254.001s-27 -187.334 -81 -254.001c-58.667 -72 -138 -108 -238 -108c-99.333 0 -178.333 36.333 -237 109c-54.667 66.667 -82 151 -82 253s27.333 186.333 82 253
c58.667 72.667 137.667 109 237 109zM474 346.002c0 105.333 -2.33301 172.333 -7 201c-14 92.667 -49.333 139 -106 139s-92 -46.333 -106 -139c-4.66699 -28.667 -7 -95.667 -7 -201s2.33301 -172.333 7 -201c14 -92.667 49.333 -139 106 -139s92 46.333 106 139
c4.66699 28.667 7 95.667 7 201z" />
    <glyph glyph-name="SF230000" unicode="&#x2563;" horiz-adv-x="811" 
d="M21 670l0.000976562 21.999h308v-22h-74v-513c0 -39.333 8 -72 24 -98c19.333 -30 47.666 -45 84.999 -45c97.333 0 146 62.667 146 188v468h-74v22h154v-22h-52v-453c0 -82.667 -17.167 -142.167 -51.5 -178.5s-92.833 -54.5 -175.5 -54.5c-78 0 -135.667 14 -173 42
c-43.333 32.667 -65 86.334 -65 161.001v483h-52z" />
    <glyph glyph-name="SF470000" unicode="&#x2564;" horiz-adv-x="699" 
d="M-15 670v22h321v-22h-72l143 -308l152 308h-95v22h168v-22h-42l-166 -329v-319h52v-22h-286v22h52v287l-173 361h-54z" />
    <glyph glyph-name="SF480000" unicode="&#x2565;" horiz-adv-x="541" 
d="M133 329l-39.999 0.000976562v158c56.667 24.667 116 37 178 37c69.333 0 120.333 -9.66699 153 -29c41.333 -24.667 62 -69.334 62 -134.001v-339h48v-22h-194v72h-2c-24 -58.667 -69.333 -88 -136 -88c-46 0 -85 12 -117 36c-36 27.333 -54 63 -54 107
c0 52 22 91.667 66 119c24 14.667 68 30 132 46c53.333 13.333 84.666 26.666 93.999 39.999v87c0 55.333 -21.333 83 -64 83c-30 0 -57.333 -22.333 -82 -67c-6 -11.333 -20.667 -46.666 -44 -105.999zM322.001 131.001v170c-8 -5.33301 -29.333 -16 -64 -32
c-22.667 -10.667 -36.667 -33 -42 -67c-2 -10.667 -3 -39 -3 -85c0 -28.667 2 -49 6 -61c6.66699 -22.667 21 -34 43 -34c40 0 60 36.333 60 109z" />
    <glyph glyph-name="SF410000" unicode="&#x2566;" horiz-adv-x="431" 
d="M512 286l-286 -0.000976562c0 -98 5.66699 -166 17 -204c15.333 -50.667 46.666 -76 93.999 -76c88.667 0 139.334 64.667 152.001 194h22c-11.333 -144 -78.333 -216 -201 -216c-80 0 -144.333 24 -193 72s-73 112 -73 192c0 75.333 22.333 139.333 67 192
c46.667 56 107 84 181 84c72.667 0 128 -22 166 -66c36 -41.333 54 -98.666 54 -171.999zM226 307.999l114.002 0.000976562c0 80 -2.33301 130.333 -7 151c-6.66699 28.667 -21.334 43 -44.001 43c-26 0 -43.333 -16 -52 -48
c-6.66699 -24.667 -10.334 -73.334 -11.001 -146.001z" />
    <glyph glyph-name="SF450000" unicode="&#x2567;" horiz-adv-x="314" 
d="M276 22v-22h-256v22h48v464h-48v22h208v-486h48zM66 626c0 22.667 8 42 24 58s35.333 24 58 24s42 -8 58 -24s24 -35.333 24 -58s-8 -42 -24 -58s-35.333 -24 -58 -24s-42 8 -58 24s-24 35.333 -24 58z" />
    <glyph glyph-name="SF460000" unicode="&#x2568;" horiz-adv-x="314" 
d="M276 22v-22h-256v22h48v464h-48v22h208v-486h48z" />
    <glyph glyph-name="SF400000" unicode="&#x2569;" horiz-adv-x="498" 
d="M537 254c0 -78 -22 -142 -66 -192c-46 -52 -107.333 -78 -184 -78s-138 26 -184 78c-44 50 -66 114 -66 192c0 78.667 21.667 142.667 65 192c46 52 107.667 78 185 78s139 -26 185 -78c43.333 -49.333 65 -113.333 65 -192zM219 254c0 -94 3 -157 9 -189
c7.33301 -39.333 27 -59 59 -59s51.667 19.667 59 59c6 32 9 95 9 189s-3 157 -9 189c-7.33301 39.333 -27 59 -59 59s-51.667 -19.667 -59 -59c-6 -32 -9 -95 -9 -189z" />
    <glyph glyph-name="SF540000" unicode="&#x256a;" horiz-adv-x="557" 
d="M70 142v344h-48v22h208v-407c0 -46 13.667 -69 41 -69c48.667 0 73 52 73 156v298h-30v22h190v-486h48v-22h-199v77h-2c-10 -28 -28.5 -50.5 -55.5 -67.5s-55.833 -25.5 -86.5 -25.5c-92.667 0 -139 52.667 -139 158z" />
    <glyph glyph-name="SF530000" unicode="&#x256b;" horiz-adv-x="497" 
d="M-16 508h270v-22h-57l105 -289h2l100 289h-82v22h138v-22h-32l-199 -577c-22.667 -66 -57 -99 -103 -99c-34.667 0 -63.667 8 -87 24v181h28l30 -79c11.333 -30.667 18 -47.667 20 -51c12 -24.667 24 -37 36 -37c20 0 39.667 28.667 59 86l18 53l-214 499h-32v22z" />
    <glyph glyph-name="circle" unicode="&#x25cb;" horiz-adv-x="718" 
d="M323 990h106l119 -180h-68l-104 97l-104 -97h-68zM326 998l-59.999 0.000976562l113 141c14 17.333 24.333 28.666 31 33.999c12.667 10 27 15 43 15c14.667 0 27.5 -4.5 38.5 -13.5s16.5 -20.833 16.5 -35.5c0 -21.333 -12 -39.333 -36 -54
c-32.667 -19.333 -81.334 -48.333 -146.001 -87z" />
    <glyph glyph-name="H18533" unicode="&#x25cf;" horiz-adv-x="718" 
d="M323 990h106l119 -180h-68l-104 97l-104 -97h-68zM543 999l-59.999 -0.000976562c-32.667 19.333 -81.334 48.333 -146.001 87c-24 14.667 -36 32.667 -36 54c0 14.667 5.5 26.5 16.5 35.5s23.833 13.5 38.5 13.5c16 0 30.333 -5 43 -15
c6.66699 -5.33301 17 -16.666 31 -33.999z" />
    <glyph glyph-name="invbullet" unicode="&#x25d8;" horiz-adv-x="718" 
d="M323 990h106l119 -180h-68l-104 97l-104 -97h-68zM614 903c6 18.667 9.66602 40.001 10.999 64.001c0.666992 7.33301 3.33398 11.666 8.00098 12.999c1.33301 0 4 0.333008 8 1c44.667 7.33301 67 25.333 67 54c0 23.333 -9.33301 35 -28 35
c-3.33301 0 -8 -0.333008 -14 -1s-10.667 -1 -14 -1c-14 0 -21 6 -21 18c0 18.667 10.667 28 32 28c30.667 0 55.667 -8 75 -24c20.667 -18 29.667 -42 27 -72c-4 -39.333 -33 -66.333 -87 -81c-16.667 -4.66699 -27 -16 -31 -34h-33z" />
    <glyph glyph-name="invcircle" unicode="&#x25d9;" horiz-adv-x="718" 
d="M323 990h106l119 -180h-68l-104 97l-104 -97h-68zM556 1152h45c-6 -35.333 -17.667 -65 -35 -89c-21.333 -30 -48 -45 -80 -45c-18 0 -44.167 8.66699 -78.5 26s-57.5 26 -69.5 26c-22.667 0 -39 -16 -49 -48h-44c18 89.333 56 134 114 134
c13.333 0 39.333 -8.66699 78 -26s62.667 -26 72 -26c21.333 0 37 16 47 48z" />
    <glyph glyph-name="fi" unicode="&#xf001;" horiz-adv-x="630" 
d="M298 0h-276v22h46v464h-48v22h48v8c0 128 61 192 183 192c43.333 0 83.333 -7.66699 120 -23v-131h-28l-39 93c-12 26 -27 39 -45 39c-20.667 0 -31 -16.333 -31 -49v-129h102v-22h-102v-464h70v-22zM610 22v-22h-256v22h48v464h-48v22h208v-486h48zM400 626
c0 22.667 8 42 24 58s35.333 24 58 24s42 -8 58 -24s24 -35.333 24 -58s-8 -42 -24 -58s-35.333 -24 -58 -24s-42 8 -58 24s-24 35.333 -24 58z" />
    <glyph glyph-name="fl" unicode="&#xf002;" horiz-adv-x="630" 
d="M298 0h-275.999v22h46v464h-48v22h48v8c0 128 61 192 183 192c37.333 0 71.666 -5.66699 102.999 -17v1h208v-670h48v-22h-256v22h48v648h-31v-116h-28l-39 93c-12 26 -27 39 -45 39c-20.667 0 -31 -16.333 -31 -49v-129h102v-22h-102v-464h70v-22z" />
    <glyph glyph-name=".null" horiz-adv-x="0" 
 />
    <glyph glyph-name="nonmarkingreturn" horiz-adv-x="305" 
 />
    <glyph glyph-name="periodcentered" horiz-adv-x="305" 
d="M152 334c22.667 0 41.667 -7.66699 57 -23s23 -34.333 23 -57s-7.66699 -41.667 -23 -57s-34.333 -23 -57 -23s-41.667 7.66699 -57 23s-23 34.333 -23 57s7.66699 41.667 23 57s34.333 23 57 23z" />
    <glyph glyph-name="glyph231" horiz-adv-x="305" 
 />
    <glyph glyph-name="glyph232" horiz-adv-x="305" 
 />
    <glyph glyph-name="glyph258" horiz-adv-x="278" 
 />
    <glyph glyph-name="glyph259" horiz-adv-x="278" 
 />
    <glyph glyph-name="glyph275" horiz-adv-x="249" 
 />
    <glyph glyph-name="glyph276" horiz-adv-x="249" 
 />
    <glyph glyph-name="glyph261" horiz-adv-x="500" 
d="M253 522c6 18.667 9.66602 40.001 10.999 64.001c0.666992 7.33301 3.33398 11.666 8.00098 12.999c1.33301 0 4 0.333008 8 1c44.667 7.33301 67 25.333 67 54c0 23.333 -9.33301 35 -28 35c-3.33301 0 -8 -0.333008 -14 -1s-10.667 -1 -14 -1c-14 0 -21 6 -21 18
c0 18.667 10.667 28 32 28c30.667 0 55.667 -8 75 -24c20.667 -18 29.667 -42 27 -72c-4 -39.333 -33 -66.333 -87 -81c-16.667 -4.66699 -27 -16 -31 -34h-33z" />
    <glyph glyph-name="glyph262" horiz-adv-x="541" 
d="M120 758h106l119 -180h-68l-104 97l-104 -97h-68zM122 767l-59.999 0.000976562l113 141c14 17.333 24.333 28.666 31 33.999c12.667 10 27 15 43 15c14.667 0 27.5 -4.5 38.5 -13.5s16.5 -20.833 16.5 -35.5c0 -21.333 -12 -39.333 -36 -54
c-32.667 -19.333 -81.334 -48.333 -146.001 -87z" />
    <glyph glyph-name="glyph263" horiz-adv-x="541" 
d="M120 758h106l119 -180h-68l-104 97l-104 -97h-68zM340 767l-59.999 -0.000976562c-32.667 19.333 -81.334 48.333 -146.001 87c-24 14.667 -36 32.667 -36 54c0 14.667 5.5 26.5 16.5 35.5s23.833 13.5 38.5 13.5c16 0 30.333 -5 43 -15
c6.66699 -5.33301 17 -16.666 31 -33.999z" />
    </font>
</defs>
</svg>
